<?xml version="1.0" encoding="utf-8"?>
<!-- Generator: Adobe Illustrator 26.3.1, SVG Export Plug-In . SVG Version: 6.00 Build 0)  -->
<svg version="1.1" id="Capa_1" xmlns="http://www.w3.org/2000/svg" xmlns:xlink="http://www.w3.org/1999/xlink" x="0px" y="0px"
	 viewBox="0 0 100 100" style="enable-background:new 0 0 100 100;" xml:space="preserve">
<g>
	<g id="XMLID_21656_">
		<g id="XMLID_21662_">
			<path d="M13.51,48.82c0.05,0,0.1,0.64,0.16,1.87c0.05,1.23,0.1,3.04,0.15,5.38c0.01,0.78,0.03,1.62,0.05,2.52
				c0.03,0.9,0.06,1.85,0.04,2.86c-0.14,1.01,0.26,2.07,0.04,3.19c-0.06,1.12,0,2.29,0.04,3.51c0.05,1.22-0.09,2.49,0.04,3.81
				c0.27,1.32-0.3,2.69,0.04,4.11c0.07,1.42,0.05,2.88,0.04,4.39c-0.21,1.51,0,3.06,0.04,4.66c-0.25,1.6-0.14,3.24,0.03,4.91
				c-0.03,0.15-0.06,0.29-0.08,0.44l-0.03,0.22l-0.02,0.11l-0.01,0.06c-0.04,0.15-0.06,0.33-0.08,0.51
				c0.15,0.01,0.31,0.02,0.48,0.01c0.12,0,0.24-0.01,0.36-0.01c0.14-0.01,0.28-0.01,0.42-0.03c0.56-0.04,1.13-0.12,1.71-0.22
				c1.76-0.01,3.56,0.12,5.39-0.03c1.83-0.02,3.71-0.09,5.61-0.03c1.91-0.23,3.85-0.22,5.82-0.02c1.97-0.25,3.98-0.15,6.02-0.02
				c2.04,0.14,4.11-0.22,6.2-0.02c2.1,0.01,4.22-0.06,6.38-0.02c2.15,0.1,4.33,0.21,6.54-0.01c2.21-0.06,4.43-0.14,6.68-0.01
				c2.25-0.26,4.52-0.15,6.82-0.01c2.29-0.04,4.61,0.14,6.94,0c1.17,0.02,2.34-0.01,3.51-0.03c0.59-0.01,1.18-0.02,1.77-0.02l0.44,0
				l0.22,0l0.11,0c0.01,0,0.01,0,0.02,0c0.03,0.01,0.08,0.02,0.13,0.03l0,0c0.01-0.03,0.02-0.07,0.03-0.12c0-0.01,0-0.01,0-0.02
				l0-0.11l0.01-0.22l0.01-0.44c0.02-0.59,0.03-1.18,0.03-1.77c0.01-1.17-0.01-2.35-0.09-3.51c-0.17-2.33,0.07-4.65,0-6.94
				c0.25-2.29-0.08-4.57,0.01-6.82c-0.02-2.25,0.14-4.48,0.01-6.69c-0.05-2.2-0.09-4.38,0.01-6.53c-0.38-2.15,0.1-4.28,0.02-6.38
				c0.03-0.43,0.05-0.86,0.06-1.28l0.01-0.38c0-0.06,0-0.11,0-0.17c-0.08,0-0.17,0.01-0.24,0.02c-0.29,0.01-0.57,0.01-0.85,0.02
				c-0.61,0.01-1.21,0.02-1.82,0.01c-2.04,0.07-4.05-0.18-6.02-0.02c-1.97-0.03-3.92,0.12-5.82-0.02c-1.91,0.19-3.78-0.16-5.61-0.03
				c-1.83,0-3.63,0.01-5.39-0.03c-1.76-0.3-3.48-0.05-5.16-0.03c-1.68-0.03-3.32,0.17-4.91-0.03c-1.6-0.02-3.15-0.15-4.66-0.04
				c-1.51,0.04-2.97-0.43-4.39-0.04c-1.42,0.07-2.79-0.3-4.11-0.04c-1.32,0.24-2.59-0.03-3.81-0.04c-1.22-0.02-2.39-0.03-3.51-0.04
				c-5.03-0.06-8.98-0.13-11.68-0.21c-1.35-0.04-2.38-0.07-3.08-0.11c-0.7-0.04-1.06-0.08-1.06-0.12c0-0.05,0.45-0.09,1.3-0.13
				c0.86-0.04,2.13-0.08,3.78-0.12c3.3-0.08,8.13-0.16,14.24-0.22c1.22-0.01,2.49-0.22,3.81-0.04c1.32,0,2.69-0.16,4.11-0.04
				c1.42-0.27,2.88-0.05,4.39-0.04c1.51-0.01,3.06,0.07,4.66-0.04c1.6-0.16,3.24,0.08,4.91-0.03c1.68,0.17,3.4,0.12,5.16-0.03
				c1.76,0.16,3.56-0.04,5.39-0.03c1.83,0.25,3.71,0.08,5.61-0.03c1.91-0.09,3.85,0.04,5.82-0.02c1.97,0.05,3.98-0.06,6.02-0.02
				c0.6-0.04,1.21-0.06,1.81-0.08L85,47.91l0.53-0.01c0.59,0,1.17,0,1.76-0.01c0,0.41-0.01,0.82-0.01,1.22l-0.01,0.61l-0.01,0.35
				c-0.01,0.43-0.04,0.85-0.07,1.28c0.08,2.1,0.02,4.22,0.02,6.38c0.1,2.15-0.01,4.33,0.01,6.53c0.05,2.21-0.27,4.43,0.01,6.69
				c0.04,2.25-0.04,4.52,0.01,6.82c-0.03,2.29-0.07,4.61,0,6.94c-0.14,1.17-0.16,2.34-0.14,3.51c0.01,0.59,0.03,1.18,0.06,1.77
				l0.02,0.44l0.01,0.22l0.01,0.11l0.01,0.2c0.01,0.56,0.03,1.12,0.04,1.68v0c-0.89,0.01-1.77,0.03-2.65,0.04
				c-0.59,0.01-1.18,0.01-1.77,0c-1.18,0-2.35-0.03-3.51-0.04c-2.33,0.03-4.65,0.01-6.94-0.01c-2.29,0.08-4.57-0.12-6.82-0.01
				c-2.25,0.12-4.48-0.13-6.68-0.01c-2.2,0.08-4.38,0.12-6.54-0.01c-2.15,0-4.28-0.25-6.38-0.02c-2.1,0.05-4.17,0.37-6.2-0.02
				c-2.04,0.1-4.04-0.19-6.02-0.02c-1.97-0.28-3.92-0.01-5.82-0.02c-1.91-0.05-3.78-0.15-5.61-0.03c-1.83,0.13-3.63-0.07-5.39-0.03
				c-0.57,0.05-1.14,0.05-1.71,0.03l-0.42-0.02l-0.21-0.01l-0.14-0.01l-0.18-0.01c-0.46-0.02-0.92-0.03-1.37-0.04
				c0.01-0.5,0.02-0.99,0.02-1.47l0-0.18l0-0.11l-0.01-0.22c-0.01-0.15-0.02-0.29-0.04-0.44c0.04-1.68-0.02-3.32,0.03-4.91
				c-0.38-1.6,0-3.15,0.03-4.66c0.05-1.51-0.25-2.97,0.04-4.39c-0.29-1.42-0.04-2.79,0.04-4.11c0.08-1.32-0.12-2.59,0.04-3.81
				c-0.2-1.22,0.11-2.39,0.04-3.51c0.13-1.12,0.01-2.18,0.04-3.19c-0.05-1.01-0.03-1.96,0.04-2.86c0.02-0.9,0.03-1.74,0.05-2.52
				c0.05-2.34,0.1-4.15,0.15-5.38C13.4,49.46,13.46,48.82,13.51,48.82z"/>
		</g>
		<g id="XMLID_21661_">
			<path d="M54.4,21.39c0.02,0.02-0.04,0.09-0.15,0.19c-0.06,0.05-0.13,0.12-0.22,0.19c-0.09,0.07-0.2,0.15-0.33,0.23
				c-0.51,0.33-1.33,0.77-2.5,1.01c-0.2,0.03-0.4,0.06-0.61,0.1c-0.21,0.02-0.43,0.03-0.66,0.05c-0.23,0-0.47,0.02-0.71,0
				c-0.12-0.01-0.25-0.02-0.37-0.03c-0.06-0.01-0.13-0.02-0.19-0.02c-0.06-0.01-0.12-0.03-0.19-0.04c-0.12-0.06-0.25-0.09-0.38-0.1
				c-0.13-0.02-0.27-0.03-0.41-0.04c-0.28-0.01-0.57-0.08-0.8-0.28c-0.13-0.07-0.25-0.14-0.39-0.2c-0.07-0.03-0.13-0.06-0.2-0.09
				l-0.1-0.05l-0.09-0.04c-0.16-0.07-0.31-0.14-0.43-0.19l-0.02-0.01c-0.01,0-0.01,0.02-0.01,0.02l-0.03,0.06
				c-0.02,0.04-0.04,0.07-0.06,0.1c-0.04,0.07-0.09,0.13-0.13,0.2l-0.04,0.05l-0.05,0.08c-0.04,0.07-0.08,0.13-0.12,0.21
				c-0.07,0.14-0.14,0.29-0.19,0.44c-0.09,0.7-0.92,0.99-0.97,1.76c-0.28,0.64-0.66,1.25-1.04,1.88c-0.55,0.54-0.75,1.3-1.11,1.99
				c-0.61,0.55-0.92,1.3-1.17,2.1c-0.71,0.54-1.08,1.29-1.24,2.2c-0.42,0.75-0.98,1.45-1.29,2.3c-0.43,0.79-0.83,1.61-1.35,2.39
				c-0.27,0.92-0.75,1.74-1.4,2.48c-0.27,0.96-0.84,1.76-1.45,2.56c-0.62,0.79-0.82,1.85-1.5,2.64c-0.26,0.44-0.51,0.89-0.76,1.35
				c-0.13,0.23-0.25,0.46-0.38,0.68l-0.1,0.17l-0.01,0.02l-0.01,0.01c-0.01,0.02-0.03,0.04-0.04,0.06C31.1,47.88,31,47.98,30.9,48.1
				c0.06,0.02,0.17,0.03,0.28,0.02c0.06-0.01,0.11-0.02,0.16-0.04c0.01-0.01,0.02-0.01,0.03-0.02c0.01,0,0-0.01,0.02-0.01l0.06-0.01
				c0.09-0.01,0.17-0.03,0.26-0.05c1.08-0.06,2.17-0.14,3.27-0.01c1.1-0.26,2.21-0.15,3.34-0.01c1.12-0.04,2.26,0.14,3.4,0
				c1.14,0.04,2.29-0.12,3.45,0c1.16,0.08,2.31,0.16,3.45,0c1.14-0.17,2.28,0.07,3.4,0c1.12,0.25,2.24-0.08,3.34,0.01
				c1.1-0.02,2.19,0.14,3.27,0.01c1.08-0.05,2.14-0.09,3.2,0.01c1.05-0.38,2.09,0.1,3.12,0.01c1.03,0.16,2.04-0.02,3.04,0.02
				c0.09-0.01,0.19-0.01,0.28-0.01h0.14h0.07c0.02,0,0.01,0,0.02,0c0.04,0,0.08,0.02,0.13,0.03c0.1,0.02,0.25,0.06,0.36,0.06
				c-0.04-0.06-0.09-0.14-0.18-0.2c-0.02-0.05-0.05-0.1-0.09-0.15l-0.03-0.03l-0.01-0.02l-0.04-0.07l-0.19-0.3
				c-0.25-0.4-0.49-0.81-0.66-1.25c-0.63-0.71-0.79-1.68-1.35-2.39c-0.45-0.78-0.9-1.54-1.3-2.3c-0.17-0.89-0.81-1.5-1.23-2.2
				c-0.38-0.73-0.96-1.32-1.17-2.1c-0.37-0.69-0.64-1.41-1.11-1.99c-0.41-0.62-0.35-1.47-1.04-1.88c-0.41-0.57-0.42-1.33-0.97-1.76
				c-0.53-0.44-0.61-1.12-0.9-1.64c-0.29-0.52-0.56-1.03-0.82-1.51c-2.35-4.33-3.63-6.84-3.49-6.92c0.08-0.04,0.58,0.67,1.46,2.03
				c0.88,1.36,2.12,3.37,3.68,5.92c0.31,0.51,0.8,0.95,0.97,1.6c0.32,0.56,0.8,1.06,1.04,1.72c0.58,0.46,0.75,1.2,1.11,1.84
				c0.38,0.63,0.68,1.33,1.17,1.96c0.53,0.6,0.72,1.41,1.23,2.07c0.26,0.8,0.72,1.5,1.29,2.17c0.29,0.83,0.9,1.49,1.34,2.27
				c0.23,0.9,0.84,1.61,1.4,2.37c0.27,0.38,0.5,0.79,0.73,1.21L70,46.87c0.09,0.17,0.19,0.33,0.28,0.5
				c0.21,0.37,0.42,0.73,0.66,1.11c0.2,0.37,0.41,0.73,0.63,1.11c-0.64,0-1.28,0.02-1.94,0.03c-0.34,0-0.67,0.01-1.01,0.01l-0.33,0
				L68,49.62c-1,0.12-2.01,0.16-3.04,0.02c-1.03,0.08-2.07,0.02-3.12,0.02c-1.05,0.1-2.12-0.01-3.2,0.01
				c-1.08,0.05-2.17-0.27-3.27,0.01c-1.1,0.04-2.22-0.04-3.34,0.01c-1.12-0.04-2.26-0.07-3.4,0c-1.14-0.28-2.29-0.11-3.45,0
				c-1.16,0.08-2.31,0.04-3.45,0c-1.14,0.03-2.28,0.01-3.4,0c-1.12,0.08-2.24-0.12-3.34-0.01c-1.1,0.12-2.19-0.13-3.27-0.01
				l-0.26,0.02l-0.06,0l-0.11,0l-0.25,0.01c-0.33,0.01-0.66,0.02-0.99,0.03c-0.67,0.01-1.34,0.02-1.98,0.01
				c0.39-0.65,0.79-1.31,1.2-1.91c0.12-0.21,0.25-0.42,0.37-0.63l0.18-0.3l0.11-0.16c0.15-0.22,0.3-0.43,0.44-0.65
				c0.29-0.43,0.55-0.88,0.71-1.38c0.47-0.92,0.7-1.95,1.53-2.62c0.42-0.91,1.15-1.62,1.49-2.54c0.73-0.7,0.97-1.65,1.44-2.46
				c0.51-0.78,1.05-1.53,1.4-2.37c0.33-0.84,0.95-1.5,1.34-2.27c0.29-0.83,1.03-1.37,1.29-2.17c0.44-0.69,0.79-1.42,1.23-2.07
				c0.06-0.87,0.77-1.33,1.17-1.96c0.42-0.61,0.51-1.39,1.11-1.84c0.1-0.74,0.65-1.2,1.04-1.72c0.1-0.13,0.18-0.27,0.26-0.41
				c0.09-0.17,0.17-0.34,0.26-0.5c0.11-0.21,0.23-0.43,0.35-0.63c0.06-0.1,0.12-0.2,0.18-0.28c0.03-0.04,0.06-0.09,0.09-0.13
				l0.02-0.03c0.01-0.01,0.01-0.03,0.03-0.01l0.08,0.06c0.35,0.1,0.77,0.4,1.12,0.66c0.05,0.04,0.07,0.05,0.1,0.08l0.08,0.06
				c0.05,0.04,0.11,0.08,0.17,0.11c0.11,0.07,0.23,0.13,0.35,0.17c0.22,0.15,0.45,0.25,0.7,0.3c0.12,0.03,0.24,0.06,0.36,0.08
				c0.12,0.02,0.23,0.04,0.35,0.07c0.06,0.01,0.12,0.01,0.17,0.02c0.06,0,0.12,0.01,0.17,0.01c0.11,0.01,0.22,0.02,0.33,0.04
				c0.22,0.03,0.43,0.05,0.64,0.1c0.21,0,0.41,0,0.61,0c0.2-0.01,0.39-0.03,0.57-0.04c1.09-0.14,1.91-0.45,2.45-0.69
				c0.13-0.06,0.26-0.11,0.35-0.16c0.1-0.05,0.19-0.09,0.26-0.12C54.31,21.39,54.39,21.37,54.4,21.39z"/>
		</g>
		<g id="XMLID_21660_">
			<path d="M49.95,7.4c0,0.05-0.13,0.11-0.38,0.18c-0.12,0.04-0.28,0.06-0.46,0.1c-0.18,0.05-0.38,0.11-0.61,0.17
				c-0.15,0.05-0.31,0.11-0.48,0.17c-0.08,0.04-0.17,0.07-0.26,0.1c-0.09,0.04-0.18,0.08-0.27,0.11c-0.24-0.06-0.29,0.37-0.57,0.28
				c-0.11,0.02-0.21,0.07-0.31,0.13c-0.05,0.03-0.1,0.06-0.15,0.1c-0.04,0.04-0.09,0.08-0.13,0.12c-0.18,0.17-0.48,0.17-0.6,0.44
				c-0.02,0.19-0.17,0.2-0.32,0.23c-0.15,0.03-0.29,0.09-0.27,0.3c-0.08,0.12-0.18,0.22-0.27,0.33c-0.09,0.11-0.2,0.21-0.3,0.31
				c-0.18,0.04-0.27,0.16-0.34,0.3c-0.06,0.14-0.11,0.29-0.18,0.43c-0.37,0.13-0.47,0.46-0.43,0.84c-0.11,0.03-0.2,0.08-0.28,0.14
				c-0.07,0.06-0.12,0.13-0.14,0.21c-0.05,0.16-0.02,0.36,0.08,0.57c-0.05,0.16-0.11,0.32-0.17,0.48c-0.03,0.08-0.05,0.16-0.06,0.25
				c-0.01,0.09,0,0.18,0.03,0.27c-0.01,0.17-0.03,0.35-0.03,0.53c0,0.18,0,0.35-0.04,0.53c0.05,0.09,0.1,0.18,0.13,0.27
				c0.03,0.09,0.05,0.18,0.06,0.27c0.01,0.09,0,0.18-0.02,0.27c-0.01,0.09-0.04,0.19-0.07,0.29c0.07,0.08,0.13,0.17,0.17,0.25
				c0.02,0.04,0.03,0.09,0.04,0.13c0.02,0.04,0.03,0.09,0.04,0.13c0.04,0.18,0.03,0.38,0.02,0.58c0,0.2,0.12,0.37,0.23,0.53
				c0.11,0.16,0.24,0.31,0.24,0.53c0.02,0.04,0.04,0.09,0.06,0.13c0.02,0.04,0.05,0.08,0.08,0.12c0.06,0.08,0.11,0.16,0.17,0.25
				c0.1,0.17,0.24,0.32,0.34,0.49c0.04,0.1,0.08,0.19,0.13,0.29c0.05,0.09,0.11,0.18,0.17,0.26c0.07,0.08,0.14,0.16,0.22,0.22
				c0.08,0.06,0.19,0.1,0.31,0.13c0.17,0.12,0.34,0.23,0.52,0.34c0.17,0.11,0.32,0.26,0.47,0.41c0.49,0,0.78,0.28,1.13,0.57
				c0.1,0.03,0.2,0.07,0.3,0.11c0.1,0.04,0.19,0.1,0.29,0.13c0.2,0.07,0.41,0.15,0.64,0.12c0.21,0.05,0.43,0.06,0.65,0.07
				c0.22-0.01,0.44-0.01,0.66,0.06c0.22,0.03,0.44,0.06,0.67,0.05c0.22-0.01,0.44-0.08,0.64-0.18c0.2-0.12,0.4-0.17,0.62-0.19
				c0.11-0.01,0.21-0.03,0.32-0.06c0.1-0.03,0.21-0.06,0.3-0.11c0.12,0.02,0.23,0,0.33-0.04c0.1-0.04,0.19-0.1,0.28-0.17l0.13-0.1
				c0.04-0.04,0.08-0.07,0.12-0.11c0.08-0.07,0.17-0.12,0.27-0.16c0.18-0.11,0.36-0.22,0.54-0.32c0.19-0.1,0.34-0.24,0.45-0.43
				c0.07-0.08,0.14-0.15,0.2-0.23c0.06-0.08,0.12-0.16,0.19-0.24c0.07-0.08,0.13-0.15,0.21-0.22c0.07-0.07,0.14-0.14,0.22-0.21
				c-0.03-0.27,0.11-0.41,0.25-0.55c0.08-0.07,0.16-0.13,0.24-0.2c0.04-0.04,0.07-0.07,0.1-0.11c0.03-0.04,0.04-0.09,0.06-0.14
				c0.15-0.14,0.24-0.32,0.3-0.51c0.05-0.19,0.08-0.38,0.17-0.56c0.02-0.19,0.1-0.37,0.19-0.54c0.02-0.04,0.04-0.09,0.06-0.13
				c0.01-0.05,0.02-0.09,0.03-0.14c0.01-0.09,0.02-0.19-0.01-0.29c0.02-0.09,0.03-0.18,0.04-0.27c0-0.09-0.01-0.19-0.01-0.28
				c0-0.09,0-0.18,0.01-0.27c0.01-0.09,0.04-0.18,0.07-0.27c-0.11-0.18-0.07-0.35-0.04-0.53c0.04-0.18,0.05-0.36-0.04-0.53
				c-0.01-0.09-0.03-0.17-0.04-0.26c-0.02-0.08-0.04-0.17-0.06-0.25c-0.04-0.16-0.07-0.33-0.11-0.5c0.08-0.2,0.04-0.37-0.05-0.52
				c-0.04-0.08-0.09-0.14-0.15-0.21c-0.06-0.06-0.11-0.13-0.15-0.2c-0.1-0.32-0.45-0.47-0.43-0.84c-0.07-0.14-0.14-0.28-0.21-0.41
				c-0.07-0.13-0.16-0.26-0.31-0.32c-0.11-0.09-0.13-0.27-0.18-0.42c-0.05-0.15-0.15-0.26-0.39-0.21c-0.13-0.06-0.17-0.22-0.24-0.34
				c-0.08-0.12-0.17-0.22-0.35-0.19c-0.34,0.04-0.4-0.3-0.6-0.44c-0.05-0.03-0.1-0.07-0.15-0.1c-0.05-0.03-0.1-0.06-0.15-0.09
				c-0.1-0.06-0.2-0.11-0.3-0.16c-0.88-0.47-1.65-0.68-2.19-0.82C50.25,7.56,49.95,7.48,49.95,7.4c0-0.04,0.09-0.08,0.28-0.12
				c0.09-0.02,0.21-0.03,0.34-0.05c0.07-0.01,0.14-0.02,0.22-0.02c0.08,0,0.16,0,0.25,0.01c0.71,0.01,1.79,0.17,3,0.8
				c0.23,0.13,0.6,0.1,0.73,0.43c0.12,0.09,0.26,0.15,0.4,0.22c0.14,0.08,0.25,0.18,0.33,0.33c0.21,0.01,0.35,0.1,0.44,0.24
				c0.1,0.14,0.17,0.3,0.27,0.43c0.12,0.12,0.21,0.27,0.31,0.41c0.1,0.15,0.21,0.28,0.36,0.4c0.32,0.23,0.33,0.66,0.58,0.95
				c0,0.1,0.02,0.2,0.04,0.3c0.03,0.09,0.06,0.18,0.1,0.27c0.08,0.18,0.19,0.34,0.33,0.51c-0.01,0.21,0.04,0.41,0.12,0.6
				c0.04,0.09,0.08,0.19,0.12,0.29c0.03,0.1,0.06,0.2,0.07,0.3c-0.1,0.23-0.07,0.43-0.03,0.64c0.04,0.21,0.12,0.42,0.18,0.64
				c0.03,0.11,0.03,0.22,0.03,0.33c0,0.11-0.01,0.22-0.03,0.33c-0.01,0.11-0.02,0.22-0.04,0.33c-0.02,0.11-0.03,0.22-0.03,0.34
				c-0.03,0.11-0.05,0.22-0.06,0.34l-0.02,0.17L58.22,17c-0.04,0.23-0.08,0.46-0.17,0.68c-0.02,0.24-0.07,0.48-0.14,0.71
				c-0.08,0.23-0.22,0.43-0.39,0.62c-0.02,0.06-0.04,0.12-0.06,0.18c-0.02,0.05-0.05,0.11-0.08,0.16c-0.06,0.11-0.12,0.21-0.19,0.32
				c-0.13,0.21-0.29,0.4-0.44,0.6c-0.05,0.11-0.12,0.22-0.19,0.33c-0.08,0.1-0.17,0.19-0.26,0.28l-0.27,0.27
				c-0.09,0.09-0.19,0.17-0.28,0.26c-0.17,0.19-0.4,0.32-0.64,0.43c-0.23,0.12-0.43,0.27-0.58,0.52c-0.42,0.32-0.93,0.48-1.4,0.73
				l-0.39,0.11c-0.13,0.04-0.25,0.08-0.39,0.11c-0.26,0.06-0.52,0.15-0.78,0.24c-0.29-0.1-0.56-0.08-0.82-0.03
				c-0.27,0.04-0.53,0.12-0.81,0.18c-0.28,0.03-0.55,0.02-0.83,0c-0.27-0.04-0.54-0.1-0.8-0.16c-0.27-0.04-0.53-0.11-0.79-0.18
				c-0.13-0.03-0.25-0.09-0.38-0.13l-0.37-0.15c-0.14-0.02-0.26-0.08-0.38-0.14c-0.12-0.06-0.23-0.13-0.34-0.2l-0.17-0.1
				c-0.05-0.04-0.11-0.08-0.16-0.11c-0.11-0.07-0.23-0.13-0.35-0.17c-0.26-0.08-0.44-0.28-0.63-0.45c-0.19-0.17-0.36-0.37-0.58-0.5
				c-0.11-0.07-0.22-0.14-0.32-0.22c-0.09-0.08-0.19-0.17-0.27-0.27c-0.09-0.09-0.17-0.19-0.24-0.29c-0.07-0.11-0.12-0.22-0.17-0.34
				c-0.15-0.2-0.25-0.43-0.34-0.66c-0.05-0.11-0.1-0.22-0.17-0.32c-0.04-0.05-0.07-0.1-0.12-0.14c-0.04-0.05-0.09-0.09-0.14-0.13
				c-0.13-0.21-0.32-0.38-0.45-0.59c-0.12-0.21-0.19-0.45-0.08-0.73c-0.11-0.21-0.12-0.46-0.14-0.68c0-0.06-0.01-0.12-0.02-0.17
				c0-0.06-0.01-0.12-0.01-0.17c-0.02-0.11-0.04-0.22-0.1-0.33c0.05-0.12,0.07-0.24,0.07-0.35c0.01-0.11,0-0.22-0.03-0.33
				c-0.02-0.11-0.05-0.22-0.07-0.33c-0.02-0.11-0.05-0.22-0.04-0.33c0.04-0.22,0.09-0.43,0.11-0.64c0.03-0.21,0.07-0.42,0.03-0.63
				c-0.02-0.11-0.01-0.22,0-0.32c0.02-0.1,0.06-0.2,0.1-0.3c0.08-0.19,0.16-0.38,0.21-0.58c-0.01-0.21,0.11-0.39,0.23-0.55
				c0.05-0.08,0.12-0.16,0.17-0.25c0.05-0.08,0.08-0.17,0.08-0.28c0.18-0.33,0.34-0.67,0.58-0.95c-0.06-0.26,0.06-0.4,0.21-0.51
				c0.15-0.11,0.33-0.19,0.46-0.3c0.13-0.11,0.2-0.27,0.29-0.42c0.09-0.15,0.22-0.26,0.43-0.26c0.02-0.21,0.13-0.33,0.28-0.4
				c0.15-0.07,0.32-0.09,0.46-0.15c0.27-0.12,0.42-0.42,0.73-0.43c0.03-0.08,0.08-0.13,0.14-0.17c0.06-0.03,0.13-0.04,0.2-0.05
				c0.14-0.02,0.28-0.02,0.37-0.1c0.27,0.01,0.45-0.18,0.67-0.22c0.1-0.06,0.2-0.1,0.3-0.13c0.1-0.02,0.21-0.02,0.31-0.01
				c0.19-0.03,0.37-0.07,0.54-0.09c0.26-0.02,0.48-0.03,0.68-0.03c0.2,0,0.36,0.03,0.49,0.04C49.81,7.3,49.95,7.34,49.95,7.4z"/>
		</g>
		<g id="XMLID_21659_">
			<path d="M49.96,62.48c-0.05,0.02-0.2-0.16-0.44-0.52c-0.26-0.35-0.6-0.89-1.12-1.52c-0.17-0.21-0.37-0.42-0.58-0.63
				c-0.12-0.1-0.23-0.2-0.36-0.3c-0.13-0.09-0.24-0.21-0.38-0.31c-0.09-0.15-0.27-0.21-0.45-0.25c-0.09-0.02-0.17-0.05-0.25-0.08
				c-0.08-0.03-0.15-0.08-0.21-0.17c-0.07-0.06-0.16-0.1-0.25-0.13c-0.09-0.04-0.18-0.07-0.27-0.09c-0.1-0.02-0.19-0.04-0.29-0.05
				l-0.15-0.02l-0.15-0.01c-0.1-0.01-0.2-0.02-0.3-0.05c-0.1-0.02-0.21-0.03-0.31-0.05c-0.21-0.04-0.43-0.04-0.65,0.01
				c-0.22,0.13-0.43,0.08-0.66,0.02c-0.11-0.02-0.23-0.03-0.35-0.02c-0.11,0.02-0.23,0.05-0.32,0.17c-0.21,0.1-0.44,0.15-0.66,0.25
				c-0.11,0.04-0.22,0.08-0.33,0.12c-0.11,0.05-0.22,0.1-0.33,0.15c-0.07,0-0.13,0.01-0.19,0.03c-0.06,0.02-0.12,0.04-0.17,0.07
				c-0.11,0.06-0.22,0.13-0.32,0.21c-0.18,0.18-0.36,0.37-0.53,0.56c-0.13,0.04-0.27,0.09-0.37,0.18c-0.1,0.08-0.2,0.18-0.28,0.28
				c-0.08,0.11-0.14,0.23-0.2,0.36c-0.03,0.06-0.05,0.13-0.08,0.19c-0.02,0.07-0.04,0.14-0.05,0.21c-0.59,0.27-0.79,0.89-0.62,1.51
				c-0.03,0.14-0.08,0.27-0.11,0.41c-0.03,0.14-0.06,0.28-0.09,0.42c-0.03,0.14-0.03,0.29-0.03,0.43c0,0.07,0,0.15,0.01,0.22
				c0.01,0.08,0.03,0.15,0.05,0.23c0.04,0.6,0.17,1.21,0.26,1.84c0.37,0.57,0.54,1.16,0.61,1.85c0.47,0.53,0.68,1.16,0.9,1.84
				c0.22,0.68,0.89,1.1,1.13,1.81c0.39,0.61,0.88,1.17,1.31,1.78c0.38,0.65,0.78,1.32,1.45,1.76c0.55,0.55,1.13,1.08,1.57,1.75
				c0.73,0.4,1.19,1.06,1.66,1.75c0.59,0.55,1.03,1.27,1.72,1.75c0.28,0.31,0.59,0.58,0.9,0.87l0.12,0.11
				c0.03,0.03,0.09,0.09,0.08,0.08c0.01,0.01,0.02,0.01,0.03,0.02c0.01,0.02,0.02,0.04,0.05,0.1c0.02,0.01,0.05,0,0.09-0.01
				c0.02-0.01,0.04-0.02,0.06-0.03c0,0.01,0.05-0.04,0.09-0.08l0.11-0.11c0.3-0.29,0.58-0.6,0.82-0.95
				c0.46-0.71,1.21-1.13,1.72-1.75c0.74-0.42,1.06-1.22,1.66-1.75c0.52-0.6,1.16-1.08,1.57-1.75c0.47-0.62,0.91-1.23,1.46-1.76
				c0.16-0.82,0.97-1.13,1.31-1.78c0.54-0.51,0.76-1.22,1.13-1.81c0.27-0.64,0.79-1.15,0.9-1.84c0.28-0.61,0.32-1.27,0.61-1.85
				c-0.01-0.17,0-0.32,0.04-0.47c0.03-0.15,0.07-0.3,0.12-0.45c0.08-0.3,0.17-0.61,0.1-0.91l0.01-0.23c0-0.07-0.01-0.14-0.01-0.22
				c-0.01-0.14-0.01-0.29-0.03-0.43c-0.02-0.14-0.04-0.28-0.06-0.42c-0.01-0.14-0.05-0.27-0.08-0.41c0.02-0.08,0.03-0.15,0.03-0.23
				c0-0.07-0.01-0.14-0.03-0.21c-0.03-0.14-0.08-0.27-0.15-0.39c-0.07-0.12-0.15-0.23-0.23-0.35C61.1,61.3,61,61.2,60.93,61.09
				c-0.03-0.06-0.07-0.12-0.1-0.17c-0.04-0.05-0.08-0.1-0.13-0.15c-0.09-0.1-0.17-0.2-0.27-0.29c-0.1-0.09-0.19-0.18-0.26-0.28
				c-0.08-0.11-0.16-0.2-0.22-0.33c-0.17-0.19-0.36-0.36-0.55-0.53c-0.1-0.08-0.21-0.14-0.31-0.21c-0.05-0.03-0.11-0.06-0.17-0.08
				c-0.06-0.02-0.12-0.04-0.18-0.05c-0.12-0.04-0.21-0.12-0.31-0.2c-0.1-0.08-0.2-0.15-0.3-0.23c-0.2-0.15-0.45-0.22-0.71-0.09
				c-0.11-0.02-0.23-0.03-0.33-0.07c-0.11-0.04-0.22-0.09-0.32-0.13c-0.22-0.06-0.45-0.11-0.67,0.03c-0.22,0.13-0.43,0.12-0.64,0.11
				c-0.11-0.01-0.21-0.03-0.32-0.04c-0.1,0-0.21,0-0.31,0.01l-0.15,0.02l-0.14,0.03c-0.1,0.02-0.19,0.04-0.28,0.06
				c-0.09,0.03-0.18,0.06-0.27,0.09c-0.09,0.03-0.18,0.06-0.26,0.1c-0.09,0.04-0.19,0.08-0.28,0.12c-0.09,0.05-0.17,0.09-0.26,0.14
				c-0.09,0.04-0.17,0.1-0.25,0.15c-0.08,0.05-0.16,0.1-0.23,0.16c-0.3,0.23-0.56,0.46-0.79,0.7c-0.46,0.48-0.81,0.95-1.08,1.33
				c-0.54,0.78-0.83,1.21-0.9,1.17c-0.07-0.04,0.1-0.65,0.66-1.72c0.29-0.52,0.68-1.17,1.32-1.81c0.32-0.32,0.71-0.63,1.16-0.9
				c0.46-0.26,0.99-0.46,1.56-0.6c0.12-0.03,0.23-0.06,0.34-0.1c0.12-0.04,0.23-0.07,0.35-0.09c0.24-0.06,0.49-0.07,0.74,0.01
				c0.25,0,0.51-0.02,0.78-0.03c0.13,0,0.27,0.02,0.4,0.04c0.13,0.03,0.27,0.05,0.4,0.12c0.29-0.06,0.59-0.02,0.85,0.11
				c0.13,0.06,0.26,0.13,0.39,0.2c0.12,0.08,0.25,0.16,0.38,0.23c0.07,0.03,0.13,0.06,0.2,0.1l0.19,0.12
				c0.13,0.08,0.25,0.16,0.38,0.25c0.24,0.19,0.49,0.35,0.75,0.53c0.14,0.08,0.28,0.17,0.38,0.29c0.11,0.12,0.21,0.24,0.31,0.37
				c0.1,0.13,0.18,0.27,0.27,0.4c0.05,0.07,0.1,0.13,0.15,0.2c0.05,0.07,0.1,0.13,0.15,0.2c0.22,0.64,0.5,1.22,0.84,1.85
				c0,0.18,0.04,0.35,0.06,0.52c0.02,0.17,0.06,0.34,0.1,0.52c0.04,0.17,0.06,0.35,0.08,0.53c0.01,0.09,0.02,0.18,0.03,0.27
				c0,0.09,0,0.18,0,0.26c-0.13,0.35-0.19,0.69-0.2,1.04c-0.01,0.18-0.02,0.36-0.02,0.54c-0.01,0.18-0.02,0.36-0.03,0.54
				c-0.07,0.73-0.42,1.39-0.63,2.1c-0.31,0.67-0.54,1.39-0.94,2.03c-0.26,0.72-0.62,1.4-1.17,1.96c-0.36,0.68-0.87,1.27-1.35,1.89
				c-0.4,0.68-0.99,1.22-1.49,1.84c-0.48,0.64-1.25,1.02-1.59,1.8c-0.52,0.62-1.14,1.16-1.67,1.79c-0.59,0.57-1.2,1.13-1.73,1.78
				c-0.39,0.2-0.7,0.48-0.98,0.79c-0.47,0.53-0.94,1.07-1.41,1.61c-0.28-0.25-0.57-0.52-0.86-0.8l-0.43-0.42l-0.25-0.26
				c-0.29-0.3-0.57-0.61-0.85-0.92c-0.6-0.57-1.17-1.17-1.73-1.78c-0.63-0.54-1.04-1.27-1.67-1.79c-0.63-0.52-0.99-1.28-1.59-1.81
				c-0.58-0.55-1.11-1.14-1.48-1.84c-0.48-0.62-0.73-1.39-1.35-1.89c-0.47-0.6-1.14-1.1-1.17-1.96c-0.45-0.62-0.52-1.41-0.94-2.03
				c-0.01-0.19-0.03-0.38-0.08-0.56c-0.05-0.18-0.11-0.35-0.18-0.52c-0.14-0.33-0.29-0.67-0.37-1.02c-0.11-0.72-0.1-1.43-0.24-2.12
				c-0.02-0.09-0.03-0.18-0.04-0.26c-0.01-0.09,0-0.18,0-0.27c0.01-0.18,0.02-0.36,0.06-0.54c0.04-0.17,0.08-0.35,0.12-0.52
				c0.04-0.17,0.1-0.34,0.12-0.51c0-0.09,0.01-0.18,0.03-0.26c0.02-0.08,0.05-0.17,0.09-0.25c0.07-0.16,0.14-0.31,0.24-0.46
				c0.1-0.14,0.19-0.28,0.27-0.43c0.08-0.15,0.16-0.29,0.21-0.45l0.14-0.2l0.15-0.2c0.1-0.13,0.19-0.27,0.29-0.39
				c0.11-0.12,0.21-0.24,0.32-0.36c0.11-0.12,0.24-0.21,0.36-0.31c0.1-0.36,0.37-0.55,0.65-0.69c0.14-0.06,0.3-0.11,0.44-0.16
				c0.07-0.02,0.15-0.05,0.21-0.08c0.07-0.03,0.14-0.05,0.21-0.08c0.14-0.05,0.27-0.12,0.39-0.2c0.13-0.07,0.26-0.14,0.39-0.21
				c0.25-0.14,0.54-0.2,0.84-0.13c0.12-0.11,0.25-0.16,0.38-0.2c0.13-0.03,0.27-0.05,0.41-0.05c0.27,0.02,0.54,0.08,0.79,0.12
				c0.25,0.05,0.49,0.02,0.74,0.03c0.12,0,0.24,0,0.36,0.03c0.12,0.03,0.23,0.07,0.34,0.13c0.06-0.01,0.12-0.02,0.18-0.02
				c0.06,0,0.12,0.02,0.17,0.03c0.11,0.03,0.22,0.08,0.32,0.13c0.1,0.06,0.2,0.12,0.3,0.18c0.1,0.05,0.2,0.1,0.3,0.13
				c0.08,0.08,0.17,0.14,0.26,0.19c0.09,0.05,0.18,0.11,0.27,0.16c0.18,0.09,0.36,0.19,0.5,0.32c0.17,0.09,0.31,0.22,0.44,0.34
				c0.13,0.13,0.23,0.27,0.32,0.42c0.21,0.26,0.4,0.51,0.56,0.75c0.47,0.72,0.74,1.32,0.91,1.73
				C49.95,62.23,50.01,62.46,49.96,62.48z"/>
		</g>
		<g id="XMLID_21658_">
			<path d="M65.95,53.75c0,0.11-0.35,0.21-1,0.3c-0.11,0.01-0.22,0.03-0.35,0.05c-0.12,0.03-0.26,0.06-0.39,0.04
				c-0.14-0.14-0.29,0.26-0.44,0.04c-0.16-0.06-0.32-0.01-0.49,0.04c-0.17,0.05-0.34-0.09-0.53,0.04c-0.18,0.27-0.37-0.3-0.57,0.04
				c-0.2,0.07-0.4,0.05-0.61,0.04c-0.21-0.21-0.42,0-0.64,0.04c-0.22-0.25-0.45-0.14-0.68,0.03c-0.23-0.34-0.47-0.29-0.71,0.03
				c-0.24,0.01-0.49-0.12-0.75,0.03c-0.25,0.02-0.51,0.09-0.78,0.03c-0.26,0.23-0.53,0.22-0.8,0.02c-0.27,0.25-0.55,0.15-0.83,0.02
				c-0.28-0.14-0.57,0.22-0.86,0.02c-0.29-0.01-0.58,0.06-0.88,0.02c-0.3-0.1-0.6-0.22-0.9,0.01c-0.3,0.06-0.61,0.14-0.92,0.01
				c-0.31,0.26-0.63,0.15-0.94,0.01c-0.32,0.04-0.64-0.14-0.96,0c-0.32-0.04-0.65,0.12-0.98,0c-0.33-0.08-0.65-0.16-0.97,0
				c-0.32,0.17-0.64-0.07-0.96,0c-0.32-0.25-0.63,0.08-0.94-0.01c-0.31,0.02-0.62-0.14-0.92-0.01c-0.3,0.04-0.61,0.09-0.9-0.01
				c-0.3,0.38-0.59-0.1-0.88-0.02c-0.29-0.16-0.58,0.02-0.86-0.02c-0.28,0.07-0.56-0.17-0.83-0.02c-0.27-0.03-0.54,0.12-0.8-0.02
				c-0.26,0.19-0.52-0.16-0.78-0.03c-0.25,0-0.5,0.01-0.74-0.03c-0.24-0.3-0.48-0.05-0.71-0.03c-0.23-0.03-0.46,0.17-0.68-0.03
				c-0.22-0.02-0.44-0.15-0.64-0.04c-0.21,0.04-0.41-0.43-0.61-0.04c-0.2,0.07-0.38-0.3-0.57-0.04c-0.18,0.24-0.36-0.03-0.53-0.04
				c-0.17-0.02-0.33-0.03-0.48-0.04c-1.39-0.13-2.18-0.28-2.18-0.44c0-0.18,0.98-0.34,2.67-0.48c0.17-0.01,0.34-0.22,0.53-0.04
				c0.18,0,0.37-0.16,0.57-0.04c0.19-0.27,0.4-0.05,0.61-0.04c0.21-0.01,0.42,0.08,0.64-0.04c0.22-0.16,0.45,0.08,0.68-0.03
				c0.23,0.17,0.47,0.12,0.71-0.03c0.24,0.16,0.49-0.04,0.74-0.03c0.25,0.25,0.51,0.08,0.78-0.03c0.26-0.09,0.53,0.04,0.8-0.02
				c0.27,0.05,0.55-0.07,0.83-0.02c0.28-0.12,0.57-0.16,0.86-0.02c0.29-0.08,0.58-0.02,0.88-0.02c0.3-0.1,0.6,0.01,0.9-0.01
				c0.3-0.05,0.61,0.27,0.92-0.01c0.31-0.04,0.63,0.04,0.94-0.01c0.32,0.04,0.64,0.07,0.96,0c0.32,0.28,0.65,0.11,0.97,0
				c0.33-0.08,0.65-0.04,0.98,0c0.32-0.03,0.64-0.01,0.96,0c0.32-0.08,0.63,0.12,0.94,0.01c0.31-0.12,0.62,0.13,0.92,0.01
				c0.3-0.08,0.6-0.12,0.9,0.01c0.3,0,0.59,0.25,0.88,0.02c0.29-0.05,0.58-0.37,0.86,0.02c0.28-0.1,0.56,0.19,0.83,0.02
				c0.27,0.28,0.54,0.01,0.8,0.02c0.26,0.05,0.52,0.15,0.78,0.03c0.25-0.13,0.5,0.07,0.75,0.03c0.24-0.16,0.48,0.21,0.71,0.03
				c0.23,0.04,0.46-0.03,0.68,0.03c0.22-0.38,0.43,0,0.64,0.04c0.21,0.06,0.41-0.25,0.61,0.04c0.2-0.29,0.39-0.04,0.57,0.04
				c0.18,0.08,0.36-0.12,0.53,0.04c0.17-0.2,0.33,0.11,0.49,0.04c0.15,0.13,0.3,0.01,0.44,0.04c0.14-0.05,0.27-0.03,0.39,0.05
				c0.12,0.02,0.24,0.03,0.35,0.05C65.59,53.55,65.95,53.65,65.95,53.75z"/>
		</g>
		<g id="XMLID_21657_">
			<path d="M65.95,86.82c0,0.11-0.35,0.21-1,0.3c-0.11,0.02-0.22,0.03-0.35,0.05c-0.12,0.03-0.26,0.06-0.39,0.04
				c-0.14-0.14-0.29,0.26-0.44,0.04c-0.16-0.06-0.32,0-0.49,0.04c-0.17,0.05-0.34-0.09-0.53,0.04c-0.18,0.27-0.37-0.3-0.57,0.04
				c-0.2,0.07-0.4,0.05-0.61,0.04c-0.21-0.21-0.42,0-0.64,0.04c-0.22-0.25-0.45-0.14-0.68,0.03c-0.23-0.34-0.47-0.29-0.71,0.03
				c-0.24,0.01-0.49-0.12-0.75,0.03c-0.25,0.02-0.51,0.09-0.78,0.03c-0.26,0.23-0.53,0.22-0.8,0.02c-0.27,0.25-0.55,0.15-0.83,0.02
				c-0.28-0.14-0.57,0.22-0.86,0.02c-0.29-0.01-0.58,0.06-0.88,0.02c-0.3-0.1-0.6-0.21-0.9,0.01c-0.3,0.06-0.61,0.14-0.92,0.01
				c-0.31,0.26-0.63,0.15-0.94,0.01c-0.32,0.04-0.64-0.14-0.96,0c-0.32-0.04-0.65,0.12-0.98,0c-0.33-0.08-0.65-0.16-0.97,0
				c-0.32,0.17-0.64-0.07-0.96,0c-0.32-0.25-0.63,0.08-0.94-0.01c-0.31,0.02-0.62-0.14-0.92-0.01c-0.3,0.04-0.61,0.09-0.9-0.01
				c-0.3,0.38-0.59-0.1-0.88-0.02c-0.29-0.16-0.58,0.02-0.86-0.02c-0.28,0.07-0.56-0.17-0.83-0.02c-0.27-0.03-0.54,0.12-0.8-0.02
				c-0.26,0.19-0.52-0.16-0.78-0.03c-0.25,0-0.5,0.01-0.74-0.03c-0.24-0.3-0.48-0.05-0.71-0.03c-0.23-0.03-0.46,0.17-0.68-0.03
				c-0.22-0.02-0.44-0.15-0.64-0.04c-0.21,0.04-0.41-0.43-0.61-0.04c-0.2,0.07-0.38-0.3-0.57-0.04c-0.18,0.24-0.36-0.03-0.53-0.04
				c-0.17-0.01-0.33-0.03-0.48-0.04c-1.39-0.13-2.18-0.28-2.18-0.44c0-0.18,0.98-0.34,2.67-0.48c0.17-0.01,0.34-0.22,0.53-0.04
				c0.18,0,0.37-0.16,0.57-0.04c0.19-0.27,0.4-0.05,0.61-0.04c0.21-0.01,0.42,0.08,0.64-0.04c0.22-0.16,0.45,0.08,0.68-0.03
				c0.23,0.17,0.47,0.12,0.71-0.03c0.24,0.16,0.49-0.04,0.74-0.03c0.25,0.25,0.51,0.08,0.78-0.03c0.26-0.09,0.53,0.04,0.8-0.02
				c0.27,0.05,0.55-0.06,0.83-0.02c0.28-0.12,0.57-0.16,0.86-0.02c0.29-0.08,0.58-0.02,0.88-0.02c0.3-0.1,0.6,0.01,0.9-0.01
				c0.3-0.05,0.61,0.27,0.92-0.01c0.31-0.04,0.63,0.04,0.94-0.01c0.32,0.04,0.64,0.07,0.96,0c0.32,0.28,0.65,0.11,0.97,0
				c0.33-0.08,0.65-0.04,0.98,0c0.32-0.03,0.64-0.01,0.96,0c0.32-0.08,0.63,0.12,0.94,0.01c0.31-0.12,0.62,0.13,0.92,0.01
				c0.3-0.08,0.6-0.12,0.9,0.01c0.3,0,0.59,0.25,0.88,0.02c0.29-0.05,0.58-0.37,0.86,0.02c0.28-0.1,0.56,0.19,0.83,0.02
				c0.27,0.28,0.54,0.01,0.8,0.02c0.26,0.06,0.52,0.15,0.78,0.03c0.25-0.13,0.5,0.07,0.75,0.03c0.24-0.16,0.48,0.21,0.71,0.03
				c0.23,0.04,0.46-0.02,0.68,0.03c0.22-0.38,0.43,0,0.64,0.04c0.21,0.05,0.41-0.25,0.61,0.04c0.2-0.29,0.39-0.04,0.57,0.04
				c0.18,0.08,0.36-0.12,0.53,0.04c0.17-0.2,0.33,0.11,0.49,0.04c0.15,0.13,0.3,0.01,0.44,0.04c0.14-0.04,0.27-0.03,0.39,0.04
				c0.12,0.02,0.24,0.03,0.35,0.05C65.59,86.61,65.95,86.72,65.95,86.82z"/>
		</g>
	</g>
</g>
</svg>
