<?xml version="1.0" encoding="utf-8"?>
<!-- Generator: Adobe Illustrator 26.3.1, SVG Export Plug-In . SVG Version: 6.00 Build 0)  -->
<svg version="1.1" id="Capa_1" xmlns="http://www.w3.org/2000/svg" xmlns:xlink="http://www.w3.org/1999/xlink" x="0px" y="0px"
	 viewBox="0 0 100 100" style="enable-background:new 0 0 100 100;" xml:space="preserve">
<g>
	<g id="XMLID_21934_">
		<g id="XMLID_21965_">
			<path d="M66.58,63.03c-0.05,0.02-0.19-0.15-0.43-0.5c-0.25-0.34-0.59-0.87-1.09-1.48c-0.17-0.2-0.36-0.41-0.57-0.62
				c-0.12-0.09-0.23-0.2-0.35-0.29c-0.12-0.09-0.24-0.2-0.37-0.3c-0.09-0.15-0.26-0.2-0.44-0.24c-0.09-0.02-0.17-0.04-0.25-0.08
				c-0.08-0.03-0.15-0.08-0.21-0.17c-0.07-0.06-0.15-0.1-0.24-0.13c-0.08-0.03-0.17-0.06-0.26-0.09c-0.09-0.02-0.19-0.03-0.28-0.05
				l-0.14-0.02l-0.15-0.01c-0.1-0.01-0.2-0.02-0.29-0.04c-0.1-0.02-0.2-0.03-0.3-0.05c-0.2-0.04-0.42-0.04-0.63,0.01
				c-0.22,0.13-0.42,0.08-0.65,0.02c-0.11-0.02-0.22-0.03-0.34-0.02c-0.11,0.02-0.22,0.05-0.31,0.17c-0.21,0.1-0.43,0.15-0.64,0.24
				c-0.11,0.04-0.22,0.08-0.33,0.12c-0.11,0.05-0.21,0.09-0.32,0.14c-0.07,0-0.13,0.01-0.19,0.03c-0.06,0.02-0.11,0.04-0.17,0.07
				c-0.11,0.06-0.21,0.12-0.31,0.2c-0.18,0.18-0.35,0.36-0.51,0.55c-0.13,0.04-0.26,0.09-0.36,0.17c-0.1,0.08-0.19,0.17-0.28,0.28
				c-0.08,0.1-0.13,0.23-0.19,0.35c-0.03,0.06-0.05,0.12-0.08,0.19c-0.02,0.07-0.03,0.13-0.05,0.2c-0.14,0.07-0.27,0.15-0.36,0.25
				c-0.09,0.1-0.17,0.22-0.22,0.35c-0.06,0.13-0.07,0.27-0.08,0.42c0,0.07,0,0.15,0.01,0.22c0.01,0.08,0.03,0.15,0.05,0.23
				c-0.03,0.13-0.08,0.26-0.11,0.4c-0.03,0.14-0.06,0.27-0.09,0.41c-0.02,0.14-0.02,0.28-0.03,0.42c0,0.07,0,0.14,0.01,0.21
				c0.01,0.07,0.03,0.15,0.05,0.22c0.04,0.59,0.17,1.17,0.25,1.79c0.36,0.55,0.54,1.13,0.59,1.81c0.46,0.51,0.66,1.13,0.88,1.79
				c0.21,0.67,0.87,1.08,1.1,1.77c0.38,0.6,0.86,1.14,1.28,1.74c0.37,0.64,0.76,1.29,1.42,1.72c0.54,0.53,1.11,1.04,1.53,1.7
				c0.72,0.39,1.17,1.04,1.62,1.7c0.58,0.54,1.01,1.24,1.68,1.71c0.27,0.3,0.58,0.57,0.88,0.84l0.11,0.1l0.06,0.05
				c0.01,0,0.01,0,0.01,0.01c0.01,0,0.02,0.01,0.02,0.02c0.01,0.02,0.02,0.04,0.04,0.1c0.02,0.01,0.05,0,0.09-0.01
				c0.02-0.01,0.04-0.02,0.06-0.03c0,0,0.01,0,0.02-0.01l0.06-0.05l0.11-0.11c0.29-0.28,0.57-0.58,0.8-0.92
				c0.45-0.69,1.18-1.1,1.68-1.71c0.73-0.4,1.03-1.2,1.62-1.7c0.5-0.58,1.14-1.05,1.53-1.7c0.46-0.6,0.89-1.21,1.42-1.72
				c0.15-0.8,0.95-1.1,1.28-1.74c0.53-0.5,0.74-1.19,1.1-1.76c0.26-0.63,0.78-1.12,0.88-1.79c0.27-0.6,0.31-1.24,0.59-1.81
				c-0.01-0.16,0-0.31,0.04-0.46c0.03-0.15,0.07-0.29,0.12-0.44c0.08-0.29,0.17-0.59,0.1-0.89l0.01-0.22c0-0.07-0.01-0.14-0.01-0.21
				c-0.01-0.14-0.01-0.28-0.03-0.42c-0.02-0.14-0.04-0.27-0.05-0.41c-0.01-0.14-0.05-0.27-0.07-0.4c0.02-0.07,0.03-0.15,0.03-0.22
				c0-0.07-0.01-0.14-0.03-0.21c-0.03-0.13-0.07-0.27-0.15-0.38c-0.07-0.12-0.15-0.23-0.23-0.34c-0.08-0.11-0.17-0.21-0.24-0.32
				c-0.03-0.06-0.06-0.11-0.1-0.17c-0.04-0.05-0.08-0.1-0.13-0.15c-0.09-0.09-0.17-0.19-0.26-0.28c-0.09-0.09-0.18-0.17-0.26-0.27
				c-0.07-0.1-0.16-0.19-0.21-0.32c-0.17-0.19-0.35-0.35-0.54-0.52c-0.1-0.08-0.2-0.14-0.3-0.2c-0.05-0.03-0.11-0.06-0.16-0.08
				c-0.06-0.02-0.12-0.04-0.18-0.05c-0.11-0.04-0.21-0.11-0.3-0.19c-0.1-0.07-0.19-0.15-0.29-0.22c-0.2-0.15-0.43-0.21-0.69-0.08
				c-0.11-0.02-0.22-0.03-0.32-0.07c-0.11-0.04-0.21-0.09-0.32-0.13c-0.21-0.06-0.44-0.11-0.65,0.03c-0.21,0.13-0.42,0.12-0.62,0.11
				c-0.1-0.01-0.21-0.03-0.31-0.04c-0.1-0.01-0.2-0.01-0.3,0.01l-0.14,0.02l-0.14,0.03c-0.09,0.02-0.18,0.04-0.28,0.06
				c-0.09,0.03-0.17,0.06-0.26,0.09c-0.09,0.03-0.17,0.05-0.25,0.09c-0.09,0.04-0.18,0.08-0.27,0.12c-0.08,0.05-0.17,0.09-0.25,0.14
				c-0.08,0.04-0.17,0.09-0.24,0.15c-0.08,0.05-0.15,0.1-0.23,0.15c-0.29,0.22-0.55,0.45-0.77,0.68c-0.45,0.47-0.79,0.92-1.06,1.3
				c-0.53,0.76-0.81,1.18-0.88,1.14c-0.07-0.04,0.1-0.64,0.64-1.68c0.29-0.51,0.66-1.14,1.29-1.77c0.31-0.31,0.69-0.61,1.13-0.88
				c0.45-0.26,0.97-0.46,1.53-0.59c0.11-0.02,0.22-0.06,0.34-0.1c0.11-0.04,0.23-0.07,0.34-0.09c0.24-0.06,0.48-0.07,0.72,0.01
				c0.24,0,0.5-0.02,0.76-0.03c0.13,0,0.26,0.02,0.39,0.04c0.13,0.03,0.26,0.05,0.39,0.12c0.29-0.06,0.58-0.02,0.83,0.11
				c0.13,0.06,0.26,0.13,0.38,0.2c0.12,0.08,0.24,0.16,0.37,0.22c0.07,0.03,0.13,0.06,0.2,0.09l0.18,0.12
				c0.12,0.08,0.25,0.16,0.37,0.24c0.23,0.19,0.48,0.35,0.74,0.52c0.14,0.08,0.27,0.16,0.38,0.28c0.11,0.11,0.21,0.24,0.3,0.36
				c0.09,0.13,0.17,0.27,0.27,0.4c0.04,0.07,0.09,0.13,0.15,0.19c0.05,0.07,0.09,0.13,0.15,0.19c0.21,0.63,0.49,1.19,0.82,1.81
				c0,0.18,0.04,0.34,0.06,0.51c0.02,0.17,0.06,0.34,0.1,0.51c0.04,0.17,0.06,0.34,0.08,0.52c0.01,0.09,0.02,0.18,0.03,0.26
				c0,0.08,0,0.17,0,0.26c-0.13,0.34-0.19,0.67-0.2,1.02c-0.01,0.17-0.01,0.35-0.01,0.52c-0.01,0.18-0.02,0.35-0.03,0.53
				c-0.07,0.71-0.41,1.36-0.62,2.05c-0.31,0.65-0.53,1.35-0.92,1.98c-0.25,0.7-0.61,1.37-1.15,1.91c-0.35,0.67-0.85,1.25-1.32,1.85
				c-0.39,0.66-0.97,1.19-1.45,1.8c-0.47,0.62-1.23,0.99-1.55,1.76c-0.51,0.6-1.11,1.13-1.63,1.74c-0.58,0.55-1.17,1.1-1.69,1.74
				c-0.38,0.19-0.69,0.46-0.96,0.77c-0.46,0.53-0.92,1.06-1.39,1.59c-0.27-0.24-0.55-0.51-0.84-0.78l-0.42-0.41l-0.26-0.27
				c-0.29-0.29-0.56-0.6-0.83-0.9c-0.59-0.56-1.15-1.15-1.69-1.73c-0.61-0.52-1.02-1.24-1.63-1.74c-0.62-0.5-0.96-1.25-1.55-1.76
				c-0.57-0.54-1.09-1.11-1.45-1.8c-0.47-0.6-0.71-1.36-1.32-1.85c-0.46-0.58-1.12-1.07-1.14-1.91c-0.44-0.61-0.5-1.38-0.92-1.98
				c-0.01-0.19-0.03-0.38-0.08-0.55c-0.05-0.17-0.11-0.34-0.18-0.5c-0.14-0.33-0.29-0.66-0.37-1c-0.11-0.7-0.09-1.4-0.24-2.07
				c-0.02-0.09-0.03-0.17-0.04-0.26c-0.01-0.09,0-0.18,0-0.27c0.01-0.18,0.02-0.35,0.06-0.53c0.04-0.17,0.08-0.34,0.12-0.51
				c0.04-0.17,0.09-0.33,0.12-0.5c0-0.09,0.01-0.17,0.03-0.26c0.02-0.08,0.05-0.16,0.09-0.24c0.07-0.16,0.14-0.31,0.24-0.45
				c0.09-0.14,0.19-0.28,0.27-0.42c0.08-0.14,0.16-0.28,0.2-0.44l0.13-0.2l0.15-0.19c0.1-0.13,0.18-0.26,0.29-0.38
				c0.1-0.12,0.21-0.23,0.32-0.35c0.1-0.12,0.23-0.21,0.35-0.3c0.09-0.36,0.36-0.54,0.63-0.68c0.14-0.06,0.29-0.1,0.43-0.15
				c0.07-0.02,0.14-0.05,0.21-0.07c0.07-0.02,0.14-0.04,0.21-0.07c0.13-0.05,0.26-0.12,0.38-0.2c0.13-0.07,0.25-0.14,0.38-0.2
				c0.25-0.14,0.53-0.2,0.82-0.13c0.11-0.11,0.24-0.15,0.37-0.19c0.13-0.04,0.26-0.05,0.4-0.05c0.27,0.03,0.53,0.08,0.77,0.13
				c0.24,0.05,0.48,0.02,0.72,0.03c0.12,0,0.24,0,0.35,0.03c0.12,0.02,0.23,0.06,0.33,0.12c0.06-0.01,0.12-0.02,0.18-0.02
				c0.06,0,0.12,0.01,0.17,0.03c0.11,0.03,0.21,0.08,0.32,0.13c0.1,0.06,0.19,0.12,0.29,0.17c0.1,0.05,0.19,0.1,0.3,0.13
				c0.08,0.08,0.17,0.14,0.25,0.19c0.09,0.05,0.17,0.11,0.26,0.15c0.18,0.09,0.35,0.19,0.49,0.31c0.17,0.09,0.3,0.21,0.44,0.33
				c0.13,0.12,0.23,0.27,0.32,0.41c0.21,0.25,0.39,0.5,0.54,0.73c0.46,0.71,0.72,1.29,0.88,1.69C66.57,62.78,66.62,63,66.58,63.03z"
				/>
		</g>
		<g id="XMLID_21949_">
			<path d="M7.87,31.39c-0.05,0-0.1-0.56-0.16-1.62c-0.05-1.06-0.1-2.64-0.15-4.67c-0.01-0.68-0.03-1.41-0.05-2.19
				c-0.03-0.78-0.06-1.61-0.04-2.48c0.14-0.88-0.26-1.8-0.04-2.77c0.03-0.41,0.03-0.84,0.02-1.27c-0.02-0.58-0.03-1.16-0.04-1.76
				c0.22-0.01,0.44-0.01,0.66-0.02c0.89-0.02,1.29,0,1.87,0.01c0.55,0.01,1.11,0.01,1.69-0.05c1.15-0.27,2.34,0.3,3.57-0.04
				c1.23-0.07,2.5-0.05,3.81-0.04c1.31,0.21,2.66,0,4.04-0.04c1.39,0.25,2.81,0.14,4.27-0.03c1.46,0.34,2.95,0.29,4.48-0.03
				c1.53-0.01,3.09,0.12,4.68-0.03c1.59-0.02,3.22-0.09,4.88-0.03c1.66-0.23,3.34-0.22,5.06-0.02c1.71-0.25,3.46-0.15,5.23-0.02
				c1.77,0.14,3.57-0.22,5.39-0.02c1.82,0.01,3.67-0.06,5.54-0.02c1.87,0.1,3.76,0.21,5.68-0.01c1.91-0.06,3.85-0.14,5.81-0.01
				c1.96-0.26,3.93-0.15,5.92-0.01c1.99-0.04,4,0.14,6.03,0c1.01,0.02,2.03-0.01,3.05-0.03c0.51-0.01,1.02-0.02,1.53-0.01
				c0.32,0,0.65,0.01,0.97,0.01c0.48,0.01,0.96,0.02,1.43,0.03v0c-0.01,0.48-0.02,0.96-0.03,1.44l-0.01,0.57l-0.01,0.39
				c-0.02,0.51-0.03,1.02-0.03,1.53c-0.01,1.02,0.01,2.04,0.09,3.05c0.17,2.03-0.07,4.04,0,6.03c-0.09,0.7-0.1,1.39-0.09,2.09
				c0.01,0.35,0.02,0.69,0.03,1.04c0.01,0.62,0.03,1.24,0.04,1.87c-0.53,0.01-1.08,0.02-1.62,0.02l-0.53,0
				c-0.15,0-0.29-0.01-0.44-0.01c-1.96,0.02-3.89-0.14-5.81-0.01c-1.91,0.04-3.81,0.09-5.68-0.01c-1.87,0.38-3.72-0.1-5.54-0.02
				c-1.82-0.16-3.62,0.02-5.39-0.02c-1.77,0.07-3.51-0.17-5.23-0.02c-1.71-0.03-3.4,0.12-5.06-0.02c-1.66,0.19-3.28-0.16-4.88-0.03
				c-1.59,0-3.16,0.01-4.68-0.03c-1.53-0.3-3.02-0.05-4.48-0.03C42.19,32,40.76,32.2,39.38,32c-1.39-0.02-2.74-0.15-4.05-0.04
				c-1.31,0.04-2.58-0.43-3.81-0.04c-1.23,0.07-2.42-0.3-3.57-0.04c-1.15,0.24-2.25-0.03-3.31-0.04c-1.06-0.01-2.08-0.03-3.05-0.04
				c-4.37-0.06-7.8-0.13-10.14-0.21c-2.34-0.07-3.59-0.15-3.59-0.23c0-0.09,1.55-0.17,4.41-0.25c2.87-0.08,7.07-0.16,12.37-0.22
				c1.06-0.01,2.16-0.22,3.31-0.04c1.15,0,2.34-0.16,3.57-0.04c1.23-0.27,2.5-0.05,3.81-0.04c1.31-0.01,2.66,0.08,4.05-0.04
				c1.39-0.16,2.81,0.08,4.27-0.03c1.46,0.17,2.96,0.12,4.48-0.03c1.53,0.16,3.09-0.04,4.68-0.03c1.59,0.25,3.22,0.08,4.88-0.03
				c1.66-0.09,3.34,0.04,5.06-0.02c1.71,0.05,3.46-0.07,5.23-0.02c1.77-0.12,3.57-0.16,5.39-0.02c1.82-0.08,3.67-0.02,5.54-0.02
				c1.87-0.1,3.76,0.01,5.68-0.01c1.92-0.05,3.85,0.27,5.81-0.01c0.26,0,0.52-0.01,0.79-0.01c0.04,0,0.07,0,0.11,0l0-0.06l0-0.03
				v-0.02c0-0.01,0,0.01,0-0.05c0-0.35,0-0.69,0.01-1.04c0-0.69,0-1.39-0.02-2.09c0.04-1.99,0.07-4,0-6.03
				c0.14-1.01,0.16-2.03,0.14-3.05c-0.01-0.51-0.03-1.02-0.06-1.53l-0.02-0.39l-0.01-0.1c0-0.03,0-0.08,0-0.07l-0.01-0.03
				c-0.01-0.04-0.03-0.07-0.04-0.08l0,0l-0.09,0.02l-0.02,0.01l-0.16,0l-0.39,0.01c-0.51,0.01-1.02,0.01-1.53,0
				c-1.02,0-2.04-0.03-3.05-0.05c-2.03,0.03-4.04,0.01-6.03,0c-1.99,0.08-3.97-0.12-5.92-0.01c-1.96,0.12-3.89-0.13-5.81-0.01
				c-1.92,0.08-3.81,0.12-5.68-0.01c-1.87,0-3.72-0.25-5.54-0.02c-1.82,0.05-3.62,0.37-5.39-0.02c-1.77,0.1-3.51-0.19-5.23-0.02
				c-1.71-0.28-3.4-0.01-5.06-0.02c-1.66-0.05-3.28-0.15-4.88-0.03c-1.59,0.13-3.16-0.07-4.68-0.03c-1.53,0.16-3.02-0.21-4.48-0.03
				c-1.46-0.04-2.88,0.02-4.27-0.03c-1.39,0.38-2.74,0-4.04-0.04c-1.31-0.05-2.58,0.25-3.81-0.04c-1.23,0.29-2.42,0.04-3.57-0.04
				c-0.57-0.04-1.14-0.01-1.69,0.01c-0.28,0.01-0.55,0.02-0.82,0.01c-0.34-0.01-0.37-0.02-0.54-0.06c-0.06,0.03-0.12,0.05-0.17,0.06
				c0.01,0.12,0.01,0.2,0,0.3c0,0.05-0.01,0.09-0.02,0.15c-0.01,0.11-0.02,0.22-0.03,0.32c-0.04,0.43-0.08,0.85-0.05,1.27
				c-0.13,0.97-0.01,1.89-0.04,2.77c0.04,0.88,0.03,1.7-0.04,2.48c-0.02,0.78-0.03,1.51-0.05,2.19c-0.05,2.04-0.09,3.61-0.15,4.67
				C7.97,30.83,7.92,31.39,7.87,31.39z"/>
		</g>
		<g id="XMLID_21948_">
			<path d="M16.58,21.31c0-0.12,0.26-0.18,0.55-0.46c0.05-0.05,0.1-0.1,0.15-0.16c0.04-0.07,0.08-0.14,0.16-0.19
				c0.08,0.02,0.07-0.06,0.06-0.13c-0.01-0.07-0.02-0.14,0.1-0.1c0.11-0.04,0.13-0.16,0.15-0.27c0.02-0.12,0.2-0.14,0.15-0.31
				c-0.09-0.12,0.01-0.13,0.09-0.16c0.09-0.03,0.17-0.06,0.05-0.19c-0.01-0.15,0.06-0.26,0.13-0.39c0.25-0.05,0.11-0.27,0.12-0.42
				c0.29-0.06,0.23-0.25,0.11-0.45c0.37-0.06,0.37-0.25,0.09-0.48c0.03-0.16,0.19-0.31,0.08-0.51c0.01-0.17-0.03-0.36,0.06-0.53
				c-0.21-0.21-0.17-0.38,0.04-0.55c-0.23-0.21-0.12-0.39,0.02-0.57c0.15-0.19-0.2-0.4,0-0.59c0.02-0.2-0.05-0.4-0.02-0.61
				c0.1-0.21,0.2-0.43-0.05-0.62c-0.08-0.21-0.18-0.4-0.07-0.63c-0.29-0.18-0.2-0.4-0.1-0.63c-0.08-0.2,0.06-0.45-0.13-0.63
				c-0.01-0.22-0.22-0.39-0.17-0.63c0.01-0.23,0.01-0.46-0.21-0.6c-0.23-0.13-0.1-0.4-0.25-0.55c0.06-0.14,0-0.22-0.09-0.28
				c-0.08-0.06-0.19-0.1-0.2-0.2c-0.12-0.12-0.12-0.37-0.32-0.37c-0.14-0.06-0.25-0.07-0.3-0.2c-0.05,0.08-0.08,0.12-0.1,0.12
				C16.64,9.03,16.63,9,16.62,8.97c-0.02-0.06-0.07-0.16-0.11-0.12c-0.05-0.07-0.11-0.05-0.15-0.02c-0.04,0.04-0.07,0.09-0.13,0.1
				C16.2,9,16.13,9,16.05,9.02c-0.07,0.02-0.15,0.06-0.14,0.16c-0.13,0.09-0.1,0.3-0.3,0.35c0.03,0.12-0.04,0.16-0.12,0.21
				c-0.08,0.05-0.17,0.09-0.15,0.2c-0.08,0.14-0.13,0.3-0.23,0.43c-0.34,0.04-0.17,0.28-0.2,0.43c-0.08,0.14,0.07,0.34-0.17,0.43
				c-0.06,0.14-0.23,0.25-0.15,0.42c0.01,0.15-0.48,0.19-0.12,0.4c0.04,0.14-0.35,0.21-0.11,0.38c0.22,0.16-0.07,0.24-0.09,0.36
				c-0.03,0.12-0.05,0.23-0.08,0.33c-0.23,0.96-0.35,1.54-0.52,1.54c-0.17,0-0.37-0.72-0.35-2c0-0.13-0.18-0.29,0.02-0.4
				c0.03-0.14-0.11-0.31,0.04-0.43c-0.24-0.2,0.01-0.31,0.06-0.46c0.03-0.16,0.15-0.29,0.09-0.49c-0.11-0.21,0.17-0.31,0.13-0.52
				c0.22-0.12,0.24-0.3,0.17-0.54c0.22-0.11,0.13-0.37,0.23-0.56c0.32-0.07,0.26-0.33,0.3-0.57c0.05-0.24,0.3-0.35,0.42-0.57
				c0.2-0.15,0.33-0.41,0.61-0.53c0.18-0.26,0.52-0.44,0.89-0.35c0.34-0.13,0.71-0.02,1.03,0.09c0.18,0.01,0.33,0.09,0.46,0.18
				c0.13,0.1,0.24,0.21,0.37,0.29c0.06,0.04,0.11,0.1,0.15,0.16c0.04,0.06,0.07,0.13,0.1,0.2c0.06,0.13,0.14,0.24,0.33,0.27
				c0.19,0.2,0.27,0.48,0.44,0.68c0.09,0.25,0.17,0.5,0.34,0.71c-0.16,0.34,0.09,0.52,0.26,0.74c0.15,0.23,0.18,0.49,0.2,0.74
				c0.08,0.24,0.12,0.49,0.15,0.74c0.12,0.23-0.04,0.5,0.1,0.72c0.15,0.23-0.07,0.49,0.06,0.71c0.1,0.23,0.15,0.46,0.02,0.7
				c0.01,0.23-0.24,0.45-0.01,0.67c0.05,0.22,0.36,0.46-0.04,0.66c0.09,0.22-0.21,0.41-0.07,0.64c-0.3,0.18-0.06,0.41-0.09,0.61
				c-0.08,0.2-0.21,0.37-0.12,0.59c0.1,0.22-0.15,0.37-0.14,0.56c0.11,0.22-0.29,0.31-0.17,0.53c-0.08,0.16-0.08,0.35-0.19,0.5
				c0.3,0.29-0.12,0.33-0.21,0.46c-0.11,0.13,0.1,0.4-0.23,0.42c0.19,0.27-0.11,0.3-0.25,0.38c-0.14,0.08-0.05,0.31-0.26,0.34
				c0.05,0.11-0.02,0.16-0.09,0.18c-0.08,0.03-0.16,0.04-0.18,0.11c-0.18,0.01-0.17,0.18-0.28,0.24c-0.05,0.11-0.15,0.18-0.28,0.18
				c-0.09,0.05-0.19,0.09-0.27,0.12c-0.27,0.09-0.49,0.1-0.64,0.07C16.65,21.41,16.58,21.36,16.58,21.31z"/>
		</g>
		<g id="XMLID_21947_">
			<path d="M33.29,21.31c0-0.12,0.26-0.18,0.55-0.46c0.05-0.05,0.1-0.1,0.15-0.16c0.05-0.07,0.08-0.14,0.16-0.19
				c0.08,0.02,0.07-0.06,0.06-0.13c-0.01-0.07-0.02-0.14,0.1-0.1c0.11-0.04,0.13-0.16,0.15-0.27c0.02-0.12,0.2-0.14,0.15-0.31
				c-0.09-0.12,0-0.13,0.09-0.16c0.09-0.03,0.17-0.06,0.05-0.19c-0.01-0.15,0.06-0.26,0.13-0.39c0.25-0.06,0.11-0.27,0.12-0.42
				c0.29-0.06,0.23-0.25,0.11-0.45c0.38-0.06,0.37-0.25,0.09-0.48c0.03-0.16,0.19-0.31,0.08-0.51c0.01-0.17-0.03-0.36,0.06-0.53
				c-0.2-0.21-0.17-0.38,0.04-0.55c-0.23-0.21-0.12-0.39,0.02-0.57c0.15-0.19-0.2-0.4,0-0.59c0.02-0.2-0.06-0.4-0.02-0.61
				c0.09-0.21,0.2-0.43-0.05-0.62c-0.08-0.21-0.18-0.4-0.07-0.63c-0.29-0.18-0.2-0.4-0.1-0.63c-0.08-0.2,0.06-0.45-0.13-0.63
				c-0.01-0.22-0.22-0.39-0.17-0.63c0.01-0.23,0.01-0.46-0.21-0.6c-0.23-0.13-0.1-0.4-0.25-0.55c0.06-0.14-0.01-0.22-0.09-0.28
				c-0.08-0.06-0.18-0.1-0.2-0.2c-0.12-0.12-0.12-0.37-0.32-0.37c-0.14-0.06-0.25-0.07-0.3-0.2c-0.05,0.08-0.08,0.12-0.1,0.12
				C33.36,9.03,33.35,9,33.33,8.97c-0.02-0.06-0.07-0.16-0.11-0.12c-0.05-0.07-0.11-0.05-0.15-0.02c-0.04,0.04-0.07,0.09-0.13,0.1
				C32.91,9,32.84,9,32.76,9.02c-0.07,0.02-0.15,0.06-0.14,0.16c-0.13,0.09-0.1,0.3-0.3,0.35c0.03,0.12-0.04,0.16-0.12,0.21
				c-0.08,0.05-0.17,0.09-0.15,0.2c-0.07,0.14-0.13,0.3-0.23,0.43c-0.34,0.04-0.17,0.28-0.2,0.43c-0.08,0.14,0.06,0.34-0.17,0.43
				c-0.06,0.14-0.23,0.25-0.15,0.42c0.01,0.15-0.48,0.19-0.12,0.4c0.04,0.14-0.35,0.21-0.11,0.38c0.22,0.16-0.07,0.24-0.09,0.36
				c-0.03,0.12-0.06,0.23-0.08,0.33c-0.23,0.96-0.35,1.54-0.52,1.54c-0.17,0-0.37-0.72-0.35-2c0-0.13-0.18-0.29,0.02-0.4
				c0.02-0.14-0.11-0.31,0.04-0.43c-0.24-0.2,0.01-0.31,0.06-0.46c0.03-0.16,0.15-0.29,0.09-0.49c-0.11-0.21,0.17-0.31,0.13-0.52
				c0.22-0.12,0.24-0.3,0.17-0.54c0.22-0.11,0.13-0.37,0.23-0.56c0.32-0.07,0.26-0.33,0.31-0.57c0.05-0.24,0.3-0.35,0.42-0.57
				c0.2-0.15,0.33-0.41,0.61-0.53c0.18-0.26,0.52-0.44,0.89-0.35c0.34-0.13,0.72-0.02,1.03,0.09c0.18,0.01,0.33,0.09,0.46,0.18
				c0.13,0.1,0.24,0.21,0.37,0.29c0.06,0.04,0.11,0.1,0.15,0.16c0.04,0.06,0.07,0.13,0.1,0.2c0.06,0.13,0.14,0.24,0.33,0.27
				c0.19,0.2,0.27,0.48,0.44,0.68c0.09,0.25,0.17,0.5,0.34,0.71c-0.16,0.34,0.08,0.52,0.26,0.74c0.16,0.23,0.18,0.49,0.2,0.74
				c0.08,0.24,0.12,0.49,0.15,0.74c0.12,0.23-0.04,0.5,0.1,0.72c0.15,0.23-0.07,0.49,0.06,0.71c0.1,0.23,0.15,0.46,0.02,0.7
				c0.01,0.23-0.24,0.45-0.01,0.67c0.05,0.22,0.36,0.46-0.04,0.66c0.08,0.22-0.21,0.41-0.07,0.64c-0.3,0.18-0.06,0.41-0.09,0.61
				c-0.08,0.2-0.21,0.37-0.12,0.59c0.09,0.22-0.15,0.37-0.15,0.56c0.11,0.22-0.29,0.31-0.17,0.53c-0.08,0.16-0.08,0.35-0.19,0.5
				c0.3,0.29-0.12,0.33-0.21,0.46c-0.11,0.13,0.1,0.4-0.23,0.42c0.19,0.27-0.11,0.3-0.24,0.38c-0.14,0.08-0.05,0.31-0.26,0.34
				c0.04,0.11-0.02,0.16-0.1,0.18c-0.08,0.03-0.16,0.04-0.18,0.11c-0.18,0.01-0.17,0.18-0.28,0.24c-0.05,0.11-0.15,0.18-0.28,0.18
				c-0.09,0.05-0.19,0.09-0.27,0.12c-0.27,0.09-0.49,0.1-0.64,0.07C33.36,21.41,33.29,21.36,33.29,21.31z"/>
		</g>
		<g id="XMLID_21946_">
			<path d="M50,21.31c0-0.12,0.26-0.18,0.55-0.46c0.05-0.05,0.1-0.1,0.15-0.16c0.04-0.07,0.08-0.14,0.16-0.19
				c0.08,0.02,0.07-0.06,0.06-0.13c-0.01-0.07-0.02-0.14,0.1-0.1c0.11-0.04,0.13-0.16,0.15-0.27c0.02-0.11,0.2-0.14,0.15-0.31
				c-0.09-0.12,0.01-0.13,0.09-0.16c0.09-0.02,0.17-0.06,0.05-0.19c-0.01-0.15,0.06-0.26,0.13-0.39c0.25-0.05,0.11-0.27,0.12-0.42
				c0.29-0.06,0.23-0.25,0.1-0.45c0.38-0.06,0.37-0.25,0.09-0.48c0.03-0.16,0.19-0.31,0.08-0.51c0.01-0.18-0.03-0.36,0.06-0.53
				c-0.2-0.21-0.17-0.38,0.04-0.55c-0.23-0.21-0.12-0.39,0.02-0.57c0.15-0.19-0.2-0.4,0-0.59c0.02-0.2-0.05-0.4-0.02-0.61
				c0.1-0.21,0.2-0.43-0.04-0.62c-0.08-0.21-0.18-0.4-0.07-0.63c-0.29-0.18-0.2-0.4-0.1-0.63c-0.08-0.2,0.06-0.45-0.13-0.63
				c-0.01-0.22-0.22-0.39-0.17-0.63c0.01-0.23,0.01-0.46-0.21-0.6c-0.23-0.13-0.1-0.4-0.25-0.55C51.15,9.8,51.08,9.72,51,9.66
				c-0.08-0.06-0.18-0.1-0.2-0.2c-0.12-0.12-0.12-0.37-0.32-0.37c-0.14-0.06-0.25-0.07-0.3-0.2c-0.05,0.08-0.08,0.12-0.1,0.12
				C50.06,9.03,50.05,9,50.04,8.97c-0.02-0.06-0.07-0.16-0.11-0.12c-0.05-0.07-0.11-0.06-0.15-0.02c-0.04,0.04-0.07,0.09-0.13,0.11
				C49.62,9,49.55,9,49.47,9.02c-0.07,0.02-0.15,0.06-0.14,0.16c-0.12,0.09-0.1,0.3-0.3,0.35c0.03,0.12-0.04,0.16-0.12,0.21
				c-0.08,0.05-0.17,0.09-0.15,0.2c-0.08,0.14-0.13,0.29-0.23,0.43c-0.34,0.04-0.17,0.28-0.2,0.43c-0.08,0.14,0.07,0.34-0.17,0.43
				c-0.07,0.14-0.23,0.25-0.15,0.42c0.01,0.15-0.49,0.19-0.12,0.4c0.04,0.14-0.35,0.21-0.11,0.38c0.22,0.16-0.07,0.24-0.09,0.36
				c-0.03,0.12-0.06,0.23-0.08,0.33c-0.23,0.96-0.35,1.54-0.52,1.54c-0.17,0-0.37-0.72-0.35-2c0-0.13-0.18-0.29,0.02-0.4
				c0.02-0.14-0.11-0.31,0.04-0.43c-0.24-0.2,0.01-0.31,0.06-0.46c0.03-0.16,0.15-0.29,0.09-0.49c-0.11-0.21,0.17-0.31,0.13-0.51
				c0.22-0.12,0.24-0.3,0.17-0.54c0.22-0.11,0.13-0.37,0.23-0.56c0.32-0.06,0.26-0.32,0.31-0.57c0.05-0.24,0.3-0.35,0.42-0.57
				c0.2-0.15,0.33-0.41,0.61-0.54c0.18-0.25,0.52-0.45,0.89-0.35c0.34-0.13,0.72-0.03,1.03,0.09c0.18,0.01,0.33,0.09,0.46,0.18
				c0.13,0.09,0.24,0.21,0.37,0.29c0.06,0.04,0.12,0.1,0.16,0.16c0.04,0.07,0.07,0.13,0.1,0.2c0.06,0.13,0.14,0.24,0.34,0.27
				c0.2,0.2,0.27,0.48,0.44,0.68c0.09,0.25,0.17,0.5,0.34,0.71c-0.16,0.34,0.08,0.52,0.26,0.74c0.16,0.22,0.18,0.49,0.2,0.74
				c0.08,0.24,0.12,0.49,0.15,0.74c0.12,0.23-0.04,0.5,0.1,0.72c0.15,0.23-0.07,0.49,0.06,0.71c0.1,0.23,0.15,0.46,0.02,0.69
				c0.01,0.23-0.24,0.45-0.01,0.68c0.05,0.22,0.36,0.46-0.04,0.66c0.09,0.22-0.21,0.41-0.07,0.63c-0.3,0.18-0.06,0.41-0.09,0.61
				c-0.08,0.19-0.21,0.37-0.12,0.59c0.09,0.22-0.15,0.37-0.15,0.56c0.12,0.22-0.29,0.31-0.17,0.53c-0.08,0.16-0.08,0.35-0.19,0.5
				c0.3,0.29-0.12,0.33-0.21,0.46c-0.11,0.13,0.1,0.4-0.23,0.42c0.19,0.27-0.11,0.3-0.25,0.38c-0.14,0.08-0.04,0.31-0.26,0.34
				c0.05,0.11-0.02,0.16-0.1,0.18c-0.08,0.03-0.16,0.04-0.18,0.11c-0.18,0.01-0.17,0.18-0.28,0.24c-0.05,0.11-0.15,0.18-0.28,0.18
				c-0.09,0.05-0.19,0.09-0.27,0.13c-0.27,0.09-0.49,0.1-0.64,0.07C50.07,21.41,50,21.36,50,21.31z"/>
		</g>
		<g id="XMLID_21945_">
			<path d="M66.71,21.31c0-0.12,0.26-0.18,0.55-0.46c0.05-0.05,0.1-0.1,0.15-0.16c0.05-0.07,0.09-0.14,0.16-0.19
				c0.08,0.02,0.07-0.06,0.06-0.13c-0.01-0.07-0.02-0.14,0.1-0.1c0.11-0.04,0.13-0.16,0.15-0.27c0.02-0.11,0.2-0.14,0.15-0.31
				c-0.09-0.12,0.01-0.13,0.09-0.16c0.09-0.02,0.17-0.06,0.05-0.19c-0.01-0.15,0.06-0.26,0.13-0.38c0.25-0.06,0.11-0.27,0.12-0.42
				c0.29-0.06,0.23-0.25,0.11-0.45c0.38-0.06,0.37-0.24,0.09-0.48c0.03-0.16,0.19-0.31,0.08-0.51c0.01-0.18-0.03-0.36,0.06-0.53
				c-0.2-0.21-0.17-0.38,0.04-0.55c-0.23-0.21-0.12-0.39,0.02-0.57c0.15-0.19-0.2-0.4,0-0.59c0.02-0.2-0.06-0.4-0.02-0.61
				c0.1-0.21,0.2-0.43-0.04-0.62c-0.08-0.21-0.18-0.4-0.07-0.63c-0.29-0.18-0.2-0.4-0.1-0.63c-0.08-0.2,0.06-0.45-0.13-0.63
				c-0.01-0.22-0.22-0.39-0.17-0.63c0.01-0.23,0.01-0.46-0.21-0.6c-0.23-0.13-0.1-0.4-0.25-0.55c0.06-0.14-0.01-0.22-0.09-0.28
				c-0.08-0.06-0.19-0.1-0.2-0.2c-0.12-0.12-0.12-0.37-0.32-0.36c-0.14-0.06-0.25-0.07-0.3-0.2c-0.06,0.08-0.08,0.12-0.1,0.12
				C66.77,9.03,66.76,9,66.75,8.97c-0.02-0.06-0.07-0.16-0.11-0.12c-0.05-0.07-0.11-0.05-0.15-0.02c-0.04,0.04-0.07,0.09-0.13,0.1
				C66.33,9,66.26,9,66.18,9.02c-0.07,0.02-0.15,0.06-0.14,0.16c-0.13,0.09-0.1,0.3-0.3,0.35c0.03,0.12-0.04,0.16-0.12,0.21
				c-0.08,0.05-0.17,0.09-0.15,0.2c-0.08,0.14-0.13,0.3-0.23,0.43c-0.34,0.04-0.17,0.28-0.2,0.43c-0.08,0.14,0.07,0.34-0.17,0.43
				c-0.06,0.14-0.23,0.25-0.15,0.42c0.01,0.15-0.48,0.19-0.12,0.4c0.04,0.14-0.35,0.21-0.11,0.38c0.22,0.16-0.07,0.24-0.09,0.36
				c-0.03,0.12-0.06,0.23-0.08,0.33c-0.23,0.96-0.35,1.54-0.52,1.54c-0.17,0-0.37-0.72-0.35-2c0-0.13-0.18-0.29,0.02-0.4
				c0.02-0.13-0.11-0.31,0.04-0.43c-0.24-0.2,0.01-0.31,0.06-0.46c0.03-0.16,0.15-0.3,0.09-0.49c-0.11-0.21,0.17-0.31,0.13-0.51
				c0.22-0.12,0.24-0.3,0.17-0.54c0.22-0.11,0.12-0.37,0.23-0.56c0.32-0.06,0.26-0.32,0.31-0.57c0.05-0.24,0.3-0.35,0.42-0.57
				c0.2-0.15,0.33-0.41,0.61-0.54c0.18-0.25,0.52-0.45,0.89-0.35c0.33-0.13,0.72-0.03,1.03,0.09c0.18,0.01,0.33,0.09,0.46,0.19
				c0.13,0.1,0.24,0.2,0.37,0.29c0.06,0.04,0.11,0.1,0.15,0.16c0.04,0.07,0.07,0.14,0.1,0.2c0.06,0.13,0.14,0.24,0.33,0.27
				c0.19,0.2,0.27,0.48,0.44,0.68c0.09,0.25,0.17,0.5,0.34,0.71c-0.16,0.34,0.08,0.52,0.26,0.74c0.16,0.23,0.18,0.49,0.2,0.74
				c0.08,0.24,0.12,0.49,0.14,0.74c0.12,0.23-0.04,0.5,0.1,0.72c0.15,0.23-0.07,0.49,0.06,0.71c0.1,0.23,0.15,0.46,0.02,0.7
				c0.01,0.23-0.24,0.45-0.01,0.68c0.05,0.22,0.36,0.46-0.04,0.66c0.09,0.22-0.21,0.41-0.07,0.63c-0.3,0.18-0.06,0.41-0.09,0.61
				c-0.08,0.19-0.21,0.37-0.12,0.58c0.1,0.22-0.15,0.37-0.14,0.56c0.11,0.22-0.29,0.31-0.17,0.53c-0.08,0.16-0.08,0.35-0.19,0.5
				c0.3,0.29-0.12,0.33-0.21,0.46c-0.11,0.13,0.1,0.4-0.23,0.42c0.19,0.27-0.11,0.3-0.25,0.38c-0.14,0.08-0.04,0.31-0.26,0.34
				c0.04,0.12-0.02,0.16-0.1,0.18c-0.08,0.03-0.16,0.04-0.18,0.11c-0.18,0.01-0.17,0.18-0.28,0.24c-0.06,0.11-0.15,0.18-0.28,0.18
				c-0.09,0.05-0.19,0.09-0.27,0.12c-0.27,0.1-0.49,0.1-0.64,0.07C66.78,21.41,66.71,21.36,66.71,21.31z"/>
		</g>
		<g id="XMLID_21944_">
			<path d="M83.42,21.31c0-0.12,0.26-0.18,0.55-0.46c0.05-0.05,0.1-0.1,0.15-0.16c0.04-0.07,0.08-0.14,0.16-0.19
				c0.08,0.02,0.07-0.06,0.06-0.13c-0.01-0.07-0.02-0.14,0.1-0.1c0.11-0.04,0.13-0.16,0.15-0.27c0.02-0.12,0.2-0.14,0.15-0.31
				c-0.09-0.12,0.01-0.13,0.09-0.16c0.09-0.02,0.17-0.06,0.05-0.19c-0.01-0.15,0.06-0.26,0.13-0.39c0.25-0.06,0.11-0.27,0.12-0.42
				c0.29-0.06,0.23-0.25,0.11-0.45c0.37-0.06,0.37-0.25,0.09-0.48c0.03-0.16,0.19-0.31,0.08-0.51c0.01-0.18-0.03-0.36,0.06-0.53
				c-0.21-0.21-0.17-0.38,0.04-0.55c-0.23-0.21-0.12-0.39,0.02-0.57c0.15-0.19-0.2-0.4,0-0.59c0.02-0.2-0.06-0.4-0.02-0.61
				c0.09-0.21,0.2-0.43-0.05-0.62c-0.08-0.21-0.18-0.4-0.07-0.63c-0.29-0.18-0.2-0.4-0.1-0.63c-0.08-0.2,0.06-0.45-0.13-0.63
				c-0.01-0.22-0.22-0.39-0.17-0.63c0.01-0.23,0.01-0.46-0.21-0.6c-0.23-0.13-0.1-0.4-0.25-0.55c0.06-0.14-0.01-0.23-0.09-0.28
				c-0.08-0.06-0.19-0.1-0.2-0.2C84.1,9.34,84.1,9.09,83.9,9.09c-0.14-0.06-0.25-0.07-0.3-0.2c-0.06,0.08-0.08,0.12-0.1,0.12
				C83.48,9.03,83.47,9,83.46,8.97c-0.02-0.06-0.07-0.16-0.11-0.12C83.3,8.78,83.24,8.8,83.2,8.84s-0.07,0.09-0.13,0.11
				C83.04,9,82.97,9,82.89,9.02c-0.07,0.02-0.15,0.06-0.14,0.16c-0.13,0.09-0.1,0.3-0.3,0.35c0.03,0.12-0.04,0.16-0.12,0.21
				c-0.08,0.05-0.17,0.09-0.15,0.2c-0.07,0.14-0.13,0.3-0.23,0.43c-0.34,0.04-0.17,0.28-0.2,0.43c-0.08,0.14,0.06,0.34-0.17,0.43
				c-0.07,0.14-0.23,0.25-0.15,0.42c0.01,0.15-0.48,0.19-0.12,0.4c0.04,0.14-0.35,0.21-0.11,0.38c0.22,0.16-0.07,0.24-0.09,0.36
				c-0.03,0.12-0.06,0.23-0.08,0.33c-0.23,0.96-0.35,1.54-0.52,1.54c-0.17,0-0.37-0.72-0.35-2c0-0.13-0.18-0.29,0.02-0.4
				c0.02-0.14-0.11-0.31,0.04-0.43c-0.24-0.2,0.01-0.31,0.06-0.46c0.03-0.16,0.15-0.29,0.09-0.49c-0.1-0.21,0.17-0.31,0.13-0.51
				c0.22-0.12,0.24-0.3,0.17-0.54c0.22-0.11,0.13-0.37,0.23-0.56c0.32-0.06,0.26-0.32,0.31-0.57c0.05-0.24,0.3-0.35,0.42-0.57
				c0.2-0.15,0.33-0.41,0.61-0.53c0.18-0.26,0.52-0.45,0.89-0.35c0.34-0.13,0.72-0.03,1.03,0.09c0.18,0.01,0.33,0.09,0.46,0.18
				c0.13,0.1,0.24,0.2,0.37,0.29c0.06,0.04,0.11,0.1,0.15,0.16c0.04,0.07,0.07,0.14,0.1,0.2c0.06,0.13,0.14,0.24,0.33,0.27
				c0.19,0.2,0.27,0.48,0.44,0.68c0.09,0.25,0.17,0.5,0.34,0.72c-0.16,0.34,0.08,0.52,0.26,0.74c0.15,0.23,0.18,0.49,0.2,0.74
				c0.08,0.24,0.12,0.49,0.14,0.74c0.12,0.23-0.04,0.5,0.1,0.72c0.15,0.23-0.07,0.49,0.06,0.71c0.1,0.23,0.15,0.46,0.02,0.69
				c0.01,0.23-0.24,0.45-0.01,0.68c0.05,0.22,0.36,0.46-0.04,0.66c0.08,0.22-0.21,0.41-0.07,0.63c-0.3,0.18-0.06,0.41-0.09,0.61
				c-0.08,0.19-0.21,0.37-0.12,0.59c0.1,0.22-0.15,0.37-0.14,0.56c0.11,0.22-0.29,0.31-0.17,0.53c-0.08,0.16-0.08,0.35-0.19,0.5
				c0.3,0.29-0.12,0.33-0.21,0.46c-0.11,0.13,0.1,0.4-0.23,0.42c0.19,0.27-0.11,0.3-0.24,0.38c-0.14,0.08-0.05,0.31-0.26,0.34
				c0.05,0.11-0.02,0.16-0.09,0.18c-0.08,0.03-0.16,0.04-0.18,0.11c-0.18,0.01-0.17,0.18-0.28,0.24c-0.05,0.11-0.15,0.18-0.28,0.18
				c-0.09,0.05-0.19,0.09-0.27,0.12c-0.27,0.09-0.49,0.1-0.64,0.07C83.49,21.41,83.42,21.36,83.42,21.31z"/>
		</g>
		<g id="XMLID_21943_">
			<path d="M92.16,91.48c-0.05,0-0.1-0.89-0.16-2.59c-0.05-1.7-0.1-4.22-0.15-7.48c-0.02-1.09-0.03-2.25-0.05-3.5
				c-0.03-1.25-0.06-2.57-0.05-3.97c0.14-1.4-0.26-2.88-0.04-4.43c0.06-1.55,0.01-3.18-0.04-4.87c-0.05-1.7,0.09-3.46-0.04-5.3
				c-0.27-1.84,0.3-3.74-0.04-5.71c-0.07-1.97-0.05-4-0.04-6.1c0.21-2.1,0-4.25-0.03-6.47c0.25-2.22,0.14-4.5-0.03-6.83
				c0.34-2.33,0.29-4.73-0.03-7.17c-0.01-2.45,0.12-4.95-0.03-7.5c-0.01-0.74-0.02-1.48-0.03-2.23c0-0.37-0.01-0.75-0.01-1.12
				l0-0.14l0-0.04l0-0.07l0-0.13l-0.2,0c-0.23,0-0.46,0-0.7,0c-0.55,0-1.11-0.01-1.67-0.02c-2.65,0.23-5.35,0.22-8.09,0.02
				c-2.74,0.25-5.53,0.15-8.37,0.02c-2.83-0.14-5.71,0.22-8.62,0.02c-2.92-0.02-5.87,0.06-8.86,0.02c-2.99-0.1-6.02-0.22-9.08,0.01
				c-3.06,0.06-6.16,0.14-9.29,0.01c-3.13,0.26-6.29,0.15-9.48,0.01c-3.19,0.04-6.41-0.14-9.65,0c-1.58-0.02-3.16,0.01-4.75,0.03
				c-0.79,0.01-1.59,0.02-2.39,0.02c-0.4,0-0.8,0-1.2-0.01l-0.15,0l-0.04,0H8.85l0,0l-0.01,0L8.8,15.94l-0.09-0.02l-0.01,0.03
				l-0.01,0.09c0-0.02,0,0.13-0.01,0.22l-0.01,0.31c-0.01,0.41-0.02,0.82-0.03,1.23c-0.02,0.82-0.03,1.64-0.03,2.46
				c-0.01,1.63,0.01,3.26,0.09,4.88c0.17,3.24-0.07,6.46,0,9.65c-0.25,3.19,0.08,6.35-0.01,9.48c0.02,3.13-0.14,6.23-0.01,9.29
				c0.05,3.06,0.09,6.09-0.01,9.08c0.38,2.99-0.1,5.95-0.02,8.86c-0.16,2.91,0.02,5.79-0.02,8.62c0.07,2.83-0.18,5.62-0.02,8.36
				c-0.01,0.59,0,1.18,0,1.77c0,0.26,0.01,0.52,0.01,0.79l0.01,0.19l0.13-0.01l0.06,0l0.03,0l0.14,0c0.38,0,0.76-0.01,1.14-0.01
				c0.76,0,1.52,0.01,2.27,0.05c2.65-0.21,5.25,0.12,7.8-0.03c2.55-0.02,5.05-0.04,7.5-0.02c2.45,0.28,4.84,0.02,7.17-0.02
				c2.33,0.02,4.61-0.2,6.83-0.01c2.22,0.01,4.38,0.13,6.47-0.01c2.1-0.06,4.13,0.4,6.1,0c1.97-0.08,3.88,0.28,5.71,0
				c1.83-0.25,3.6,0.01,5.3,0.01c1.7,0,3.32,0.01,4.88,0.01c6.99,0.02,12.48,0.05,16.23,0.1c1.88,0.02,3.31,0.05,4.28,0.08
				c0.97,0.03,1.47,0.07,1.47,0.11c0,0.05-0.62,0.09-1.81,0.14c-1.19,0.05-2.96,0.1-5.25,0.16c-4.59,0.11-11.3,0.23-19.79,0.35
				c-1.7,0.03-3.46,0.24-5.3,0.08c-1.84,0.01-3.74,0.18-5.71,0.08c-1.97,0.29-4,0.08-6.1,0.08c-2.1,0.03-4.26-0.05-6.47,0.08
				c-2.22,0.17-4.5-0.05-6.83,0.08c-2.33-0.15-4.73-0.09-7.17,0.08c-2.45-0.15-4.94,0.07-7.49,0.08c-2.55-0.24-5.15-0.04-7.8,0.08
				c-0.75,0.03-1.51,0.04-2.27,0.05c-1.02,0-2.05,0-3.08,0c0-0.84,0.01-1.69,0.01-2.54c0-0.59,0-1.18-0.02-1.77
				c0.05-2.74-0.06-5.53-0.02-8.37c-0.12-2.83-0.16-5.71-0.02-8.62c-0.08-2.91-0.02-5.87-0.02-8.86c-0.1-2.99,0.01-6.02-0.01-9.08
				c-0.05-3.06,0.27-6.16-0.01-9.29c-0.04-3.13,0.04-6.29-0.01-9.48c0.03-3.19,0.07-6.41-0.01-9.65c0.14-1.62,0.16-3.25,0.14-4.88
				c-0.01-0.82-0.03-1.64-0.06-2.46c-0.01-0.41-0.03-0.82-0.04-1.23l-0.01-0.31L7,15.87l-0.02-1.16c0-0.18,0-0.35-0.01-0.53
				c1.1-0.01,2.19-0.02,3.28-0.03c0.8,0,1.59,0,2.39,0c1.59,0.01,3.17,0.03,4.75,0.05c3.24-0.03,6.46-0.01,9.65,0
				c3.19-0.08,6.35,0.12,9.48,0.01c3.13-0.12,6.22,0.13,9.29,0.01c3.06-0.08,6.09-0.12,9.08,0.01c2.99,0,5.95,0.25,8.86,0.02
				c2.92-0.05,5.79-0.37,8.62,0.02c2.83-0.1,5.62,0.18,8.37,0.02c2.74,0.28,5.44,0.02,8.09,0.02c0.56,0.01,1.11,0.03,1.67,0.04
				c0.31,0.01,0.63,0.01,0.95,0.02c0.46,0.01,0.93,0.01,1.39,0.02c0,0.61-0.01,1.22-0.01,1.82c0,0.38,0,0.75,0,1.12
				c0,0.75,0.02,1.49,0.06,2.23c0.13,2.55-0.07,5.05-0.03,7.5c0.16,2.44-0.21,4.84-0.03,7.17c-0.04,2.33,0.03,4.61-0.03,6.83
				c0.38,2.22,0,4.38-0.04,6.47c-0.05,2.1,0.25,4.13-0.04,6.1c0.29,1.97,0.04,3.87-0.04,5.71c-0.08,1.83,0.12,3.6-0.04,5.3
				c0.2,1.7-0.11,3.32-0.04,4.87c-0.13,1.55-0.01,3.03-0.04,4.43c0.04,1.4,0.03,2.73-0.04,3.97c-0.02,1.25-0.03,2.41-0.05,3.5
				c-0.05,3.26-0.1,5.77-0.15,7.48C92.27,90.59,92.22,91.48,92.16,91.48z"/>
		</g>
		<g id="XMLID_21942_">
			<path d="M13.21,39.65c0.11,0,0.21,0.39,0.3,1.11c0.01,0.12,0.03,0.25,0.05,0.38c0.03,0.14,0.06,0.28,0.04,0.44
				c-0.14,0.15,0.26,0.32,0.04,0.49c-0.06,0.17,0,0.35,0.04,0.54c0.05,0.19-0.09,0.38,0.04,0.58c0.27,0.2-0.3,0.41,0.04,0.63
				c0.08,0.22,0.06,0.44,0.04,0.67c-0.21,0.23,0,0.47,0.04,0.71c-0.25,0.24-0.14,0.49,0.03,0.75c-0.35,0.26-0.29,0.52,0.03,0.79
				c0.01,0.13-0.03,0.27-0.04,0.41c-0.01,0.09-0.01,0.09,0,0.12c0.01,0.02,0.03,0.04,0.07,0.05c0.02,0.06,0.06,0.08,0.05,0.14
				c0.02,0,0.02,0.01,0.03,0.02c0.13-0.12,0.16-0.17,0.18-0.17c0.01,0,0.01,0.01,0.02,0.04c0,0.01,0.01,0.03,0.01,0.05
				c0.03,0.02,0.07,0.04,0.11,0.06c0.3-0.25,0.61-0.15,0.92-0.02c0.31,0.14,0.63-0.22,0.95-0.02c0.32,0.01,0.65-0.06,0.97-0.02
				c0.33,0.1,0.66,0.21,1-0.01c0.34-0.06,0.68-0.14,1.02-0.01c0.34-0.26,0.69-0.15,1.04-0.01c0.35-0.04,0.7,0.14,1.06,0l0.07,0.01
				h0.02l0,0h0c0.01,0,0.01,0,0.02-0.01c0.01-0.01,0.02-0.02,0.03-0.03c0.01-0.02,0.01-0.03,0.09,0.03l0,0
				c0.04,0.02,0.08,0,0.09-0.04c0-0.02,0-0.04-0.01-0.06c-0.01-0.01-0.02-0.02-0.03-0.03l-0.01-0.01c0,0,0,0,0,0l-0.01-0.02
				c-0.01-0.02-0.02-0.05-0.03-0.07c-0.17-0.36,0.07-0.71,0-1.06c0.25-0.35-0.08-0.7,0.01-1.04c-0.02-0.34,0.14-0.68,0.01-1.02
				c-0.05-0.34-0.09-0.67,0.01-1c-0.38-0.33,0.1-0.65,0.02-0.97c0.16-0.32-0.02-0.64,0.02-0.95c-0.02-0.08-0.02-0.16-0.01-0.23
				c0.01-0.04,0.01-0.08,0.02-0.12l0.01-0.06l0.01-0.03c0-0.01,0-0.01,0.01-0.01c0.03-0.04,0.06-0.11-0.02-0.11
				c0.02-0.05-0.02-0.07-0.04-0.09c-0.04,0.01-0.04,0-0.04-0.06c-0.18,0.19,0.01-0.16-0.4-0.03c-0.28,0-0.56,0.01-0.82-0.03
				c-0.27-0.3-0.53-0.05-0.79-0.03c-0.26-0.03-0.51,0.17-0.75-0.03c-0.24-0.02-0.48-0.15-0.71-0.04c-0.23,0.04-0.45-0.43-0.67-0.04
				c-0.22,0.07-0.42-0.3-0.63-0.04c-0.2,0.24-0.4-0.03-0.58-0.04c-0.19-0.01-0.37-0.03-0.54-0.04c-1.54-0.13-2.42-0.28-2.42-0.44
				c0-0.18,1.09-0.34,2.95-0.48c0.18-0.01,0.38-0.22,0.58-0.04c0.2,0,0.41-0.16,0.63-0.04c0.22-0.27,0.44-0.05,0.67-0.04
				c0.23-0.01,0.47,0.08,0.71-0.04c0.24-0.16,0.49,0.08,0.75-0.03c0.26,0.17,0.52,0.12,0.79-0.03c0.27,0.16,0.54-0.04,0.82-0.03
				c0.07,0.06,0.14,0.1,0.21,0.12c0.02,0.01,0.1,0.01,0.15,0.01c0.06,0,0.11,0,0.17-0.01c0.23-0.03,0.5-0.09,0.79-0.15
				c0.25-0.04,0.48-0.04,0.7-0.03c-0.01,0.32-0.04,0.63-0.01,0.92c-0.02,0.28-0.01,0.54,0.01,0.82l0,0.05l0,0.03l0.01,0.06
				l0.01,0.12c0,0.08,0,0.16-0.01,0.23c0.12,0.31,0.16,0.63,0.02,0.95c0.08,0.32,0.02,0.65,0.02,0.97c0.1,0.33-0.01,0.66,0.01,1
				c0.05,0.34-0.27,0.68,0.01,1.02c0.04,0.34-0.04,0.69,0.01,1.04c-0.04,0.35-0.07,0.7,0,1.06c-0.02,0.02-0.03,0.05-0.05,0.07
				l-0.01,0.02l-0.01,0.03l-0.02,0.06c-0.02,0.08-0.04,0.16-0.05,0.23c-0.02,0.15-0.02,0.3-0.01,0.46c0.02,0.32,0.09,0.69,0.14,1.08
				l0,0c-0.3,0.04-0.65,0.05-1,0.04c-0.17,0-0.35-0.01-0.52-0.02l-0.26-0.01l-0.06,0l-0.03,0l-0.02,0l-0.07-0.01
				c-0.36,0.03-0.71,0.01-1.06,0c-0.35,0.08-0.7-0.12-1.04-0.01c-0.34,0.12-0.68-0.12-1.02-0.01c-0.34,0.08-0.67,0.12-1-0.01
				c-0.33,0-0.65-0.25-0.97-0.02c-0.32,0.05-0.64,0.37-0.95-0.02c-0.31,0.1-0.62-0.19-0.92-0.02c-0.04-0.04-0.07-0.06-0.12-0.08
				c-0.06-0.02-0.13-0.03-0.19-0.04c-0.12-0.01-0.25-0.01-0.38,0.01c-0.25,0.03-0.55,0.09-0.81,0.09c-0.11-0.01-0.22-0.03-0.33-0.04
				c0.04-0.43,0.08-0.78-0.02-1.11c-0.03-0.11-0.05-0.23-0.05-0.36c0-0.12,0.01-0.27,0.03-0.32c0.03-0.14,0.07-0.27,0.05-0.41
				c-0.16-0.27,0.21-0.53,0.03-0.79c0.04-0.26-0.02-0.51,0.03-0.75c-0.38-0.24,0-0.48,0.04-0.71c0.05-0.23-0.25-0.45,0.04-0.67
				c-0.29-0.22-0.04-0.43,0.04-0.63c0.08-0.2-0.12-0.4,0.04-0.58c-0.2-0.19,0.11-0.37,0.04-0.54c0.13-0.17,0.01-0.33,0.04-0.49
				c-0.04-0.15-0.03-0.3,0.04-0.44c0.02-0.14,0.03-0.26,0.05-0.38C13,40.04,13.1,39.65,13.21,39.65z"/>
		</g>
		<g id="XMLID_21941_">
			<path d="M34.68,39.65c0.11,0,0.21,0.39,0.3,1.11c0.02,0.12,0.03,0.25,0.05,0.38c0.03,0.14,0.06,0.28,0.05,0.44
				c-0.14,0.15,0.26,0.32,0.04,0.49c-0.06,0.17,0,0.35,0.04,0.54c0.05,0.19-0.09,0.38,0.04,0.58c0.27,0.2-0.3,0.41,0.04,0.63
				c0.07,0.22,0.05,0.44,0.04,0.67c-0.21,0.23,0,0.47,0.04,0.71c-0.25,0.24-0.14,0.49,0.03,0.75c-0.34,0.26-0.29,0.52,0.03,0.79
				c0.01,0.13-0.03,0.27-0.04,0.41c-0.01,0.09-0.01,0.09,0,0.12c0.01,0.02,0.03,0.04,0.07,0.05c0.02,0.06,0.06,0.08,0.05,0.14
				c0.01,0,0.02,0.01,0.03,0.03c0.13-0.12,0.16-0.17,0.18-0.17c0.01,0,0.01,0.01,0.01,0.04c0,0.01,0.01,0.03,0.01,0.05
				c0.03,0.02,0.07,0.04,0.11,0.06c0.3-0.25,0.61-0.15,0.92-0.02c0.31,0.14,0.63-0.22,0.95-0.02c0.32,0.01,0.65-0.06,0.97-0.02
				c0.33,0.1,0.66,0.21,1-0.01c0.34-0.06,0.68-0.14,1.02-0.01c0.34-0.26,0.69-0.15,1.04-0.01c0.35-0.04,0.71,0.14,1.06,0l0.07,0.01
				h0.02l0,0h0c0.01,0,0.01,0,0.02-0.01c0.01-0.01,0.02-0.02,0.03-0.03c0.01-0.02,0.01-0.03,0.09,0.03l0,0
				c0.04,0.02,0.08,0,0.09-0.04c0-0.02,0-0.04-0.01-0.06c-0.01-0.01-0.02-0.02-0.03-0.03l-0.01-0.01c0,0,0,0,0,0l-0.01-0.02
				c-0.01-0.02-0.02-0.05-0.03-0.07c-0.17-0.36,0.07-0.71,0-1.06c0.25-0.35-0.08-0.7,0.01-1.04c-0.02-0.34,0.14-0.68,0.01-1.02
				c-0.05-0.34-0.09-0.67,0.01-1c-0.38-0.33,0.1-0.65,0.02-0.97c0.16-0.32-0.02-0.64,0.02-0.95c-0.02-0.08-0.01-0.16,0-0.23
				c0-0.04,0.01-0.08,0.02-0.12l0.01-0.06l0.01-0.03c0-0.01,0-0.01,0.01-0.01c0.03-0.04,0.06-0.11-0.02-0.11
				c0.02-0.05-0.02-0.07-0.04-0.09c-0.04,0.01-0.05,0-0.04-0.06c-0.18,0.19,0.01-0.16-0.4-0.03c-0.28,0-0.56,0.01-0.82-0.03
				c-0.27-0.3-0.53-0.05-0.79-0.03c-0.26-0.03-0.51,0.17-0.75-0.03c-0.24-0.02-0.48-0.15-0.71-0.04c-0.23,0.04-0.45-0.43-0.67-0.04
				c-0.22,0.07-0.43-0.3-0.63-0.04c-0.2,0.24-0.4-0.03-0.58-0.04c-0.19-0.01-0.37-0.03-0.54-0.04c-1.54-0.13-2.42-0.28-2.42-0.44
				c0-0.18,1.09-0.34,2.95-0.48c0.18-0.01,0.38-0.22,0.58-0.04c0.2,0,0.41-0.16,0.63-0.04c0.22-0.27,0.44-0.05,0.67-0.04
				c0.23-0.01,0.47,0.08,0.71-0.04c0.25-0.16,0.5,0.08,0.75-0.03c0.26,0.17,0.52,0.12,0.79-0.03c0.27,0.16,0.54-0.04,0.82-0.03
				c0.07,0.06,0.14,0.1,0.21,0.12c0.02,0.01,0.1,0.01,0.15,0.01c0.06,0,0.12,0,0.17-0.01c0.23-0.03,0.5-0.09,0.79-0.15
				c0.25-0.04,0.48-0.04,0.7-0.03c-0.01,0.32-0.04,0.63,0,0.92c-0.02,0.28-0.01,0.54,0.01,0.82l0,0.05l0,0.03l0.01,0.06l0.01,0.12
				c0,0.08,0,0.16-0.01,0.23c0.12,0.31,0.16,0.63,0.02,0.95c0.08,0.32,0.01,0.64,0.01,0.97c0.1,0.33-0.01,0.66,0.01,1
				c0.05,0.34-0.27,0.68,0.01,1.02c0.04,0.34-0.04,0.69,0.01,1.04c-0.04,0.35-0.07,0.7,0.01,1.06c-0.02,0.02-0.03,0.05-0.05,0.07
				l-0.01,0.02l-0.01,0.03l-0.02,0.06c-0.02,0.08-0.04,0.16-0.05,0.23c-0.02,0.15-0.02,0.3-0.01,0.47c0.02,0.32,0.09,0.69,0.14,1.08
				l0,0c-0.3,0.04-0.65,0.05-1,0.04c-0.17,0-0.35-0.01-0.52-0.02l-0.26-0.01l-0.06,0l-0.03,0l-0.02,0l-0.07-0.01
				c-0.36,0.03-0.71,0.01-1.06,0c-0.35,0.08-0.7-0.12-1.04-0.01c-0.34,0.12-0.69-0.12-1.02-0.01c-0.34,0.08-0.67,0.12-1-0.01
				c-0.33,0-0.65-0.25-0.97-0.02c-0.32,0.05-0.64,0.37-0.95-0.02c-0.31,0.1-0.62-0.19-0.92-0.02c-0.04-0.04-0.07-0.06-0.12-0.08
				c-0.06-0.02-0.13-0.03-0.19-0.04c-0.12-0.01-0.24-0.01-0.37,0.01c-0.26,0.03-0.55,0.09-0.81,0.09c-0.11-0.01-0.22-0.03-0.33-0.04
				c0.04-0.42,0.08-0.78-0.02-1.11c-0.03-0.11-0.05-0.23-0.05-0.36c0-0.12,0.01-0.27,0.03-0.32c0.03-0.14,0.07-0.27,0.05-0.41
				c-0.16-0.27,0.21-0.53,0.03-0.79c0.04-0.26-0.02-0.51,0.03-0.75c-0.38-0.24,0-0.48,0.04-0.71c0.05-0.23-0.25-0.45,0.04-0.67
				c-0.29-0.22-0.04-0.43,0.04-0.63c0.08-0.2-0.12-0.4,0.04-0.58c-0.2-0.19,0.11-0.37,0.04-0.54c0.13-0.17,0.01-0.33,0.04-0.49
				c-0.04-0.15-0.03-0.3,0.05-0.44c0.01-0.14,0.03-0.26,0.05-0.38C34.47,40.04,34.57,39.65,34.68,39.65z"/>
		</g>
		<g id="XMLID_21940_">
			<path d="M56.15,39.65c0.11,0,0.21,0.39,0.3,1.11c0.01,0.12,0.03,0.25,0.05,0.39c0.03,0.14,0.06,0.28,0.05,0.44
				c-0.14,0.15,0.26,0.32,0.04,0.49c-0.06,0.17,0,0.35,0.04,0.54c0.05,0.19-0.09,0.38,0.04,0.58c0.27,0.2-0.3,0.41,0.04,0.63
				c0.07,0.22,0.05,0.44,0.04,0.67c-0.21,0.23,0,0.47,0.03,0.71c-0.25,0.25-0.14,0.5,0.03,0.75c-0.34,0.26-0.29,0.52,0.03,0.79
				c0.01,0.13-0.02,0.27-0.04,0.41c-0.01,0.09-0.01,0.09,0,0.12c0.01,0.02,0.03,0.04,0.07,0.05c0.02,0.06,0.06,0.08,0.05,0.14
				c0.01,0,0.02,0.01,0.03,0.03c0.13-0.12,0.16-0.17,0.18-0.17c0.01,0,0.01,0.01,0.01,0.04c0,0.01,0.01,0.03,0.01,0.05
				c0.03,0.02,0.07,0.04,0.11,0.06c0.3-0.25,0.61-0.15,0.92-0.02c0.31,0.14,0.63-0.22,0.95-0.02c0.32,0.01,0.65-0.06,0.97-0.02
				c0.33,0.1,0.66,0.21,1-0.01c0.34-0.06,0.68-0.14,1.02-0.01c0.34-0.26,0.69-0.15,1.04-0.01c0.35-0.04,0.71,0.14,1.06,0l0.07,0.01
				l0.02,0c0.01,0,0.01,0,0.02-0.01c0.01-0.01,0.02-0.02,0.03-0.03c0.01-0.02,0.01-0.03,0.09,0.03l0,0c0.04,0.02,0.08,0,0.09-0.04
				c0-0.02,0-0.04-0.01-0.06c-0.01-0.01-0.02-0.02-0.03-0.03l-0.01-0.01c0,0,0,0-0.01,0l-0.01-0.02c-0.01-0.02-0.02-0.05-0.03-0.07
				c-0.17-0.36,0.07-0.71,0.01-1.06c0.25-0.35-0.08-0.7,0.01-1.04c-0.02-0.34,0.14-0.68,0.01-1.02c-0.04-0.34-0.09-0.67,0.01-1
				c-0.38-0.33,0.1-0.65,0.02-0.97c0.16-0.32-0.02-0.64,0.02-0.95c-0.02-0.08-0.02-0.16,0-0.23c0-0.04,0.01-0.08,0.02-0.12
				l0.01-0.06l0.01-0.03c0,0,0-0.01,0.01-0.01c0.03-0.04,0.06-0.11-0.02-0.11c0.02-0.05-0.02-0.07-0.04-0.08
				c-0.04,0.01-0.05,0-0.04-0.06c-0.17,0.19,0-0.16-0.41-0.03c-0.28,0-0.55,0.01-0.82-0.03c-0.27-0.3-0.53-0.05-0.79-0.03
				c-0.26-0.03-0.51,0.17-0.75-0.03c-0.24-0.02-0.48-0.15-0.71-0.04c-0.23,0.04-0.45-0.43-0.67-0.04c-0.22,0.07-0.43-0.3-0.63-0.04
				c-0.2,0.24-0.4-0.03-0.58-0.04c-0.19-0.01-0.37-0.03-0.54-0.04c-1.54-0.13-2.42-0.28-2.42-0.44c0-0.18,1.09-0.34,2.95-0.48
				c0.19-0.01,0.38-0.22,0.58-0.04c0.2,0,0.41-0.16,0.63-0.04c0.22-0.27,0.44-0.05,0.67-0.04c0.23-0.01,0.47,0.08,0.71-0.04
				c0.24-0.16,0.5,0.08,0.75-0.03c0.26,0.17,0.52,0.12,0.79-0.03c0.27,0.16,0.54-0.04,0.82-0.03c0.07,0.06,0.14,0.1,0.21,0.12
				c0.03,0.01,0.1,0.01,0.15,0.01c0.06,0,0.12,0,0.17-0.01c0.23-0.03,0.5-0.09,0.79-0.15c0.25-0.04,0.48-0.04,0.7-0.03
				c-0.01,0.32-0.04,0.63,0,0.92c-0.02,0.28-0.01,0.54,0.01,0.82l0,0.05l0,0.03l0.01,0.06l0.01,0.12c0,0.08,0,0.15-0.01,0.23
				c0.12,0.31,0.16,0.63,0.02,0.95c0.08,0.32,0.02,0.65,0.02,0.97c0.1,0.33-0.01,0.66,0.01,1c0.05,0.34-0.27,0.68,0.01,1.02
				c0.04,0.34-0.04,0.69,0.01,1.04c-0.03,0.35-0.07,0.7,0.01,1.06c-0.02,0.02-0.03,0.05-0.05,0.07l-0.01,0.02l-0.01,0.03L66.1,47.3
				c-0.02,0.08-0.04,0.16-0.05,0.23c-0.02,0.15-0.02,0.3-0.01,0.47c0.02,0.32,0.09,0.69,0.14,1.08l0,0c-0.3,0.04-0.65,0.05-1,0.04
				c-0.17,0-0.35-0.01-0.52-0.02l-0.26-0.01l-0.06,0l-0.03,0l-0.02,0l-0.07-0.01c-0.36,0.03-0.71,0.01-1.06,0
				c-0.35,0.08-0.7-0.12-1.04-0.01c-0.34,0.12-0.68-0.12-1.02-0.01c-0.34,0.08-0.67,0.12-1-0.01c-0.33,0-0.65-0.25-0.97-0.02
				c-0.32,0.05-0.64,0.37-0.95-0.02c-0.31,0.1-0.62-0.19-0.92-0.02c-0.04-0.04-0.07-0.06-0.12-0.08c-0.06-0.02-0.12-0.03-0.19-0.04
				c-0.12-0.01-0.24-0.01-0.37,0.01c-0.26,0.03-0.55,0.09-0.81,0.09c-0.11-0.01-0.22-0.03-0.33-0.04c0.04-0.42,0.08-0.77-0.02-1.1
				c-0.03-0.11-0.04-0.23-0.04-0.36c0-0.12,0.01-0.27,0.03-0.32c0.03-0.14,0.07-0.27,0.05-0.41c-0.16-0.27,0.21-0.53,0.03-0.79
				c0.04-0.26-0.02-0.51,0.03-0.75c-0.38-0.24,0-0.48,0.04-0.71c0.05-0.23-0.25-0.45,0.04-0.67c-0.29-0.22-0.04-0.42,0.04-0.63
				c0.08-0.2-0.12-0.4,0.04-0.58c-0.2-0.19,0.11-0.37,0.04-0.54c0.13-0.17,0.01-0.33,0.04-0.49c-0.05-0.15-0.03-0.3,0.04-0.44
				c0.02-0.14,0.03-0.27,0.05-0.39C55.94,40.04,56.04,39.65,56.15,39.65z"/>
		</g>
		<g id="XMLID_21939_">
			<path d="M77.62,39.65c0.11,0,0.21,0.39,0.3,1.11c0.02,0.12,0.03,0.25,0.05,0.38c0.03,0.14,0.06,0.28,0.04,0.44
				c-0.14,0.15,0.26,0.32,0.04,0.49c-0.06,0.17,0,0.35,0.04,0.54c0.05,0.19-0.09,0.38,0.04,0.58c0.27,0.2-0.3,0.41,0.04,0.63
				c0.08,0.22,0.05,0.44,0.04,0.67c-0.21,0.23,0,0.47,0.03,0.71c-0.25,0.24-0.14,0.49,0.03,0.75c-0.34,0.26-0.29,0.52,0.03,0.79
				c0.01,0.13-0.02,0.27-0.04,0.41c-0.01,0.09-0.01,0.09,0,0.12c0.01,0.02,0.03,0.04,0.07,0.05c0.02,0.06,0.06,0.08,0.05,0.14
				c0.01,0,0.02,0.01,0.03,0.02c0.13-0.12,0.16-0.17,0.17-0.17c0.01,0,0.01,0.01,0.02,0.04c0,0.01,0.01,0.03,0.01,0.05
				c0.03,0.02,0.07,0.04,0.11,0.06c0.3-0.25,0.61-0.15,0.92-0.02c0.31,0.14,0.63-0.22,0.95-0.02c0.32,0.01,0.65-0.06,0.97-0.02
				c0.33,0.1,0.66,0.21,1-0.01c0.34-0.06,0.68-0.14,1.02-0.01c0.34-0.26,0.69-0.15,1.04-0.01c0.35-0.04,0.71,0.14,1.06,0l0.07,0.01
				h0.01l0,0h0c0.01,0,0.01,0,0.02-0.01c0.01-0.01,0.02-0.02,0.03-0.03c0.01-0.02,0.01-0.03,0.09,0.03l0,0
				c0.04,0.02,0.08,0,0.09-0.04c0-0.02,0-0.04-0.01-0.06c-0.01-0.01-0.02-0.02-0.03-0.03l-0.01-0.01c0,0,0,0-0.01,0l-0.01-0.02
				c-0.01-0.02-0.02-0.05-0.03-0.07c-0.17-0.36,0.07-0.71,0-1.06c0.25-0.35-0.08-0.7,0.01-1.04c-0.02-0.34,0.14-0.68,0.01-1.02
				c-0.04-0.34-0.09-0.67,0.01-1c-0.38-0.33,0.1-0.65,0.02-0.97c0.16-0.32-0.02-0.64,0.02-0.95c-0.02-0.08-0.02-0.16-0.01-0.23
				c0.01-0.04,0.01-0.08,0.02-0.12l0.01-0.06l0.01-0.03c0-0.01,0-0.01,0.01-0.01c0.03-0.04,0.06-0.11-0.02-0.11
				c0.02-0.05-0.02-0.07-0.04-0.09c-0.04,0.01-0.04,0-0.04-0.06c-0.18,0.19,0.01-0.16-0.4-0.03c-0.28,0-0.55,0.01-0.82-0.03
				c-0.27-0.3-0.53-0.05-0.79-0.03c-0.26-0.03-0.51,0.17-0.75-0.03c-0.24-0.02-0.48-0.15-0.71-0.04c-0.23,0.04-0.45-0.43-0.67-0.04
				c-0.22,0.07-0.43-0.3-0.63-0.04c-0.2,0.24-0.4-0.03-0.58-0.04c-0.19-0.01-0.36-0.03-0.54-0.04c-1.54-0.13-2.42-0.28-2.42-0.44
				c0-0.18,1.09-0.34,2.95-0.48c0.19-0.01,0.38-0.22,0.58-0.04c0.2,0,0.41-0.16,0.63-0.04c0.22-0.27,0.44-0.05,0.67-0.04
				c0.23-0.01,0.47,0.08,0.71-0.04c0.24-0.16,0.49,0.08,0.75-0.03c0.26,0.17,0.52,0.12,0.79-0.03c0.27,0.16,0.54-0.04,0.82-0.03
				c0.07,0.06,0.14,0.1,0.21,0.12c0.02,0.01,0.1,0.01,0.15,0.01c0.06,0,0.11,0,0.17-0.01c0.23-0.03,0.5-0.09,0.79-0.15
				c0.25-0.04,0.48-0.04,0.7-0.03c-0.01,0.32-0.04,0.63-0.01,0.92c-0.02,0.28-0.01,0.54,0.01,0.82l0,0.05l0,0.03l0.01,0.06
				l0.01,0.12c0,0.08,0,0.16-0.01,0.23c0.12,0.31,0.16,0.63,0.02,0.95c0.08,0.32,0.02,0.65,0.02,0.97c0.1,0.33-0.01,0.66,0.01,1
				c0.05,0.34-0.27,0.68,0.01,1.02c0.04,0.34-0.04,0.69,0.01,1.04c-0.04,0.35-0.07,0.7,0,1.06c-0.02,0.02-0.03,0.05-0.05,0.07
				l-0.01,0.02l-0.01,0.03l-0.02,0.06c-0.02,0.08-0.04,0.16-0.05,0.23c-0.02,0.15-0.02,0.3-0.01,0.46c0.02,0.32,0.09,0.69,0.14,1.08
				l0,0c-0.3,0.04-0.65,0.05-1,0.04c-0.17,0-0.35-0.01-0.52-0.02l-0.26-0.01l-0.06,0l-0.03,0l-0.01,0l-0.07-0.01
				c-0.36,0.03-0.71,0.01-1.06,0c-0.35,0.08-0.7-0.12-1.04-0.01c-0.34,0.12-0.68-0.12-1.02-0.01c-0.34,0.08-0.67,0.12-1-0.01
				c-0.33,0-0.65-0.25-0.97-0.02c-0.32,0.05-0.64,0.37-0.95-0.02c-0.31,0.1-0.62-0.19-0.92-0.02c-0.04-0.04-0.07-0.06-0.12-0.08
				c-0.06-0.02-0.12-0.03-0.19-0.04c-0.12-0.01-0.25-0.01-0.38,0.01c-0.26,0.03-0.55,0.09-0.81,0.09c-0.11-0.01-0.22-0.03-0.33-0.04
				c0.04-0.43,0.08-0.78-0.02-1.11c-0.03-0.11-0.05-0.23-0.05-0.36c0-0.12,0.01-0.27,0.03-0.32c0.03-0.14,0.07-0.27,0.05-0.41
				c-0.16-0.27,0.21-0.53,0.03-0.79c0.04-0.26-0.02-0.51,0.03-0.75c-0.38-0.24,0-0.48,0.04-0.71c0.06-0.23-0.25-0.45,0.04-0.67
				c-0.29-0.22-0.04-0.43,0.04-0.63c0.08-0.2-0.12-0.4,0.04-0.58c-0.2-0.19,0.11-0.37,0.04-0.54c0.13-0.17,0.01-0.33,0.04-0.49
				c-0.05-0.15-0.03-0.3,0.04-0.44c0.02-0.14,0.03-0.26,0.05-0.38C77.41,40.04,77.51,39.65,77.62,39.65z"/>
		</g>
		<g id="XMLID_21938_">
			<path d="M13.21,57.16c0.11,0,0.21,0.39,0.3,1.11c0.01,0.12,0.03,0.25,0.05,0.38c0.03,0.14,0.06,0.28,0.04,0.44
				c-0.14,0.15,0.26,0.32,0.04,0.49c-0.06,0.17,0,0.35,0.04,0.54c0.05,0.19-0.09,0.38,0.04,0.58c0.27,0.2-0.3,0.41,0.04,0.63
				c0.08,0.22,0.06,0.44,0.04,0.67c-0.21,0.23,0,0.47,0.04,0.71c-0.25,0.24-0.14,0.49,0.03,0.75c-0.35,0.26-0.29,0.52,0.03,0.79
				c0.01,0.13-0.03,0.27-0.04,0.41c-0.01,0.09-0.01,0.09,0,0.12c0.01,0.02,0.03,0.04,0.07,0.05c0.02,0.06,0.06,0.08,0.05,0.14
				c0.02,0,0.02,0.01,0.03,0.03c0.13-0.12,0.16-0.17,0.18-0.17c0.01,0,0.01,0.01,0.02,0.04c0,0.01,0.01,0.03,0.01,0.05
				c0.03,0.02,0.07,0.04,0.11,0.07c0.3-0.25,0.61-0.15,0.92-0.02c0.31,0.14,0.63-0.22,0.95-0.02c0.32,0.02,0.65-0.06,0.97-0.02
				c0.33,0.1,0.66,0.21,1-0.01c0.34-0.06,0.68-0.14,1.02-0.01c0.34-0.26,0.69-0.15,1.04-0.01c0.35-0.04,0.7,0.14,1.06,0l0.07,0.01
				h0.02l0,0h0c0.01,0,0.01,0,0.02-0.01c0.01-0.01,0.02-0.02,0.03-0.03c0.01-0.02,0.01-0.03,0.09,0.03l0,0
				c0.04,0.02,0.08,0,0.09-0.04c0-0.02,0-0.04-0.01-0.06c-0.01-0.01-0.02-0.02-0.03-0.03l-0.01-0.01c0,0,0,0,0,0l-0.01-0.02
				c-0.01-0.02-0.02-0.04-0.03-0.07c-0.17-0.36,0.07-0.71,0-1.06c0.25-0.35-0.08-0.7,0.01-1.04c-0.02-0.34,0.14-0.69,0.01-1.02
				c-0.05-0.34-0.09-0.67,0.01-1c-0.38-0.33,0.1-0.65,0.02-0.97c0.16-0.32-0.02-0.64,0.02-0.95c-0.02-0.08-0.02-0.16-0.01-0.23
				c0.01-0.04,0.01-0.08,0.02-0.12l0.01-0.06l0.01-0.03c0-0.01,0-0.01,0.01-0.01c0.03-0.04,0.06-0.11-0.02-0.11
				c0.02-0.05-0.02-0.07-0.04-0.09c-0.04,0.01-0.04,0-0.04-0.06c-0.18,0.19,0.01-0.16-0.4-0.03c-0.28,0-0.56,0.01-0.82-0.03
				c-0.27-0.29-0.53-0.05-0.79-0.03c-0.26-0.03-0.51,0.17-0.75-0.03c-0.24-0.02-0.48-0.15-0.71-0.04c-0.23,0.04-0.45-0.43-0.67-0.04
				c-0.22,0.07-0.42-0.3-0.63-0.04c-0.2,0.24-0.4-0.03-0.58-0.04c-0.19-0.02-0.37-0.03-0.54-0.04c-1.54-0.13-2.42-0.28-2.42-0.44
				c0-0.18,1.09-0.34,2.95-0.48c0.18-0.01,0.38-0.22,0.58-0.04c0.2,0,0.41-0.16,0.63-0.04c0.22-0.27,0.44-0.05,0.67-0.04
				c0.23-0.01,0.47,0.07,0.71-0.04c0.24-0.16,0.49,0.08,0.75-0.03c0.26,0.17,0.52,0.12,0.79-0.03c0.27,0.16,0.54-0.04,0.82-0.03
				c0.07,0.06,0.14,0.1,0.21,0.12c0.02,0.01,0.1,0.01,0.15,0.01c0.06,0,0.11,0,0.17-0.01c0.23-0.03,0.5-0.1,0.79-0.15
				c0.25-0.04,0.48-0.04,0.7-0.03c-0.01,0.32-0.04,0.63-0.01,0.92c-0.02,0.28-0.01,0.54,0.01,0.82l0,0.05l0,0.03l0.01,0.06
				l0.01,0.12c0,0.08,0,0.15-0.01,0.23c0.12,0.31,0.16,0.63,0.02,0.95c0.08,0.32,0.02,0.65,0.02,0.97c0.1,0.33-0.01,0.66,0.01,1
				c0.05,0.34-0.27,0.68,0.01,1.02c0.04,0.34-0.04,0.69,0.01,1.04c-0.04,0.35-0.07,0.7,0,1.06c-0.02,0.02-0.03,0.05-0.05,0.07
				l-0.01,0.02l-0.01,0.03l-0.02,0.06c-0.02,0.08-0.04,0.16-0.05,0.23c-0.02,0.15-0.02,0.3-0.01,0.47c0.02,0.32,0.09,0.69,0.14,1.08
				l0,0c-0.3,0.04-0.65,0.05-1,0.04c-0.17,0-0.35-0.01-0.52-0.02l-0.26-0.01l-0.06,0l-0.03,0l-0.02,0l-0.07-0.01
				c-0.36,0.03-0.71,0.01-1.06,0c-0.35,0.08-0.7-0.12-1.04-0.01c-0.34,0.12-0.68-0.12-1.02-0.01c-0.34,0.08-0.67,0.12-1-0.01
				c-0.33,0-0.65-0.25-0.97-0.02c-0.32,0.05-0.64,0.37-0.95-0.02c-0.31,0.1-0.62-0.18-0.92-0.02c-0.04-0.04-0.07-0.06-0.12-0.08
				c-0.06-0.02-0.13-0.03-0.19-0.04c-0.12-0.01-0.25-0.01-0.38,0.01c-0.25,0.03-0.55,0.1-0.81,0.09c-0.11-0.01-0.22-0.03-0.33-0.04
				c0.04-0.43,0.08-0.78-0.02-1.11c-0.03-0.11-0.05-0.23-0.05-0.36c0-0.12,0.01-0.27,0.03-0.31c0.03-0.14,0.07-0.27,0.05-0.41
				c-0.16-0.27,0.21-0.53,0.03-0.79c0.04-0.26-0.02-0.51,0.03-0.75c-0.38-0.24,0-0.48,0.04-0.71c0.05-0.23-0.25-0.45,0.04-0.67
				c-0.29-0.22-0.04-0.42,0.04-0.63c0.08-0.2-0.12-0.4,0.04-0.58c-0.2-0.19,0.11-0.37,0.04-0.54c0.13-0.17,0.01-0.33,0.04-0.49
				c-0.04-0.15-0.03-0.3,0.04-0.44c0.02-0.14,0.03-0.27,0.05-0.38C13,57.55,13.1,57.16,13.21,57.16z"/>
		</g>
		<g id="XMLID_21937_">
			<path d="M34.68,57.16c0.11,0,0.21,0.39,0.3,1.11c0.02,0.12,0.03,0.25,0.05,0.38c0.03,0.14,0.06,0.28,0.05,0.44
				c-0.14,0.15,0.26,0.32,0.04,0.49c-0.06,0.17,0,0.35,0.04,0.54c0.05,0.19-0.09,0.38,0.04,0.58c0.27,0.2-0.3,0.41,0.04,0.63
				c0.07,0.22,0.05,0.44,0.04,0.67c-0.21,0.23,0,0.47,0.04,0.71c-0.25,0.24-0.14,0.49,0.03,0.75c-0.34,0.26-0.29,0.52,0.03,0.79
				c0.01,0.13-0.03,0.27-0.04,0.41c-0.01,0.09-0.01,0.09,0,0.12c0.01,0.02,0.03,0.04,0.07,0.05c0.02,0.06,0.06,0.08,0.05,0.14
				c0.01,0,0.02,0.01,0.03,0.03c0.13-0.12,0.16-0.17,0.18-0.17c0.01,0,0.01,0.01,0.01,0.04c0,0.01,0.01,0.03,0.01,0.05
				c0.03,0.02,0.07,0.04,0.11,0.07c0.3-0.25,0.61-0.15,0.92-0.02c0.31,0.14,0.63-0.22,0.95-0.02c0.32,0.02,0.65-0.06,0.97-0.02
				c0.33,0.1,0.66,0.21,1-0.01c0.34-0.06,0.68-0.14,1.02-0.01c0.34-0.26,0.69-0.15,1.04-0.01c0.35-0.04,0.71,0.14,1.06,0l0.07,0.01
				h0.02l0,0h0c0.01,0,0.01,0,0.02-0.01c0.01-0.01,0.02-0.02,0.03-0.03c0.01-0.02,0.01-0.03,0.09,0.03l0,0
				c0.04,0.02,0.08,0,0.09-0.04c0-0.02,0-0.04-0.01-0.06c-0.01-0.01-0.02-0.02-0.03-0.03l-0.01-0.01c0,0,0,0,0,0l-0.01-0.02
				c-0.01-0.02-0.02-0.04-0.03-0.07c-0.17-0.36,0.07-0.71,0-1.06c0.25-0.35-0.08-0.7,0.01-1.04c-0.02-0.34,0.14-0.69,0.01-1.02
				c-0.05-0.34-0.09-0.67,0.01-1c-0.38-0.33,0.1-0.65,0.02-0.97c0.16-0.32-0.02-0.64,0.02-0.95c-0.02-0.08-0.01-0.16,0-0.23
				c0-0.04,0.01-0.08,0.02-0.12l0.01-0.06l0.01-0.03c0-0.01,0-0.01,0.01-0.01c0.03-0.04,0.06-0.11-0.02-0.11
				c0.02-0.05-0.02-0.07-0.04-0.09c-0.04,0.01-0.05,0-0.04-0.06c-0.18,0.19,0.01-0.16-0.4-0.03c-0.28,0-0.56,0.01-0.82-0.03
				c-0.27-0.29-0.53-0.05-0.79-0.03c-0.26-0.03-0.51,0.17-0.75-0.03c-0.24-0.02-0.48-0.15-0.71-0.04c-0.23,0.04-0.45-0.43-0.67-0.04
				c-0.22,0.07-0.43-0.3-0.63-0.04c-0.2,0.24-0.4-0.03-0.58-0.04c-0.19-0.02-0.37-0.03-0.54-0.04c-1.54-0.13-2.42-0.28-2.42-0.44
				c0-0.18,1.09-0.34,2.95-0.48c0.18-0.01,0.38-0.22,0.58-0.04c0.2,0,0.41-0.16,0.63-0.04c0.22-0.27,0.44-0.05,0.67-0.04
				c0.23-0.01,0.47,0.07,0.71-0.04c0.25-0.16,0.5,0.08,0.75-0.03c0.26,0.17,0.52,0.12,0.79-0.03c0.27,0.16,0.54-0.04,0.82-0.03
				c0.07,0.06,0.14,0.1,0.21,0.12c0.03,0.01,0.1,0.01,0.15,0.01c0.06,0,0.12,0,0.17-0.01c0.23-0.03,0.5-0.1,0.79-0.15
				c0.25-0.04,0.48-0.04,0.7-0.03c-0.01,0.32-0.04,0.63,0,0.92c-0.02,0.28-0.01,0.54,0.01,0.82l0,0.05l0,0.03l0.01,0.06l0.01,0.12
				c0,0.08,0,0.15-0.01,0.23c0.12,0.31,0.16,0.63,0.02,0.95c0.08,0.32,0.01,0.65,0.01,0.97c0.1,0.33-0.01,0.66,0.01,1
				c0.05,0.34-0.27,0.68,0.01,1.02c0.04,0.34-0.04,0.69,0.01,1.04c-0.04,0.35-0.07,0.7,0.01,1.06c-0.02,0.02-0.03,0.05-0.05,0.07
				l-0.01,0.02l-0.01,0.03l-0.02,0.06c-0.02,0.08-0.04,0.16-0.05,0.23c-0.02,0.15-0.02,0.3-0.01,0.47c0.02,0.32,0.09,0.69,0.14,1.08
				l0,0c-0.3,0.04-0.65,0.05-1,0.04c-0.17,0-0.35-0.01-0.52-0.02l-0.26-0.01l-0.06,0l-0.03,0l-0.02,0l-0.07-0.01
				c-0.36,0.03-0.71,0.01-1.06,0c-0.35,0.08-0.7-0.12-1.04-0.01c-0.34,0.12-0.69-0.12-1.02-0.01c-0.34,0.08-0.67,0.12-1-0.01
				c-0.33,0-0.65-0.25-0.97-0.02c-0.32,0.05-0.64,0.37-0.95-0.02c-0.31,0.1-0.62-0.18-0.92-0.02c-0.04-0.04-0.07-0.06-0.12-0.08
				c-0.06-0.02-0.13-0.03-0.19-0.04c-0.12-0.01-0.24-0.01-0.37,0.01c-0.26,0.03-0.55,0.1-0.81,0.09c-0.11-0.01-0.22-0.03-0.33-0.04
				c0.04-0.43,0.08-0.78-0.02-1.11c-0.03-0.11-0.05-0.23-0.05-0.36c0-0.12,0.01-0.27,0.03-0.32c0.03-0.14,0.07-0.27,0.05-0.41
				c-0.16-0.27,0.21-0.53,0.03-0.79c0.04-0.26-0.02-0.51,0.03-0.75c-0.38-0.24,0-0.48,0.04-0.71c0.05-0.23-0.25-0.45,0.04-0.67
				c-0.29-0.22-0.04-0.42,0.04-0.63c0.08-0.2-0.12-0.4,0.04-0.58c-0.2-0.19,0.11-0.37,0.04-0.54c0.13-0.17,0.01-0.33,0.04-0.49
				c-0.04-0.15-0.03-0.3,0.05-0.44c0.01-0.14,0.03-0.27,0.05-0.38C34.47,57.55,34.57,57.16,34.68,57.16z"/>
		</g>
		<g id="XMLID_21936_">
			<path d="M13.21,74.02c0.11,0,0.21,0.39,0.3,1.11c0.01,0.12,0.03,0.25,0.05,0.39c0.03,0.14,0.06,0.28,0.04,0.44
				c-0.14,0.15,0.26,0.32,0.04,0.49c-0.06,0.17,0,0.35,0.04,0.54c0.05,0.19-0.09,0.38,0.04,0.58c0.27,0.2-0.3,0.41,0.04,0.63
				c0.08,0.22,0.06,0.44,0.04,0.67c-0.21,0.23,0,0.47,0.04,0.71c-0.25,0.24-0.14,0.49,0.03,0.75c-0.35,0.26-0.29,0.52,0.03,0.79
				c0.01,0.13-0.03,0.27-0.04,0.41c-0.01,0.09-0.01,0.09,0,0.12c0.01,0.02,0.03,0.04,0.07,0.05c0.02,0.06,0.06,0.08,0.05,0.14
				c0.02,0,0.02,0.01,0.03,0.02c0.13-0.11,0.16-0.17,0.18-0.17c0.01,0,0.01,0.01,0.02,0.04c0,0.01,0.01,0.03,0.01,0.05
				c0.03,0.02,0.07,0.04,0.11,0.06c0.3-0.25,0.61-0.15,0.92-0.02c0.31,0.14,0.63-0.22,0.95-0.02c0.32,0.02,0.65-0.06,0.97-0.02
				c0.33,0.1,0.66,0.22,1-0.01c0.34-0.06,0.68-0.14,1.02-0.01c0.34-0.26,0.69-0.15,1.04-0.01c0.35-0.04,0.7,0.14,1.06,0l0.07,0
				l0.02,0l0,0h0c0.01,0,0.01,0,0.02-0.01c0.01-0.01,0.02-0.02,0.03-0.03c0.01-0.02,0.01-0.03,0.09,0.03l0,0
				c0.04,0.01,0.08,0,0.09-0.04c0-0.02,0-0.04-0.01-0.06c-0.01-0.01-0.02-0.02-0.03-0.03l-0.01-0.01c0,0,0,0,0,0l-0.01-0.02
				c-0.01-0.02-0.02-0.04-0.03-0.07c-0.17-0.36,0.07-0.71,0-1.06c0.25-0.35-0.08-0.7,0.01-1.04c-0.02-0.34,0.14-0.68,0.01-1.02
				c-0.05-0.34-0.09-0.67,0.01-1c-0.38-0.33,0.1-0.65,0.02-0.98c0.16-0.32-0.02-0.64,0.02-0.95c-0.02-0.08-0.02-0.16-0.01-0.23
				c0.01-0.04,0.01-0.08,0.02-0.12l0.01-0.06l0.01-0.03c0-0.01,0-0.01,0.01-0.01c0.03-0.04,0.06-0.11-0.02-0.11
				c0.02-0.05-0.02-0.07-0.04-0.08c-0.04,0.01-0.04,0-0.04-0.06c-0.18,0.19,0.01-0.16-0.4-0.03c-0.28,0-0.56,0.01-0.82-0.03
				c-0.27-0.3-0.53-0.05-0.79-0.03c-0.26-0.03-0.51,0.17-0.75-0.03c-0.24-0.02-0.48-0.15-0.71-0.03c-0.23,0.04-0.45-0.43-0.67-0.04
				c-0.22,0.07-0.42-0.3-0.63-0.04c-0.2,0.24-0.4-0.03-0.58-0.04c-0.19-0.01-0.37-0.03-0.54-0.04c-1.54-0.13-2.42-0.28-2.42-0.44
				c0-0.18,1.09-0.34,2.95-0.48c0.18-0.01,0.38-0.22,0.58-0.04c0.2,0,0.41-0.16,0.63-0.04c0.22-0.27,0.44-0.05,0.67-0.04
				c0.23-0.01,0.47,0.08,0.71-0.03c0.24-0.16,0.49,0.08,0.75-0.03c0.26,0.17,0.52,0.12,0.79-0.03c0.27,0.17,0.54-0.03,0.82-0.03
				c0.07,0.06,0.14,0.1,0.21,0.12c0.02,0.01,0.1,0.01,0.15,0.01c0.06,0,0.11,0,0.17-0.01c0.23-0.03,0.5-0.1,0.79-0.15
				c0.25-0.04,0.48-0.04,0.7-0.03c-0.01,0.32-0.04,0.63-0.01,0.92c-0.02,0.28-0.01,0.54,0.01,0.82l0,0.05l0,0.03l0.01,0.06
				l0.01,0.12c0,0.08,0,0.15-0.01,0.23c0.12,0.31,0.16,0.63,0.02,0.95c0.08,0.32,0.02,0.65,0.02,0.98c0.1,0.33-0.01,0.66,0.01,1
				c0.05,0.34-0.27,0.68,0.01,1.02c0.04,0.35-0.04,0.69,0.01,1.04c-0.04,0.35-0.07,0.7,0,1.06c-0.02,0.02-0.03,0.04-0.05,0.07
				l-0.01,0.02l-0.01,0.03l-0.02,0.06c-0.02,0.08-0.04,0.16-0.05,0.23c-0.02,0.15-0.02,0.3-0.01,0.46c0.02,0.32,0.09,0.69,0.14,1.08
				l0,0c-0.3,0.04-0.65,0.05-1,0.04c-0.17,0-0.35-0.01-0.52-0.02l-0.26-0.01l-0.06,0l-0.03,0l-0.02,0l-0.07-0.01
				c-0.36,0.03-0.71,0.01-1.06,0c-0.35,0.08-0.7-0.12-1.04-0.01c-0.34,0.12-0.68-0.13-1.02-0.01c-0.34,0.08-0.67,0.12-1-0.01
				c-0.33,0-0.65-0.25-0.97-0.02c-0.32,0.05-0.64,0.37-0.95-0.02c-0.31,0.1-0.62-0.19-0.92-0.02c-0.04-0.04-0.07-0.06-0.12-0.08
				c-0.06-0.02-0.13-0.03-0.19-0.04c-0.12-0.01-0.25-0.01-0.38,0.01c-0.25,0.03-0.55,0.09-0.81,0.09c-0.11-0.01-0.22-0.03-0.33-0.04
				c0.04-0.43,0.08-0.78-0.02-1.11c-0.03-0.11-0.05-0.23-0.05-0.36c0-0.12,0.01-0.27,0.03-0.31c0.03-0.14,0.07-0.27,0.05-0.41
				c-0.16-0.27,0.21-0.53,0.03-0.79c0.04-0.26-0.02-0.51,0.03-0.75c-0.38-0.24,0-0.48,0.04-0.71c0.05-0.23-0.25-0.45,0.04-0.67
				c-0.29-0.22-0.04-0.43,0.04-0.63c0.08-0.2-0.12-0.4,0.04-0.58c-0.2-0.19,0.11-0.36,0.04-0.54c0.13-0.17,0.01-0.33,0.04-0.49
				c-0.04-0.15-0.03-0.3,0.04-0.44c0.02-0.14,0.03-0.27,0.05-0.39C13,74.41,13.1,74.02,13.21,74.02z"/>
		</g>
		<g id="XMLID_21935_">
			<path d="M34.68,74.02c0.11,0,0.21,0.39,0.3,1.11c0.02,0.12,0.03,0.25,0.05,0.38c0.03,0.14,0.06,0.28,0.05,0.44
				c-0.14,0.15,0.26,0.32,0.04,0.49c-0.06,0.17,0,0.35,0.04,0.54c0.05,0.19-0.09,0.38,0.04,0.58c0.27,0.2-0.3,0.41,0.04,0.63
				c0.07,0.22,0.05,0.44,0.04,0.67c-0.21,0.23,0,0.47,0.04,0.71c-0.25,0.24-0.14,0.49,0.03,0.75c-0.34,0.26-0.29,0.52,0.03,0.79
				c0.01,0.13-0.03,0.27-0.04,0.41c-0.01,0.09-0.01,0.09,0,0.12c0.01,0.02,0.03,0.04,0.07,0.05c0.02,0.06,0.06,0.08,0.05,0.14
				c0.01,0,0.02,0.01,0.03,0.02c0.13-0.11,0.16-0.17,0.18-0.17c0.01,0,0.01,0.01,0.01,0.04c0,0.01,0.01,0.03,0.01,0.05
				c0.03,0.02,0.07,0.04,0.11,0.06c0.3-0.25,0.61-0.15,0.92-0.02c0.31,0.14,0.63-0.22,0.95-0.02c0.32,0.02,0.65-0.06,0.97-0.02
				c0.33,0.1,0.66,0.22,1-0.01c0.34-0.06,0.68-0.14,1.02-0.01c0.34-0.26,0.69-0.15,1.04-0.01c0.35-0.04,0.71,0.14,1.06,0l0.07,0
				l0.02,0l0,0h0c0.01,0,0.01,0,0.02-0.01c0.01-0.01,0.02-0.02,0.03-0.03c0.01-0.02,0.01-0.03,0.09,0.03l0,0
				c0.04,0.01,0.08,0,0.09-0.04c0-0.02,0-0.04-0.01-0.06c-0.01-0.01-0.02-0.02-0.03-0.03l-0.01-0.01c0,0,0,0,0,0l-0.01-0.02
				c-0.01-0.02-0.02-0.04-0.03-0.07c-0.17-0.36,0.07-0.71,0-1.06c0.25-0.35-0.08-0.7,0.01-1.04c-0.02-0.34,0.14-0.68,0.01-1.02
				c-0.05-0.34-0.09-0.67,0.01-1c-0.38-0.33,0.1-0.65,0.02-0.98c0.16-0.32-0.02-0.64,0.02-0.95c-0.02-0.08-0.01-0.16,0-0.23
				c0-0.04,0.01-0.08,0.02-0.11l0.01-0.06l0.01-0.03c0-0.01,0-0.01,0.01-0.01c0.03-0.04,0.06-0.11-0.02-0.11
				c0.02-0.05-0.02-0.07-0.04-0.08c-0.04,0.01-0.05,0-0.04-0.06c-0.18,0.19,0.01-0.16-0.4-0.03c-0.28,0-0.56,0.01-0.82-0.03
				c-0.27-0.3-0.53-0.05-0.79-0.03c-0.26-0.03-0.51,0.17-0.75-0.03c-0.24-0.02-0.48-0.15-0.71-0.03c-0.23,0.04-0.45-0.43-0.67-0.04
				c-0.22,0.07-0.43-0.3-0.63-0.04c-0.2,0.24-0.4-0.03-0.58-0.04c-0.19-0.01-0.37-0.03-0.54-0.04c-1.54-0.13-2.42-0.28-2.42-0.44
				c0-0.18,1.09-0.34,2.95-0.48c0.18-0.01,0.38-0.22,0.58-0.04c0.2,0,0.41-0.16,0.63-0.04c0.22-0.27,0.44-0.05,0.67-0.04
				c0.23-0.01,0.47,0.08,0.71-0.03c0.25-0.16,0.5,0.08,0.75-0.03c0.26,0.17,0.52,0.12,0.79-0.03c0.27,0.17,0.54-0.03,0.82-0.03
				c0.07,0.06,0.14,0.1,0.21,0.12c0.03,0.01,0.1,0.01,0.15,0.01c0.06,0,0.12,0,0.17-0.01c0.23-0.03,0.5-0.1,0.79-0.15
				c0.25-0.04,0.48-0.04,0.7-0.03c-0.01,0.32-0.04,0.63,0,0.92c-0.02,0.28-0.01,0.54,0.01,0.82l0,0.05l0,0.03l0.01,0.06l0.01,0.11
				c0,0.08,0,0.16-0.01,0.23c0.12,0.31,0.16,0.63,0.02,0.95c0.08,0.32,0.01,0.65,0.01,0.98c0.1,0.33-0.01,0.66,0.01,1
				c0.05,0.34-0.27,0.68,0.01,1.02c0.04,0.35-0.04,0.69,0.01,1.04c-0.04,0.35-0.07,0.7,0.01,1.06c-0.02,0.02-0.03,0.04-0.05,0.07
				l-0.01,0.02l-0.01,0.03l-0.02,0.06c-0.02,0.08-0.04,0.16-0.05,0.23c-0.02,0.15-0.02,0.3-0.01,0.46c0.02,0.32,0.09,0.69,0.14,1.08
				l0,0c-0.3,0.04-0.65,0.05-1,0.04c-0.17,0-0.35-0.01-0.52-0.02l-0.26-0.01l-0.06,0l-0.03,0l-0.02,0l-0.07-0.01
				c-0.36,0.03-0.71,0.01-1.06,0c-0.35,0.08-0.7-0.12-1.04-0.01c-0.34,0.12-0.69-0.13-1.02-0.01c-0.34,0.08-0.67,0.12-1-0.01
				c-0.33,0-0.65-0.25-0.97-0.02c-0.32,0.05-0.64,0.37-0.95-0.02c-0.31,0.1-0.62-0.19-0.92-0.02c-0.04-0.04-0.07-0.06-0.12-0.08
				c-0.06-0.02-0.13-0.03-0.19-0.04c-0.12-0.01-0.24-0.01-0.37,0.01c-0.26,0.03-0.55,0.09-0.81,0.09c-0.11-0.01-0.22-0.03-0.33-0.04
				c0.04-0.43,0.08-0.78-0.02-1.11c-0.03-0.11-0.05-0.23-0.05-0.36c0-0.12,0.01-0.27,0.03-0.32c0.03-0.14,0.07-0.27,0.05-0.41
				c-0.16-0.27,0.21-0.53,0.03-0.79c0.04-0.26-0.02-0.51,0.03-0.75c-0.38-0.24,0-0.48,0.04-0.71c0.05-0.23-0.25-0.45,0.04-0.67
				c-0.29-0.22-0.04-0.43,0.04-0.63c0.08-0.2-0.12-0.4,0.04-0.58c-0.2-0.19,0.11-0.36,0.04-0.54c0.13-0.17,0.01-0.33,0.04-0.49
				c-0.04-0.15-0.03-0.3,0.05-0.44c0.01-0.14,0.03-0.27,0.05-0.38C34.47,74.41,34.57,74.02,34.68,74.02z"/>
		</g>
	</g>
</g>
</svg>
