<?xml version="1.0" encoding="utf-8"?>
<!-- Generator: Adobe Illustrator 26.3.1, SVG Export Plug-In . SVG Version: 6.00 Build 0)  -->
<svg version="1.1" id="Capa_1" xmlns="http://www.w3.org/2000/svg" xmlns:xlink="http://www.w3.org/1999/xlink" x="0px" y="0px"
	 viewBox="0 0 100 100" style="enable-background:new 0 0 100 100;" xml:space="preserve">
<g>
	<g id="XMLID_22392_">
		<g id="XMLID_22399_">
			<path d="M34.56,45.8c0.01,0.05-0.58,0.26-1.72,0.62c-1.14,0.36-2.84,0.86-5.04,1.5c-0.61,0.18-1.27,0.37-1.97,0.57
				c0,0.03,0,0.07,0,0.1c0.01,0.15,0.01,0.3,0.02,0.46c0,0.23,0.01,0.46,0.02,0.69c0.01,0.46,0.01,0.94,0.01,1.44
				c-0.14,0.99,0.26,2.03,0.04,3.12c-0.06,1.09-0.01,2.23,0.04,3.42c0.05,1.19-0.09,2.43,0.04,3.72c0.27,1.29-0.3,2.63,0.04,4.01
				c0.07,1.38,0.05,2.81,0.04,4.29c-0.21,1.47,0,2.99,0.03,4.55c-0.25,1.56-0.14,3.16,0.03,4.8c-0.34,1.64-0.29,3.32,0.03,5.04
				c0.01,1.72-0.12,3.47,0.03,5.27c0.01,0.39,0.01,0.78,0.02,1.18c0,0.26,0.01,0.23,0.01,0.3l0.01,0.15l0.19-0.01l0.05,0l0.17,0
				h0.39c0.52,0,1.04,0.01,1.56,0.03c1.86-0.23,3.76-0.22,5.69-0.02c1.93-0.25,3.89-0.15,5.88-0.02c1.99,0.14,4.01-0.22,6.06-0.02
				c2.05,0.01,4.12-0.06,6.23-0.02c2.1,0.1,4.23,0.21,6.38-0.01c2.15-0.06,4.33-0.14,6.53-0.01c2.2-0.26,4.42-0.15,6.66-0.01
				c2.24-0.04,4.5,0.14,6.78,0c2.28,0.04,4.58-0.12,6.89,0c0.88,0.03,1.76,0.06,2.63,0.08c0.44,0.01,0.87,0.01,1.31,0.01l0.32,0
				l0.08,0c0.05,0,0.1-0.01,0.14-0.01c-0.01-0.07-0.02-0.13-0.03-0.18l0-0.02c0-0.01,0,0,0-0.05l-0.01-0.21l-0.03-0.41
				c-0.17-2.28,0.07-4.54,0.01-6.78c0.25-2.24-0.08-4.46,0.01-6.66c-0.02-2.2,0.14-4.38,0.01-6.53c-0.05-2.15-0.09-4.28,0.01-6.38
				c-0.38-2.1,0.1-4.18,0.02-6.23c0.16-2.05-0.02-4.07,0.02-6.06c-0.07-1.99,0.17-3.95,0.02-5.88c0.01-0.79-0.01-1.58-0.02-2.36
				c-0.01-0.39-0.01-0.78-0.02-1.17l0-0.19l0-0.06c0-0.04,0-0.08,0.01-0.13c-0.06-0.01-0.12-0.03-0.22-0.05
				c-1.86,0.19-3.69-0.16-5.48-0.03c-1.79,0-3.55,0.01-5.26-0.03c-1.72-0.3-3.4-0.05-5.04-0.03c-1.64-0.03-3.24,0.17-4.8-0.03
				c-1.56-0.02-3.08-0.15-4.55-0.04c-1.47,0.04-2.9-0.43-4.29-0.04c-1.38,0.07-2.72-0.3-4.01-0.04c-0.65,0.12-1.28,0.12-1.9,0.08
				c-0.31-0.02-0.62-0.05-0.92-0.07c-0.15-0.01-0.3-0.02-0.45-0.03l-0.22-0.01l-0.18,0h-0.02l-3.22,0.82
				c-4.76,1.21-8.5,2.14-11.07,2.75c-1.28,0.31-2.27,0.53-2.93,0.67C34.92,45.78,34.57,45.84,34.56,45.8
				c-0.01-0.04,0.4-0.2,1.19-0.45c0.8-0.26,1.98-0.62,3.53-1.07c1.54-0.46,3.45-1.01,5.68-1.64c2.25-0.64,4.84-1.37,7.72-2.18
				c0.02,0,0.04,0,0.06,0l0.27,0l0.22-0.01c0.15-0.01,0.3-0.02,0.45-0.02c0.3-0.02,0.61-0.04,0.92-0.05
				c0.62-0.03,1.25-0.04,1.9,0.05c1.29,0,2.63-0.16,4.01-0.04c1.38-0.27,2.81-0.05,4.29-0.04c1.47-0.01,2.99,0.08,4.55-0.04
				c1.56-0.16,3.16,0.08,4.8-0.03c1.64,0.17,3.32,0.13,5.04-0.03c1.72,0.17,3.47-0.03,5.26-0.03c1.79,0.25,3.62,0.08,5.48-0.03
				c0.57-0.02,1.19-0.03,1.8-0.03c0,0.34,0,0.69,0,1.04c0,0.3,0,0.61,0,0.91c0,0.39-0.01,0.78-0.02,1.17
				c-0.01,0.78-0.02,1.57,0.01,2.36c-0.05,1.93,0.06,3.89,0.02,5.88c0.12,1.99,0.16,4.01,0.02,6.06c0.08,2.05,0.02,4.12,0.02,6.23
				c0.1,2.1-0.01,4.23,0.01,6.38c0.05,2.15-0.27,4.33,0.01,6.53c0.04,2.2-0.04,4.42,0.01,6.66c-0.03,2.24-0.07,4.5,0.01,6.78
				l-0.05,0.41l-0.02,0.21c0,0.02-0.01,0.1-0.01,0.16l-0.01,0.18c-0.02,0.49-0.04,0.96-0.05,1.43l-1.15-0.02l-0.9,0
				c-0.44,0-0.87,0.01-1.31,0.03c-0.88,0.03-1.75,0.08-2.63,0.12c-2.31,0.08-4.61,0.04-6.89,0c-2.28,0.03-4.54,0.01-6.78-0.01
				c-2.24,0.08-4.46-0.12-6.66-0.01c-2.2,0.12-4.37-0.13-6.53-0.01c-2.15,0.08-4.28,0.12-6.38-0.01c-2.1,0-4.18-0.25-6.23-0.02
				c-2.05,0.05-4.07,0.37-6.06-0.02c-1.99,0.1-3.95-0.19-5.88-0.02c-1.93-0.28-3.82-0.01-5.69-0.02c-0.52-0.02-1.04-0.03-1.56-0.05
				l-0.39-0.01l-0.54-0.01c-0.43,0-0.86-0.01-1.29-0.01c0-0.34,0-0.67,0-1c0-0.32,0-0.73-0.01-0.86c-0.01-0.4-0.02-0.79-0.05-1.18
				c-0.13-1.79,0.07-3.55,0.03-5.27c-0.16-1.72,0.21-3.4,0.03-5.04c0.04-1.64-0.03-3.24,0.03-4.8c-0.38-1.56,0-3.08,0.04-4.55
				c0.06-1.47-0.25-2.9,0.04-4.29c-0.29-1.38-0.04-2.72,0.04-4.01c0.08-1.29-0.12-2.53,0.04-3.72c-0.2-1.19,0.11-2.33,0.04-3.42
				c0.13-1.09,0.01-2.13,0.04-3.12c-0.02-0.49-0.03-0.97-0.02-1.44c0-0.23,0.01-0.46,0.02-0.69c0.01-0.15,0.01-0.3,0.02-0.44
				c0.01-0.15,0.02-0.3,0.03-0.44c0-0.07,0-0.15,0-0.21c0.49-0.12,0.97-0.24,1.42-0.36c0.37-0.09,0.73-0.18,1.08-0.27
				c2.22-0.55,3.94-0.96,5.11-1.22C33.93,45.86,34.54,45.75,34.56,45.8z"/>
		</g>
		<g id="XMLID_22398_">
			<path d="M50.12,60.55c-0.05,0.02-0.19-0.14-0.43-0.48c-0.24-0.33-0.57-0.84-1.06-1.43c-0.16-0.2-0.35-0.39-0.55-0.59
				c-0.11-0.09-0.22-0.19-0.34-0.28c-0.12-0.09-0.23-0.2-0.36-0.29c-0.08-0.15-0.25-0.2-0.42-0.23c-0.08-0.02-0.16-0.04-0.24-0.07
				c-0.08-0.03-0.14-0.08-0.2-0.17c-0.07-0.05-0.15-0.09-0.23-0.12c-0.08-0.03-0.17-0.06-0.25-0.09c-0.09-0.02-0.18-0.03-0.27-0.05
				c-0.09-0.02-0.18-0.03-0.28-0.03c-0.09-0.01-0.19-0.02-0.28-0.04c-0.1-0.02-0.19-0.03-0.29-0.05c-0.19-0.04-0.4-0.04-0.61,0.01
				c-0.21,0.13-0.4,0.08-0.62,0.02c-0.11-0.02-0.22-0.03-0.32-0.02c-0.11,0.02-0.21,0.05-0.3,0.16c-0.2,0.1-0.41,0.14-0.61,0.23
				c-0.1,0.04-0.21,0.07-0.31,0.11c-0.1,0.04-0.21,0.09-0.31,0.14c-0.06,0-0.12,0.01-0.18,0.02c-0.06,0.02-0.11,0.04-0.16,0.07
				c-0.1,0.05-0.2,0.12-0.29,0.2c-0.17,0.17-0.34,0.35-0.49,0.53c-0.13,0.04-0.26,0.08-0.35,0.16c-0.1,0.08-0.19,0.17-0.27,0.27
				c-0.08,0.1-0.13,0.22-0.18,0.34c-0.03,0.06-0.05,0.12-0.07,0.18c-0.02,0.06-0.03,0.13-0.05,0.2c-0.57,0.24-0.76,0.83-0.58,1.41
				c-0.03,0.13-0.08,0.25-0.1,0.38c-0.03,0.13-0.06,0.26-0.09,0.39c-0.03,0.13-0.02,0.27-0.03,0.41c0,0.07,0,0.14,0.01,0.21
				c0.01,0.07,0.03,0.14,0.05,0.21c0.04,0.57,0.17,1.13,0.24,1.72c0.36,0.53,0.52,1.08,0.57,1.74c0.46,0.49,0.64,1.09,0.85,1.73
				c0.2,0.65,0.85,1.03,1.06,1.71c0.37,0.57,0.83,1.1,1.24,1.68c0.35,0.62,0.72,1.25,1.37,1.66c0.52,0.51,1.07,1.01,1.48,1.65
				c0.7,0.37,1.13,1,1.56,1.65c0.56,0.52,0.97,1.2,1.62,1.65c0.26,0.29,0.56,0.55,0.85,0.81l0.11,0.1l0.03,0.03
				c0.01,0.01,0,0,0.01,0l0.01,0c0.01,0,0.02,0.01,0.02,0.02c0.01,0.02,0.02,0.04,0.04,0.1c0.02,0.01,0.05,0.01,0.08-0.01
				c0.05-0.03,0.03,0.01,0.22-0.17c0.29-0.27,0.55-0.56,0.77-0.89c0.43-0.67,1.14-1.06,1.62-1.65c0.71-0.38,0.99-1.16,1.56-1.64
				c0.49-0.57,1.1-1.01,1.48-1.65c0.44-0.58,0.85-1.17,1.37-1.66c0.13-0.79,0.92-1.06,1.24-1.68c0.52-0.48,0.71-1.15,1.06-1.7
				c0.25-0.6,0.76-1.08,0.85-1.73c0.26-0.58,0.3-1.2,0.57-1.74c-0.02-0.16,0-0.3,0.03-0.45c0.02-0.14,0.07-0.28,0.11-0.42
				c0.08-0.28,0.16-0.57,0.1-0.86l0.01-0.21c0-0.07-0.01-0.14-0.01-0.2c-0.01-0.13-0.01-0.27-0.03-0.4
				c-0.02-0.13-0.04-0.26-0.05-0.39c-0.02-0.13-0.05-0.26-0.07-0.39c0.02-0.07,0.03-0.14,0.03-0.21c0-0.07-0.01-0.14-0.03-0.2
				c-0.03-0.13-0.07-0.26-0.14-0.37c-0.07-0.11-0.15-0.22-0.22-0.33c-0.08-0.1-0.16-0.2-0.23-0.3c-0.03-0.06-0.06-0.11-0.09-0.16
				c-0.04-0.05-0.08-0.1-0.12-0.14c-0.08-0.09-0.16-0.18-0.25-0.27c-0.09-0.08-0.17-0.17-0.25-0.26c-0.07-0.1-0.15-0.19-0.2-0.31
				c-0.16-0.18-0.34-0.34-0.51-0.5c-0.09-0.07-0.19-0.14-0.29-0.19c-0.05-0.03-0.1-0.06-0.16-0.08c-0.05-0.02-0.11-0.03-0.17-0.05
				c-0.11-0.04-0.2-0.11-0.29-0.19c-0.09-0.07-0.18-0.15-0.28-0.22c-0.19-0.15-0.42-0.21-0.67-0.08c-0.11-0.01-0.21-0.03-0.31-0.07
				c-0.1-0.04-0.2-0.09-0.31-0.12c-0.21-0.06-0.42-0.11-0.63,0.03c-0.2,0.13-0.4,0.12-0.6,0.11c-0.1-0.01-0.2-0.03-0.3-0.04
				c-0.1-0.01-0.19-0.01-0.29,0.01c-0.09,0.01-0.19,0.03-0.27,0.05c-0.09,0.02-0.18,0.04-0.27,0.06c-0.08,0.03-0.17,0.05-0.25,0.08
				c-0.08,0.03-0.17,0.05-0.24,0.09c-0.09,0.04-0.18,0.08-0.26,0.11c-0.08,0.04-0.16,0.09-0.24,0.13c-0.08,0.04-0.16,0.09-0.23,0.14
				c-0.08,0.05-0.15,0.1-0.22,0.15c-0.28,0.21-0.53,0.43-0.75,0.66c-0.43,0.45-0.77,0.89-1.02,1.25c-0.52,0.73-0.79,1.14-0.86,1.1
				c-0.07-0.04,0.09-0.62,0.62-1.63c0.28-0.5,0.64-1.11,1.24-1.72c0.3-0.3,0.67-0.6,1.1-0.85c0.43-0.25,0.94-0.44,1.48-0.57
				c0.11-0.02,0.22-0.06,0.33-0.1c0.11-0.03,0.22-0.06,0.34-0.09c0.23-0.06,0.46-0.07,0.7,0.01c0.24-0.01,0.49-0.02,0.74-0.04
				c0.13,0,0.25,0.02,0.38,0.04c0.13,0.03,0.26,0.05,0.37,0.11c0.28-0.07,0.56-0.02,0.81,0.1c0.12,0.06,0.25,0.12,0.37,0.19
				c0.12,0.08,0.24,0.15,0.36,0.22c0.06,0.03,0.13,0.06,0.19,0.09l0.18,0.11c0.12,0.08,0.24,0.15,0.35,0.24
				c0.23,0.18,0.47,0.33,0.72,0.5c0.13,0.07,0.26,0.16,0.36,0.27c0.1,0.11,0.2,0.23,0.29,0.35c0.09,0.12,0.17,0.26,0.26,0.38
				c0.05,0.06,0.09,0.13,0.14,0.19c0.04,0.06,0.09,0.12,0.15,0.18c0.2,0.62,0.47,1.16,0.8,1.75c0,0.17,0.03,0.33,0.05,0.5
				c0.02,0.16,0.06,0.33,0.09,0.49c0.04,0.16,0.06,0.33,0.08,0.5c0.01,0.08,0.02,0.17,0.03,0.26c0,0.08,0,0.17,0,0.25
				c-0.13,0.33-0.18,0.65-0.19,0.99c-0.01,0.17-0.01,0.34-0.01,0.51c0,0.17-0.01,0.34-0.02,0.52c-0.06,0.69-0.4,1.32-0.6,1.99
				c-0.3,0.63-0.51,1.31-0.89,1.92c-0.24,0.68-0.58,1.33-1.11,1.85c-0.34,0.65-0.82,1.21-1.27,1.79c-0.38,0.64-0.94,1.15-1.4,1.74
				c-0.45,0.61-1.19,0.96-1.5,1.71c-0.49,0.58-1.08,1.09-1.58,1.68c-0.56,0.53-1.14,1.06-1.63,1.68c-0.37,0.18-0.67,0.44-0.93,0.74
				c-0.2,0.23-0.4,0.46-0.6,0.69c-0.25,0.29-0.5,0.58-0.76,0.88c-0.26-0.23-0.54-0.49-0.81-0.75l-0.41-0.4l-0.28-0.28
				c-0.28-0.28-0.54-0.58-0.8-0.87c-0.57-0.54-1.11-1.11-1.63-1.68c-0.6-0.5-0.98-1.2-1.58-1.69c-0.6-0.49-0.93-1.21-1.5-1.71
				c-0.55-0.52-1.06-1.07-1.4-1.74c-0.46-0.58-0.68-1.32-1.27-1.79c-0.45-0.56-1.1-1.03-1.11-1.85c-0.43-0.58-0.48-1.34-0.89-1.92
				c0-0.19-0.02-0.37-0.07-0.53c-0.05-0.17-0.11-0.33-0.17-0.49c-0.14-0.32-0.28-0.63-0.36-0.97c-0.1-0.68-0.09-1.35-0.23-2.01
				c-0.02-0.08-0.03-0.17-0.04-0.25c-0.01-0.08,0-0.17,0-0.26c0.01-0.17,0.02-0.34,0.06-0.51c0.04-0.16,0.08-0.33,0.12-0.49
				c0.04-0.16,0.09-0.32,0.12-0.48c0-0.09,0.01-0.17,0.03-0.25c0.02-0.08,0.05-0.16,0.08-0.23c0.07-0.15,0.14-0.3,0.23-0.43
				c0.09-0.13,0.18-0.27,0.26-0.41c0.08-0.14,0.16-0.27,0.2-0.43l0.13-0.19l0.14-0.19c0.09-0.12,0.18-0.25,0.28-0.37
				c0.1-0.11,0.2-0.23,0.31-0.34c0.1-0.11,0.22-0.2,0.34-0.29c0.09-0.35,0.35-0.52,0.61-0.66c0.14-0.06,0.29-0.1,0.42-0.15
				c0.07-0.02,0.14-0.05,0.21-0.07c0.07-0.02,0.14-0.04,0.2-0.07c0.13-0.05,0.25-0.12,0.37-0.19c0.12-0.07,0.24-0.13,0.37-0.2
				c0.24-0.14,0.51-0.19,0.8-0.12c0.11-0.11,0.24-0.15,0.36-0.19c0.13-0.03,0.26-0.05,0.38-0.05c0.26,0.03,0.52,0.08,0.75,0.13
				c0.23,0.05,0.46,0.02,0.7,0.03c0.11,0,0.23,0,0.34,0.03c0.11,0.02,0.22,0.06,0.32,0.12c0.12-0.03,0.23-0.02,0.34,0.01
				c0.11,0.03,0.21,0.08,0.31,0.13c0.09,0.06,0.19,0.12,0.28,0.17c0.09,0.05,0.19,0.09,0.28,0.13c0.08,0.07,0.16,0.13,0.25,0.18
				c0.09,0.05,0.17,0.1,0.25,0.15c0.18,0.09,0.34,0.18,0.48,0.31c0.17,0.09,0.29,0.21,0.42,0.32c0.12,0.12,0.22,0.26,0.3,0.4
				c0.2,0.25,0.38,0.48,0.52,0.71c0.44,0.68,0.69,1.25,0.85,1.64C50.11,60.31,50.17,60.52,50.12,60.55z"/>
		</g>
		<g id="XMLID_22397_">
			<path d="M71.29,65.6c-0.05-0.02-0.03-0.24,0.04-0.65c0.06-0.41,0.19-1,0.26-1.77c0.02-0.25,0.03-0.53,0.03-0.81
				c-0.02-0.29-0.06-0.59-0.09-0.9c0.02-0.08,0.01-0.16-0.02-0.24c-0.03-0.08-0.08-0.15-0.13-0.22c-0.09-0.15-0.19-0.28-0.14-0.48
				c-0.01-0.09-0.04-0.17-0.08-0.25c-0.04-0.08-0.07-0.16-0.12-0.24c-0.11-0.15-0.21-0.31-0.34-0.44c-0.06-0.07-0.12-0.15-0.17-0.23
				c-0.06-0.08-0.11-0.16-0.17-0.24c-0.11-0.17-0.26-0.31-0.45-0.42c-0.24-0.05-0.34-0.23-0.46-0.43c-0.06-0.09-0.13-0.18-0.22-0.24
				c-0.09-0.07-0.19-0.11-0.33-0.09c-0.1-0.04-0.2-0.08-0.3-0.13c-0.1-0.05-0.2-0.08-0.3-0.13c-0.1-0.04-0.2-0.1-0.31-0.14
				c-0.11-0.04-0.21-0.08-0.32-0.12c-0.09-0.09-0.2-0.14-0.31-0.18c-0.11-0.03-0.23-0.07-0.35-0.06c-0.12,0-0.24,0-0.37,0.01
				c-0.12,0-0.24,0.03-0.36,0.03c-0.12-0.07-0.24-0.12-0.37-0.13c-0.13-0.02-0.25-0.02-0.38,0c-0.25,0.06-0.5,0.15-0.72,0.31
				c-0.29-0.12-0.57-0.08-0.82,0.01c-0.24,0.13-0.46,0.32-0.59,0.6c-0.11,0.07-0.23,0.13-0.34,0.21c-0.11,0.07-0.23,0.14-0.34,0.22
				c-0.1,0.08-0.21,0.17-0.3,0.27c-0.1,0.09-0.18,0.22-0.25,0.35l-0.06,0.08c-0.01,0.01-0.02,0.03-0.03,0.04l-0.03,0.05l-0.03,0.05
				c0,0.01-0.01,0.01-0.01,0.02l0.02,0.03c0.03,0.04,0.04,0.06,0.06,0.12c0.08,0.16,0.12,0.34,0.17,0.51
				c0.44,0.62,0.57,1.43,0.36,2.17c0.25,0.73,0.05,1.49-0.24,2.18c-0.07,0.17-0.12,0.35-0.16,0.53c-0.04,0.18-0.06,0.37-0.1,0.55
				c-0.07,0.37-0.16,0.74-0.39,1.05c-0.3,0.68-0.57,1.39-0.98,2.03c-0.46,0.61-0.96,1.18-1.2,1.94c-0.19,0.33-0.39,0.66-0.61,0.98
				c-0.06,0.08-0.12,0.16-0.17,0.23c-0.01,0.01-0.01,0.01-0.02,0.02c-0.01,0.01-0.01,0.02-0.03,0.04c0,0.01-0.01,0-0.01,0.02
				l-0.01,0.07l-0.03,0.14c0.24,0.76,0.1,1.52-0.06,2.28c0.01,0.38-0.04,0.77-0.07,1.16c-0.02,0.39-0.04,0.78,0.04,1.18
				c-0.02,0.39,0,0.79,0.02,1.18l0.01,0.3l0,0.15l0,0.02l0,0.01c0,0.02-0.01,0.04-0.04,0.09c-0.01,0.02-0.02,0.05-0.02,0.07
				c0.01,0.01,0.02,0.02,0.04,0.03c0.03,0.02,0.07,0.03,0.12,0.03l0.02,0l0.08,0l0.15,0c0.1,0,0.2-0.01,0.3-0.01
				c0.2-0.01,0.39-0.04,0.59-0.08c0.78-0.17,1.56,0.06,2.33-0.02c0.77,0.23,1.53-0.11,2.28-0.05c0.75-0.05,1.5,0.08,2.23-0.11
				c0.73-0.1,1.44-0.21,2.16-0.19c0.65-0.46,1.41-0.09,2.08-0.3c0.71,0.03,1.33-0.31,1.97-0.44c0.61-0.24,1.31-0.23,1.84-0.61
				c0.6-0.22,1.08-0.63,1.66-0.81c0.2-0.24,0.47-0.37,0.73-0.51c0.13-0.07,0.26-0.14,0.38-0.22c0.12-0.08,0.23-0.18,0.31-0.3
				c0.1-0.1,0.22-0.19,0.3-0.29c0.09-0.1,0.18-0.2,0.27-0.3c0.08-0.1,0.16-0.21,0.24-0.31c0.09-0.1,0.16-0.21,0.23-0.32
				c0.27-0.15,0.39-0.4,0.48-0.64c0.06-0.26,0.1-0.52,0.13-0.77c0.09-0.24,0.07-0.5,0.09-0.74c0-0.12,0-0.24,0.01-0.36
				c0.02-0.12,0.04-0.24,0.08-0.36c0.02-0.48,0.04-0.99-0.2-1.39c-0.05-0.11-0.07-0.22-0.07-0.34c0-0.12-0.02-0.24-0.04-0.36
				c-0.02-0.12-0.04-0.23-0.11-0.33c-0.07-0.09-0.17-0.17-0.3-0.21c-0.07-0.09-0.12-0.18-0.17-0.28c-0.05-0.1-0.08-0.2-0.13-0.31
				c-0.1-0.19-0.22-0.37-0.46-0.43c-0.24-0.05-0.37-0.2-0.5-0.35c-0.06-0.08-0.12-0.16-0.18-0.24c-0.06-0.07-0.13-0.14-0.21-0.2
				c-0.15-0.12-0.31-0.21-0.46-0.31c-0.08-0.05-0.16-0.08-0.24-0.12c-0.08-0.04-0.16-0.08-0.24-0.11c-0.35-0.16-0.71-0.24-1.06-0.31
				c-0.35-0.05-0.68-0.07-1-0.07c-0.63,0.01-1.18,0.09-1.62,0.16c-0.89,0.15-1.37,0.25-1.4,0.17c-0.02-0.08,0.51-0.38,1.6-0.72
				c0.14-0.04,0.29-0.08,0.44-0.12c0.15-0.04,0.32-0.07,0.5-0.1c0.17-0.04,0.36-0.05,0.56-0.08c0.2-0.01,0.4-0.03,0.62-0.03
				c0.43,0,0.9,0.06,1.39,0.19c0.49,0.13,0.98,0.36,1.45,0.66c0.09,0.06,0.2,0.11,0.3,0.16c0.1,0.06,0.2,0.11,0.3,0.17
				c0.21,0.12,0.37,0.29,0.49,0.51c0.17,0.17,0.36,0.33,0.55,0.51c0.08,0.09,0.17,0.19,0.24,0.3c0.08,0.11,0.14,0.22,0.18,0.35
				c0.13,0.08,0.23,0.17,0.31,0.28c0.09,0.11,0.13,0.24,0.18,0.37c0.04,0.13,0.09,0.26,0.12,0.4c0.03,0.14,0.06,0.28,0.1,0.41
				c0.18,0.54,0.21,1.12,0.33,1.7c0.05,0.15,0.07,0.3,0.06,0.45c-0.01,0.15-0.02,0.3-0.05,0.46c-0.07,0.3-0.13,0.6-0.17,0.92
				c-0.15,0.29-0.29,0.57-0.39,0.88c-0.13,0.29-0.21,0.61-0.32,0.93c-0.12,0.12-0.22,0.26-0.32,0.38c-0.1,0.13-0.19,0.28-0.29,0.42
				c-0.1,0.14-0.2,0.27-0.31,0.41c-0.1,0.14-0.22,0.25-0.34,0.37c-0.66,0.26-1.07,0.79-1.61,1.25c-0.54,0.44-1.23,0.64-1.85,0.96
				c-0.66,0.23-1.3,0.57-2,0.72c-0.66,0.31-1.36,0.52-2.11,0.51c-0.7,0.21-1.44,0.26-2.18,0.35c-0.73,0.19-1.49,0.15-2.24,0.23
				c-0.75,0.11-1.53-0.17-2.28,0.14c-0.77,0.07-1.54,0-2.32,0.07c-0.78-0.02-1.57-0.05-2.36,0.03c-0.2-0.07-0.4-0.11-0.59-0.13
				c-0.1-0.01-0.2-0.02-0.3-0.02l-0.15,0l-0.2,0.01c-0.35,0.01-0.7,0.03-1.08,0.06c-0.19,0.01-0.39,0.03-0.58,0.04l-0.04,0
				c-0.01,0-0.03,0.01-0.03-0.01l0-0.06l-0.01-0.13l-0.02-0.26c-0.02-0.36-0.03-0.74-0.03-1.12l0-0.42l0-0.3
				c0.01-0.4,0.03-0.8,0.05-1.19c-0.01-0.4-0.01-0.79-0.01-1.18c0.01-0.39,0.03-0.79,0.05-1.18c-0.06-0.79,0.17-1.55,0.08-2.32
				c-0.01-0.05-0.01-0.1-0.01-0.14l0-0.07l0-0.12l0-0.26l0-0.13c0-0.04-0.01-0.09,0.03-0.12c0.11-0.14,0.22-0.28,0.34-0.42
				l0.19-0.21c0.24-0.28,0.49-0.55,0.64-0.88c0.35-0.64,0.69-1.25,1.15-1.79c0.34-0.6,0.88-1.12,0.91-1.83
				c0.1-0.32,0.13-0.66,0.19-0.98c0.04-0.16,0.07-0.31,0.14-0.46c0.07-0.15,0.16-0.29,0.28-0.42c0.03-0.32,0.12-0.62,0.2-0.93
				c0.03-0.15,0.06-0.31,0.08-0.46c0.01-0.16,0-0.31-0.04-0.46c0.07-0.15,0.1-0.29,0.11-0.44c0-0.15-0.02-0.3-0.06-0.44
				c-0.07-0.28-0.21-0.54-0.29-0.81c-0.04-0.13-0.06-0.28-0.11-0.41c-0.05-0.12-0.1-0.24-0.15-0.36c-0.05-0.12-0.1-0.24-0.16-0.36
				l-0.08-0.18l-0.01-0.02c-0.01-0.01-0.01-0.01,0-0.02l0.03-0.04l0.06-0.08c0.08-0.1,0.17-0.2,0.24-0.31
				c0.08-0.1,0.16-0.21,0.23-0.32l0.11-0.15c0.03-0.04,0.05-0.07,0.08-0.11c0.09-0.14,0.19-0.28,0.32-0.4
				c0.13-0.12,0.27-0.22,0.4-0.33c0.29-0.18,0.57-0.36,0.86-0.54c0.24-0.25,0.58-0.34,0.89-0.43c0.33-0.06,0.63-0.13,0.92-0.28
				c0.31-0.07,0.62-0.11,0.92-0.16c0.15-0.01,0.31-0.02,0.46-0.02c0.15-0.01,0.3,0,0.45,0.03c0.15-0.08,0.31-0.13,0.46-0.13
				c0.15,0,0.3,0.04,0.44,0.09c0.14,0.04,0.28,0.13,0.41,0.19c0.13,0.07,0.26,0.12,0.39,0.18c0.13,0.06,0.26,0.1,0.4,0.13
				c0.14,0.03,0.27,0.07,0.4,0.11c0.13,0.05,0.26,0.09,0.37,0.17c0.11,0.08,0.21,0.18,0.28,0.31c0.15,0,0.28,0.05,0.4,0.12
				c0.11,0.07,0.22,0.15,0.31,0.24c0.17,0.2,0.31,0.42,0.45,0.62c0.13,0.21,0.32,0.34,0.48,0.52c0.08,0.08,0.16,0.17,0.23,0.26
				c0.06,0.1,0.11,0.2,0.14,0.32c0.22,0.12,0.3,0.34,0.37,0.55c0.03,0.11,0.05,0.22,0.08,0.32c0.03,0.1,0.07,0.2,0.12,0.29
				c0.01,0.22,0.07,0.4,0.12,0.59c0.03,0.09,0.06,0.18,0.08,0.28c0.02,0.09,0.03,0.18,0.04,0.28c0.1,0.36,0.09,0.71,0.01,1.03
				c-0.03,0.32-0.07,0.61-0.13,0.88c-0.17,0.8-0.4,1.38-0.56,1.77C71.46,65.42,71.34,65.61,71.29,65.6z"/>
		</g>
		<g id="XMLID_22396_">
			<path d="M8.16,39.88c0.05-0.01,0.23,0.45,0.52,1.35c0.29,0.9,0.7,2.25,1.22,3.98c0.17,0.58,0.35,1.2,0.55,1.87
				c0.21,0.66,0.42,1.37,0.61,2.13c0.03,0.39,0.2,0.77,0.36,1.15c0.04,0.09,0.08,0.19,0.12,0.29l0.05,0.15l0.05,0.14
				c0.03,0.1,0.04,0.21,0.03,0.37c0.01,0.07,0.02,0.14,0.04,0.21c0.1-0.02,0.22-0.05,0.33-0.08c0.06-0.02,0.11-0.03,0.17-0.05
				c0.08-0.02,0.16-0.05,0.24-0.07c0.38-0.12,0.77-0.24,1.16-0.37c0.9-0.29,1.89-0.41,2.84-0.8c0.92-0.53,2.09-0.25,3.06-0.86
				c1.04-0.36,2.14-0.63,3.27-0.92c1.18-0.1,2.29-0.61,3.47-0.97c1.26-0.08,2.45-0.51,3.66-1.02c1.34,0,2.62-0.4,3.85-1.06
				c1.31-0.36,2.69-0.59,4.02-1.11c1.37-0.39,2.75-0.83,4.19-1.15c1.37-0.6,2.82-0.98,4.34-1.19c1.41-0.63,2.94-0.94,4.49-1.23
				c1.56-0.27,3.01-1.03,4.63-1.26c1.57-0.41,3.14-0.9,4.76-1.29c1.63-0.33,3.29-0.66,4.88-1.32c1.63-0.5,3.28-1.03,4.99-1.35
				c1.61-0.71,3.34-1.05,5.09-1.38c1.7-0.5,3.48-0.79,5.19-1.4c0.88-0.21,1.75-0.48,2.62-0.73c0.44-0.13,0.87-0.25,1.32-0.37
				l0.33-0.08l0.04-0.01l0,0h0.01l0.02,0c0.03,0,0.06,0,0.11,0v0c0-0.02,0.01-0.06,0.01-0.09l0-0.03v-0.02v-0.01l-0.01-0.04
				l-0.08-0.33c-0.1-0.45-0.21-0.89-0.32-1.33c-0.22-0.88-0.48-1.75-0.79-2.6c-0.63-1.7-0.86-3.49-1.38-5.19
				c-0.02-0.15-0.04-0.29-0.06-0.43l-0.04-0.21l-0.01-0.05c0-0.02-0.01-0.04-0.01-0.04l0-0.03c0-0.07-0.02-0.14-0.04-0.21
				c-0.07,0.02-0.15,0.06-0.21,0.08c-0.01,0-0.01,0.01-0.03,0.01l-0.11,0.03l-0.21,0.07l-0.42,0.14c-0.56,0.18-1.13,0.35-1.7,0.47
				c-1.68,0.47-3.38,0.76-5,1.33c-1.63,0.49-3.25,0.97-4.89,1.3c-1.51,0.8-3.22,0.76-4.77,1.26c-1.61,0.27-3.11,0.86-4.64,1.22
				c-1.5,0.48-3.07,0.64-4.5,1.19c-1.49,0.37-2.9,0.9-4.36,1.14c-1.38,0.56-2.86,0.6-4.2,1.1c-1.37,0.37-2.71,0.74-4.04,1.05
				c-1.39,0.07-2.61,0.65-3.86,1c-1.26,0.31-2.44,0.83-3.68,0.95c-1.2,0.3-2.39,0.48-3.49,0.9c-1.11,0.34-2.33,0.18-3.29,0.84
				c-1.04,0.35-2.16,0.27-3.08,0.79c-0.92,0.5-1.95,0.49-2.86,0.73c-0.92,0.23-1.79,0.45-2.63,0.66c-3.77,0.95-6.75,1.67-8.78,2.14
				c-2.04,0.47-3.13,0.68-3.15,0.61c-0.02-0.09,1.28-0.52,3.73-1.26c2.45-0.74,6.04-1.78,10.58-3.07c0.91-0.26,1.8-0.71,2.84-0.8
				c0.99-0.26,1.97-0.69,3.06-0.86c0.99-0.55,2.14-0.63,3.27-0.91c1.12-0.32,2.31-0.54,3.47-0.97c1.15-0.47,2.44-0.57,3.67-1.02
				c1.3-0.17,2.57-0.56,3.85-1.06c1.36-0.19,2.65-0.75,4.02-1.11c1.44-0.12,2.79-0.67,4.19-1.15c1.4-0.47,2.89-0.74,4.35-1.19
				c1.49-0.35,2.96-0.86,4.49-1.23c1.49-0.52,3.03-0.98,4.63-1.26c1.55-0.5,3.15-0.86,4.76-1.29c1.58-0.53,3.24-0.86,4.88-1.32
				c1.63-0.49,3.38-0.63,4.99-1.35c0.56-0.16,1.13-0.31,1.7-0.46c0.85-0.22,1.69-0.44,2.55-0.67c0.14,0.52,0.28,1.04,0.42,1.55
				l0.15,0.53l0.12,0.42c0.42,1.72,0.85,3.46,1.39,5.19c0.1,0.91,0.31,1.79,0.56,2.66c0.13,0.44,0.27,0.87,0.41,1.3l0.11,0.33
				l0.18,0.58c0.13,0.42,0.25,0.83,0.38,1.25l0,0c-0.72,0.21-1.44,0.41-2.16,0.62c-0.44,0.12-0.88,0.24-1.32,0.36
				c-0.88,0.23-1.76,0.45-2.64,0.66c-1.74,0.49-3.47,0.94-5.19,1.39c-1.69,0.54-3.44,0.8-5.1,1.36c-1.65,0.56-3.38,0.78-5,1.33
				c-1.63,0.52-3.24,1-4.89,1.3c-1.61,0.43-3.26,0.61-4.77,1.26c-1.55,0.47-3.02,1.19-4.64,1.22c-1.5,0.5-3.07,0.63-4.5,1.19
				c-1.55,0.12-2.93,0.77-4.36,1.14c-1.44,0.33-2.86,0.61-4.2,1.1c-1.34,0.5-2.74,0.66-4.04,1.05c-1.27,0.51-2.65,0.5-3.86,1
				c-1.26,0.3-2.47,0.69-3.68,0.95c-1.09,0.69-2.35,0.63-3.49,0.9c-1.14,0.25-2.16,0.84-3.29,0.84c-0.98,0.56-2.07,0.6-3.08,0.79
				c-1.01,0.18-1.9,0.64-2.86,0.73c-0.38,0.19-0.77,0.29-1.16,0.36l-0.15,0.03l-0.21,0.04c-0.14,0.03-0.28,0.05-0.43,0.08
				c-0.28,0.05-0.54,0.11-0.8,0.18c-0.04-0.16-0.08-0.31-0.13-0.45c-0.05-0.33-0.12-0.63-0.18-0.92c-0.05-0.22-0.11-0.41-0.16-0.61
				c-0.12-0.39-0.24-0.78-0.33-1.16c-0.25-0.74-0.42-1.46-0.53-2.15c-0.16-0.67-0.32-1.31-0.46-1.89c-0.42-1.76-0.74-3.13-0.94-4.06
				C8.18,40.39,8.11,39.9,8.16,39.88z"/>
		</g>
		<g id="XMLID_22395_">
			<path d="M31.3,33.67c0.1-0.03,0.44,0.84,0.96,2.44c0.09,0.27,0.18,0.56,0.28,0.86c0.11,0.3,0.23,0.63,0.31,0.98
				c-0.04,0.39,0.44,0.65,0.34,1.1c0.04,0.4,0.21,0.8,0.37,1.21c0.16,0.41,0.15,0.89,0.39,1.32c0.39,0.39-0.04,1.01,0.42,1.42
				c0.2,0.47,0.32,0.99,0.44,1.52c0,0.05-0.01,0.1-0.01,0.15l0,0.04c0,0.01,0,0.01,0,0.02c0,0.01,0,0.03,0,0.04
				c0,0.05,0.01,0.1,0.02,0.15c0.03,0.09,0.08,0.17,0.12,0.21c0.09-0.05,0.16-0.1,0.23-0.12c0.04,0.05,0.11,0.08,0.19,0.08l0.03,0
				c0.01,0,0.03-0.01,0.05-0.01c0.04-0.01,0.07-0.01,0.11-0.02c0.07-0.02,0.14-0.04,0.21-0.06c0.28-0.09,0.55-0.24,0.82-0.4
				c0.67,0.18,1.26-0.04,1.79-0.51c0.61-0.17,1.27-0.21,1.87-0.53c0.63-0.19,1.27-0.43,1.94-0.55c0.6-0.4,1.28-0.57,2.02-0.57
				c0.62-0.42,1.35-0.51,2.09-0.58c0.74-0.06,1.37-0.59,2.15-0.6c0.73-0.18,1.45-0.45,2.21-0.61c0.78-0.1,1.56-0.2,2.27-0.62
				c0.75-0.26,1.5-0.55,2.32-0.63c0.71-0.46,1.54-0.56,2.37-0.64c0.79-0.26,1.64-0.29,2.41-0.65c0.41-0.09,0.81-0.23,1.21-0.35
				l0.27-0.08c0.01-0.01,0.02-0.01,0.03-0.01c0.02,0,0.05,0,0.11,0.01l0,0c0.02-0.02,0.03-0.04,0.04-0.08c0-0.02,0-0.04,0-0.07
				c0,0,0,0,0-0.01l-0.01-0.04l-0.02-0.08l-0.04-0.15c-0.1-0.41-0.23-0.81-0.41-1.2c-0.38-0.77-0.36-1.63-0.64-2.42
				c0.02-0.86-0.5-1.57-0.63-2.37c-0.23-0.78-0.28-1.59-0.61-2.33c-0.13-0.38-0.25-0.75-0.35-1.13l-0.08-0.28l-0.04-0.14l-0.01-0.04
				c0-0.02,0-0.01,0-0.01l0-0.01c0-0.03,0.01-0.06,0.02-0.12c-0.04,0.03-0.07,0.06-0.09,0.08c-0.07,0.1-0.02,0.03-0.08-0.01
				c-0.33,0.03-0.67,0.05-0.98,0.17c-0.77,0.04-1.44,0.41-2.16,0.56c-0.69,0.26-1.45,0.21-2.1,0.54c-0.7,0.15-1.33,0.48-2.03,0.52
				c-0.61,0.36-1.36,0.2-1.96,0.5c-0.64,0.17-1.26,0.35-1.88,0.48c-0.69-0.12-1.22,0.28-1.8,0.45c-0.59,0.13-1.11,0.47-1.72,0.43
				c-0.56,0.12-1.13,0.14-1.63,0.4c-0.51,0.18-1.15-0.14-1.54,0.37c-0.47,0.2-1.05-0.03-1.44,0.35c-0.4,0.36-0.91,0.21-1.34,0.32
				c-0.43,0.1-0.84,0.2-1.23,0.29c-3.53,0.81-5.57,1.21-5.61,1.05c-0.05-0.17,2.39-0.99,6.6-2.26c0.42-0.13,0.81-0.45,1.32-0.39
				c0.46-0.12,0.89-0.4,1.42-0.42c0.42-0.4,0.99-0.32,1.52-0.44c0.52-0.15,1.08-0.21,1.61-0.47c0.51-0.3,1.14-0.23,1.7-0.49
				c0.63,0,1.21-0.2,1.79-0.51c0.65,0,1.23-0.37,1.87-0.53c0.7,0.07,1.31-0.27,1.95-0.55c0.64-0.27,1.35-0.32,2.02-0.57
				c0.7-0.14,1.37-0.43,2.09-0.58c0.68-0.3,1.39-0.54,2.15-0.6c0.31-0.12,0.62-0.21,0.94-0.29c0.59-0.15,1.19-0.3,1.78-0.46
				c0.05,0.18,0.1,0.37,0.15,0.55c0.11,0.32,0.22,0.67,0.32,1.02l0.1,0.37l0.07,0.29c0.09,0.38,0.17,0.77,0.29,1.15
				c0.26,0.75,0.15,1.61,0.63,2.32c0.24,0.77,0.38,1.59,0.64,2.37c0.18,0.81,0.36,1.62,0.65,2.41c-0.02,0.44,0.06,0.86,0.19,1.26
				c0.23,0.67,0.46,1.36,0.69,2.04l0,0c-0.36,0.12-0.75,0.24-1.14,0.35l-0.59,0.17l-0.34,0.09c-0.41,0.1-0.82,0.19-1.23,0.28
				c-0.81,0.24-1.61,0.45-2.42,0.64c-0.78,0.29-1.62,0.31-2.37,0.63c-0.75,0.32-1.59,0.29-2.33,0.61c-0.75,0.28-1.49,0.53-2.28,0.6
				c-0.75,0.2-1.55,0.16-2.22,0.58c-0.72,0.25-1.35,0.74-2.16,0.56c-0.68,0.28-1.45,0.2-2.1,0.54c-0.76-0.09-1.36,0.35-2.03,0.52
				c-0.68,0.12-1.35,0.21-1.96,0.5c-0.6,0.3-1.28,0.27-1.88,0.47c-0.57,0.32-1.26,0.12-1.8,0.45c-0.3,0.06-0.58,0.14-0.87,0.22
				l-0.21,0.06l-0.25,0.07c-0.23,0.06-0.47,0.12-0.69,0.16c-0.29,0.19-0.61,0.33-0.91,0.41c-0.1-0.34-0.16-0.74-0.21-1.1
				c-0.04-0.35-0.09-0.74-0.11-0.88c-0.09-0.54-0.52-0.97-0.38-1.54c-0.41-0.42-0.3-0.96-0.34-1.44c-0.04-0.48-0.36-0.87-0.32-1.34
				c-0.31-0.37-0.11-0.86-0.29-1.23c0.03-0.42-0.2-0.76-0.26-1.12c-0.14-0.34-0.21-0.68-0.22-1.01c-0.07-0.32-0.13-0.61-0.19-0.89
				C31.33,34.62,31.19,33.7,31.3,33.67z"/>
		</g>
		<g id="XMLID_22394_">
			<path d="M20.41,18.38c0.02,0.02,0.01,0.07-0.03,0.14c-0.02,0.04-0.04,0.08-0.07,0.13c-0.03,0.05-0.05,0.11-0.08,0.18
				c-0.12,0.27-0.23,0.68-0.2,1.23c0.02,0.19,0.03,0.38,0.08,0.59c0.02,0.1,0.06,0.21,0.09,0.32c0.03,0.11,0.05,0.22,0.08,0.34
				c-0.04,0.13,0.05,0.24,0.15,0.35c0.09,0.11,0.17,0.22,0.11,0.38c0.02,0.14,0.06,0.27,0.12,0.4c0.07,0.13,0.15,0.25,0.23,0.39
				c0.17,0.25,0.17,0.6,0.44,0.84c0.19,0.09,0.21,0.26,0.23,0.45c0.02,0.18,0.06,0.36,0.29,0.43c0.24,0.27,0.41,0.59,0.6,0.92
				c0.02,0.21,0.12,0.38,0.25,0.52c0.14,0.14,0.3,0.27,0.42,0.43c0.03,0.47,0.36,0.75,0.75,0.98c-0.01,0.27,0.06,0.49,0.21,0.65
				c0.14,0.17,0.35,0.28,0.62,0.35c0.28,0.34,0.48,0.77,0.89,1.02c0.32,0.33,0.68,0.64,0.96,1.03c0.49,0.2,0.82,0.56,1.02,1.05
				c0.52,0.18,0.81,0.6,1.09,1.05c0.14,0.23,0.36,0.37,0.58,0.51c0.1,0.06,0.26,0.18,0.24,0.16c0.02,0.01,0.02,0.03,0.02,0.1
				c0.02,0,0.05-0.01,0.08-0.02l0.02-0.01c0.01,0,0,0,0.05-0.02l0.19-0.06c0.26-0.08,0.52-0.16,0.79-0.21
				c0.56-0.04,1.12-0.08,1.61-0.44c0.53-0.2,1.06-0.43,1.65-0.45c0.49-0.4,1.08-0.44,1.68-0.46c0.55-0.19,1.17-0.17,1.71-0.46
				c0.59-0.11,1.13-0.42,1.74-0.47c0.3-0.04,0.6-0.08,0.9-0.15c0.15-0.03,0.29-0.08,0.43-0.13l0.11-0.04l0.05-0.02l0.03-0.01
				c0.01,0,0,0,0.01-0.01c0.01-0.02,0.02-0.03,0.02-0.05c-0.01-0.09,0-0.07,0.07-0.06c0.04,0.01,0.09,0.01,0.13,0.01
				c0.01,0,0.03,0,0.02,0c0,0,0-0.01-0.01-0.01c-0.01-0.01-0.02-0.02-0.04-0.03c0.17,0,0.05-0.09-0.02-0.12
				c-0.04-0.02-0.08-0.02-0.11-0.03c-0.1-0.09-0.21-0.19-0.29-0.31c-0.2-0.2-0.36-0.43-0.55-0.64c-0.19-0.21-0.38-0.41-0.63-0.55
				c-0.43-0.35-0.86-0.69-1.18-1.14c-0.32-0.05-0.51-0.24-0.67-0.46c-0.16-0.22-0.29-0.47-0.52-0.61c-0.3-0.47-0.82-0.66-1.19-1.02
				c-0.22-0.13-0.39-0.33-0.57-0.51c-0.18-0.18-0.36-0.35-0.61-0.45c-0.38-0.33-0.86-0.5-1.16-0.89c-0.25-0.06-0.42-0.23-0.58-0.41
				c-0.17-0.17-0.33-0.35-0.56-0.42c-0.38-0.26-0.77-0.5-1.12-0.77c-0.22-0.48-0.72-0.51-1.09-0.7c-0.17-0.12-0.37-0.19-0.56-0.27
				c-0.19-0.08-0.36-0.18-0.49-0.37c-0.34-0.21-0.63-0.51-1.02-0.57c-0.35-0.12-0.49-0.71-0.98-0.5c-0.17-0.04-0.31-0.18-0.44-0.29
				c-0.14-0.11-0.29-0.2-0.49-0.14c-0.39,0.11-0.59-0.25-0.88-0.36c-0.29-0.1-0.56-0.2-0.82-0.28c-1.19-0.36-2.16-0.45-2.79-0.33
				C20.76,18.2,20.47,18.45,20.41,18.38c-0.03-0.03,0.03-0.14,0.2-0.31c0.18-0.16,0.48-0.36,0.92-0.49c0.44-0.13,1-0.18,1.64-0.15
				c0.64,0.04,1.36,0.16,2.14,0.38c0.31,0.09,0.7,0,0.96,0.3c0.16,0.06,0.34,0.09,0.52,0.14c0.18,0.05,0.35,0.11,0.49,0.24
				c0.45-0.1,0.71,0.27,1.05,0.45c0.36,0.16,0.68,0.43,1.09,0.53c0.22,0.03,0.4,0.15,0.57,0.28c0.17,0.13,0.35,0.26,0.56,0.33
				c0.29,0.36,0.69,0.56,1.16,0.67c0.3,0.38,0.79,0.47,1.19,0.74c0.25,0.48,0.75,0.61,1.21,0.81c0.46,0.21,0.78,0.62,1.23,0.88
				c0.19,0.18,0.4,0.32,0.62,0.47c0.21,0.15,0.43,0.3,0.62,0.48c0.48,0.24,0.93,0.55,1.24,1.02c0.23,0.14,0.44,0.32,0.64,0.51
				c0.2,0.19,0.4,0.38,0.6,0.58c0.47,0.31,0.81,0.78,1.24,1.16c0.23,0.18,0.39,0.42,0.57,0.65c0.18,0.22,0.37,0.45,0.67,0.56
				c0.11,0.1,0.2,0.2,0.31,0.32c0.18,0.2,0.37,0.4,0.55,0.6c0.37,0.4,0.72,0.79,1.14,1.19l0.26,0.29l0.13,0.15l0.02,0.02
				c0,0.01,0.02,0.01,0,0.01l-0.05,0.01l-0.1,0.03c-0.27,0.07-0.54,0.13-0.81,0.2c-0.53,0.14-1.04,0.28-1.56,0.46
				c-0.15,0.01-0.29,0.02-0.43,0.03l-0.05,0h-0.03l-0.06,0c-0.04,0-0.08,0-0.11,0.01c-0.15,0.02-0.29,0.06-0.44,0.11
				c-0.28,0.1-0.56,0.24-0.84,0.37c-0.56,0.23-1.16,0.35-1.74,0.46c-0.57,0.18-1.14,0.32-1.71,0.45c-0.54,0.23-1.16,0.19-1.68,0.44
				c-0.53,0.26-1.14,0.17-1.65,0.43c-0.52,0.22-1.05,0.41-1.62,0.42c-0.27,0.07-0.55,0.08-0.82,0.12c-0.07,0.01-0.13,0.02-0.2,0.03
				c-0.02,0-0.09,0.02-0.14,0.04l-0.17,0.05c-0.11,0.04-0.22,0.08-0.34,0.12c-0.06,0.02-0.12,0.05-0.18,0.08l-0.09,0.04
				c-0.03,0.01-0.06,0.04-0.09,0.02c-0.18-0.15-0.38-0.29-0.58-0.44c-0.24-0.19-0.32-0.21-0.44-0.3c-0.22-0.16-0.4-0.36-0.46-0.68
				c-0.45-0.3-0.62-0.86-1.09-1.12c-0.16-0.56-0.69-0.74-1.02-1.11c-0.3-0.4-0.54-0.83-0.95-1.1c-0.41-0.28-0.56-0.77-0.88-1.09
				c-0.21-0.13-0.31-0.34-0.41-0.54c-0.1-0.21-0.2-0.41-0.4-0.53c-0.24-0.37-0.53-0.68-0.73-1.05c-0.27-0.06-0.39-0.23-0.46-0.43
				c-0.07-0.2-0.09-0.42-0.19-0.6c-0.16-0.36-0.63-0.53-0.57-1c-0.22-0.09-0.32-0.25-0.37-0.42c-0.06-0.18-0.07-0.37-0.11-0.54
				c-0.08-0.34-0.41-0.56-0.39-0.93c-0.15-0.11-0.19-0.27-0.21-0.43c-0.01-0.16-0.01-0.33-0.09-0.45c0.03-0.32-0.17-0.56-0.2-0.83
				c-0.06-0.13-0.09-0.26-0.1-0.39c-0.02-0.13-0.02-0.26,0.01-0.38c-0.02-0.24-0.01-0.48,0.01-0.69c0.07-0.65,0.32-1.14,0.55-1.39
				c0.06-0.06,0.11-0.12,0.16-0.16c0.05-0.04,0.1-0.07,0.14-0.09C20.34,18.37,20.39,18.36,20.41,18.38z"/>
		</g>
		<g id="XMLID_22393_">
			<path d="M61.25,7.45c0.01-0.03,0.05-0.04,0.14-0.04c0.04,0,0.1,0,0.16,0.01c0.06,0.01,0.13,0.03,0.22,0.06
				c0.32,0.1,0.77,0.39,1.16,0.92c0.12,0.18,0.25,0.37,0.35,0.59c0.07,0.11,0.12,0.22,0.17,0.34c0.05,0.12,0.1,0.24,0.13,0.37
				c-0.03,0.15,0.07,0.26,0.16,0.39c0.08,0.12,0.17,0.26,0.09,0.43c0,0.15,0.02,0.3,0.06,0.45c0.03,0.15,0.08,0.3,0.12,0.46
				c0.08,0.32-0.02,0.66,0.12,1c0.15,0.17,0.08,0.35,0.01,0.53c-0.06,0.18-0.12,0.36,0.05,0.55c0.08,0.37,0.04,0.75,0.01,1.15
				c-0.11,0.19-0.13,0.39-0.11,0.59c0.01,0.2,0.06,0.41,0.06,0.62c-0.29,0.39-0.22,0.82-0.1,1.28c-0.2,0.2-0.3,0.4-0.32,0.62
				c-0.02,0.22,0.04,0.46,0.16,0.71c-0.06,0.45-0.28,0.89-0.21,1.38c-0.07,0.47-0.1,0.96-0.27,1.43c0.12,0.53-0.01,1.03-0.33,1.47
				c0.12,0.56-0.12,1.04-0.39,1.51c-0.14,0.23-0.16,0.5-0.19,0.77c-0.02,0.15-0.02,0.22-0.11,0.51c-0.07,0.24-0.16,0.47-0.27,0.67
				c0,0.04-0.04,0.03-0.07,0.04l-0.09,0.02l-0.17,0.05l-0.35,0.1l-0.32,0.09l-0.19,0.06c-0.26,0.08-0.52,0.16-0.79,0.21
				c-0.56,0.04-1.12,0.08-1.61,0.44c-0.53,0.2-1.06,0.43-1.65,0.45c-0.49,0.4-1.08,0.44-1.68,0.46c-0.55,0.19-1.17,0.17-1.71,0.46
				c-0.59,0.11-1.13,0.42-1.74,0.47c-0.3,0.04-0.6,0.08-0.9,0.15c-0.15,0.03-0.29,0.08-0.43,0.13l-0.11,0.04l-0.05,0.02l-0.03,0.01
				l-0.05,0.02c-0.13,0.05-0.26,0.1-0.39,0.15c-0.54,0.23-1.12,0.37-1.63,0.47c-0.26,0.05-0.5,0.1-0.75,0.16l-0.09,0.02l-0.05,0.01
				c0-0.01,0.01-0.03,0.01-0.05l0.05-0.2c0.03-0.13,0.06-0.26,0.08-0.38c0.28-0.65,0.37-1.08,0.45-1.59
				c0.04-0.25,0.07-0.51,0.12-0.77c0.02-0.15,0.05-0.29,0.11-0.43c0.06-0.29,0.15-0.56,0.26-0.83c0.1-0.27,0.19-0.54,0.21-0.83
				c0.12-0.56,0.23-1.12,0.5-1.62c-0.11-0.33,0.01-0.58,0.16-0.82c0.14-0.24,0.33-0.47,0.38-0.74c0.33-0.46,0.34-1.02,0.57-1.5
				c0.12-0.52,0.54-0.91,0.6-1.44c0.23-0.46,0.28-0.98,0.62-1.37c0.01-0.26,0.15-0.47,0.3-0.67c0.15-0.2,0.29-0.39,0.34-0.64
				c0.21-0.43,0.41-0.85,0.65-1.24c0.48-0.26,0.47-0.77,0.67-1.16c0.12-0.18,0.19-0.39,0.28-0.58c0.09-0.19,0.2-0.38,0.39-0.5
				c0.24-0.34,0.57-0.61,0.68-1c0.19-0.35,0.79-0.39,0.69-0.92c0.08-0.17,0.25-0.27,0.4-0.38c0.15-0.11,0.28-0.23,0.29-0.45
				c0.03-0.43,0.46-0.5,0.68-0.74c0.23-0.23,0.45-0.44,0.68-0.63c1-0.88,1.98-1.39,2.73-1.49c0.05-0.01,0.09-0.02,0.13-0.02
				c0.04,0,0.09,0,0.13-0.01c0.08,0,0.16-0.01,0.23,0C60.79,7.26,60.91,7.27,61,7.3C61.18,7.36,61.26,7.41,61.25,7.45
				c-0.01,0.04-0.13,0.07-0.33,0.09c-0.21,0.04-0.5,0.1-0.86,0.26c-0.71,0.32-1.64,1.08-2.6,2.24c-0.19,0.24-0.24,0.6-0.58,0.75
				c-0.11,0.12-0.18,0.28-0.26,0.43c-0.08,0.15-0.18,0.29-0.33,0.4c0.01,0.44-0.37,0.61-0.6,0.92c-0.19,0.32-0.48,0.6-0.6,1
				c-0.04,0.21-0.16,0.38-0.28,0.54c-0.13,0.16-0.26,0.33-0.31,0.54c-0.36,0.28-0.52,0.69-0.59,1.15c-0.35,0.32-0.38,0.81-0.58,1.22
				c-0.43,0.31-0.47,0.81-0.57,1.29c-0.11,0.47-0.42,0.87-0.56,1.35c-0.23,0.44-0.32,0.95-0.54,1.42c-0.07,0.52-0.21,1.02-0.52,1.47
				c-0.05,0.26-0.13,0.51-0.22,0.77c-0.09,0.25-0.2,0.5-0.27,0.76c-0.06,0.55-0.32,1.04-0.45,1.58c-0.05,0.27-0.2,0.52-0.32,0.78
				c-0.12,0.26-0.18,0.53-0.12,0.84c-0.02,0.14-0.06,0.28-0.09,0.41c-0.01,0.02-0.01,0.03-0.02,0.05c-0.02,0.04-0.04,0.09-0.01,0.1
				l-0.02,0.04c-0.01,0.02-0.02,0.03-0.01,0.03c0.01,0,0.03,0,0.05,0c0.04-0.01,0.11-0.03,0.14-0.08c0.01,0.03,0.03,0.06,0.04,0.07
				l0.01,0.01h0.03l0.06,0c0.04,0,0.08-0.01,0.11-0.01c0.15-0.02,0.29-0.06,0.44-0.1c0.29-0.1,0.56-0.24,0.84-0.37
				c0.56-0.23,1.15-0.35,1.74-0.47c0.57-0.18,1.15-0.32,1.72-0.45c0.54-0.23,1.16-0.19,1.68-0.44c0.53-0.26,1.14-0.18,1.65-0.43
				c0.52-0.22,1.05-0.41,1.62-0.42c0.48-0.13,1.32-0.09,1.12-0.29c0-0.03-0.02-0.07-0.05-0.09c-0.04,0.03-0.02-0.17,0-0.29
				c0.04-0.26,0.13-0.5,0.38-0.69c0.05-0.52,0.45-0.93,0.42-1.46c0.4-0.41,0.25-0.96,0.36-1.42c0.16-0.45,0.35-0.9,0.32-1.38
				c-0.05-0.48,0.24-0.88,0.26-1.33c-0.04-0.23,0.04-0.44,0.12-0.64c0.08-0.21,0.16-0.41,0.09-0.63c0.09-0.41,0.07-0.83,0.16-1.22
				c-0.17-0.22-0.16-0.41-0.09-0.6c0.06-0.19,0.18-0.37,0.2-0.56c0.07-0.38-0.22-0.74,0.06-1.09c-0.14-0.18-0.15-0.35-0.12-0.52
				c0.03-0.17,0.11-0.34,0.14-0.5c0.07-0.33-0.17-0.63-0.04-0.94c-0.12-0.14-0.11-0.28-0.09-0.43c0.02-0.15,0.06-0.29,0-0.42
				c0.08-0.29-0.1-0.52-0.14-0.76c-0.03-0.05-0.05-0.11-0.07-0.17c-0.02-0.05-0.04-0.11-0.06-0.16c-0.03-0.11-0.05-0.22-0.06-0.33
				c-0.07-0.2-0.15-0.38-0.23-0.55c-0.25-0.49-0.55-0.79-0.78-0.96c-0.06-0.04-0.11-0.09-0.16-0.11c-0.05-0.03-0.09-0.05-0.12-0.08
				C61.28,7.51,61.25,7.47,61.25,7.45z"/>
		</g>
	</g>
</g>
</svg>
