<?xml version="1.0" encoding="utf-8"?>
<!-- Generator: Adobe Illustrator 26.3.1, SVG Export Plug-In . SVG Version: 6.00 Build 0)  -->
<svg version="1.1" id="Capa_1" xmlns="http://www.w3.org/2000/svg" xmlns:xlink="http://www.w3.org/1999/xlink" x="0px" y="0px"
	 viewBox="0 0 100 100" style="enable-background:new 0 0 100 100; fill: #ffffff;" xml:space="preserve">
<g>
	<g id="XMLID_21619_">
		<g id="XMLID_21633_">
			<path d="M92.24,82.1c0.05,0.01,0,0.38-0.21,1.06c-0.22,0.67-0.59,1.66-1.3,2.83c-0.24,0.39-0.52,0.79-0.86,1.2
				c-0.33,0.41-0.73,0.84-1.23,1.18c-0.15,0.06-0.27,0.14-0.4,0.24c-0.13,0.09-0.25,0.2-0.39,0.29c-0.14,0.1-0.28,0.19-0.44,0.25
				c-0.08,0.03-0.16,0.06-0.25,0.08c-0.09,0.02-0.18,0.02-0.27,0.02c-0.17,0.04-0.35,0.05-0.52,0.09c-0.18,0.03-0.36,0.04-0.53,0.06
				c-0.33,0.02-0.68,0.05-1.02,0.08c-0.7,0.06-1.43-0.06-2.19,0.08c-0.76,0.29-1.54-0.29-2.35,0.06c-0.81,0.08-1.64,0.06-2.5,0.05
				c-0.86-0.2-1.75,0.01-2.66,0.05c-0.91-0.25-1.85-0.14-2.8,0.03c-0.96-0.34-1.94-0.29-2.94,0.03c-1,0.01-2.03-0.12-3.08,0.03
				c-1.05,0.02-2.11,0.08-3.2,0.02c-1.09,0.23-2.2,0.22-3.32,0.02c-1.13,0.25-2.27,0.15-3.44,0.02c-1.16-0.14-2.34,0.21-3.54,0.01
				c-1.2-0.02-2.41,0.05-3.64,0.01c-1.23-0.1-2.47-0.22-3.73,0c-1.26,0.06-2.53,0.13-3.81,0c-1.29,0.26-2.58,0.14-3.89-0.01
				c-0.65,0.02-1.31-0.02-1.97-0.04c-0.33-0.01-0.66-0.02-0.99-0.02c-0.17,0-0.33,0.01-0.5,0.01l-0.25,0.02l-0.14,0.01l-0.23,0.01
				c-1.18-0.03-2.37,0-3.64,0.01c-0.08-0.13-0.14-0.28-0.19-0.42l-0.07-0.22l-0.04-0.11l-0.02-0.06l-0.01-0.03
				c0-0.01-0.01-0.02,0-0.02c0.04-0.01,0.09-0.01,0.14-0.05c0.02-0.01,0.04-0.02,0.06-0.03l0.06-0.06c0.02-0.02,0.04-0.03,0.06-0.06
				l0.06-0.09c0.04-0.04,0.07-0.17,0.1-0.26c0.01-0.03,0.01-0.04,0.02-0.08l0.01-0.12c0.01-0.08,0.02-0.16,0.02-0.24
				c0.15-0.03,0.2-0.06,0.29-0.09l0.24-0.09l0.49-0.18l0.24-0.09l0.03-0.01l0.02-0.01l0.03-0.02l0.07-0.04l0.28-0.18
				c0.09-0.06,0.19-0.12,0.28-0.18l0.22-0.2l0.23-0.2c0.05-0.04,0.05-0.05,0.06-0.07l0.04-0.06c0.35-0.46,0.69-0.9,0.98-1.4
				c0.29-0.49,0.52-1.05,0.61-1.62c0.02-0.04,0.04-0.08,0.05-0.13l0.02-0.06c0-0.01,0.01-0.02,0.01-0.04l0.01-0.06
				c0.02-0.08,0.04-0.17,0.05-0.25l0.03-0.27c0.18-0.19,0.31-0.35,0.4-0.48c0.01-0.03,0.07-0.07,0.11-0.1l0.12-0.1l0.25-0.2
				l0.52-0.02l0.26-0.01l0.15-0.01c0.2-0.01,0.39-0.03,0.59-0.04c0.39-0.03,0.78-0.04,1.17-0.02c1.28-0.04,2.56,0.12,3.81-0.03
				c1.26-0.06,2.5-0.12,3.73-0.02c1.23-0.39,2.44,0.07,3.64-0.02c1.2,0.15,2.38-0.05,3.54-0.01c1.16-0.08,2.31,0.15,3.43-0.01
				c1.13,0.02,2.23-0.14,3.32-0.01c1.08-0.2,2.16,0.14,3.2-0.01c1.05-0.01,2.07-0.03,3.08,0c1.01,0.29,1.98,0.03,2.94,0
				c0.96,0.02,1.89-0.19,2.8,0c0.91,0.02,1.8,0.14,2.66,0.01c0.86-0.05,1.7,0.41,2.5,0.01c0.81-0.08,1.59,0.29,2.34,0.02
				c0.75-0.25,1.48,0.02,2.18,0.02c0.7,0.01,1.37,0.02,2,0.02c2.87,0.04,5.12,0.09,6.66,0.14c1.54,0.06,2.36,0.13,2.36,0.21
				c0,0.09-1.01,0.18-2.9,0.28c-1.88,0.1-4.64,0.2-8.12,0.3c-0.7,0.02-1.42,0.23-2.17,0.06c-0.75,0.01-1.53,0.17-2.34,0.06
				c-0.81,0.28-1.64,0.07-2.5,0.06c-0.86,0.02-1.75-0.06-2.66,0.06c-0.91,0.17-1.85-0.06-2.8,0.06c-0.96-0.16-1.94-0.11-2.94,0.06
				c-1-0.16-2.03,0.05-3.08,0.06c-1.05-0.24-2.12-0.06-3.2,0.06c-1.09,0.1-2.2-0.02-3.32,0.06c-1.13-0.04-2.27,0.09-3.43,0.05
				c-1.16,0.13-2.34,0.19-3.54,0.05c-1.2,0.09-2.41,0.04-3.64,0.05c-1.23,0.11-2.47,0.01-3.73,0.05c-1.26,0.06-2.53-0.25-3.81,0.05
				c-0.39,0.01-0.78,0.02-1.17,0.02c-0.2,0-0.39,0-0.59,0h-0.15l-0.02,0l-0.04,0c-0.02,0-0.05-0.01-0.06,0l0,0.07v0.02l0,0.03v0.01
				l-0.01,0.04l-0.01,0.08L36,83.92c-0.33,1.42-1.01,2.78-2.05,3.91l-0.08,0.06c-0.02,0.01-0.06,0.05-0.06,0.04
				c-0.01,0-0.03,0-0.04,0c-0.03,0-0.06,0.01-0.09,0.02c-0.06,0.02-0.13,0.05-0.19,0.08c-0.09,0.05-0.16,0.09-0.19,0.11
				c-0.04,0.03-0.03,0.04,0,0.03c0.03,0,0.08-0.02,0.13-0.03c0.24-0.04,0.29-0.05,0.33-0.04c0.03,0,0.06,0.03,0.14,0.04l0.01,0
				l0.11,0l0.25,0l0.5,0c0.33,0,0.66,0,0.99,0c0.66,0.01,1.32,0.02,1.97,0.03c1.31-0.08,2.6,0.13,3.89,0.02
				c1.28-0.11,2.55,0.13,3.81,0.02c1.26-0.08,2.5-0.12,3.73,0.02c1.23,0,2.44,0.26,3.64,0.03c1.2-0.05,2.38-0.36,3.54,0.03
				c1.16-0.09,2.31,0.19,3.43,0.03c1.13,0.28,2.23,0.02,3.32,0.03c1.09,0.05,2.15,0.15,3.2,0.03c1.05-0.13,2.07,0.07,3.08,0.03
				c1-0.16,1.99,0.21,2.94,0.03c0.96,0.04,1.89-0.03,2.8,0.03c0.91-0.38,1.79-0.01,2.66,0.02c0.86,0.05,1.69-0.26,2.5,0.02
				c0.8-0.29,1.59-0.04,2.34,0.02c0.75,0.07,1.46-0.15,2.16,0c0.34-0.11,0.68-0.09,1.01-0.05c0.15,0.01,0.3,0.03,0.45,0.02
				c0.15-0.01,0.29-0.02,0.43-0.09c0.07,0,0.15-0.01,0.22-0.02c0.07-0.01,0.14-0.04,0.21-0.06c0.14-0.04,0.26-0.1,0.39-0.17
				c0.13-0.06,0.24-0.15,0.35-0.21c0.12-0.07,0.22-0.16,0.34-0.22c0.41-0.35,0.79-0.69,1.17-1.01c0.34-0.36,0.63-0.72,0.88-1.07
				c0.75-1.06,1.21-1.99,1.51-2.61C92.04,82.41,92.19,82.08,92.24,82.1z"/>
		</g>
		<g id="XMLID_21632_">
			<path d="M7.97,19.14c-0.1,0-0.23-0.45-0.23-1.29c0-0.14,0-0.29,0.01-0.45c0-0.16,0-0.34,0.05-0.52c0.17-0.15-0.17-0.43,0.09-0.57
				c0.11-0.18,0.12-0.4,0.15-0.62c0.03-0.23,0.24-0.4,0.22-0.67c-0.08-0.17,0.05-0.25,0.16-0.34c0.12-0.08,0.23-0.17,0.14-0.36
				c0.06-0.27,0.23-0.49,0.4-0.72c0.33-0.11,0.34-0.46,0.51-0.71c0.39-0.06,0.51-0.34,0.63-0.68c0.47,0.04,0.66-0.17,0.75-0.63
				c0.27-0.2,0.63-0.26,0.87-0.55c0.3-0.18,0.61-0.38,0.97-0.45c0.27-0.34,0.65-0.44,1.06-0.33c0.32-0.32,0.74-0.28,1.14-0.18
				c0.2,0.05,0.39-0.01,0.59-0.05c0.2-0.05,0.4-0.08,0.6,0.03c0.4,0.04,0.82,0.03,1.22,0.16c0.39,0.19,0.74,0.41,1.21,0.34
				c0.42,0.09,0.86,0.21,1.17,0.54c0.51-0.01,0.84,0.36,1.1,0.74c0.38,0.25,0.57,0.7,0.97,0.94c0.26,0.36,0.67,0.65,0.81,1.1
				c0.17,0.44,0.3,0.86,0.61,1.21c0.33,0.36,0.24,0.86,0.41,1.26c-0.06,0.24,0,0.44,0.08,0.65c0.08,0.2,0.17,0.41,0.16,0.62
				c0.02,0.1,0.03,0.21,0.03,0.32l0,0.19l-0.02,0.27c-0.02,0.36-0.03,0.68,0.04,1.09c0.01,0.18,0.02,0.35,0.03,0.53
				c-0.51,0.03-1.09,0.04-1.62-0.04c-0.04,0.02-0.08,0.04-0.12,0.06c-0.02,0.01-0.04,0.02-0.06,0.02l-0.03,0.01
				c-0.01,0-0.01,0.01-0.02,0.01c-0.05,0.02-0.09,0.04-0.14,0.04c-0.09,0.01-0.18-0.01-0.28-0.04c-0.19-0.06-0.37-0.16-0.55-0.12
				c-0.37-0.16-0.73,0.02-1.08-0.02c-0.35,0.07-0.7-0.17-1.05-0.02c-0.34-0.03-0.68,0.12-1.01-0.02c-0.33,0.19-0.66-0.16-0.98-0.03
				c-0.32,0-0.63,0.01-0.94-0.03c-0.31-0.3-0.61-0.05-0.9-0.03c-0.29-0.03-0.58,0.17-0.85-0.03c-0.28-0.02-0.55-0.15-0.81-0.04
				c-0.26,0.04-0.52-0.43-0.76-0.04c-0.25,0.07-0.48-0.3-0.71-0.04c-0.23,0.24-0.45-0.03-0.66-0.04c-0.21-0.01-0.42-0.03-0.61-0.04
				c-1.75-0.13-2.75-0.28-2.75-0.44c0-0.18,1.24-0.34,3.36-0.48c0.21-0.01,0.43-0.22,0.66-0.04c0.23,0,0.47-0.16,0.71-0.04
				c0.25-0.27,0.5-0.05,0.76-0.04c0.26-0.01,0.53,0.08,0.81-0.04c0.28-0.16,0.56,0.08,0.85-0.03c0.29,0.17,0.59,0.12,0.9-0.03
				c0.31,0.16,0.62-0.04,0.94-0.03c0.32,0.25,0.64,0.08,0.98-0.03c0.33-0.09,0.67,0.04,1.01-0.02c0.34,0.05,0.69-0.07,1.05-0.02
				c0.36-0.12,0.71-0.16,1.08-0.02c0.18-0.04,0.37-0.04,0.55-0.04c0.09,0,0.18,0.01,0.28,0.01l0.14,0.01l0.04,0
				c0.02-0.04,0.02-0.05,0.04-0.04c0.02,0,0.05,0.02,0.08,0.03c0,0,0.01-0.01,0-0.03c-0.03-0.03,0.04-0.01,0.08-0.05
				c0.02-0.02,0.03-0.02,0.01-0.13c-0.02-0.09-0.06-0.17-0.14-0.25c-0.08-0.35-0.07-0.72-0.21-1.06c-0.06-0.36-0.14-0.72-0.35-1.03
				c0.12-0.45-0.22-0.72-0.49-0.97c-0.26-0.27-0.43-0.58-0.64-0.87c-0.25-0.25-0.5-0.51-0.76-0.74c-0.32-0.15-0.49-0.52-0.85-0.6
				c-0.35-0.07-0.56-0.43-0.92-0.45c-0.35-0.05-0.67-0.09-0.96-0.3c-0.16-0.04-0.32-0.12-0.48-0.18c-0.16-0.06-0.33-0.08-0.5,0.03
				c-0.17,0.02-0.33,0.1-0.49,0.14c-0.16,0.04-0.31,0.03-0.48-0.15c-0.15,0.06-0.31,0.03-0.47,0.01c-0.16-0.02-0.32-0.02-0.46,0.1
				c-0.37-0.21-0.61,0.13-0.88,0.23c-0.3,0.05-0.61,0.08-0.82,0.33c-0.19,0.25-0.53,0.21-0.74,0.41c-0.07,0.14-0.21,0.18-0.34,0.22
				c-0.14,0.05-0.27,0.1-0.31,0.25c-0.22,0.15-0.36,0.38-0.57,0.53c0.06,0.22-0.02,0.31-0.13,0.37c-0.11,0.06-0.27,0.1-0.35,0.19
				c-0.19,0.17-0.05,0.52-0.41,0.58c0.14,0.33-0.17,0.41-0.33,0.58C9.05,15.6,9.17,15.87,8.95,16c0.12,0.25-0.23,0.34-0.21,0.54
				c-0.18,0.14-0.1,0.35-0.16,0.5c0.01,0.17-0.03,0.32-0.13,0.46c-0.04,0.15-0.07,0.29-0.1,0.42C8.16,18.69,8.08,19.14,7.97,19.14z"
				/>
		</g>
		<g id="XMLID_21631_">
			<path d="M23.1,19.14c-0.03,0-0.05-0.19-0.08-0.55c-0.03-0.36-0.1-0.9-0.26-1.58c-0.17-0.68-0.44-1.52-0.96-2.39
				c-0.52-0.87-1.31-1.77-2.44-2.45c-0.75-0.45-1.64-0.78-2.63-0.93c-0.17-0.02-0.34-0.04-0.52-0.05l0.03-0.7
				c0.88-0.02,1.8-0.04,2.78-0.03c1.17,0.14,2.41-0.26,3.71-0.04c1.3,0.06,2.66,0,4.08-0.04c1.42-0.05,2.9,0.09,4.44-0.04
				c1.54-0.27,3.13,0.3,4.78-0.04c1.65-0.07,3.35-0.05,5.11-0.04c1.76,0.21,3.56,0,5.42-0.04c1.86,0.25,3.77,0.14,5.72-0.03
				c1.95,0.34,3.96,0.29,6.01-0.03c2.05-0.01,4.14,0.12,6.28-0.03c2.14-0.02,4.31-0.09,6.53-0.03c0.28-0.03,0.56-0.05,0.83-0.08
				c0.26-0.02,0.6-0.04,0.91-0.02c0.64,0.03,1.28,0.16,1.88,0.39c1.21,0.45,2.28,1.3,3,2.37c0.9,0.93,1.49,2.2,1.63,3.53
				c0.02,0.17,0.03,0.33,0.04,0.5c0.01,0.16,0,0.34,0,0.48c-0.01,0.29-0.02,0.59-0.03,0.88c-0.02,0.59-0.05,1.18-0.09,1.77
				c-0.14,2.37,0.22,4.78,0.02,7.22c-0.02,2.44,0.05,4.92,0.01,7.42c-0.1,2.51-0.22,5.04,0.01,7.61c0.06,2.57,0.14,5.16,0.01,7.78
				c0.26,2.62,0.14,5.27,0,7.94c0.04,2.67-0.15,5.37,0,8.08c-0.04,2.72,0.11,5.46,0,8.21c-0.04,1.34-0.08,2.69-0.09,4.02
				c-0.01,0.67-0.01,1.33,0.01,2c0.02,0.94,0.04,1.88,0.07,2.82l-0.36,0.01c-0.56,0.02-1.13,0.04-1.69,0.06
				c-0.34,0.01-0.68,0.02-1.02,0.03c-0.68,0.01-1.35,0-2.02-0.01c-1.35-0.02-2.69-0.05-4.03,0c-2.67-0.22-5.32,0.13-7.94,0.07
				c-2.62,0.05-5.22-0.09-7.78,0.07c-2.56,0.07-5.1,0.14-7.61,0.06c-2.5,0.4-4.98-0.05-7.42,0.06c-0.62-0.04-1.24-0.05-1.86-0.05
				c-0.31,0-0.62,0.01-0.93,0.01l-0.46,0.01l-0.07,0l-0.06,0l-0.06,0l-0.03,0c-0.01,0-0.02,0-0.02,0.01c0,0.04,0,0.08,0,0.12l0,0.08
				c-0.02,0.11-0.04,0.23-0.06,0.35c-0.05,0.23-0.1,0.46-0.17,0.69c-0.13,0.45-0.31,0.9-0.53,1.32c-0.28,0.6-0.67,1.15-1.13,1.63
				c-0.46,0.48-1,0.88-1.57,1.19c-0.57,0.32-1.17,0.55-1.78,0.72c-0.15,0.04-0.3,0.08-0.45,0.12l-0.24,0.06l-0.17,0.04
				c-0.06,0-0.12,0-0.18,0c-0.3,0.01-0.6,0.02-0.89,0.02c-0.6-0.03-1.19-0.07-1.8-0.16c-0.6-0.09-1.22-0.22-1.83-0.47
				c-0.61-0.25-1.22-0.65-1.66-1.21c-0.44-0.55-0.69-1.2-0.81-1.81c-0.21-0.59-0.29-1.18-0.34-1.76c-0.04-0.58-0.04-1.14-0.02-1.69
				c0.04-1.11,0.1-2.18,0.03-3.25c0-2.14-0.01-4.23,0.03-6.28c0.3-2.05,0.05-4.05,0.03-6.01c0.03-1.96-0.16-3.86,0.04-5.72
				c0.02-1.86,0.16-3.67,0.04-5.42c-0.04-1.75,0.43-3.46,0.04-5.11c-0.07-1.65,0.3-3.24,0.04-4.78c-0.24-1.54,0.03-3.02,0.04-4.44
				c0.02-1.42,0.03-2.78,0.04-4.08c0.07-5.85,0.14-10.45,0.21-13.59c0.04-1.57,0.07-2.77,0.11-3.59
				C23.02,19.56,23.06,19.14,23.1,19.14c0.04,0,0.09,0.52,0.13,1.52c0.04,1,0.08,2.48,0.12,4.4c0.08,3.85,0.15,9.47,0.22,16.58
				c0.01,1.42,0.22,2.9,0.04,4.44c0,1.54,0.16,3.13,0.04,4.78c0.27,1.65,0.05,3.35,0.03,5.11c0.01,1.76-0.08,3.56,0.03,5.42
				c0.16,1.86-0.08,3.77,0.03,5.72c-0.17,1.96-0.13,3.96,0.03,6.01c-0.17,2.05,0.03,4.14,0.03,6.28c-0.12,1.07-0.15,2.15-0.11,3.23
				c0.02,0.54,0.06,1.07,0.13,1.59c0.07,0.52,0.17,1.03,0.32,1.49c0.15,0.46,0.34,0.87,0.6,1.19c0.26,0.32,0.61,0.57,1.04,0.76
				c0.43,0.19,0.93,0.32,1.45,0.4c0.52,0.08,1.07,0.12,1.62,0.13c0.28,0.02,0.56,0.03,0.84,0.03c0.01,0,0.02,0,0.02,0l0.04-0.01
				l0.18-0.04c0.13-0.03,0.25-0.06,0.38-0.1c0.5-0.15,0.98-0.36,1.42-0.62c0.88-0.53,1.58-1.3,2.07-2.22
				c0.15-0.34,0.27-0.7,0.37-1.07c0.05-0.18,0.09-0.37,0.12-0.56c0.02-0.1,0.03-0.18,0.04-0.29c0.03-0.2,0.05-0.41,0.06-0.62
				c0.19-0.21,0.33-0.37,0.44-0.5c0.02-0.03,0.07-0.07,0.11-0.11l0.12-0.12l0.25-0.24c0.44,0,0.88-0.01,1.33-0.01
				c0.31,0,0.61,0,0.92,0c0.62,0.01,1.24,0.03,1.86,0.06c2.44-0.11,4.92-0.06,7.42-0.09c2.51-0.13,5.04-0.04,7.61-0.09
				c2.57-0.08,5.16,0.22,7.78-0.09c2.62-0.06,5.27-0.01,7.94-0.08c1.34,0,2.68,0.01,4.02,0c0.67,0,1.35-0.01,2.03-0.03
				c0.34-0.01,0.68-0.02,1.02-0.02l0.24-0.01l0.03,0c0.02,0,0.04-0.01,0.06-0.01c0.01,0.01,0.03,0.01,0.04,0.02
				c0.03-0.02,0.06-0.06,0.07-0.15c0.02-0.33,0.03-0.66,0.04-1c0.02-0.67,0.02-1.33,0.01-2c-0.02-1.33-0.09-2.68-0.14-4.02
				c-0.08-2.76-0.04-5.5,0.01-8.21c-0.03-2.72-0.01-5.41,0.01-8.08c-0.08-2.67,0.12-5.32,0.01-7.94c-0.12-2.62,0.13-5.22,0.02-7.78
				c-0.08-2.57-0.12-5.1,0.02-7.61c0-2.5,0.25-4.98,0.02-7.42c-0.05-2.44-0.37-4.85,0.02-7.22c-0.02-0.59-0.02-1.18-0.01-1.77
				c0.01-0.29,0.02-0.59,0.02-0.88c0-0.15,0.01-0.27,0.01-0.4c0-0.13-0.01-0.26-0.02-0.38c-0.08-1.02-0.48-2.03-1.17-2.77
				c-0.52-0.88-1.39-1.53-2.35-1.86c-0.48-0.16-0.97-0.25-1.47-0.28c-0.25-0.01-0.48-0.01-0.77,0c-0.28,0.01-0.56,0.01-0.83,0.01
				c-2.22-0.05-4.4-0.15-6.53-0.03c-2.14,0.13-4.23-0.07-6.28-0.03c-2.05,0.16-4.05-0.21-6.01-0.03c-1.96-0.04-3.86,0.02-5.72-0.03
				c-1.86,0.38-3.67,0-5.42-0.04c-1.76-0.05-3.46,0.25-5.11-0.04c-1.65,0.29-3.24,0.04-4.78-0.04c-1.54-0.08-3.02,0.12-4.44-0.04
				c-1.42,0.2-2.78-0.11-4.08-0.04c-1.3-0.13-2.54-0.01-3.71-0.04c-0.97,0.04-1.9,0.03-2.78-0.01c0.01-0.27,0.02-0.53,0.04-0.79
				c0.19,0.03,0.38,0.06,0.57,0.11c1.08,0.19,2.04,0.59,2.84,1.1c1.2,0.77,2.02,1.78,2.53,2.73c0.51,0.95,0.75,1.84,0.87,2.56
				c0.12,0.72,0.14,1.27,0.12,1.64C23.15,18.96,23.12,19.14,23.1,19.14z"/>
		</g>
		<g id="XMLID_21630_">
			<path d="M50.62,30.02c-0.05,0.02-0.17-0.11-0.37-0.38c-0.2-0.27-0.48-0.68-0.88-1.15c-0.13-0.16-0.29-0.32-0.45-0.48
				c-0.18-0.15-0.37-0.29-0.56-0.45c-0.06-0.13-0.2-0.16-0.34-0.17c-0.07-0.01-0.14-0.02-0.2-0.05c-0.06-0.02-0.11-0.07-0.15-0.14
				c-0.11-0.09-0.25-0.13-0.38-0.17c-0.15-0.02-0.29-0.05-0.45-0.05c-0.08,0-0.15-0.02-0.23-0.03c-0.08-0.01-0.16-0.03-0.23-0.04
				c-0.16-0.03-0.32-0.04-0.49,0.02c-0.17,0.13-0.32,0.08-0.5,0.01c-0.17-0.04-0.36-0.08-0.5,0.12c-0.16,0.08-0.32,0.12-0.48,0.2
				c-0.08,0.03-0.17,0.06-0.25,0.09c-0.08,0.04-0.16,0.07-0.25,0.11c-0.05,0-0.1,0-0.15,0.01c-0.05,0.01-0.09,0.03-0.13,0.05
				c-0.09,0.04-0.16,0.09-0.24,0.16c-0.13,0.14-0.26,0.29-0.38,0.44c-0.11,0.02-0.22,0.05-0.3,0.11c-0.08,0.06-0.15,0.13-0.22,0.21
				c-0.06,0.08-0.1,0.18-0.14,0.28c-0.02,0.05-0.03,0.1-0.05,0.15c-0.01,0.05-0.02,0.11-0.02,0.16c-0.52,0.15-0.66,0.64-0.46,1.12
				c-0.02,0.1-0.06,0.2-0.08,0.3c-0.02,0.1-0.05,0.21-0.07,0.31c-0.02,0.1-0.02,0.21-0.02,0.32c0,0.05,0,0.11,0.01,0.16
				c0.01,0.06,0.03,0.11,0.05,0.17c0.04,0.46,0.15,0.9,0.2,1.38c0.33,0.42,0.46,0.86,0.46,1.4c0.41,0.37,0.54,0.86,0.69,1.39
				c0.14,0.54,0.72,0.81,0.86,1.38c0.3,0.47,0.69,0.88,1.01,1.36c0.27,0.51,0.56,1.04,1.12,1.35c0.43,0.41,0.89,0.8,1.21,1.34
				c0.61,0.27,0.94,0.79,1.27,1.34c0.46,0.42,0.77,1,1.33,1.35c0.1,0.12,0.22,0.23,0.34,0.34l0.18,0.16l0.09,0.08l0.04,0.04
				l0.02,0.02c0.01,0.01,0,0,0.01,0c0.04,0.02,0.05,0.01,0.08,0.12l0,0c0.03,0.02,0.1,0.01,0.16-0.04l0.01-0.01l0.02-0.02l0.04-0.04
				l0.08-0.08c0.06-0.06,0.11-0.12,0.16-0.18c0.1-0.12,0.2-0.25,0.28-0.39c0.33-0.57,0.94-0.85,1.32-1.35
				c0.61-0.28,0.8-0.95,1.27-1.34c0.39-0.46,0.92-0.8,1.21-1.34c0.35-0.48,0.68-0.96,1.12-1.35c0.05-0.68,0.76-0.85,1.01-1.36
				c0.45-0.37,0.58-0.94,0.86-1.38c0.19-0.49,0.64-0.86,0.69-1.39c0.22-0.46,0.22-0.97,0.46-1.4c-0.02-0.13-0.01-0.25,0.02-0.36
				c0.02-0.11,0.06-0.23,0.1-0.34c0.07-0.23,0.15-0.46,0.09-0.68l0.01-0.17c0-0.05-0.01-0.11-0.01-0.16
				c-0.01-0.11-0.01-0.21-0.02-0.32c-0.02-0.1-0.03-0.21-0.04-0.31c-0.01-0.1-0.04-0.2-0.05-0.31c0.02-0.06,0.04-0.12,0.05-0.18
				c0-0.06,0-0.11-0.01-0.16c-0.02-0.11-0.05-0.21-0.11-0.3c-0.06-0.09-0.12-0.17-0.19-0.25c-0.06-0.08-0.14-0.15-0.19-0.24
				c-0.02-0.04-0.05-0.09-0.08-0.13c-0.03-0.04-0.06-0.07-0.1-0.11c-0.07-0.07-0.13-0.14-0.21-0.21c-0.07-0.06-0.14-0.13-0.2-0.21
				c-0.05-0.08-0.11-0.15-0.15-0.26c-0.13-0.14-0.26-0.28-0.4-0.41c-0.07-0.06-0.15-0.11-0.23-0.16c-0.04-0.02-0.08-0.04-0.13-0.06
				c-0.04-0.01-0.09-0.02-0.14-0.03c-0.09-0.03-0.16-0.09-0.23-0.16c-0.07-0.06-0.14-0.13-0.22-0.19c-0.15-0.13-0.33-0.18-0.54-0.04
				c-0.17,0-0.33-0.1-0.49-0.17c-0.17-0.06-0.34-0.1-0.5,0.03c-0.17,0.13-0.32,0.12-0.48,0.1c-0.08-0.01-0.16-0.03-0.24-0.05
				c-0.08-0.01-0.16-0.01-0.23,0c-0.15,0.01-0.29,0.06-0.43,0.09c-0.13,0.05-0.27,0.08-0.4,0.13c-0.29,0.1-0.54,0.26-0.77,0.42
				c-0.22,0.17-0.43,0.34-0.61,0.52c-0.36,0.36-0.63,0.71-0.85,1c-0.43,0.59-0.66,0.92-0.74,0.88c-0.07-0.04,0.05-0.52,0.46-1.35
				c0.22-0.41,0.51-0.92,1.01-1.43c0.25-0.25,0.55-0.5,0.91-0.71c0.36-0.21,0.78-0.38,1.23-0.49c0.09-0.02,0.18-0.05,0.27-0.09
				c0.09-0.03,0.18-0.06,0.28-0.09c0.19-0.06,0.38-0.06,0.58,0.02c0.2,0,0.4-0.02,0.62-0.04c0.21,0,0.43,0.02,0.63,0.13
				c0.24-0.08,0.47-0.04,0.68,0.06c0.1,0.05,0.21,0.11,0.31,0.17c0.1,0.07,0.19,0.13,0.3,0.19c0.05,0.02,0.11,0.05,0.16,0.08
				l0.15,0.1c0.1,0.07,0.2,0.13,0.3,0.2c0.19,0.15,0.39,0.28,0.6,0.41c0.12,0.06,0.23,0.12,0.31,0.22c0.09,0.09,0.16,0.2,0.24,0.3
				c0.07,0.1,0.14,0.22,0.21,0.32c0.04,0.05,0.08,0.1,0.12,0.15c0.04,0.05,0.08,0.1,0.13,0.15c0.14,0.53,0.37,0.97,0.67,1.46
				c-0.01,0.15,0.02,0.28,0.03,0.42c0.02,0.14,0.05,0.27,0.08,0.41c0.03,0.14,0.05,0.28,0.08,0.42c0.01,0.07,0.02,0.14,0.03,0.21
				c0,0.07,0,0.14,0,0.21c-0.27,0.54-0.16,1.09-0.18,1.67c-0.04,0.58-0.34,1.09-0.49,1.64c-0.25,0.52-0.41,1.09-0.73,1.58
				c-0.18,0.57-0.46,1.11-0.91,1.52c-0.27,0.54-0.67,0.99-1.04,1.47c-0.29,0.54-0.77,0.94-1.15,1.43c-0.36,0.5-1.01,0.75-1.23,1.4
				c-0.4,0.48-0.89,0.89-1.29,1.38c-0.46,0.43-0.94,0.86-1.34,1.37c-0.16,0.07-0.3,0.15-0.43,0.25c-0.06,0.05-0.13,0.1-0.18,0.16
				l-0.09,0.09l-0.09,0.1c-0.38,0.41-0.76,0.89-1.19,1.4l0,0c-0.43-0.38-0.89-0.82-1.32-1.26l-0.18-0.19l-0.16-0.18l-0.32-0.36
				c-0.47-0.44-0.91-0.9-1.33-1.37c-0.5-0.4-0.79-1-1.29-1.38c-0.51-0.38-0.74-1.01-1.23-1.4c-0.46-0.42-0.88-0.87-1.15-1.43
				c-0.37-0.48-0.52-1.11-1.04-1.47c-0.38-0.46-0.96-0.82-0.91-1.52c-0.37-0.47-0.37-1.11-0.73-1.58c0.03-0.32-0.07-0.58-0.18-0.85
				c-0.12-0.26-0.25-0.52-0.31-0.8c-0.08-0.57-0.05-1.12-0.18-1.67c-0.02-0.07-0.03-0.14-0.04-0.21c-0.01-0.07,0-0.14,0-0.22
				c0.01-0.14,0.02-0.29,0.05-0.43c0.04-0.14,0.07-0.28,0.11-0.41c0.03-0.14,0.08-0.27,0.1-0.4c0-0.07,0-0.14,0.02-0.21
				c0.02-0.07,0.04-0.13,0.07-0.19c0.06-0.13,0.12-0.25,0.2-0.36c0.08-0.11,0.16-0.22,0.22-0.34c0.07-0.11,0.13-0.23,0.16-0.36
				l0.11-0.16L41.38,28c0.08-0.1,0.15-0.21,0.23-0.31c0.08-0.1,0.17-0.19,0.26-0.28c0.08-0.09,0.19-0.17,0.29-0.24
				c0.05-0.32,0.27-0.46,0.5-0.57c0.12-0.05,0.24-0.08,0.36-0.11c0.06-0.02,0.12-0.03,0.18-0.05c0.06-0.02,0.12-0.03,0.17-0.05
				c0.11-0.04,0.21-0.1,0.31-0.16c0.1-0.06,0.2-0.12,0.3-0.17c0.2-0.12,0.43-0.17,0.67-0.08c0.18-0.19,0.41-0.22,0.62-0.22
				c0.22,0.03,0.43,0.09,0.62,0.13c0.19,0.05,0.39,0.02,0.58,0.02c0.1,0,0.19,0,0.28,0.02c0.09,0.02,0.18,0.05,0.27,0.11
				c0.2-0.07,0.38,0.02,0.54,0.11c0.16,0.11,0.3,0.21,0.46,0.26c0.06,0.07,0.13,0.12,0.2,0.16c0.07,0.04,0.14,0.09,0.21,0.12
				c0.15,0.07,0.28,0.15,0.39,0.25c0.14,0.07,0.25,0.17,0.35,0.27c0.1,0.1,0.18,0.22,0.24,0.34c0.16,0.2,0.31,0.4,0.42,0.59
				c0.36,0.57,0.55,1.04,0.67,1.36C50.63,29.82,50.67,30,50.62,30.02z"/>
		</g>
		<g id="XMLID_21629_">
			<path d="M64.5,52.61c0,0.11-0.31,0.21-0.87,0.3c-0.09,0.02-0.19,0.03-0.3,0.05c-0.11,0.03-0.22,0.06-0.34,0.04
				c-0.12-0.14-0.25,0.26-0.38,0.04c-0.13-0.06-0.27,0-0.42,0.04c-0.15,0.05-0.3-0.09-0.46,0.04c-0.16,0.27-0.32-0.3-0.49,0.04
				c-0.17,0.07-0.35,0.05-0.53,0.04c-0.18-0.21-0.37,0-0.56,0.03c-0.19-0.25-0.39-0.14-0.59,0.03c-0.2-0.34-0.41-0.29-0.62,0.03
				c-0.21,0.01-0.43-0.12-0.65,0.03c-0.22,0.02-0.44,0.09-0.67,0.03c-0.23,0.23-0.46,0.22-0.7,0.02c-0.24,0.25-0.48,0.15-0.72,0.02
				c-0.24-0.14-0.49,0.22-0.74,0.02c-0.25-0.01-0.51,0.06-0.76,0.02c-0.26-0.1-0.52-0.21-0.78,0.01c-0.26,0.06-0.53,0.14-0.8,0.01
				c-0.27,0.26-0.54,0.15-0.82,0.01c-0.28,0.04-0.55-0.14-0.83,0c-0.28-0.04-0.56,0.12-0.85,0c-0.28-0.08-0.57-0.16-0.85,0
				c-0.28,0.17-0.56-0.07-0.83,0c-0.28-0.25-0.55,0.08-0.82-0.01c-0.27,0.02-0.54-0.14-0.8-0.01c-0.26,0.05-0.53,0.09-0.78-0.01
				c-0.26,0.38-0.51-0.1-0.76-0.02c-0.25-0.16-0.5,0.02-0.74-0.02c-0.24,0.07-0.49-0.18-0.72-0.02c-0.24-0.03-0.47,0.12-0.7-0.02
				c-0.23,0.19-0.45-0.16-0.67-0.03c-0.22,0-0.44,0.01-0.65-0.03c-0.21-0.3-0.42-0.05-0.62-0.03c-0.2-0.03-0.4,0.17-0.59-0.03
				c-0.19-0.02-0.38-0.15-0.56-0.03c-0.18,0.04-0.36-0.43-0.53-0.04c-0.17,0.07-0.33-0.3-0.49-0.04c-0.16,0.24-0.31-0.03-0.46-0.04
				c-0.15-0.01-0.29-0.03-0.42-0.04c-1.21-0.13-1.9-0.28-1.9-0.44c0-0.18,0.85-0.34,2.32-0.48c0.15-0.01,0.3-0.22,0.46-0.04
				c0.16,0,0.32-0.16,0.49-0.04c0.17-0.27,0.34-0.05,0.53-0.04c0.18-0.01,0.37,0.08,0.56-0.04c0.19-0.16,0.39,0.08,0.59-0.03
				c0.2,0.17,0.41,0.12,0.62-0.03c0.21,0.17,0.43-0.04,0.65-0.03c0.22,0.25,0.44,0.08,0.67-0.03c0.23-0.09,0.46,0.04,0.7-0.02
				c0.24,0.05,0.48-0.06,0.72-0.02c0.24-0.12,0.49-0.16,0.74-0.02c0.25-0.08,0.51-0.02,0.76-0.02c0.26-0.1,0.52,0.01,0.78-0.01
				c0.26-0.05,0.53,0.27,0.8-0.01c0.27-0.04,0.54,0.04,0.82-0.01c0.27,0.04,0.55,0.07,0.83-0.01c0.28,0.28,0.56,0.11,0.85,0
				c0.28-0.08,0.57-0.04,0.85,0c0.28-0.03,0.56-0.01,0.83,0.01c0.28-0.08,0.55,0.12,0.82,0.01c0.27-0.12,0.54,0.13,0.8,0.01
				c0.26-0.08,0.53-0.12,0.78,0.01c0.26,0,0.51,0.25,0.76,0.02c0.25-0.05,0.5-0.37,0.74,0.02c0.24-0.1,0.48,0.19,0.72,0.02
				c0.24,0.28,0.47,0.01,0.7,0.02c0.23,0.05,0.45,0.15,0.67,0.03c0.22-0.13,0.44,0.07,0.65,0.03c0.21-0.16,0.42,0.21,0.62,0.03
				c0.2,0.04,0.4-0.02,0.59,0.03c0.19-0.38,0.38,0,0.56,0.04c0.18,0.05,0.36-0.25,0.53,0.04c0.17-0.29,0.33-0.04,0.49,0.04
				c0.16,0.08,0.31-0.12,0.46,0.04c0.15-0.2,0.29,0.11,0.42,0.04c0.13,0.13,0.26,0.01,0.38,0.04c0.12-0.04,0.24-0.03,0.34,0.05
				c0.11,0.02,0.21,0.03,0.3,0.05C64.19,52.4,64.5,52.5,64.5,52.61z"/>
		</g>
		<g id="XMLID_21628_">
			<path d="M64.5,61.97c0,0.11-0.31,0.21-0.87,0.3c-0.09,0.01-0.19,0.03-0.3,0.05c-0.11,0.03-0.22,0.06-0.34,0.05
				c-0.12-0.14-0.25,0.26-0.38,0.04c-0.13-0.06-0.27,0-0.42,0.04c-0.15,0.05-0.3-0.09-0.46,0.04c-0.16,0.27-0.32-0.3-0.49,0.04
				c-0.17,0.07-0.35,0.05-0.53,0.04c-0.18-0.21-0.37,0-0.56,0.04c-0.19-0.25-0.39-0.14-0.59,0.03c-0.2-0.34-0.41-0.29-0.62,0.03
				c-0.21,0.01-0.43-0.12-0.65,0.03c-0.22,0.02-0.44,0.09-0.67,0.03c-0.23,0.23-0.46,0.22-0.7,0.02c-0.24,0.25-0.48,0.15-0.72,0.02
				c-0.24-0.14-0.49,0.22-0.74,0.02c-0.25-0.02-0.51,0.06-0.76,0.02c-0.26-0.1-0.52-0.21-0.78,0.01c-0.26,0.06-0.53,0.14-0.8,0.01
				c-0.27,0.26-0.54,0.15-0.82,0.01c-0.28,0.04-0.55-0.14-0.83,0c-0.28-0.04-0.56,0.12-0.85,0c-0.28-0.08-0.57-0.16-0.85,0
				c-0.28,0.17-0.56-0.07-0.83,0c-0.28-0.25-0.55,0.08-0.82-0.01c-0.27,0.02-0.54-0.14-0.8-0.01c-0.26,0.04-0.53,0.09-0.78-0.01
				c-0.26,0.38-0.51-0.1-0.76-0.02c-0.25-0.16-0.5,0.02-0.74-0.02c-0.24,0.07-0.49-0.17-0.72-0.02c-0.24-0.03-0.47,0.12-0.7-0.02
				c-0.23,0.19-0.45-0.16-0.67-0.03c-0.22,0-0.44,0.01-0.65-0.03c-0.21-0.29-0.42-0.05-0.62-0.03c-0.2-0.03-0.4,0.17-0.59-0.03
				c-0.19-0.02-0.38-0.16-0.56-0.04c-0.18,0.04-0.36-0.43-0.53-0.04c-0.17,0.07-0.33-0.3-0.49-0.04c-0.16,0.24-0.31-0.03-0.46-0.04
				c-0.15-0.01-0.29-0.03-0.42-0.04c-1.21-0.13-1.9-0.28-1.9-0.44c0-0.18,0.85-0.34,2.32-0.48c0.15-0.01,0.3-0.22,0.46-0.04
				c0.16,0,0.32-0.16,0.49-0.04c0.17-0.27,0.34-0.05,0.53-0.04c0.18-0.01,0.37,0.08,0.56-0.04c0.19-0.16,0.39,0.08,0.59-0.03
				c0.2,0.17,0.41,0.12,0.62-0.03c0.21,0.17,0.43-0.03,0.65-0.03c0.22,0.25,0.44,0.08,0.67-0.03c0.23-0.09,0.46,0.04,0.7-0.02
				c0.24,0.05,0.48-0.06,0.72-0.02c0.24-0.12,0.49-0.16,0.74-0.02c0.25-0.08,0.51-0.02,0.76-0.02c0.26-0.1,0.52,0.01,0.78-0.01
				c0.26-0.05,0.53,0.27,0.8-0.01c0.27-0.04,0.54,0.04,0.82-0.01c0.27,0.04,0.55,0.07,0.83,0c0.28,0.28,0.56,0.11,0.85,0
				c0.28-0.08,0.57-0.04,0.85,0c0.28-0.03,0.56-0.01,0.83,0c0.28-0.08,0.55,0.12,0.82,0.01c0.27-0.12,0.54,0.13,0.8,0.01
				c0.26-0.08,0.53-0.12,0.78,0.01c0.26,0,0.51,0.25,0.76,0.02c0.25-0.05,0.5-0.37,0.74,0.02c0.24-0.1,0.48,0.18,0.72,0.02
				c0.24,0.28,0.47,0.01,0.7,0.02c0.23,0.05,0.45,0.15,0.67,0.03c0.22-0.13,0.44,0.07,0.65,0.03c0.21-0.16,0.42,0.21,0.62,0.03
				c0.2,0.04,0.4-0.02,0.59,0.03c0.19-0.38,0.38,0,0.56,0.04c0.18,0.05,0.36-0.25,0.53,0.04c0.17-0.29,0.33-0.04,0.49,0.04
				c0.16,0.08,0.31-0.12,0.46,0.04c0.15-0.2,0.29,0.11,0.42,0.04c0.13,0.13,0.26,0.01,0.38,0.04c0.12-0.05,0.24-0.03,0.34,0.05
				c0.11,0.02,0.21,0.03,0.3,0.05C64.19,61.76,64.5,61.86,64.5,61.97z"/>
		</g>
		<g id="XMLID_21627_">
			<path d="M64.5,71.33c0,0.11-0.31,0.21-0.87,0.3c-0.09,0.01-0.19,0.03-0.3,0.05c-0.11,0.03-0.22,0.06-0.34,0.05
				c-0.12-0.14-0.25,0.26-0.38,0.04c-0.13-0.06-0.27,0-0.42,0.04c-0.15,0.05-0.3-0.09-0.46,0.04c-0.16,0.27-0.32-0.3-0.49,0.04
				c-0.17,0.07-0.35,0.05-0.53,0.04c-0.18-0.21-0.37,0-0.56,0.04c-0.19-0.25-0.39-0.14-0.59,0.03c-0.2-0.34-0.41-0.29-0.62,0.03
				c-0.21,0.01-0.43-0.12-0.65,0.03c-0.22,0.02-0.44,0.09-0.67,0.03c-0.23,0.23-0.46,0.22-0.7,0.02c-0.24,0.25-0.48,0.15-0.72,0.02
				c-0.24-0.14-0.49,0.22-0.74,0.02c-0.25-0.02-0.51,0.06-0.76,0.02c-0.26-0.1-0.52-0.21-0.78,0.01c-0.26,0.06-0.53,0.14-0.8,0.01
				c-0.27,0.26-0.54,0.15-0.82,0.01c-0.28,0.04-0.55-0.14-0.83,0c-0.28-0.04-0.56,0.12-0.85,0c-0.28-0.08-0.57-0.16-0.85,0
				c-0.28,0.17-0.56-0.07-0.83,0c-0.28-0.25-0.55,0.08-0.82-0.01c-0.27,0.02-0.54-0.14-0.8-0.01c-0.26,0.04-0.53,0.09-0.78-0.01
				c-0.26,0.38-0.51-0.1-0.76-0.02c-0.25-0.16-0.5,0.02-0.74-0.02c-0.24,0.07-0.49-0.17-0.72-0.02c-0.24-0.03-0.47,0.12-0.7-0.02
				c-0.23,0.19-0.45-0.16-0.67-0.03c-0.22,0-0.44,0.01-0.65-0.03c-0.21-0.29-0.42-0.05-0.62-0.03c-0.2-0.03-0.4,0.17-0.59-0.03
				c-0.19-0.02-0.38-0.16-0.56-0.04c-0.18,0.04-0.36-0.43-0.53-0.04c-0.17,0.07-0.33-0.3-0.49-0.04c-0.16,0.24-0.31-0.03-0.46-0.04
				c-0.15-0.01-0.29-0.03-0.42-0.04c-1.21-0.13-1.9-0.28-1.9-0.44c0-0.18,0.85-0.34,2.32-0.48c0.15-0.01,0.3-0.22,0.46-0.04
				c0.16,0,0.32-0.16,0.49-0.04c0.17-0.27,0.34-0.05,0.53-0.04c0.18-0.01,0.37,0.08,0.56-0.03c0.19-0.16,0.39,0.08,0.59-0.03
				c0.2,0.17,0.41,0.12,0.62-0.03c0.21,0.17,0.43-0.03,0.65-0.03c0.22,0.25,0.44,0.08,0.67-0.03c0.23-0.09,0.46,0.04,0.7-0.02
				c0.24,0.05,0.48-0.06,0.72-0.02c0.24-0.12,0.49-0.16,0.74-0.02c0.25-0.08,0.51-0.02,0.76-0.02c0.26-0.1,0.52,0.01,0.78-0.01
				c0.26-0.05,0.53,0.27,0.8-0.01c0.27-0.04,0.54,0.04,0.82-0.01c0.27,0.04,0.55,0.07,0.83,0c0.28,0.28,0.56,0.11,0.85,0
				c0.28-0.08,0.57-0.04,0.85,0c0.28-0.03,0.56-0.01,0.83,0c0.28-0.08,0.55,0.12,0.82,0.01c0.27-0.12,0.54,0.13,0.8,0.01
				c0.26-0.08,0.53-0.12,0.78,0.01c0.26,0,0.51,0.25,0.76,0.02c0.25-0.05,0.5-0.37,0.74,0.02c0.24-0.1,0.48,0.19,0.72,0.02
				c0.24,0.28,0.47,0.01,0.7,0.02c0.23,0.05,0.45,0.15,0.67,0.03c0.22-0.13,0.44,0.07,0.65,0.03c0.21-0.16,0.42,0.21,0.62,0.03
				c0.2,0.04,0.4-0.02,0.59,0.03c0.19-0.38,0.38,0,0.56,0.03c0.18,0.05,0.36-0.25,0.53,0.04c0.17-0.29,0.33-0.04,0.49,0.04
				c0.16,0.08,0.31-0.12,0.46,0.04c0.15-0.2,0.29,0.11,0.42,0.04c0.13,0.13,0.26,0.01,0.38,0.04c0.12-0.05,0.24-0.03,0.34,0.04
				c0.11,0.02,0.21,0.03,0.3,0.05C64.19,71.12,64.5,71.22,64.5,71.33z"/>
		</g>
	</g>
</g>
</svg>
