<?xml version="1.0" encoding="utf-8"?>
<!-- Generator: Adobe Illustrator 26.3.1, SVG Export Plug-In . SVG Version: 6.00 Build 0)  -->
<svg version="1.1" id="Capa_1" xmlns="http://www.w3.org/2000/svg" xmlns:xlink="http://www.w3.org/1999/xlink" x="0px" y="0px"
	 viewBox="0 0 100 100" style="enable-background:new 0 0 100 100; fill: #ffffff;" xml:space="preserve">
<g>
	<g id="XMLID_22261_">
		<g id="XMLID_22269_">
			<path d="M50.04,7.34c0,0.06-0.48,0.11-1.4,0.2c-0.91,0.11-2.26,0.28-3.94,0.71c-0.57,0.14-1.16,0.33-1.79,0.53
				c-0.31,0.12-0.63,0.24-0.96,0.37c-0.33,0.14-0.66,0.28-1.01,0.41c-0.37,0.08-0.69,0.31-1.03,0.52c-0.33,0.23-0.66,0.45-1.08,0.54
				c-0.37,0.18-0.74,0.38-1.1,0.62c-0.18,0.12-0.36,0.25-0.54,0.38c-0.09,0.06-0.18,0.13-0.27,0.19c-0.09,0.07-0.17,0.14-0.26,0.21
				c-0.18,0.14-0.36,0.27-0.55,0.4c-0.19,0.13-0.37,0.27-0.56,0.41c-0.38,0.27-0.74,0.59-1.07,0.96c-0.14,0.21-0.3,0.39-0.49,0.55
				c-0.18,0.17-0.4,0.3-0.59,0.46c-0.39,0.32-0.8,0.65-1.01,1.16c-0.32,0.41-0.63,0.84-0.96,1.26c-0.16,0.21-0.32,0.44-0.48,0.66
				c-0.08,0.11-0.16,0.22-0.24,0.33c-0.08,0.11-0.15,0.23-0.23,0.35c-0.79,0.81-1.16,1.93-1.61,3.01c-0.17,0.24-0.35,0.49-0.47,0.76
				c-0.13,0.27-0.24,0.55-0.35,0.83c-0.18,0.58-0.32,1.18-0.39,1.79c-0.66,1.09-0.88,2.39-0.69,3.7c-0.02,0.16-0.04,0.32-0.05,0.48
				c-0.02,0.16-0.03,0.32-0.05,0.48c-0.02,0.16-0.04,0.32-0.05,0.49c-0.01,0.16-0.02,0.33-0.02,0.49c-0.01,0.33-0.03,0.67-0.01,0.97
				c0.01,0.16,0.04,0.31,0.06,0.47c0.03,0.16,0.07,0.32,0.11,0.47c0.24,1.28,0.73,2.56,1.18,3.89c0.72,1.22,1.31,2.52,1.78,3.93
				c0.87,1.21,1.49,2.57,2.11,3.96c0.62,1.4,1.7,2.56,2.34,4.01c0.79,1.36,1.69,2.68,2.51,4.07c0.77,1.42,1.56,2.86,2.64,4.13
				c0.95,1.36,1.93,2.71,2.75,4.2c1.15,1.27,1.99,2.76,2.83,4.28c0.98,1.42,1.78,2.98,2.86,4.38c0.46,0.75,0.96,1.48,1.45,2.23
				l0.36,0.56l0.17,0.26l0.03,0.04c0.02,0.04,0.03,0.05,0.04,0.08l0.04,0.13l0,0c0.02-0.01,0.04-0.02,0.06-0.04
				c0.02-0.02,0.05-0.04,0.08-0.09l0.05-0.06l0.17-0.26l0.36-0.56c0.48-0.75,0.94-1.51,1.35-2.29c0.81-1.57,1.97-2.9,2.86-4.38
				c1.15-1.31,1.82-2.92,2.82-4.28c0.91-1.43,1.96-2.74,2.75-4.2c0.86-1.41,1.7-2.82,2.64-4.13c0.54-1.57,1.77-2.67,2.51-4.07
				c0.94-1.27,1.56-2.7,2.34-4.01c0.68-1.36,1.6-2.57,2.11-3.96c0.34-0.65,0.63-1.32,0.9-1.99c0.28-0.66,0.56-1.32,0.88-1.94
				c0.17-0.69,0.44-1.32,0.68-1.96c0.24-0.64,0.46-1.28,0.5-1.93c0.02-0.16,0.04-0.32,0.07-0.48c0.01-0.16,0.03-0.31,0.04-0.47
				c0.02-0.3,0-0.64-0.01-0.96c0-0.16-0.01-0.33-0.01-0.49c-0.01-0.16-0.02-0.33-0.03-0.49c-0.01-0.16-0.02-0.32-0.03-0.48
				c-0.01-0.16-0.02-0.32-0.04-0.48c0.03-0.33,0.03-0.65,0.01-0.97c-0.04-0.32-0.1-0.63-0.17-0.94c-0.06-0.31-0.17-0.61-0.26-0.91
				c-0.04-0.15-0.09-0.3-0.13-0.45c-0.05-0.15-0.1-0.29-0.14-0.44c-0.14-0.6-0.39-1.16-0.6-1.72c-0.12-0.27-0.23-0.55-0.33-0.83
				c-0.09-0.28-0.21-0.55-0.28-0.84c-0.46-1.07-0.9-2.15-1.61-3.01c-0.08-0.11-0.15-0.23-0.22-0.35c-0.07-0.12-0.14-0.24-0.21-0.36
				c-0.13-0.24-0.25-0.49-0.39-0.73c-0.28-0.46-0.59-0.91-1.09-1.16c-0.36-0.38-0.66-0.79-0.97-1.2c-0.15-0.2-0.33-0.38-0.51-0.55
				c-0.18-0.17-0.37-0.33-0.6-0.43c-0.45-0.23-0.8-0.55-1.14-0.86c-0.17-0.16-0.33-0.33-0.5-0.48c-0.17-0.15-0.35-0.3-0.53-0.43
				c-0.09-0.07-0.18-0.13-0.27-0.2c-0.09-0.06-0.18-0.12-0.28-0.18c-0.18-0.12-0.37-0.24-0.54-0.36c-0.36-0.23-0.73-0.44-1.08-0.66
				c-1.62-0.91-3.17-1.54-4.55-1.99c-0.17-0.05-0.34-0.11-0.51-0.16c-0.08-0.03-0.17-0.05-0.25-0.08c-0.08-0.02-0.16-0.04-0.25-0.06
				c-0.32-0.08-0.64-0.16-0.93-0.24c-0.6-0.12-1.15-0.25-1.65-0.32c-0.25-0.04-0.48-0.08-0.7-0.11c-0.22-0.03-0.43-0.05-0.62-0.08
				c-0.19-0.03-0.37-0.05-0.53-0.07c-0.16-0.01-0.31-0.03-0.44-0.04C50.31,7.42,50.04,7.38,50.04,7.34c0-0.04,0.33-0.08,0.99-0.1
				c0.65-0.02,1.62,0.01,2.86,0.16c1.25,0.15,2.78,0.47,4.5,1.05c0.85,0.31,1.77,0.66,2.71,1.13c0.94,0.45,1.9,1.01,2.87,1.67
				c0.19,0.13,0.39,0.26,0.6,0.38c0.21,0.13,0.4,0.26,0.61,0.4c0.41,0.27,0.79,0.6,1.11,1c0.2,0.16,0.38,0.34,0.58,0.51
				c0.19,0.17,0.4,0.33,0.59,0.52c0.38,0.37,0.77,0.74,1.07,1.2c0.47,0.32,0.82,0.76,1.15,1.21c0.16,0.23,0.31,0.48,0.46,0.73
				c0.08,0.12,0.15,0.24,0.23,0.37c0.07,0.13,0.15,0.25,0.22,0.37c0.66,0.97,1.15,2.06,1.76,3.13c0.16,0.27,0.31,0.54,0.43,0.83
				c0.12,0.29,0.22,0.59,0.33,0.89c0.18,0.61,0.37,1.22,0.58,1.83c0.18,1.3,0.5,2.57,0.79,3.91c0,0.17,0,0.34,0.01,0.51
				c0,0.17,0.01,0.34,0.02,0.51c0.01,0.17,0.03,0.34,0.04,0.51c0.01,0.17,0.02,0.35,0.03,0.52c0.02,0.35,0.06,0.69,0.05,1.07
				c0,0.19-0.02,0.37-0.03,0.56c-0.02,0.18-0.04,0.37-0.07,0.55c-0.25,0.7-0.44,1.39-0.62,2.09c-0.19,0.7-0.37,1.41-0.58,2.11
				c-0.22,0.7-0.52,1.38-0.84,2.05c-0.32,0.67-0.65,1.34-0.96,2.02c-0.71,1.32-1.32,2.72-2.11,4.05c-0.65,1.4-1.39,2.78-2.33,4.07
				c-0.74,1.4-1.64,2.74-2.5,4.11c-0.78,1.43-1.76,2.75-2.63,4.17c-0.86,1.42-2.04,2.65-2.74,4.22c-0.9,1.44-1.91,2.82-2.81,4.29
				c-0.98,1.42-1.96,2.86-2.84,4.37c-0.59,0.66-1.08,1.39-1.53,2.15c-0.11,0.19-0.22,0.38-0.33,0.57c-0.15,0.27-0.3,0.55-0.45,0.82
				c-0.19,0.34-0.39,0.71-0.59,1.09c-0.21,0.38-0.42,0.77-0.62,1.15l0,0c-1.18-1.94-2.36-3.87-3.53-5.78
				c-0.97-1.46-1.91-2.92-2.84-4.37c-1.02-1.4-1.79-2.93-2.81-4.29c-1.03-1.35-1.74-2.89-2.74-4.22c-0.97-1.35-1.89-2.72-2.63-4.16
				c-0.86-1.38-1.49-2.87-2.5-4.11c-0.86-1.33-1.91-2.53-2.33-4.07c-0.83-1.31-1.3-2.78-2.11-4.05c-0.21-0.73-0.52-1.41-0.85-2.07
				c-0.33-0.66-0.68-1.31-0.94-2c-0.48-1.39-0.85-2.78-1.21-4.2c-0.04-0.18-0.08-0.36-0.11-0.54c-0.02-0.19-0.05-0.37-0.05-0.56
				c-0.02-0.39,0.01-0.73,0.03-1.08c0.01-0.17,0.02-0.35,0.04-0.52c0.02-0.17,0.04-0.34,0.06-0.52c0.02-0.17,0.04-0.34,0.05-0.51
				c0.01-0.17,0.03-0.34,0.04-0.51c0-0.34,0.04-0.68,0.09-1.01c0.07-0.33,0.15-0.66,0.24-0.98c0.08-0.32,0.19-0.64,0.27-0.96
				c0.04-0.16,0.08-0.32,0.11-0.48c0.04-0.16,0.07-0.32,0.09-0.48c0.18-0.62,0.39-1.23,0.59-1.83c0.12-0.3,0.23-0.59,0.35-0.88
				c0.11-0.29,0.26-0.57,0.4-0.84c0.02-0.16,0.05-0.32,0.09-0.47c0.04-0.15,0.1-0.29,0.16-0.43c0.13-0.28,0.27-0.55,0.44-0.8
				c0.17-0.25,0.36-0.49,0.53-0.73c0.18-0.24,0.37-0.47,0.53-0.71c0.08-0.12,0.16-0.24,0.24-0.36c0.08-0.12,0.16-0.24,0.24-0.36
				c0.15-0.24,0.29-0.49,0.45-0.73c0.32-0.46,0.66-0.91,1.13-1.23c0.24-0.51,0.62-0.91,1.01-1.27c0.2-0.18,0.41-0.33,0.62-0.49
				c0.21-0.16,0.41-0.32,0.62-0.47c0.41-0.3,0.76-0.66,1.14-0.97c0.19-0.16,0.37-0.32,0.57-0.46c0.2-0.13,0.4-0.26,0.62-0.36
				c0.08-0.09,0.17-0.17,0.25-0.25c0.09-0.07,0.19-0.14,0.28-0.2c0.19-0.12,0.4-0.23,0.6-0.33c0.4-0.2,0.82-0.36,1.17-0.6
				c0.41-0.14,0.78-0.33,1.14-0.52c0.37-0.18,0.72-0.36,1.08-0.5c0.35-0.16,0.7-0.31,1.04-0.43c0.35-0.11,0.69-0.2,1.03-0.28
				c0.66-0.18,1.28-0.35,1.87-0.46c1.75-0.35,3.13-0.43,4.06-0.44C49.56,7.23,50.04,7.29,50.04,7.34z"/>
		</g>
		<g id="XMLID_22268_">
			<path d="M50.04,14.39c0,0.13-1.08,0.14-2.96,0.59c-0.16,0.04-0.32,0.09-0.48,0.13c-0.17,0.05-0.34,0.09-0.51,0.15
				c-0.17,0.06-0.35,0.13-0.54,0.19c-0.18,0.07-0.37,0.14-0.57,0.2c-0.22,0-0.39,0.15-0.58,0.27c-0.18,0.13-0.36,0.26-0.62,0.26
				c-0.22,0.06-0.43,0.17-0.64,0.29c-0.1,0.06-0.21,0.12-0.31,0.19c-0.1,0.07-0.2,0.14-0.3,0.21c-0.21,0.14-0.43,0.26-0.65,0.39
				c-0.23,0.12-0.44,0.28-0.62,0.49c-0.14,0.26-0.39,0.38-0.65,0.49c-0.26,0.12-0.51,0.27-0.61,0.58c-0.37,0.45-0.8,0.84-1.21,1.3
				c-0.56,0.32-0.78,0.97-1.11,1.51c-0.57,0.4-0.82,1.05-0.96,1.73c-0.6,0.46-0.84,1.16-0.74,1.93c-0.2,0.67-0.52,1.35-0.48,2.1
				c-0.09,0.73-0.11,1.48-0.18,2.24c0.23,0.76,0.24,1.51,0.17,2.32c0.36,0.74,0.43,1.52,0.55,2.33c0.03,0.2,0.09,0.4,0.17,0.59
				c0.08,0.19,0.18,0.37,0.28,0.55c0.09,0.18,0.21,0.36,0.29,0.55c0.08,0.19,0.17,0.38,0.22,0.59c0.37,0.75,0.88,1.43,1.36,2.14
				c0.43,0.74,0.95,1.48,1.75,1.91c0.69,0.55,1.42,1.02,2.1,1.61c0.89,0.25,1.61,0.76,2.41,1.23c0.85,0.29,1.69,0.74,2.64,0.77
				c0.91,0.22,1.85,0.15,2.78,0.27c0.94,0.08,1.9,0.06,2.78-0.27c0.44-0.17,0.88-0.26,1.33-0.36c0.23-0.04,0.45-0.1,0.67-0.17
				c0.22-0.06,0.43-0.14,0.64-0.24c0.24-0.02,0.46-0.09,0.66-0.18c0.11-0.04,0.21-0.09,0.31-0.15c0.1-0.06,0.2-0.12,0.29-0.18
				l0.29-0.18l0.28-0.19c0.19-0.12,0.38-0.24,0.58-0.34c0.74-0.5,1.55-0.91,2.11-1.61c0.61-0.63,1.15-1.29,1.75-1.91
				c0.1-0.46,0.36-0.78,0.63-1.1c0.14-0.16,0.28-0.32,0.41-0.49c0.06-0.08,0.12-0.17,0.18-0.26c0.05-0.09,0.1-0.19,0.14-0.28
				c0.53-0.68,0.68-1.52,0.96-2.27c0.08-0.4,0.24-0.77,0.35-1.16l0.09-0.29c0.02-0.1,0.04-0.19,0.06-0.29
				c0.03-0.2,0.06-0.39,0.05-0.59c0.03-0.19,0.05-0.39,0.07-0.58c0.01-0.19,0.01-0.39,0.02-0.58c0.01-0.19,0-0.39,0.02-0.58
				c0.01-0.19,0.04-0.38,0.06-0.57c-0.05-0.19-0.07-0.38-0.07-0.57c-0.01-0.19,0-0.38,0.01-0.56c0.01-0.19,0.01-0.38,0-0.56
				c-0.01-0.19-0.04-0.37-0.11-0.54c-0.11-0.73-0.31-1.42-0.48-2.1c0.01-0.19,0-0.37-0.04-0.54c-0.04-0.17-0.11-0.33-0.19-0.49
				c-0.07-0.16-0.16-0.31-0.26-0.45c-0.09-0.15-0.17-0.3-0.25-0.44c-0.14-0.31-0.32-0.59-0.51-0.86c-0.18-0.28-0.35-0.55-0.44-0.87
				c-0.34-0.54-0.62-1.13-1.11-1.52c-0.21-0.22-0.34-0.51-0.5-0.77c-0.16-0.26-0.37-0.48-0.71-0.53c-0.24-0.16-0.4-0.41-0.58-0.62
				c-0.19-0.21-0.38-0.41-0.68-0.46c-0.29-0.06-0.49-0.22-0.69-0.38c-0.19-0.17-0.37-0.37-0.58-0.49c-0.11-0.06-0.21-0.13-0.31-0.19
				c-0.1-0.06-0.21-0.12-0.31-0.18c-0.21-0.12-0.41-0.23-0.62-0.33c-0.92-0.46-1.79-0.77-2.55-1.01c-0.19-0.05-0.38-0.11-0.56-0.16
				c-0.18-0.05-0.35-0.08-0.52-0.12c-0.33-0.08-0.64-0.13-0.91-0.19c-0.55-0.09-0.98-0.16-1.27-0.2
				C50.19,14.48,50.04,14.43,50.04,14.39c0-0.04,0.19-0.08,0.55-0.12c0.18-0.02,0.41-0.03,0.68-0.02c0.13,0,0.28,0,0.44,0.01
				c0.16,0.01,0.32,0.02,0.5,0.03c0.7,0.06,1.57,0.18,2.56,0.45c0.99,0.27,2.1,0.69,3.26,1.32c0.23,0.12,0.49,0.22,0.74,0.35
				c0.25,0.12,0.49,0.28,0.67,0.52c0.24,0.16,0.48,0.32,0.73,0.48c0.25,0.17,0.48,0.37,0.67,0.61c0.64,0.22,0.95,0.84,1.35,1.35
				c0.45,0.49,0.78,1.08,1.26,1.6c0.25,0.25,0.43,0.56,0.58,0.89c0.16,0.32,0.29,0.66,0.51,0.96c0.16,0.74,0.49,1.4,0.87,2.09
				c0.03,0.19,0.06,0.39,0.11,0.57c0.05,0.19,0.11,0.37,0.17,0.56c0.06,0.19,0.12,0.38,0.18,0.57c0.05,0.19,0.1,0.39,0.13,0.59
				c-0.12,0.83,0.14,1.61,0.25,2.45c0.1,0.84-0.07,1.69-0.14,2.56c-0.17,0.85-0.26,1.74-0.57,2.59c-0.15,0.89-0.47,1.78-1.03,2.54
				c-0.35,0.86-0.91,1.63-1.48,2.39c-0.49,0.83-1.23,1.47-1.93,2.15c-0.34,0.35-0.76,0.62-1.17,0.89c-0.2,0.14-0.41,0.27-0.61,0.42
				c-0.19,0.16-0.38,0.31-0.56,0.51c-0.82,0.57-1.76,0.96-2.68,1.38c-0.96,0.35-1.95,0.6-2.95,0.87c-1.06-0.08-2.05,0.19-3.11,0.3
				c-1.05,0.08-2.1-0.06-3.11-0.3c-1.02-0.17-2.01-0.48-2.95-0.87c-0.98-0.31-1.79-0.95-2.68-1.38c-0.22-0.11-0.44-0.24-0.64-0.39
				c-0.2-0.15-0.4-0.3-0.58-0.47c-0.37-0.33-0.72-0.67-1.12-0.95c-0.77-0.6-1.46-1.3-1.93-2.15c-0.28-0.38-0.5-0.81-0.72-1.22
				c-0.12-0.2-0.22-0.41-0.34-0.61c-0.06-0.1-0.13-0.19-0.2-0.29c-0.07-0.09-0.14-0.19-0.22-0.28c-0.12-0.2-0.25-0.39-0.37-0.59
				c-0.12-0.2-0.25-0.39-0.35-0.6c-0.1-0.21-0.19-0.42-0.25-0.64c-0.05-0.22-0.07-0.46-0.05-0.7c-0.17-0.42-0.26-0.86-0.31-1.3
				c-0.03-0.22-0.06-0.44-0.1-0.65c-0.03-0.22-0.1-0.43-0.16-0.64c0.04-0.22,0.05-0.44,0.04-0.66c0-0.21-0.02-0.43-0.06-0.64
				c-0.04-0.21-0.06-0.42-0.08-0.63c-0.03-0.21-0.05-0.42-0.04-0.63c0.06-0.84,0.24-1.64,0.25-2.45c0-0.2,0.02-0.41,0.06-0.6
				c0.05-0.19,0.1-0.39,0.16-0.58c0.05-0.19,0.13-0.37,0.19-0.56c0.06-0.18,0.12-0.37,0.17-0.56c0.02-0.19,0.08-0.38,0.15-0.56
				c0.08-0.18,0.17-0.34,0.26-0.51c0.09-0.17,0.19-0.33,0.27-0.49c0.08-0.17,0.15-0.34,0.19-0.52c0.36-0.64,0.66-1.3,1.1-1.85
				c0.01-0.2,0.08-0.37,0.17-0.52c0.09-0.15,0.19-0.29,0.32-0.4c0.25-0.24,0.54-0.44,0.77-0.67c0.46-0.46,0.71-1.13,1.35-1.35
				c0.14-0.31,0.36-0.52,0.62-0.68c0.26-0.15,0.53-0.28,0.79-0.41c0.26-0.13,0.46-0.32,0.69-0.49c0.22-0.17,0.44-0.32,0.72-0.38
				c0.09-0.11,0.19-0.19,0.31-0.26c0.11-0.06,0.24-0.1,0.36-0.14c0.24-0.08,0.49-0.13,0.7-0.26c0.49-0.08,0.87-0.36,1.29-0.48
				c0.2-0.09,0.4-0.17,0.59-0.22c0.2-0.05,0.4-0.08,0.59-0.1c0.19-0.05,0.37-0.08,0.55-0.11c0.18-0.03,0.35-0.07,0.51-0.09
				C48.95,14.11,50.04,14.31,50.04,14.39z"/>
		</g>
		<g id="XMLID_22267_">
			<path d="M50.05,26.3c-0.05,0.02-0.16-0.07-0.32-0.28c-0.17-0.2-0.39-0.51-0.71-0.87c-0.11-0.12-0.23-0.24-0.36-0.36
				c-0.14-0.11-0.29-0.21-0.44-0.34c-0.04-0.11-0.15-0.12-0.27-0.12c-0.11-0.01-0.21-0.01-0.26-0.15c-0.08-0.08-0.18-0.11-0.29-0.13
				c-0.11-0.01-0.22-0.03-0.34-0.02c-0.06,0-0.11-0.01-0.17-0.02c-0.06-0.01-0.12-0.03-0.18-0.04c-0.12-0.03-0.25-0.03-0.38,0.03
				c-0.13,0.13-0.24,0.07-0.38,0.01c-0.13-0.05-0.28-0.09-0.37,0.1c-0.12,0.07-0.24,0.11-0.36,0.16c-0.06,0.02-0.12,0.04-0.19,0.06
				c-0.06,0.03-0.12,0.05-0.19,0.08c-0.09-0.02-0.16-0.01-0.22,0.02c-0.06,0.03-0.12,0.07-0.17,0.12c-0.1,0.11-0.18,0.24-0.27,0.35
				c-0.19,0-0.32,0.09-0.41,0.22c-0.05,0.06-0.07,0.14-0.09,0.22c-0.01,0.04-0.02,0.08-0.03,0.12c0,0.04-0.01,0.09-0.01,0.13
				c-0.46,0.07-0.57,0.46-0.33,0.84c-0.08,0.29-0.24,0.6-0.07,0.94c0.02,0.17,0.05,0.34,0.08,0.52c0.04,0.17,0.08,0.35,0.08,0.53
				c0.32,0.3,0.39,0.63,0.36,1.07c0.09,0.07,0.16,0.14,0.22,0.22c0.07,0.08,0.11,0.16,0.15,0.25c0.08,0.18,0.1,0.39,0.16,0.59
				c0.04,0.21,0.19,0.37,0.33,0.52c0.15,0.15,0.3,0.31,0.33,0.54c0.11,0.18,0.25,0.35,0.39,0.52c0.13,0.17,0.27,0.34,0.39,0.53
				c0.19,0.42,0.4,0.84,0.87,1.04c0.35,0.31,0.71,0.6,0.94,1.04c0.51,0.17,0.76,0.59,0.99,1.04c0.37,0.32,0.58,0.8,1.03,1.05
				c0.08,0.09,0.17,0.18,0.26,0.27l0.07,0.06l0.03,0.03l0.01,0c0.01,0,0.02,0,0.03,0c0.03,0.01,0.04,0,0.06,0.1
				c0.02,0.03,0.08,0.03,0.12,0c0.01-0.01,0.02-0.02,0.03-0.03l0.01-0.01l0.03-0.03l0.06-0.07c0.08-0.1,0.15-0.2,0.21-0.32
				c0.23-0.47,0.74-0.66,1.03-1.05c0.51-0.18,0.61-0.75,0.99-1.04c0.31-0.36,0.74-0.6,0.94-1.04c0.26-0.38,0.51-0.76,0.87-1.04
				c-0.01-0.15,0.03-0.26,0.09-0.35c0.06-0.09,0.14-0.17,0.23-0.24c0.17-0.14,0.39-0.26,0.47-0.46c0.18-0.13,0.29-0.32,0.39-0.5
				c0.09-0.19,0.16-0.39,0.28-0.56c0.08-0.19,0.19-0.35,0.31-0.52c0.06-0.08,0.11-0.17,0.16-0.26c0.04-0.09,0.06-0.19,0.06-0.29
				c0.19-0.35,0.13-0.75,0.37-1.07c-0.06-0.2,0.01-0.36,0.09-0.53c0.07-0.17,0.12-0.34,0.07-0.52c0.02-0.34-0.03-0.64-0.07-0.94
				c0.03-0.05,0.04-0.09,0.06-0.14c0.01-0.04,0.01-0.08,0-0.13c-0.01-0.08-0.04-0.16-0.08-0.22c-0.05-0.06-0.1-0.12-0.15-0.18
				c-0.05-0.06-0.11-0.11-0.15-0.17c-0.02-0.03-0.04-0.07-0.06-0.1c-0.02-0.03-0.05-0.05-0.08-0.08c-0.05-0.05-0.11-0.1-0.16-0.15
				c-0.11-0.09-0.2-0.2-0.24-0.36c-0.09-0.11-0.19-0.22-0.29-0.32c-0.05-0.05-0.11-0.09-0.17-0.12c-0.06-0.03-0.13-0.06-0.2-0.06
				c-0.07-0.02-0.12-0.07-0.17-0.13c-0.05-0.06-0.1-0.12-0.15-0.17c-0.11-0.11-0.25-0.16-0.42,0c-0.13,0.01-0.24-0.08-0.37-0.15
				c-0.12-0.05-0.25-0.1-0.38,0.04c-0.12,0.13-0.24,0.12-0.36,0.09c-0.06-0.01-0.12-0.04-0.18-0.05c-0.06-0.01-0.12-0.02-0.18-0.01
				c-0.12,0.01-0.22,0.04-0.33,0.06c-0.1,0.03-0.21,0.05-0.3,0.1c-0.22,0.08-0.41,0.19-0.59,0.3c-0.17,0.12-0.33,0.25-0.47,0.39
				c-0.28,0.27-0.5,0.54-0.67,0.76c-0.35,0.45-0.55,0.7-0.62,0.66c-0.07-0.04,0-0.42,0.32-1.08c0.17-0.33,0.39-0.73,0.78-1.14
				c0.19-0.21,0.43-0.4,0.72-0.58c0.29-0.17,0.62-0.31,0.98-0.4c0.07-0.02,0.14-0.04,0.21-0.08c0.07-0.03,0.14-0.06,0.22-0.08
				c0.15-0.05,0.31-0.06,0.47,0.03c0.16,0,0.32-0.03,0.49-0.05c0.17,0,0.35,0.01,0.51,0.11c0.2-0.09,0.39-0.06,0.55,0.03
				c0.08,0.04,0.16,0.09,0.24,0.15c0.08,0.06,0.15,0.11,0.24,0.16c0.09,0.04,0.17,0.08,0.24,0.14c0.08,0.05,0.16,0.11,0.24,0.16
				c0.15,0.12,0.31,0.23,0.49,0.32c0.21,0.07,0.33,0.24,0.45,0.41c0.06,0.09,0.11,0.18,0.17,0.27c0.03,0.04,0.06,0.08,0.09,0.12
				c0.03,0.04,0.07,0.08,0.11,0.12c0.08,0.44,0.28,0.79,0.55,1.18c-0.01,0.12,0,0.23,0.01,0.34c0.01,0.11,0.04,0.22,0.07,0.33
				c0.03,0.11,0.05,0.22,0.07,0.34c0.01,0.06,0.02,0.12,0.02,0.17c0,0.06,0,0.11,0,0.17c-0.14,0.22-0.17,0.43-0.17,0.65
				c-0.01,0.22,0.02,0.45,0.03,0.68c-0.02,0.46-0.27,0.87-0.39,1.31c-0.05,0.1-0.1,0.21-0.14,0.32c-0.05,0.1-0.09,0.21-0.13,0.32
				c-0.09,0.21-0.17,0.44-0.3,0.62c-0.06,0.23-0.14,0.46-0.25,0.66c-0.12,0.2-0.27,0.39-0.46,0.54c-0.09,0.22-0.24,0.41-0.38,0.6
				c-0.07,0.09-0.14,0.19-0.22,0.28c-0.08,0.09-0.15,0.18-0.23,0.28c-0.21,0.44-0.61,0.74-0.9,1.12c-0.28,0.4-0.84,0.55-0.96,1.1
				c-0.3,0.39-0.7,0.69-1.01,1.08c-0.37,0.33-0.75,0.66-1.04,1.07c-0.14,0.04-0.26,0.1-0.36,0.18c-0.03,0.02-0.05,0.04-0.08,0.06
				l-0.04,0.03l-0.06,0.06c-0.08,0.08-0.15,0.15-0.23,0.24c-0.3,0.33-0.59,0.72-0.93,1.13c-0.34-0.28-0.69-0.62-1.03-0.97
				l-0.25-0.26l-0.06-0.07l-0.04-0.04l-0.06-0.07l-0.25-0.29c-0.37-0.34-0.71-0.71-1.04-1.07c-0.4-0.31-0.6-0.8-1.01-1.08
				c-0.42-0.28-0.56-0.81-0.96-1.1c-0.37-0.32-0.72-0.66-0.9-1.12c-0.15-0.19-0.24-0.41-0.35-0.63c-0.11-0.21-0.25-0.4-0.47-0.53
				c-0.15-0.18-0.35-0.33-0.51-0.51c-0.15-0.18-0.25-0.4-0.2-0.7c-0.16-0.17-0.21-0.41-0.28-0.63c-0.03-0.11-0.07-0.22-0.11-0.32
				c-0.04-0.11-0.09-0.21-0.17-0.3c0.05-0.27-0.04-0.47-0.12-0.68c-0.09-0.21-0.22-0.41-0.27-0.63c-0.02-0.23-0.02-0.46-0.04-0.68
				c-0.01-0.22-0.02-0.44-0.1-0.66c-0.02-0.06-0.03-0.11-0.04-0.17c-0.01-0.06-0.01-0.12,0-0.17c0.01-0.12,0.02-0.23,0.05-0.35
				c0.03-0.11,0.06-0.22,0.09-0.33c0.03-0.11,0.07-0.22,0.08-0.33c0-0.06,0-0.12,0.01-0.17c0.01-0.05,0.03-0.11,0.06-0.16
				c0.05-0.1,0.1-0.2,0.17-0.29c0.07-0.09,0.14-0.17,0.19-0.27c0.05-0.09,0.1-0.18,0.12-0.3c0.25-0.33,0.47-0.7,0.81-0.92
				c0.02-0.28,0.2-0.4,0.39-0.48c0.1-0.03,0.2-0.05,0.3-0.07c0.1-0.02,0.2-0.04,0.28-0.07c0.09-0.03,0.17-0.08,0.25-0.13
				c0.08-0.05,0.16-0.1,0.24-0.15c0.16-0.1,0.34-0.14,0.54-0.05c0.14-0.18,0.32-0.21,0.5-0.2c0.17,0.03,0.35,0.09,0.5,0.14
				c0.16,0.05,0.31,0.02,0.46,0.02c0.08,0,0.15,0,0.23,0.01c0.08,0.02,0.15,0.05,0.21,0.1c0.16-0.08,0.31,0,0.43,0.08
				c0.12,0.1,0.23,0.19,0.37,0.22c0.1,0.12,0.21,0.18,0.32,0.24c0.12,0.05,0.23,0.11,0.32,0.2c0.22,0.11,0.38,0.29,0.47,0.49
				c0.13,0.16,0.24,0.32,0.33,0.47c0.28,0.45,0.42,0.83,0.5,1.08C50.08,26.13,50.1,26.28,50.05,26.3z"/>
		</g>
		<g id="XMLID_22266_">
			<path d="M27.4,56.97c0.11,0,0.21,1.02,0.3,2.9c0.01,0.31,0.03,0.65,0.05,1.01c0.03,0.36,0.06,0.74,0.04,1.14
				c-0.14,0.4,0.26,0.83,0.04,1.28c-0.06,0.45,0,0.91,0.04,1.4c0.05,0.49-0.09,1,0.04,1.52c0.27,0.53-0.3,1.08,0.04,1.64
				c0.07,0.57,0.05,1.15,0.04,1.75c-0.21,0.6,0,1.22,0.04,1.86c-0.25,0.64-0.14,1.29,0.03,1.97c-0.34,0.67-0.29,1.36,0.03,2.06
				c0.01,0.7-0.12,1.42,0.03,2.16c0.02,0.73,0.09,1.48,0.03,2.24c0.23,0.76,0.22,1.54,0.02,2.33c0.25,0.79,0.15,1.59,0.02,2.41
				c-0.14,0.82,0.22,1.64,0.02,2.48l0,0.26c0,0.03,0,0.04,0,0.06c0,0.03,0.01,0.07,0.01,0.1c0.05,0.01,0.1,0.01,0.14,0.02l0.33,0.08
				c0.12,0.03,0.24,0.06,0.36,0.1c0.82,0.29,1.64,0.6,2.55,0.58c0.87,0.14,1.76,0.27,2.6,0.6c0.94-0.05,1.8,0.27,2.66,0.62
				c0.9,0.17,1.76,0.56,2.7,0.63c0.45,0.13,0.91,0.21,1.38,0.29l0.35,0.07l0.17,0.04l0.03,0.01l0.01,0c0.02,0.01,0.05,0.02,0.1,0.06
				c0.02,0.02,0.05,0.04,0.09,0.05c0.03-0.03,0.06-0.12,0.06-0.21l0-0.27c0-0.1-0.01-0.2-0.02-0.3c-0.01-0.2-0.04-0.4-0.07-0.6
				c-0.17-0.93,0.07-1.86,0-2.78c0.25-0.92-0.08-1.83,0.01-2.73c-0.02-0.9,0.14-1.79,0.01-2.67c-0.05-0.88-0.09-1.75,0.01-2.61
				c-0.38-0.86,0.1-1.71,0.02-2.55c0.16-0.84-0.02-1.67,0.02-2.48c-0.07-0.82,0.17-1.62,0.02-2.41c0.03-0.79-0.12-1.57,0.02-2.33
				c-0.19-0.76,0.16-1.51,0.03-2.25c0-0.73-0.01-1.45,0.03-2.16c0.13-0.3,0.15-0.6,0.14-0.9c-0.01-0.28-0.06-0.67-0.09-0.69
				c-0.03-0.03-0.05-0.05-0.08-0.08c-0.33-0.56-0.87-1.01-1.05-1.65l-0.08-0.14l-0.04-0.07c-0.01-0.02-0.01-0.02-0.02-0.04
				l-0.06-0.13c-0.04-0.02-0.08-0.04-0.12-0.05l-0.03-0.01l-0.07-0.02l-0.15-0.04c-0.2-0.05-0.39-0.08-0.59-0.09
				c-0.6-0.1-1.06-0.69-1.7-0.44c-0.57-0.06-1.01-0.55-1.59-0.41c-0.57,0.12-1-0.27-1.48-0.39c-0.47-0.13-0.92-0.25-1.36-0.36
				c-3.88-1.04-6.09-1.72-6.06-1.87c0.04-0.17,2.85,0.32,7.63,1.3c0.48,0.1,1.02,0.01,1.49,0.31c0.51,0.12,1.08,0.09,1.61,0.34
				c0.61-0.14,1.13,0.21,1.72,0.37c0.19,0.04,0.39,0.09,0.58,0.15l0.15,0.04l0.2,0.05c0.16,0.04,0.32,0.08,0.47,0.11
				c0.09,0.14,0.19,0.28,0.3,0.42l0.07,0.1l0.05,0.06c0.04,0.04,0.07,0.08,0.11,0.12c0.49,0.45,0.64,1.12,1.11,1.63
				c0.07,0.15,0.14,0.28,0.2,0.42c-0.05,0.56-0.06,0.75-0.04,1.07c0.02,0.3,0.06,0.6,0.13,0.9c-0.17,0.7,0.04,1.42,0.03,2.16
				c-0.25,0.73-0.08,1.48,0.03,2.25c0.09,0.76-0.04,1.54,0.02,2.33c-0.05,0.79,0.06,1.59,0.02,2.41c0.12,0.82,0.16,1.64,0.02,2.48
				c0.08,0.84,0.02,1.69,0.02,2.55c0.1,0.86-0.01,1.73,0.01,2.61c0.05,0.88-0.27,1.77,0.01,2.67c0.04,0.9-0.04,1.81,0.01,2.73
				c-0.04,0.92-0.07,1.84,0.01,2.78c-0.06,0.2-0.1,0.4-0.12,0.6c-0.01,0.1-0.02,0.2-0.02,0.3l0,0.15v0.18
				c0.01,0.7,0.05,1.42,0.1,2.24l-0.68-0.11c-0.42-0.08-0.86-0.17-1.3-0.27l-0.48-0.11l-0.34-0.08c-0.46-0.11-0.91-0.24-1.36-0.37
				c-0.91-0.19-1.81-0.41-2.7-0.64c-0.91-0.13-1.75-0.53-2.65-0.63c-0.9-0.09-1.71-0.53-2.6-0.62c-0.88-0.12-1.73-0.28-2.54-0.61
				c-0.12-0.03-0.24-0.06-0.36-0.1l-0.39-0.12c-0.43-0.13-0.83-0.25-1.23-0.36c0.01-0.32,0.01-0.62,0-0.92
				c-0.01-0.15-0.02-0.31-0.03-0.45c-0.02-0.09-0.03-0.18-0.06-0.26c-0.05-0.84-0.37-1.67,0.02-2.48c-0.1-0.81,0.19-1.62,0.02-2.41
				c0.28-0.79,0.01-1.57,0.02-2.33c0.06-0.76,0.15-1.51,0.03-2.24c-0.13-0.73,0.07-1.45,0.03-2.16c-0.16-0.7,0.21-1.39,0.03-2.06
				c0.04-0.67-0.02-1.33,0.03-1.97c-0.38-0.64,0-1.26,0.03-1.86c0.06-0.6-0.25-1.19,0.04-1.75c-0.29-0.57-0.04-1.11,0.04-1.64
				c0.08-0.53-0.12-1.04,0.04-1.52c-0.2-0.49,0.11-0.96,0.04-1.4c0.13-0.45,0.01-0.87,0.04-1.28c-0.05-0.4-0.03-0.79,0.04-1.14
				c0.02-0.36,0.03-0.7,0.05-1.01C27.19,57.99,27.29,56.97,27.4,56.97z"/>
		</g>
		<g id="XMLID_22265_">
			<path d="M42.49,62.57c0.09-0.06,0.77,0.79,1.94,2.4c0.19,0.27,0.4,0.56,0.62,0.87c0.23,0.3,0.48,0.63,0.7,0.99
				c0.12,0.44,0.7,0.6,0.78,1.11c0.2,0.43,0.53,0.81,0.85,1.23c0.32,0.41,0.49,0.94,0.9,1.35c0.53,0.33,0.36,1.12,0.96,1.46
				c0.09,0.12,0.18,0.24,0.27,0.37l0.13,0.19l0.08,0.13c0.07,0.1,0.12,0.22,0.19,0.35c0.02,0.13,0.06,0.25,0.1,0.33l0.02,0.03
				l0.01,0.02c0,0,0-0.01,0.01-0.01c0.01-0.02,0.02-0.04,0.03-0.06c0.02-0.04,0.04-0.08,0.06-0.13c0.08-0.19,0.12-0.38,0.17-0.5
				c0.04-0.01,0.08-0.02,0.12-0.05c0.06-0.06,0.12-0.13,0.17-0.2c0.11-0.14,0.2-0.28,0.28-0.44c0.16-0.31,0.29-0.64,0.41-0.99
				c0.67-0.42,1.02-1.06,1.15-1.87c0.39-0.64,0.92-1.2,1.22-1.94c0.2-0.33,0.4-0.67,0.61-1.01c0.1-0.17,0.21-0.34,0.32-0.51
				c0.07-0.11,0.15-0.21,0.22-0.32c0.09-0.13,0.19-0.26,0.28-0.39c0.57-1.28,1.53-2.73,2.18-3.36c0.4-0.82,0.83-1.54,1.2-2.1
				c0,0.88-0.06,1.93-0.13,2.89c-0.04,0.45-0.04,0.83-0.03,1.2c0.01,0.37,0.04,0.73,0.06,1.11l0.03,0.59l0.01,0.3l0,0.29
				c0,0.22-0.01,0.44-0.06,0.66c-0.01,0.89,0.06,1.79,0.02,2.7c-0.1,0.91-0.21,1.84,0.01,2.77c0.06,0.93,0.14,1.88,0.01,2.83
				c0.26,0.96,0.15,1.92,0.01,2.89c0.04,0.97-0.14,1.96,0,2.95c-0.04,0.99,0.12,1.99,0,2.99c-0.08,1.01-0.16,2,0,2.99
				c0.02,0.12,0.04,0.25,0.05,0.37l0.01,0.19l0,0.09l0,0.14c0,0.47-0.01,0.94-0.03,1.4c-0.46,0.09-0.91,0.18-1.36,0.28l-0.22,0.05
				l-0.18,0.04c-0.12,0.03-0.24,0.06-0.35,0.09c-1-0.02-1.87,0.52-2.82,0.65c-0.92,0.24-1.88,0.3-2.76,0.64
				c-0.9,0.26-1.79,0.52-2.7,0.62c-0.8,0.58-1.79,0.32-2.63,0.6c-0.45,0.02-0.88,0.13-1.3,0.25l-0.16,0.04l-0.08,0.02l-0.14,0.04
				c-0.19,0.05-0.38,0.1-0.56,0.15c-0.38,0.1-0.76,0.19-1.13,0.27c-0.12,0.03-0.23,0.06-0.35,0.09c-0.01-0.71,0.03-1.46,0.06-2.14
				c0.01-0.11,0.01-0.23,0.02-0.34c0-0.1,0.01-0.2,0.01-0.29c0-0.19-0.02-0.39-0.05-0.58c0.03-0.84-0.12-1.66,0.02-2.47
				c-0.19-0.81,0.16-1.6,0.03-2.38c0-0.78-0.01-1.54,0.03-2.29c0.29-0.75,0.05-1.48,0.03-2.19c0.03-0.71-0.17-1.41,0.03-2.08
				c0.02-0.68,0.15-1.33,0.04-1.98c-0.04-0.64,0.43-1.26,0.04-1.86c-0.07-0.6,0.3-1.18,0.04-1.74c-0.24-0.56,0.03-1.1,0.04-1.62
				c0.01-0.52,0.03-1.01,0.04-1.49c0.13-4.26,0.28-6.71,0.44-6.71c0.18,0,0.34,3.02,0.48,8.2c0.01,0.52,0.22,1.06,0.04,1.62
				c0,0.56,0.16,1.14,0.04,1.74c0.27,0.6,0.05,1.22,0.04,1.86c0.01,0.64-0.08,1.3,0.04,1.98c0.16,0.68-0.08,1.37,0.03,2.08
				c-0.17,0.71-0.12,1.44,0.03,2.19c-0.17,0.75,0.04,1.51,0.03,2.29c-0.25,0.78-0.08,1.57,0.03,2.38c0.09,0.81-0.04,1.63,0.02,2.47
				c-0.01,0.19-0.01,0.39-0.01,0.58l0.01,0.29l0,0.15l0,0.07c0,0.02,0,0.01,0,0.02c0.02,0.08,0.03,0.13,0.02,0.22
				c0.01,0,0.02,0,0.03,0c0.06-0.05,0.11-0.08,0.13-0.11l0.03-0.03l0.01-0.01l0.08-0.02l0.16-0.04c0.43-0.11,0.86-0.19,1.31-0.22
				c0.85-0.28,1.74-0.43,2.63-0.63c0.87-0.31,1.79-0.41,2.69-0.65c0.9-0.26,1.89-0.17,2.76-0.66c0.92-0.25,1.88-0.4,2.81-0.67
				c0.22-0.04,0.45-0.09,0.67-0.13c0.04,0,0.08-0.01,0.12-0.01c0-0.04,0-0.08-0.01-0.12l-0.01-0.33l-0.02-0.37
				c0.28-0.99,0.11-1.99,0-2.99c-0.08-1-0.04-2,0-2.99c-0.03-0.99-0.01-1.97,0-2.95c-0.08-0.97,0.12-1.94,0.01-2.89
				c-0.12-0.96,0.13-1.9,0.01-2.83c-0.08-0.94-0.12-1.86,0.01-2.77c0-0.91,0.25-1.81,0.02-2.7c-0.01-0.22-0.04-0.44-0.08-0.66
				l0-0.02l0,0l0,0l-0.01-0.01c-0.01,0-0.02,0-0.02-0.01c-0.02,0-0.03,0-0.04,0.01c-0.02,0.01-0.02,0.02,0-0.01
				c0.02-0.04,0.08-0.12,0.17-0.35c-0.03,0.01-0.02-0.03-0.01-0.1c0.02-0.1,0.04-0.21,0.05-0.31c-0.05,0.01-0.14,0.11-0.26,0.43
				c-0.02-0.22-0.16-0.02-0.26,0.18c-0.1,0.21-0.16,0.42-0.25,0.54l-0.08,0.08c-0.02,0.02-0.03,0.02-0.04,0.05l-0.09,0.12
				c-0.12,0.16-0.24,0.32-0.35,0.48c-0.23,0.32-0.44,0.66-0.6,1.02c-0.31,0.72-0.91,1.25-1.27,1.9c-0.26,0.71-0.97,1.13-1.2,1.82
				c-0.21,0.29-0.39,0.59-0.56,0.89c-0.09,0.15-0.17,0.3-0.27,0.44l-0.14,0.21l-0.23,0.35c-0.08,0.31-0.21,0.62-0.35,0.9
				c-0.15,0.28-0.31,0.52-0.47,0.73c-0.08,0.1-0.16,0.2-0.23,0.29l-0.11,0.13c-0.01,0.01-0.02,0.02-0.03,0.03l-0.03-0.06l-0.05-0.11
				c-0.14-0.3-0.27-0.57-0.4-0.8c-0.13-0.24-0.26-0.44-0.4-0.64c-0.15-0.21-0.29-0.41-0.44-0.61c-0.06-0.09-0.12-0.18-0.18-0.26
				c-0.04-0.06-0.08-0.13-0.11-0.2c-0.07-0.14-0.12-0.28-0.13-0.45c-0.55-0.36-0.66-0.98-0.89-1.49c-0.23-0.52-0.69-0.86-0.83-1.38
				c-0.45-0.33-0.46-0.91-0.77-1.27c-0.15-0.47-0.5-0.78-0.7-1.16c-0.27-0.33-0.48-0.68-0.63-1.04c-0.19-0.33-0.38-0.63-0.55-0.92
				C42.91,63.59,42.4,62.63,42.49,62.57z"/>
		</g>
		<g id="XMLID_22262_">
			<path d="M60.74,57.71c0.09,0.06-0.37,0.95-1.29,2.53c-0.15,0.26-0.32,0.55-0.5,0.85c-0.17,0.31-0.35,0.64-0.57,0.96
				c-0.08,0.06-0.14,0.15-0.18,0.24c-0.02,0.05-0.04,0.09-0.06,0.15l-0.03,0.07c-0.01,0.03-0.02,0.05-0.02,0.06
				c0,0.03-0.01,0.06-0.01,0.09c0,0.03-0.02,0.05-0.01,0.08c0,0.03,0,0.05-0.01,0.08c0,0.01-0.01,0.03-0.02,0.04
				c-0.01,0.03-0.02,0.05-0.03,0.08c-0.06,0.43-0.01,0.89,0.04,1.37c0.05,0.48-0.09,0.97,0.04,1.49c0.27,0.52-0.3,1.05,0.04,1.6
				c0.07,0.55,0.05,1.12,0.04,1.71c-0.21,0.59,0,1.19,0.04,1.82c-0.25,0.62-0.14,1.26,0.03,1.92c-0.34,0.66-0.29,1.33,0.03,2.01
				c0.01,0.69-0.12,1.39,0.03,2.1c0.02,0.72,0.09,1.45,0.03,2.19c0.23,0.74,0.22,1.5,0.02,2.27c0.25,0.77,0.15,1.55,0.02,2.35
				c-0.14,0.8,0.22,1.6,0.02,2.42c-0.01,0.33,0,0.66,0.01,0.99l0.01,0.22l0.01,0.04c0,0.03,0.01,0.06,0,0.08
				c0.03,0.01,0.05,0.02,0.08,0.03c0.01,0.01,0.01,0.02,0.02,0.02l0.01,0.01l0.01,0.01c0,0,0,0,0.02,0.01l0.3,0.11
				c0.2,0.07,0.4,0.13,0.61,0.19c0.41,0.11,0.83,0.18,1.28,0.17c0.85,0.14,1.72,0.26,2.54,0.59c0.91-0.06,1.75,0.26,2.59,0.6
				c0.88,0.16,1.72,0.55,2.64,0.61c0.88,0.25,1.81,0.31,2.68,0.63l0.41,0.13c0.05,0.01,0.04,0.02,0.05,0.02l0.02,0.01
				c0.01,0.01,0.03,0.02,0.04,0.03c0.06,0.03,0.14,0.06,0.2,0.07c0-0.09-0.03-0.2-0.09-0.26c-0.04,0.05-0.06-0.28-0.06-0.49
				c0-0.23,0.01-0.45,0.03-0.68c0.03-0.45,0.07-0.9,0.04-1.35c0.25-0.89-0.08-1.78,0.01-2.66c-0.02-0.88,0.14-1.75,0.01-2.61
				c-0.05-0.86-0.09-1.71,0.01-2.55c-0.38-0.84,0.1-1.67,0.01-2.49c0.16-0.82-0.02-1.62,0.02-2.42c-0.07-0.79,0.17-1.58,0.02-2.35
				c0.03-0.77-0.12-1.53,0.02-2.27c-0.19-0.74,0.16-1.47,0.03-2.19c0-0.71-0.01-1.42,0.03-2.1c0.29-0.69,0.05-1.36,0.03-2.01
				c0.03-0.65-0.17-1.29,0.03-1.92c0.01-0.31,0.05-0.62,0.07-0.92c0-0.07,0.01-0.14,0.01-0.22c0-0.03,0-0.07,0-0.1
				c0-0.07-0.02-0.13-0.05-0.17c0-0.01,0-0.03,0-0.04c-0.1-0.03-0.14-0.14-0.31-0.24c-0.25-0.11-0.5-0.18-0.8-0.06
				c-0.55-0.06-0.99-0.54-1.55-0.4c-0.56,0.12-0.98-0.26-1.44-0.38c-0.46-0.12-0.9-0.24-1.32-0.35c-3.79-1.02-5.94-1.68-5.91-1.83
				c0.04-0.17,2.78,0.3,7.45,1.26c0.47,0.09,1,0.01,1.46,0.3c0.5,0.12,1.06,0.09,1.57,0.33c0.28-0.07,0.54-0.02,0.8,0.05
				c0.1,0.03,0.21,0.06,0.31,0.09c0.11,0.03,0.21,0.07,0.32,0.1c0.21,0.07,0.41,0.13,0.62,0.19l0,0.17c0,0.23,0,0.48,0,0.72
				c0,0.2-0.01,0.4-0.01,0.6c-0.01,0.3,0,0.61,0.05,0.92c0.16,0.62-0.08,1.26,0.03,1.92c-0.17,0.66-0.12,1.33,0.03,2.01
				c-0.17,0.69,0.03,1.39,0.03,2.1c-0.25,0.72-0.07,1.45,0.03,2.19c0.09,0.74-0.04,1.5,0.02,2.27c-0.05,0.77,0.07,1.55,0.02,2.35
				c0.12,0.8,0.16,1.6,0.02,2.42c0.08,0.82,0.02,1.65,0.02,2.49c0.1,0.84-0.01,1.69,0.01,2.55c0.05,0.86-0.27,1.73,0.01,2.61
				c0.04,0.88-0.04,1.77,0.01,2.66c-0.02,0.45-0.04,0.9-0.04,1.35c0,0.23,0,0.45,0.01,0.68c0.01,0.29,0.03,0.59,0.04,0.88
				c-0.1,0.62-0.14,1.15-0.15,1.74c-0.49-0.12-0.95-0.21-1.45-0.29l-0.38-0.06l-0.19-0.03c-0.06-0.01-0.14-0.02-0.16-0.03
				l-0.43-0.05c-0.92-0.13-1.8-0.38-2.68-0.63c-0.89-0.18-1.77-0.4-2.64-0.62c-0.89-0.13-1.71-0.52-2.59-0.62
				c-0.88-0.09-1.67-0.52-2.53-0.61c-0.43-0.06-0.85-0.13-1.27-0.22c-0.21-0.05-0.41-0.1-0.62-0.16c-0.1-0.03-0.2-0.06-0.3-0.1
				l-0.27-0.08l-0.27-0.09c-0.29-0.07-0.58-0.15-0.85-0.22c0.03-0.55,0.06-1.1,0.09-1.65c0.02-0.33,0-0.66-0.09-0.99
				c-0.05-0.82-0.37-1.62,0.02-2.42c-0.09-0.79,0.18-1.58,0.02-2.35c0.28-0.77,0.01-1.53,0.02-2.27c0.05-0.74,0.15-1.47,0.03-2.19
				c-0.13-0.71,0.07-1.42,0.03-2.1c-0.16-0.69,0.21-1.36,0.03-2.01c0.04-0.65-0.03-1.29,0.03-1.92c-0.38-0.62,0-1.23,0.04-1.82
				c0.05-0.59-0.25-1.16,0.04-1.71c-0.29-0.55-0.04-1.09,0.04-1.6c0.08-0.51-0.12-1.01,0.04-1.49c-0.2-0.48,0.11-0.93,0.04-1.37
				c0.01-0.03,0.02-0.05,0.02-0.08c0-0.04,0.01-0.08,0.02-0.11c0.01-0.08,0.01-0.15,0.02-0.22c-0.01-0.08,0.05-0.13,0.08-0.2
				c0.04-0.06,0.08-0.12,0.12-0.18c0.05-0.09,0.11-0.19,0.16-0.28c0.05-0.09,0.1-0.17,0.17-0.25c0.18-0.35,0.39-0.66,0.65-0.91
				c0.2-0.28,0.4-0.55,0.58-0.8C60.02,58.43,60.65,57.65,60.74,57.71z"/>
		</g>
	</g>
</g>
</svg>
