<?xml version="1.0" encoding="utf-8"?>
<!-- Generator: Adobe Illustrator 26.3.1, SVG Export Plug-In . SVG Version: 6.00 Build 0)  -->
<svg version="1.1" id="Capa_1" xmlns="http://www.w3.org/2000/svg" xmlns:xlink="http://www.w3.org/1999/xlink" x="0px" y="0px"
	 viewBox="0 0 100 100" style="enable-background:new 0 0 100 100; fill: #ffffff;" xml:space="preserve">
<g>
	<g id="XMLID_21176_">
		<g id="XMLID_21195_">
			<path d="M58.74,52.52c0,0.05-0.53,0.1-1.54,0.15c-0.5,0.02-1.13,0.05-1.87,0.07c-0.37,0.01-0.77,0.02-1.2,0.04
				c-0.21,0.01-0.44,0.01-0.67,0.02c-0.29,0.01-0.59,0.01-0.9,0.02c-0.02-0.06-0.04-0.12-0.06-0.18c-0.24-0.67-0.49-1.39-0.76-2.16
				c-0.26-0.71-0.54-1.46-0.8-2.28c-0.03-0.21-0.1-0.42-0.18-0.62c-0.04-0.1-0.09-0.2-0.13-0.3c-0.04-0.09-0.1-0.22-0.13-0.26
				c-0.07-0.11-0.12-0.2-0.16-0.31c-0.04-0.11-0.06-0.23-0.08-0.45c-0.08-0.33-0.18-0.65-0.28-0.89c-0.09,0.31-0.17,0.63-0.24,0.91
				c-0.07,0.3-0.17,0.52-0.27,0.79c-0.18,0.5-0.35,1.02-0.46,1.57c-0.09,1.14-1,2.06-1.05,3.3l-0.03,0.11l-0.04,0.15l-0.09,0.3
				c-0.06,0.2-0.12,0.4-0.19,0.61c-0.37,0-0.75,0.01-1.13,0.01c-0.24,0-0.48,0-0.73,0c-0.49,0-0.98-0.01-1.47-0.02
				c-0.5-0.08-1-0.1-1.51-0.09c-0.13,0-0.26,0.01-0.38,0.01l-0.18,0.01l-0.09,0.01c-0.12,0.02-0.23,0.03-0.32,0.05
				c0.02,0.14,0.04,0.26,0.04,0.37c-0.01,0.02-0.02,0.03-0.02,0.05l-0.02,0.13l-0.04,0.25c-0.02,0.17-0.04,0.34-0.05,0.51
				c-0.02,0.34-0.03,0.68-0.02,1.03c0.02,0.69,0.09,1.39,0.18,2.1c-0.34,1.42-0.29,2.87,0.03,4.35c0.01,1.48-0.12,3,0.03,4.55
				c0.02,1.55,0.09,3.12,0.03,4.73c0.23,1.61,0.22,3.25,0.02,4.91c0.25,1.66,0.15,3.36,0.02,5.08c-0.14,1.72,0.22,3.46,0.02,5.23
				c-0.01,0.88,0.01,1.77,0.02,2.67c0,0.45,0.01,0.9,0.01,1.35c0,0.23,0,0.45,0,0.68l0,0.34l0,0.17l0,0.08l0,0.02
				c-0.01,0.04-0.04,0.1-0.02,0.15c0.01,0.06,0.07,0.08,0.12,0.09c0.03,0.01,0.05,0.01,0.09,0.02l0.34,0.01l0.69,0.02
				c0.92,0.01,1.84-0.02,2.77-0.13l0.35-0.01l0.18-0.01c0.04,0,0.03,0,0.04,0l0.01,0c0.03-0.01,0.06-0.01,0.08-0.04
				c0.02-0.02,0.01-0.06,0-0.08l0-0.02l0,0v0v-0.02l0-0.09l0-0.35c-0.01-0.94,0-1.88,0.07-2.83c-0.26-1.9-0.14-3.82-0.01-5.75
				c-0.04-1.93,0.14-3.89,0-5.86c0.04-1.97-0.12-3.95,0-5.95c0.08-2,0.15-3.98,0-5.95c-0.08-0.98-0.07-1.97-0.04-2.94
				c0.02-0.49,0.03-0.98,0.04-1.46c0.01-0.24,0.01-0.49,0.01-0.73c0-0.34-0.01-0.67-0.01-1.01c0.03-0.4,0.05-0.78,0.06-1.16
				c0.37,0.01,0.73,0.02,1.09,0.03l0.53,0l0.37,0c0.4,0,0.8-0.02,1.2-0.04c0.4-0.02,0.8-0.03,1.2-0.05
				c0.12-0.01,0.59-0.01,0.94-0.01c0.37,0,0.74,0,1.1,0c0,0.19-0.01,0.37-0.01,0.56c0,0.43,0,0.87,0,1.3l-0.01,0.71
				c-0.01,0.47-0.02,0.94-0.04,1.41c-0.02,0.94-0.03,1.88,0.04,2.8c0.04,1.86,0.09,3.7-0.01,5.51c0.38,1.82-0.1,3.61-0.02,5.38
				c-0.16,1.77,0.02,3.51-0.02,5.23c0.07,1.72-0.17,3.41-0.02,5.08c-0.03,1.66,0.12,3.3-0.02,4.91c0.05,0.4,0.06,0.8,0.06,1.2
				l0,0.07c0,0.02,0,0.02,0,0.02l0,0.03l-0.01,0.07c-0.01,0.05,0.01,0.1,0.05,0.13c0.04,0.03,0.09,0.03,0.15,0.04l0.02,0
				c0,0,0.01,0,0.03,0l0.04,0l0.15,0.01l0.29,0.01c0.39,0.01,0.78,0.01,1.17-0.03c0.77,0,1.54,0,2.3,0c0.15,0,0.3,0,0.45,0
				c0.05,0,0.11,0.01,0.17-0.01c0.05-0.02,0.09-0.07,0.09-0.13l0-0.08l0-0.04l0-0.02l0-0.06c0.3-1.48,0.05-2.93,0.03-4.35
				c0.03-1.42-0.17-2.8,0.03-4.14c0.02-1.35,0.15-2.66,0.03-3.93c-0.04-1.27,0.43-2.51,0.04-3.7c-0.07-1.19,0.3-2.35,0.04-3.46
				c-0.24-1.11,0.03-2.19,0.04-3.22c0.01-1.03,0.03-2.02,0.04-2.96c0.06-4.24,0.13-7.57,0.21-9.85c0.07-2.27,0.15-3.49,0.23-3.49
				c0.09,0,0.17,1.5,0.25,4.29c0.08,2.79,0.16,6.86,0.22,12.01c0.01,1.03,0.22,2.1,0.04,3.22c0,1.11,0.16,2.27,0.04,3.46
				c0.28,1.2,0.05,2.43,0.04,3.7c0.01,1.27-0.07,2.58,0.04,3.93c0.16,1.35-0.08,2.73,0.03,4.14c-0.17,1.42-0.12,2.87,0.03,4.35
				l-0.05,0.42l-0.05,0.44c-0.06,0.27-0.25,0.52-0.49,0.66c-0.13,0.07-0.25,0.12-0.4,0.12L58,93.31l-0.22,0.02
				c-0.04,0-0.06,0-0.08,0l-0.07,0l-0.28,0.01c-0.76,0.03-1.52,0.08-2.3,0.07c-0.39-0.06-0.78-0.1-1.17-0.12l-0.29-0.01l-0.15,0
				c-0.03,0-0.04,0-0.08,0l-0.11-0.01l-0.46-0.03l-0.23-0.01c-0.07-0.02-0.14-0.04-0.2-0.07c-0.27-0.13-0.48-0.38-0.55-0.66
				l-0.05-0.47l-0.03-0.24l-0.01-0.11l-0.01-0.07c-0.03-0.4-0.05-0.8-0.08-1.2c-0.09-1.61,0.04-3.25-0.02-4.91
				c0.05-1.66-0.06-3.36-0.02-5.08c-0.12-1.72-0.16-3.46-0.02-5.23c-0.08-1.77-0.02-3.56-0.02-5.38c-0.1-1.82,0.01-3.65-0.01-5.51
				c-0.03-0.93,0.04-1.86,0.08-2.8c0.02-0.47,0.03-0.94,0.02-1.41c0-0.24-0.01-0.47-0.03-0.71c-0.01-0.05-0.02-0.05-0.03-0.07
				c-0.01-0.02-0.03-0.03-0.05-0.03l0-0.03c0.54,0.02-3.56-0.03-3.06-0.01c0,0.03,0.01,0.06,0.01,0.09l0,0.02l0,0.01c0,0,0,0,0,0.04
				l-0.01,0.36l-0.01,0.73c0,0.49-0.01,0.97-0.01,1.46c0,0.98,0.01,1.96,0.05,2.94c-0.28,1.97-0.11,3.95,0,5.95
				c0.08,2,0.04,3.98,0,5.95c0.03,1.97,0.01,3.92-0.01,5.86c0.08,1.94-0.12,3.85-0.01,5.75c0.06,0.95,0.03,1.9,0,2.83l-0.01,0.35
				l0,0.09v0.02l0,0.04l-0.01,0.08l-0.03,0.31l-0.03,0.31c-0.01,0.1-0.01,0.21-0.06,0.29c-0.07,0.17-0.19,0.34-0.34,0.47
				c-0.15,0.12-0.32,0.23-0.51,0.26l-0.61,0.05l-0.15,0.01c-0.05,0-0.11,0.01-0.13,0.01l-0.18,0.01l-0.35,0.02
				c-0.93,0.04-1.85,0.07-2.77,0.08c-0.23,0-0.46,0-0.69,0l-0.34-0.01l-0.62-0.06l-0.31-0.03c-0.05,0-0.09-0.03-0.14-0.05
				c-0.04-0.02-0.09-0.04-0.13-0.07c-0.17-0.1-0.32-0.23-0.43-0.4c-0.06-0.08-0.1-0.17-0.14-0.26c-0.01-0.05-0.04-0.08-0.04-0.14
				l-0.01-0.16l-0.02-0.61L40.4,91.7v-0.09l0-0.17l0.01-0.34l0.02-0.68c0.02-0.45,0.04-0.9,0.06-1.35c0.03-0.9,0.04-1.79-0.08-2.67
				c-0.05-1.77-0.37-3.51,0.02-5.23c-0.1-1.72,0.19-3.41,0.02-5.08c0.28-1.66,0.01-3.3,0.02-4.91c0.06-1.61,0.15-3.19,0.03-4.73
				c-0.13-1.55,0.07-3.06,0.03-4.55c-0.16-1.48,0.21-2.94,0.03-4.35c0.02-0.71,0.01-1.41,0.01-2.1c0-0.35,0-0.69,0-1.03
				c0-0.17,0-0.34,0.01-0.51c0.01-0.2,0.01-0.39,0.02-0.59c-0.08-0.49-0.13-1.04-0.15-1.58c0.45-0.02,0.93-0.02,1.4-0.01l0.35,0.01
				l0.07,0l0.05,0l0.1,0.01l0.38,0.04c0.51,0.05,1.01,0.12,1.51,0.13c0.5,0.02,0.99-0.01,1.47-0.04c0.24-0.02,0.49-0.03,0.72-0.04
				c0.07-0.01,0.14-0.01,0.22,0.01c0.02-0.03,0.04-0.06,0.07-0.09l0.05-0.05l0.03-0.03l0.01-0.01l0.01-0.02l0.02-0.04
				c0.1-1.23,0.7-2.24,1.12-3.28c0.21-0.52,0.35-1.04,0.51-1.56c0.12-0.4,0.24-0.8,0.37-1.18c0.13-0.38,0.27-0.75,0.41-1.04
				c0.09-0.43,0.21-0.84,0.32-1.2c0.12-0.36,0.24-0.67,0.35-0.95c0.12,0.44,0.24,0.87,0.35,1.29c0.11,0.4,0.22,0.75,0.34,1.06
				c0.18,0.76,0.37,1.33,0.57,1.93c0.08,0.22,0.16,0.45,0.24,0.67c0.07,0.21,0.14,0.41,0.2,0.61c0.31,0.79,0.55,1.56,0.71,2.3
				c0.11,0.36,0.22,0.71,0.32,1.05c0.05,0.16,0.1,0.32,0.14,0.48c0.03,0.11,0.06,0.22,0.1,0.33c0.01,0.03,0.02,0.07,0.03,0.1
				c0.17,0.01,0.33,0.01,0.48,0.02c0.23,0.01,0.44,0.01,0.66,0.02c0.43,0.01,0.83,0.02,1.2,0.04c0.74,0.02,1.37,0.05,1.87,0.07
				C58.22,52.42,58.74,52.47,58.74,52.52z"/>
		</g>
		<g id="XMLID_21180_">
			<path d="M49.98,44.09c0.05-0.02,0.34,0.71,0.86,2.13c0.26,0.71,0.57,1.58,0.94,2.63c0.35,0.99,0.75,2.13,1.2,3.42
				c0.23,0,0.46-0.01,0.7-0.01c1.06-0.01,2.19-0.03,3.41-0.05c0.61-0.01,1.23-0.03,1.88-0.04c0.32,0,0.65-0.01,0.98-0.01
				c0.32,0,0.64,0,0.96,0c0.17,0.03,0.36,0.03,0.53,0.03c0.09,0,0.17-0.01,0.25-0.02l0.11-0.01c0.01,0,0,0,0-0.01l-0.01-0.01
				l-0.03-0.03l-0.05-0.06c-0.09-0.12-0.17-0.25-0.24-0.36c-0.07-0.12-0.12-0.21-0.17-0.33c-0.17-0.43-0.3-0.87-0.37-1.33
				c-0.37-1.49-0.76-3.03-1.12-4.65c-0.36-1.62-0.5-3.35-0.87-5.11c-0.26-0.87-0.3-1.79-0.33-2.72c-0.04-0.93-0.07-1.88-0.31-2.83
				c-0.11-0.96-0.17-1.94-0.18-2.96l0-0.38l0-0.19l0.01-0.24c0.02-0.38,0.05-0.79,0.12-1.16c0.06-0.37,0.17-0.68,0.31-0.92
				c0.07-0.12,0.15-0.22,0.25-0.32c0.09-0.09,0.22-0.18,0.38-0.2c0.16-0.01,0.3,0.05,0.42,0.11c0.12,0.08,0.23,0.18,0.34,0.26
				c0.03,0.02,0.06,0.05,0.08,0.08l0.08,0.1l0.16,0.19l0.08,0.09l0.04,0.05l0.03,0.06l0.14,0.24c0.09,0.16,0.19,0.32,0.28,0.48
				l0.22,0.45c0.17,0.33,0.25,0.54,0.37,0.79c0.44,0.97,0.87,1.96,1.25,2.98c0.47,2.13,1.23,4.22,2.04,6.36
				c0.31,2.28,0.99,4.51,1.92,6.73c0.63,2.3,1.12,4.69,1.87,7.06l0.05,0.18l0.02,0.07l0.04,0.13l0.21-0.03
				c0.22-0.03,0.45-0.05,0.68-0.08c0.5-0.05,1.01-0.11,1.52-0.16c0.51-0.05,1.02-0.1,1.53-0.15l0.38-0.04l0.1-0.01l0.2-0.01
				c-0.01-0.04-0.01-0.07-0.02-0.11c-0.03-0.05-0.05-0.09-0.07-0.12l-0.02-0.03l-0.01-0.01l0-0.01l-0.01-0.03L73,53.75
				c-0.1-0.31-0.2-0.62-0.29-0.93c-0.19-0.62-0.36-1.25-0.53-1.89c-0.33-1.27-0.6-2.57-0.84-3.89c-0.9-2.53-1.47-5.18-2.03-7.88
				c-0.55-2.7-1.58-5.33-2.09-8.13c-0.69-2.75-1.47-5.52-2.14-8.35c-0.62-2.85-1.24-5.73-2.19-8.56l-0.07-0.27
				c-0.01-0.03-0.01-0.03-0.02-0.05l-0.02-0.04c-0.01,0-0.03-0.01-0.04-0.01l-0.04-0.01l-0.26-0.07l-0.53-0.14
				c-0.72-0.19-1.43-0.36-2.2-0.58c-0.19-0.06-0.38-0.11-0.59-0.19c-0.1-0.04-0.2-0.07-0.3-0.11l-0.3-0.13
				c-0.1-0.04-0.2-0.1-0.3-0.15c-0.1-0.06-0.2-0.11-0.3-0.17c-0.19-0.13-0.38-0.26-0.54-0.4c-0.08-0.07-0.17-0.14-0.25-0.22
				l-0.22-0.23c-0.16-0.15-0.29-0.31-0.42-0.46c-0.07-0.08-0.14-0.16-0.2-0.23l-0.05-0.06c-0.01-0.02-0.03-0.04-0.03-0.04
				l-0.01-0.02c-0.02-0.03-0.03-0.06-0.04-0.09c-0.06-0.01-0.08,0.01-0.08,0.04c0.01,0.11,0.02,0.14,0.03,0.15l0,0l0,0l0,0l0,0
				l0,0.01l-0.05,0.24l-0.1,0.48c-0.07,0.32-0.14,0.64-0.22,0.96c-0.3,1.28-0.63,2.55-0.96,3.84c-0.61,3.04-1.45,6.07-1.97,9.18
				c-0.27,1.18-0.51,2.37-0.75,3.57l-0.18,0.9c-0.09,0.44-0.18,0.88-0.27,1.33c-0.24,1.14-0.48,2.27-0.73,3.41
				c-0.3,0.07-0.6,0.11-0.89,0.21l-0.04,0.01c-0.3-0.11-0.59-0.28-0.87-0.47c-0.21-1.06-0.43-2.11-0.64-3.17
				c-0.15-0.72-0.3-1.44-0.45-2.15c-0.25-1.16-0.52-2.31-0.82-3.46c-0.82-3.05-1.24-6.17-1.94-9.19c-0.17-1.35-0.46-2.66-0.76-3.97
				c-0.08-0.33-0.16-0.65-0.23-0.98l-0.12-0.49l-0.06-0.24l-0.01-0.05l0-0.01l-0.01-0.02c-0.04-0.1-0.07-0.18-0.09-0.26
				c-0.03,0.04-0.06,0.08-0.1,0.11c-0.02,0.03-0.03,0.05-0.06,0.07l-0.03,0.04l-0.06,0.07c-0.03,0.04-0.06,0.08-0.1,0.11
				c-0.14,0.15-0.27,0.3-0.42,0.45c-0.16,0.15-0.3,0.3-0.47,0.44c-0.17,0.14-0.34,0.28-0.53,0.4c-0.18,0.13-0.38,0.23-0.58,0.34
				c-0.4,0.19-0.8,0.34-1.18,0.45c-0.77,0.23-1.49,0.39-2.2,0.6l-0.53,0.16l-0.26,0.08l-0.13,0.04c-0.03,0.01-0.02,0.01-0.03,0.01
				l-0.01,0.01l-0.05,0.02l-0.02,0.01c-0.01,0,0,0.02-0.01,0.03l0,0.06l0,0.03c0,0-0.01,0.03-0.01,0.05l-0.02,0.07
				c-0.69,2.9-1.37,5.77-2.19,8.56c-0.35,2.92-1.52,5.58-2.14,8.35c-0.86,2.71-1.37,5.47-2.09,8.13c-0.61,2.69-1.52,5.26-2.03,7.88
				c-0.34,1.29-0.64,2.58-0.95,3.86c-0.15,0.64-0.31,1.27-0.48,1.9c-0.08,0.31-0.17,0.63-0.26,0.94l-0.07,0.23l-0.03,0.12
				c-0.01,0.04-0.03,0.09-0.03,0.08l-0.06,0.12c0,0.05,0.01,0.09,0,0.13c0.07,0,0.12,0,0.17,0l0.07,0l0.26,0.03
				c0.46,0.05,0.92,0.11,1.38,0.17c0.46,0.06,0.91,0.12,1.37,0.18c0.38,0.05,0.75,0.09,1.13,0.14c0.04,0,0.08,0.01,0.12,0.01
				c0.03-0.02,0.04-0.07,0.05-0.1c0.01-0.04,0.02-0.07,0.03-0.11l0-0.03l0.02-0.08l0.05-0.17c0.37-1.15,0.68-2.34,1.01-3.51
				c0.32-1.17,0.64-2.33,0.96-3.47c0.9-2.22,1.28-4.53,1.88-6.73c0.66-2.18,1.1-4.37,1.99-6.37c0.36-1.03,0.76-2.03,1.2-3
				c0.11-0.24,0.22-0.49,0.34-0.73l0.11-0.22c0.05-0.09,0.09-0.18,0.14-0.27c0.09-0.17,0.19-0.35,0.29-0.51
				c0.2-0.32,0.42-0.61,0.65-0.81c0.11-0.1,0.23-0.18,0.35-0.24c0.12-0.06,0.26-0.11,0.42-0.1c0.17,0.02,0.29,0.11,0.39,0.2
				c0.1,0.1,0.17,0.21,0.24,0.33c0.13,0.26,0.22,0.59,0.27,0.97c0.02,0.19,0.03,0.38,0.04,0.57l0.01,0.29c0,0.09,0,0.2,0,0.27
				c0,0.16-0.01,0.27-0.02,0.4l-0.02,0.38c-0.07,1.01-0.14,1.98-0.01,2.96c-0.07,1.94-0.66,3.74-0.64,5.55
				c0,1.81-0.55,3.48-0.88,5.11c-0.33,1.63-0.68,3.18-1.12,4.65c-0.13,0.44-0.28,0.88-0.44,1.31c-0.1,0.25-0.2,0.49-0.34,0.71
				c-0.02,0.03-0.04,0.06-0.06,0.09c0,0-0.01,0.01-0.01,0.01h0.01l0.03,0l0.05,0c0.07,0,0.14,0,0.21,0c0.14,0,0.28,0.01,0.42,0.01
				c0.41,0,0.82,0.01,1.21,0.01c0.89,0.01,1.75,0.02,2.56,0.03c0.82,0.01,1.61,0.02,2.36,0.03c0.68,0.01,1.33,0.02,1.94,0.03
				c0.45-1.29,0.85-2.43,1.2-3.42c0.37-1.04,0.68-1.92,0.94-2.63c0.52-1.41,0.81-2.14,0.86-2.13c0.05,0.02-0.15,0.78-0.58,2.22
				c-0.21,0.72-0.48,1.61-0.81,2.67c-0.16,0.53-0.34,1.1-0.52,1.71c-0.21,0.67-0.44,1.39-0.67,2.15c-1.42,0.02-2.99,0.04-4.71,0.06
				c-0.82,0.01-1.68,0.02-2.56,0.03c-0.5,0.01-1,0.01-1.51,0.02c-0.33,0-0.66,0-0.99,0.01c-0.17,0-0.34,0-0.51,0l-0.13,0h-0.06
				h-0.03c-0.01,0-0.01-0.01-0.01-0.01c-0.02-0.03-0.05-0.06-0.08-0.08c0.14-0.2,0.28-0.42,0.41-0.63c0.13-0.21,0.26-0.42,0.36-0.61
				c0.09-0.19,0.17-0.39,0.24-0.59c0.05-0.13,0.09-0.27,0.14-0.41c0.18-0.55,0.34-1.13,0.49-1.72c0.3-1.18,0.55-2.43,0.79-3.72
				c0.29-1.62,0.37-3.34,0.79-5.07c0.24-1.76,0.3-3.61,0.56-5.49c-0.07-0.96-0.03-1.91,0-2.88c0-0.23,0.01-0.46,0.01-0.69
				c0-0.06,0-0.06,0-0.08l0-0.06l0-0.14c0-0.09,0-0.2-0.02-0.3c-0.01-0.05-0.02-0.1-0.04-0.15c-0.02-0.05-0.05-0.1-0.1-0.1
				c-0.05,0-0.1,0.03-0.13,0.07c-0.04,0.03-0.07,0.07-0.1,0.11c-0.06,0.08-0.11,0.16-0.16,0.25l-0.08,0.13l-0.04,0.07l-0.06,0.12
				c-0.11,0.22-0.22,0.46-0.32,0.69c-0.41,0.94-0.76,1.94-1.05,2.97c-0.54,2.08-1.4,4.12-1.91,6.33c-0.79,2.13-1.35,4.39-1.82,6.73
				c-0.39,1.13-0.69,2.29-0.98,3.47c-0.3,1.18-0.57,2.38-0.96,3.59l-0.08,0.17l-0.1,0.23c-0.08,0.19-0.16,0.37-0.26,0.53
				c-0.1,0.16-0.21,0.29-0.37,0.38c-0.17,0.03-0.35,0.03-0.52,0.05c-0.3-0.04-0.59-0.07-0.89-0.11c-0.23-0.02-0.45-0.05-0.68-0.07
				c-0.46-0.04-0.91-0.08-1.37-0.11c-0.46-0.03-0.92-0.06-1.39-0.08l-0.17-0.01l-0.25-0.02l-0.6-0.04
				c-0.41-0.03-0.82-0.06-1.23-0.09c0.08-0.35,0.16-0.7,0.24-1.06c0.11-0.44,0.21-0.89,0.32-1.33c0.08-0.31,0.15-0.63,0.23-0.95
				c0.16-0.63,0.33-1.26,0.49-1.9c0.34-1.27,0.68-2.55,0.98-3.85c0.71-2.58,1.27-5.23,1.99-7.89c0.56-2.7,1.21-5.42,2.05-8.14
				c0.62-2.77,1.39-5.54,2.11-8.36c0.62-2.85,1.46-5.67,2.17-8.57l0.23-0.91l0.03-0.13l0.02-0.06c0.01-0.01,0-0.03,0.01-0.03
				l0.03-0.01l0.25-0.08l0.5-0.15l0.37-0.11l0.27-0.08l0.55-0.14c0.73-0.19,1.48-0.35,2.16-0.54c0.35-0.09,0.65-0.21,0.94-0.34
				c0.14-0.07,0.28-0.15,0.41-0.24c0.13-0.08,0.25-0.19,0.38-0.3c0.12-0.1,0.24-0.24,0.36-0.36c0.12-0.13,0.22-0.27,0.34-0.4
				c0.03-0.03,0.05-0.07,0.08-0.11l0.11-0.15l0.31-0.42l0.16-0.21l0.16-0.23l0.32-0.47c0.45-0.61,0.89-1.23,1.34-1.84
				c0.26,1.2,0.52,2.44,0.78,3.66c0.15,0.71,0.29,1.42,0.44,2.14c0.27,1.31,0.55,2.63,0.85,3.95c0.61,3.04,1.22,6.11,1.95,9.19
				c0.14,1.18,0.35,2.34,0.59,3.5l0.19,0.87l0.05,0.22l0.02,0.11l0.01,0.04l0.03,0.11c0.04,0.14,0.08,0.25,0.12,0.32
				c0.04,0.09,0.08,0.1,0.1,0.07l0-0.03L50,30.02c0.01-0.06,0.01-0.1,0.02-0.15c0.1-0.45,0.2-0.89,0.3-1.34
				c0.27-1.19,0.54-2.37,0.8-3.56c0.64-3.09,1.31-6.15,1.98-9.18c0.24-1.3,0.54-2.59,0.83-3.86c0.07-0.32,0.15-0.64,0.22-0.96
				l0.11-0.48l0.15-0.67c0.25-1.17,0.51-2.34,0.76-3.5c0.5,0.67,1,1.34,1.52,2.02l0.33,0.43l0.34,0.41l0.17,0.21l0.1,0.12
				c0.06,0.07,0.12,0.13,0.18,0.19c0.12,0.13,0.23,0.26,0.35,0.37l0.18,0.17l0.18,0.15c0.12,0.11,0.24,0.19,0.37,0.28
				c0.06,0.04,0.13,0.08,0.2,0.12c0.07,0.04,0.13,0.08,0.2,0.11l0.21,0.1c0.07,0.03,0.15,0.06,0.23,0.09
				c0.15,0.06,0.32,0.12,0.49,0.17c0.68,0.22,1.42,0.42,2.15,0.63l0.55,0.16l0.78,0.23l0.25,0.07l0.12,0.04l0.06,0.02
				c0.02,0.01,0.05,0.01,0.05,0.03l0.13,0.49l0.13,0.49l0.08,0.27c0.81,2.87,1.58,5.71,2.17,8.57c0.72,2.82,1.18,5.67,2.11,8.36
				c0.75,2.74,1.75,5.37,2.05,8.14c0.77,2.65,1.17,5.35,1.99,7.89c0.19,1.33,0.52,2.61,0.87,3.88c0.18,0.63,0.36,1.26,0.54,1.88
				c0.09,0.31,0.18,0.63,0.26,0.94l0.17,0.63c0.07,0.28,0.14,0.55,0.21,0.83c0.06,0.26,0.12,0.52,0.19,0.78
				c-0.46,0.04-0.91,0.08-1.36,0.12l-0.67,0.06l-0.39,0.03c-0.51,0.04-1.02,0.08-1.53,0.12c-0.51,0.04-1.02,0.09-1.52,0.14
				c-0.7,0.08-1.4,0.15-2.1,0.23c-0.07-0.28-0.15-0.55-0.22-0.83l-0.11-0.42l-0.05-0.19l-0.04-0.12c-0.73-2.37-1.15-4.77-1.81-7.05
				c-0.77-2.25-1.04-4.59-1.85-6.71c-0.61-2.18-1.32-4.28-1.96-6.32c-0.53-0.95-0.89-1.93-1.24-2.89c-0.08-0.23-0.19-0.52-0.22-0.62
				l-0.08-0.22l-0.04-0.14c-0.03-0.09-0.07-0.19-0.12-0.29c-0.06-0.09-0.11-0.21-0.22-0.22c-0.05,0-0.09,0.04-0.11,0.08
				c-0.02,0.04-0.04,0.09-0.05,0.14c-0.02,0.1-0.03,0.21-0.03,0.31c0,0.11,0,0.19,0.01,0.29c0.01,0.22,0.01,0.45,0.02,0.67
				c0.04,0.96,0.09,1.92,0.02,2.88c0.43,1.87,0.39,3.71,0.56,5.49c0.16,1.77,0.64,3.43,0.79,5.07c0.51,1.57,0.54,3.17,1.02,4.59
				c0.09,0.44,0.2,0.87,0.35,1.27c0.11,0.28,0.21,0.56,0.4,0.86c0.18,0.3,0.4,0.62,0.61,0.93c-0.02,0.02-0.03,0.04-0.05,0.06
				l-0.01,0.03l-0.01,0.01l0,0.01c0,0-0.01,0-0.02,0l-0.29,0c-0.19,0-0.39,0-0.58,0.01c-0.39,0-0.78,0-1.16-0.01
				c-0.19,0.01-0.38,0.01-0.56,0.01c-0.17,0-0.34,0.01-0.5,0.01c-0.33,0-0.66,0-0.98,0c-0.64-0.01-1.27-0.03-1.88-0.07
				c-1.21-0.02-2.35-0.03-3.41-0.05c-0.38,0-0.76-0.01-1.12-0.01c-0.24-0.76-0.46-1.48-0.67-2.15c-0.19-0.61-0.36-1.18-0.53-1.71
				c-0.32-1.06-0.59-1.95-0.81-2.67C50.13,44.86,49.93,44.11,49.98,44.09z"/>
		</g>
		<g id="XMLID_21179_">
			<path d="M49.99,37.53c0,0.11-0.1,0.2-0.24,0.33c-0.02,0.02-0.04,0.04-0.07,0.06c-0.02,0.03-0.04,0.07-0.07,0.07
				c-0.08-0.12,0.04,0.26-0.07,0.08c-0.06-0.04-0.07,0.02-0.07,0.08c0,0.06-0.11-0.04-0.07,0.09c0.07,0.12,0.01,0.07-0.05,0.03
				c-0.06-0.04-0.11-0.07-0.01,0.07c0.02,0.08-0.01,0.09-0.05,0.11c-0.19-0.1-0.05,0.07-0.04,0.11c-0.23-0.1-0.17,0.01-0.03,0.12
				c-0.33-0.12-0.31-0.02-0.02,0.12c0,0.04-0.14,0.05,0,0.12c0.01,0.04,0.08,0.08,0.01,0.12c0.23,0.04,0.22,0.05,0.03,0.12
				c0.25,0,0.16,0.03,0.05,0.11c-0.06,0.04,0,0.04,0.05,0.04c0.05,0,0.09,0,0.01,0.06c0.01,0.04,0.09,0.04,0.08,0.09
				c-0.03,0.05-0.05,0.1-0.05,0.13c0,0.03,0.04,0.03,0.14-0.04c0.07-0.01,0.14-0.07,0.1,0.07c0.17-0.2,0.12-0.1,0.11,0.05
				c0.03-0.01,0.03,0.03,0.05,0.06c0.01,0.03,0.04,0.04,0.07-0.02c0.02,0.02,0.04,0,0.06-0.02c0.02-0.02,0.04-0.03,0.06,0.03
				c0.02,0.04,0.05,0.08,0.07,0.09c0.02,0.01,0.05-0.02,0.05-0.1c0-0.08,0.02-0.08,0.05-0.05c0.03,0.03,0.06,0.06,0.07,0.02
				c0.07,0.11,0.08,0.07,0.08,0.03c0-0.04-0.01-0.11,0.03-0.08c0.02-0.04,0.16,0.06,0.1-0.07c0-0.03,0-0.06,0-0.08
				c0.01-0.02,0.03-0.02,0.09,0c-0.14-0.13-0.11-0.12-0.05-0.1c0.06,0.02,0.16,0.05,0.13,0.01c0.08,0.02,0.09-0.01,0.08-0.03
				c-0.01-0.03-0.04-0.06-0.01-0.07c-0.03-0.03,0.02-0.04,0.06-0.05c0.04-0.01,0.06-0.03-0.01-0.06c0.02-0.02-0.01-0.04-0.02-0.06
				c-0.02-0.02-0.01-0.04,0.06-0.06c-0.1-0.02-0.06-0.04-0.01-0.06c0.05-0.02,0.09-0.05,0.03-0.06c0-0.04-0.03-0.07,0-0.12
				c0.13-0.06,0.13-0.09,0.1-0.1c-0.03-0.01-0.1,0-0.12-0.02c0.01-0.06-0.18,0.02-0.03-0.12c0-0.04,0.08-0.16-0.04-0.11
				c-0.03,0,0.04-0.09,0.07-0.15c0.03-0.06,0.02-0.09-0.12,0.04c-0.04,0.01,0-0.06,0.02-0.11c0.02-0.05,0.02-0.09-0.08,0.01
				c-0.17,0.18-0.04-0.06-0.07-0.09c-0.02-0.03-0.05-0.06-0.07-0.08C50.23,37.82,49.99,37.69,49.99,37.53
				c0-0.09,0.07-0.18,0.24-0.24c0.17-0.06,0.43-0.08,0.76,0.03c0.06,0.02,0.24-0.11,0.2,0.08c0.05,0.04,0.22-0.03,0.2,0.12
				c0.25-0.15,0.16,0.08,0.2,0.15c0.07,0.06,0.05,0.18,0.19,0.19c0.19,0,0.03,0.2,0.17,0.23c-0.11,0.16-0.04,0.22,0.14,0.27
				c-0.06,0.07-0.04,0.12,0,0.17c0.04,0.04,0.1,0.09,0.11,0.14c-0.23,0.15-0.05,0.22,0.06,0.34c0.09,0.12-0.04,0.23,0,0.36
				c-0.06,0.11,0.02,0.26-0.06,0.37c0.07,0.16,0.06,0.31-0.13,0.37c0.01,0.16-0.12,0.24-0.2,0.35c0,0.09-0.05,0.14-0.11,0.18
				c-0.05,0.04-0.12,0.08-0.16,0.14c-0.04,0.07-0.13,0.06-0.21,0.07c-0.08,0.01-0.13,0.04-0.12,0.2c-0.11,0.11-0.27,0.1-0.39,0.21
				c-0.15,0.02-0.3,0.03-0.43,0.13c-0.1-0.12-0.17-0.14-0.24-0.11c-0.07,0.03-0.14,0.1-0.21,0.15c-0.08,0.04-0.16,0.04-0.23,0.03
				c-0.08-0.01-0.15-0.05-0.22-0.08c-0.15,0-0.3-0.06-0.43-0.13c-0.09,0.01-0.14-0.05-0.2-0.11c-0.05-0.05-0.1-0.11-0.19-0.1
				c-0.09,0.01-0.14-0.06-0.17-0.13c-0.04-0.07-0.07-0.14-0.16-0.14c-0.08-0.02-0.15-0.05-0.2-0.1c-0.05-0.05-0.08-0.12-0.07-0.22
				c-0.04-0.05-0.03-0.15-0.03-0.22c0-0.07-0.04-0.13-0.17-0.13c-0.05-0.05-0.17-0.07-0.23-0.12c-0.06-0.05-0.07-0.13,0.09-0.25
				c-0.06-0.05-0.04-0.12-0.01-0.19c0.02-0.07,0.04-0.13-0.05-0.18c0.13-0.08,0.13-0.13,0.1-0.19c-0.03-0.06-0.1-0.11-0.09-0.17
				c0.06-0.12,0.16-0.21,0.06-0.34c-0.06-0.07-0.03-0.12,0.02-0.17c0.04-0.05,0.09-0.09,0.09-0.14c-0.06-0.08,0.01-0.11,0.08-0.14
				c0.06-0.03,0.13-0.05,0.07-0.13c0.07-0.07,0.07-0.19,0.17-0.23c-0.13-0.14-0.1-0.19-0.03-0.19c0.07-0.01,0.18,0.02,0.22,0
				c0.05-0.01,0.03-0.09,0.04-0.14c0-0.05,0.04-0.09,0.16-0.01c-0.13-0.27,0.1-0.14,0.2-0.11c0.1,0.02,0.06-0.18,0.2-0.08
				c-0.04-0.21,0.17,0.04,0.19-0.05c0.11,0.09,0.11-0.04,0.17-0.02c0.03-0.06,0.09-0.06,0.15,0c0.05,0,0.09,0.01,0.13,0.02
				C49.88,37.31,49.99,37.43,49.99,37.53z"/>
		</g>
		<g id="XMLID_21178_">
			<path d="M55.59,8.31c0.1,0.02,0.05,0.75-0.13,2.05c-0.03,0.22-0.07,0.45-0.1,0.7c-0.03,0.25-0.05,0.52-0.12,0.79
				c-0.2,0.25,0.13,0.62-0.15,0.88c-0.13,0.29-0.14,0.63-0.17,0.97c-0.02,0.35-0.23,0.66-0.19,1.05c0.19,0.42-0.45,0.67-0.2,1.13
				c-0.01,0.4-0.12,0.8-0.22,1.21c-0.29,0.37-0.18,0.84-0.24,1.28c-0.34,0.39-0.33,0.86-0.26,1.35c-0.44,0.39-0.49,0.87-0.27,1.42
				c-0.09,0.48-0.33,0.95-0.29,1.48c-0.09,0.51-0.13,1.03-0.3,1.54c0.11,0.57-0.01,1.1-0.32,1.6c0.12,0.59-0.09,1.12-0.33,1.65
				c-0.25,0.53-0.03,1.17-0.35,1.7c-0.07,0.29-0.12,0.58-0.17,0.87l-0.05,0.25l-0.08,0.4c-0.06,0.27-0.12,0.54-0.18,0.8
				c-0.14,0.43-0.27,0.82-0.38,1.24c-0.11,0.42-0.2,0.86-0.26,1.5c-0.02,0.06-0.04,0.13-0.05,0.2c-0.11,0.12-0.22,0.22-0.34,0.26
				c-0.12,0.04-0.25,0.04-0.38,0.05c-0.03,0.03-0.06,0.04-0.09,0.05c-0.11,0-0.24,0.03-0.35,0.01c-0.11-0.02-0.21-0.11-0.3-0.27
				c-0.09,0-0.17-0.05-0.25-0.13c-0.07-0.43-0.14-0.85-0.22-1.23c-0.08-0.39-0.17-0.74-0.29-1.07c-0.11-0.61-0.26-1.17-0.41-1.78
				l-0.07-0.28c-0.02-0.08-0.04-0.16-0.05-0.24c-0.03-0.16-0.05-0.33-0.06-0.5c-0.06-0.67-0.12-1.33-0.41-1.94
				c-0.3-0.6-0.2-1.29-0.4-1.9c0.11-0.68-0.34-1.24-0.39-1.87c-0.15-0.61-0.12-1.26-0.38-1.83c-0.17-0.6-0.35-1.18-0.37-1.8
				c-0.5-0.51-0.15-1.19-0.35-1.75c0.03-0.61-0.27-1.14-0.34-1.71c-0.19-0.54-0.06-1.15-0.33-1.65c-0.08-0.55-0.35-1.05-0.32-1.6
				c-0.29-0.48-0.07-1.07-0.3-1.54c-0.11-0.5-0.22-0.99-0.29-1.49c0.05-0.14,0.06-0.26,0.05-0.39c0-0.06-0.01-0.12-0.03-0.18
				c-0.02-0.09-0.04-0.18-0.07-0.27c-0.1-0.36-0.26-0.76-0.35-1.15c-0.03-0.17-0.07-0.35-0.12-0.54c0.27-0.02,0.55-0.05,0.84-0.05
				c0.29-0.01,0.61,0.01,0.9,0.09l0.27,0.01c0.07,0.01,0.12,0.01,0.17,0.02c0.11,0.01,0.22,0.03,0.33,0.04
				c0.22,0.02,0.43,0.02,0.64-0.04c0.42-0.04,0.83,0.43,1.23,0.04c0.4-0.07,0.78,0.3,1.15,0.04c0.37-0.24,0.73,0.03,1.07,0.04
				c0.34,0.01,0.67,0.03,0.98,0.04c2.82,0.13,4.43,0.28,4.43,0.44c0,0.18-2,0.34-5.42,0.48c-0.34,0.01-0.7,0.22-1.07,0.04
				c-0.37,0-0.75,0.16-1.15,0.04c-0.4,0.27-0.81,0.05-1.23,0.04c-0.21,0.01-0.43-0.01-0.64-0.02c-0.11,0-0.22,0-0.33,0
				c-0.05,0-0.12,0.01-0.16,0.02c-0.02,0.01-0.04,0.02-0.06,0.03C45.49,9.01,45.46,9.02,45.39,9c-0.06-0.01-0.15-0.04-0.22-0.05
				c0,0.04,0.02,0.08,0.06,0.13c-0.08,0.02-0.09,0.13-0.06,0.23c0.01,0.03,0.02,0.05,0.03,0.07c0.02,0.06,0.04,0.12,0.07,0.17
				c0.05,0.11,0.11,0.23,0.17,0.34c-0.06,0.52,0.24,0.97,0.34,1.47c-0.14,0.56,0.14,1.03,0.35,1.53c0.2,0.5,0.19,1.06,0.36,1.59
				c0.07,0.55,0.29,1.08,0.37,1.65c0.23,0.53,0.4,1.09,0.38,1.7c0.2,0.56,0.26,1.15,0.39,1.74c0.22,0.57,0.24,1.19,0.39,1.79
				c0.18,0.59-0.01,1.27,0.4,1.83c0.16,0.61,0.22,1.25,0.4,1.87c0.1,0.64,0.2,1.28,0.41,1.9c-0.13,0.7,0.17,1.31,0.41,1.94
				c0.05,0.16,0.1,0.32,0.14,0.48l0.06,0.24l0.03,0.12l0.01,0.06l0,0.02v0v0c0,0.02-0.01,0.06-0.02,0.13
				c0.02,0.03,0.03,0.06,0.04,0.12l0.01,0.12c0.02-0.08,0.01-0.01,0.02,0.12c0,0.12,0.01,0.3,0.02,0.25c0-0.04,0-0.09,0.01-0.17
				c0-0.3,0.01-0.17,0.03-0.1c0.02,0.08,0.04,0.1,0.03-0.11l-0.01-0.1C50,30,50,29.95,50,29.93c0.01-0.01,0.03,0.01,0.08,0.03
				c0-0.02,0.02-0.03,0.05-0.05c0.01-0.01,0.03-0.02,0.04-0.03c0,0.01,0.02-0.05,0.03-0.08l0.04-0.11c0.1-0.28,0.16-0.57,0.11-0.88
				c0.07-0.59-0.11-1.22,0.38-1.7c0.03-0.58,0.42-1.07,0.38-1.65c0.39-0.48,0.25-1.07,0.37-1.59c0.16-0.51,0.37-1,0.36-1.53
				c-0.02-0.53,0.29-0.98,0.35-1.47c-0.05-0.52,0.41-0.91,0.33-1.41c0.13-0.45,0.17-0.91,0.32-1.34c-0.28-0.52,0.19-0.86,0.31-1.27
				c0.14-0.4-0.07-0.87,0.29-1.2c-0.2-0.45,0.13-0.77,0.28-1.12c0.16-0.34,0.03-0.74,0.26-1.04c-0.12-0.38,0.25-0.63,0.25-0.95
				c0.2-0.28,0.14-0.6,0.23-0.87c0.01-0.29,0.09-0.54,0.21-0.77c0.07-0.24,0.13-0.47,0.19-0.68C55.23,8.97,55.48,8.29,55.59,8.31z"
				/>
		</g>
		<g id="XMLID_21177_">
			<path d="M56.57,18.33c0,0.06-0.04,0.1-0.06,0.17c-0.02,0.06-0.03,0.14,0.01,0.17c0,0,0.01,0,0.01,0l0-0.01c0,0,0,0.01,0,0.02
				l0.01,0.04l0,0.02l0,0v0l0,0l0-0.03v0l0,0l0,0v0l0,0.01l0,0.01c0.03,0.05,0.06,0.11,0.04,0.17c-0.14,0.06,0.26,0.12,0.04,0.19
				c-0.06,0.06,0,0.13,0.04,0.21c0.05,0.07-0.09,0.15,0.04,0.22c0.14,0.04,0.06,0.08-0.01,0.12c-0.07,0.02-0.13,0.06,0.04,0.05
				c0.07,0.03,0.05,0.06,0.04,0.1c-0.1,0.06-0.1,0.09-0.07,0.1c0.03,0.01,0.09-0.01,0.11,0c-0.25,0.21-0.1,0.21,0.08,0.07
				c-0.14,0.17-0.16,0.26-0.13,0.26c0.04,0,0.13-0.1,0.25-0.26c0.02-0.01,0.02,0.02,0.03,0.04c0.01,0.01,0.04,0.01,0.07-0.07
				c0.02-0.01,0.04-0.03,0.05-0.04c0.02-0.01,0.01-0.01,0.08,0.02c0.11-0.23,0.23-0.22,0.34-0.02c0.11-0.25,0.23-0.15,0.35-0.02
				c0.12,0.14,0.24-0.22,0.37-0.02c0.12,0.01,0.25-0.06,0.37-0.02c0.13,0.1,0.25,0.21,0.38-0.01c0.13-0.06,0.26-0.14,0.39-0.01
				c0.13-0.26,0.27-0.15,0.4-0.01c0.03-0.01,0.07-0.01,0.1,0c0.02,0,0.03,0.01,0.05,0.02l0.03,0.01c0,0,0,0.01,0.01,0.01
				c0.01,0.02,0.03,0.03,0.03-0.04c0.02,0.02,0.02-0.01,0.02-0.03c0-0.02,0-0.03,0.04,0.03c0.04,0.04,0.08,0.08,0.1,0.08
				c0.02,0,0.02-0.04-0.05-0.1c-0.08-0.07-0.06-0.06-0.03-0.05c0.03,0.01,0.07,0.02,0.04-0.01c0.12,0.03,0.1,0,0.06-0.02
				c-0.02-0.01-0.04-0.02-0.06-0.02c-0.01-0.01-0.02,0,0-0.04c-0.01-0.07,0.02-0.13,0.05-0.2c0.01-0.02,0.01-0.03,0.01-0.05
				c0-0.01,0-0.01,0-0.02c0-0.01-0.02-0.01-0.05-0.01c-0.05-0.02-0.09,0,0.01-0.07c-0.19,0.09-0.17,0.09-0.1,0.04
				c0.06-0.05,0.15-0.14,0.1-0.12c0.06-0.08,0.04-0.09,0.01-0.07c-0.03,0.02-0.07,0.05-0.07,0.03c-0.03,0.04-0.02-0.01-0.02-0.04
				c0-0.03-0.02-0.06-0.05,0.02c-0.01-0.02-0.03,0.01-0.04,0.03c0,0-0.01,0.01-0.01,0.01c-0.01,0-0.03,0-0.04,0
				c-0.03-0.01-0.06-0.03-0.08-0.06c-0.11,0.19-0.22-0.16-0.33-0.03c-0.11,0-0.21,0.01-0.32-0.03c-0.1-0.3-0.21-0.05-0.3-0.03
				c-0.1-0.03-0.19,0.17-0.29-0.03c-0.09-0.02-0.18-0.15-0.27-0.03c-0.09,0.04-0.18-0.43-0.26-0.04c-0.08,0.07-0.16-0.3-0.24-0.04
				c-0.08,0.24-0.15-0.03-0.22-0.04c-0.07-0.01-0.14-0.03-0.21-0.04C56.91,18.64,56.57,18.49,56.57,18.33
				c0-0.18,0.42-0.34,1.14-0.48c0.07-0.01,0.15-0.22,0.22-0.04c0.08,0,0.16-0.16,0.24-0.04c0.08-0.27,0.17-0.05,0.26-0.04
				c0.09-0.01,0.18,0.07,0.27-0.03c0.09-0.16,0.19,0.08,0.29-0.03c0.1,0.17,0.2,0.12,0.3-0.03c0.1,0.17,0.21-0.04,0.32-0.03
				c0.11,0.25,0.22,0.08,0.33-0.03c0.03-0.02,0.06-0.03,0.08-0.03c0.02,0,0.03,0,0.04,0l0.07,0.01c0.1,0.02,0.19,0.05,0.29,0.03
				c0.18,0.06,0.42-0.02,0.61,0.03c0.03-0.01,0.07-0.02,0.1-0.03c0.02,0,0.03-0.01,0.05-0.01c0.01,0,0.03,0,0.04,0
				c0.05,0,0.1,0.02,0.15,0.04c0.09,0.05,0.16,0.14,0.18,0.26c0.1,0.05,0.16,0.13,0.21,0.22c0.01,0.02,0.02,0.04,0.03,0.07
				c0.01,0.02,0.02,0.05,0.01,0.08c0,0.06,0,0.11,0.01,0.17c0.06,0.09,0.06,0.21,0.06,0.32c0,0.12-0.01,0.23,0.01,0.34
				c0.02,0.06,0.01,0.11,0,0.17c-0.01,0.03-0.01,0.06-0.03,0.08c-0.01,0.02-0.02,0.03-0.03,0.05c-0.04,0.06-0.05,0.13,0.09,0.2
				c0.01,0.02,0,0.1,0,0.15c-0.01,0.06-0.02,0.12-0.03,0.18c-0.02,0.12-0.04,0.23-0.02,0.36c-0.03,0.11-0.05,0.22-0.07,0.34
				c0,0.13-0.04,0.21-0.07,0.34c-0.17,0-0.26,0.07-0.33,0.15c-0.07,0.08-0.12,0.19-0.19,0.28c-0.2,0.1-0.49,0.09-0.73,0.07
				c-0.12,0.03-0.24,0.04-0.36,0.05l-0.04,0l-0.03,0l-0.05,0l-0.1-0.01c-0.14,0.08-0.27-0.12-0.4-0.01
				c-0.13,0.12-0.26-0.13-0.39-0.01c-0.13,0.08-0.26,0.12-0.38-0.01c-0.13,0-0.25-0.25-0.37-0.02c-0.12,0.05-0.25,0.37-0.37-0.02
				c-0.12,0.1-0.24-0.19-0.35-0.02c-0.12-0.28-0.23-0.01-0.34-0.02c-0.04-0.02-0.15-0.07-0.23-0.09c-0.09-0.02-0.17-0.02-0.27,0.03
				c-0.11,0.06-0.2,0.03-0.27-0.01c-0.08-0.04-0.14-0.08-0.24-0.07c-0.13,0.07-0.17-0.01-0.21-0.08C56.02,21.08,56,21,55.88,21.02
				c-0.08-0.13-0.22-0.22-0.21-0.37c-0.18,0.04-0.18-0.05-0.15-0.15c0.04-0.1,0.13-0.21,0.14-0.29c0.02-0.08-0.04-0.12-0.08-0.19
				c-0.04-0.06-0.05-0.13,0.09-0.21c-0.15-0.05-0.16-0.12-0.13-0.18c0.04-0.04,0.12-0.08,0.16-0.12c0.08-0.08-0.12-0.15,0.04-0.22
				c-0.2-0.07,0.11-0.14,0.04-0.21c0.13-0.07,0.01-0.13,0.04-0.19c-0.05-0.06-0.03-0.11,0.04-0.17l0-0.01l0-0.01l0,0l0,0l0,0l0-0.04
				l0.01-0.02l0.02-0.04c0-0.01,0-0.01,0.01-0.02l0.01-0.04c0.01-0.03,0.02-0.05,0.03-0.08c0.14-0.24,0.35-0.28,0.46-0.27
				C56.53,18.22,56.57,18.28,56.57,18.33z"/>
		</g>
	</g>
</g>
</svg>
