<?xml version="1.0" encoding="utf-8"?>
<!-- Generator: Adobe Illustrator 26.3.1, SVG Export Plug-In . SVG Version: 6.00 Build 0)  -->
<svg version="1.1" id="Capa_1" xmlns="http://www.w3.org/2000/svg" xmlns:xlink="http://www.w3.org/1999/xlink" x="0px" y="0px"
	 viewBox="0 0 100 100" style="enable-background:new 0 0 100 100;" xml:space="preserve">
<g>
	<g id="XMLID_22463_">
		<g id="XMLID_22482_">
			<path d="M50.7,11.28c0,0.06-0.77,0.12-2.24,0.22c-1.46,0.15-3.63,0.37-6.36,1.02c-0.45,0.11-0.92,0.23-1.41,0.35
				c-0.48,0.14-0.98,0.29-1.49,0.45c-0.13,0.04-0.26,0.08-0.39,0.12c-0.13,0.05-0.26,0.09-0.39,0.14c-0.26,0.09-0.52,0.19-0.79,0.29
				c-0.27,0.1-0.54,0.18-0.81,0.3c-0.27,0.11-0.55,0.21-0.83,0.32c-0.29,0.08-0.58,0.19-0.86,0.32c-0.28,0.14-0.55,0.3-0.83,0.45
				c-0.28,0.16-0.56,0.31-0.85,0.45c-0.29,0.15-0.58,0.29-0.91,0.39c-0.3,0.14-0.61,0.28-0.91,0.44c-0.3,0.17-0.59,0.34-0.89,0.52
				c-0.15,0.09-0.3,0.18-0.45,0.27l-0.23,0.14l-0.22,0.15c-0.29,0.2-0.59,0.41-0.89,0.61c-0.15,0.1-0.3,0.2-0.45,0.3
				c-0.15,0.11-0.3,0.21-0.45,0.32c-0.31,0.21-0.61,0.42-0.93,0.64c-0.16,0.11-0.31,0.22-0.46,0.34c-0.15,0.12-0.3,0.24-0.45,0.36
				c-0.3,0.25-0.6,0.49-0.88,0.77c-0.25,0.31-0.54,0.58-0.85,0.83c-0.15,0.13-0.32,0.25-0.48,0.37c-0.16,0.13-0.31,0.26-0.47,0.38
				c-0.32,0.26-0.64,0.52-0.94,0.8c-0.29,0.3-0.56,0.62-0.79,0.99c-0.14,0.16-0.28,0.32-0.42,0.48c-0.13,0.16-0.27,0.33-0.41,0.49
				c-0.27,0.33-0.55,0.66-0.84,0.99c-0.27,0.34-0.54,0.68-0.82,1.03c-0.14,0.17-0.28,0.34-0.41,0.52c-0.13,0.18-0.26,0.36-0.39,0.54
				c-1.23,1.33-2.02,3.03-2.88,4.71c-0.27,0.39-0.53,0.8-0.76,1.22c-0.22,0.43-0.42,0.87-0.61,1.32c-0.2,0.44-0.35,0.92-0.5,1.38
				c-0.15,0.47-0.3,0.94-0.41,1.43c-1,1.76-1.47,3.81-1.53,5.91c-0.05,0.26-0.09,0.51-0.14,0.77l-0.07,0.39l-0.06,0.39
				c-0.08,0.52-0.15,1.05-0.23,1.57c-0.05,0.53-0.09,1.07-0.12,1.6l-0.02,0.4l0,0.41c0,0.27,0.01,0.54,0.02,0.81
				c-0.03,2.17,0.16,4.38,0.44,6.62c0.19,0.76,0.38,1.51,0.56,2.28l0.14,0.57l0.09,0.39c0.01,0.03,0.01,0.08,0.02,0.13
				c0.02-0.01,0.06-0.01,0.12-0.02l0,0c0,0-0.01,0.01,0.03-0.01l0.14-0.06c0.1-0.04,0.19-0.08,0.29-0.12
				c0.2-0.06,0.39-0.13,0.59-0.19c0.61-0.27,1.26-0.44,1.93-0.52l0.5-0.04c0.17-0.01,0.33,0,0.5,0c0.33,0,0.66,0.04,1,0.08
				c0.67,0.1,1.35,0.31,1.97,0.63c0.63,0.32,1.2,0.75,1.67,1.24c0.57,0.58,1.05,1.21,1.49,1.85c0.06,0.08,0.11,0.16,0.16,0.24
				l0.08,0.12l0.02,0.03c0.01,0.01,0,0.01,0.01,0.01l0.01,0.01l0.07,0.09l0.1,0.11c0.04-0.11,0.06-0.17,0.1-0.23l0.02-0.02l0,0
				l0.03-0.04l0.06-0.09c0.07-0.11,0.15-0.23,0.23-0.34c0.08-0.11,0.16-0.22,0.24-0.33l0.27-0.32c0.42-0.54,0.89-1.06,1.46-1.51
				c0.56-0.45,1.22-0.81,1.9-1.05c0.69-0.24,1.4-0.36,2.11-0.4l0.53-0.02c0.18,0,0.36,0.01,0.54,0.02c0.36,0.01,0.72,0.09,1.07,0.14
				c0.17,0.05,0.35,0.1,0.52,0.15c0.09,0.03,0.17,0.05,0.26,0.08l0.25,0.1c0.17,0.07,0.34,0.13,0.5,0.21l0.48,0.25l0.12,0.06
				l0.11,0.07l0.23,0.15c0.15,0.1,0.31,0.19,0.45,0.31l0.43,0.33l0.4,0.37c0.51,0.51,0.99,1.06,1.36,1.69
				c0.05,0.08,0.1,0.15,0.15,0.23l0.13,0.24c0.08,0.16,0.18,0.32,0.25,0.49l0.22,0.51c0.08,0.17,0.12,0.35,0.19,0.52
				c0.11,0.35,0.15,0.73,0.22,1.09l0.04,0.56c0,0.09,0.02,0.19,0.02,0.28L38,67.97l-0.02,0.54l-0.01,0.27
				c-0.01,0.09-0.02,0.18-0.03,0.27l-0.07,0.54c-0.02,0.18-0.04,0.36-0.09,0.53c-0.27,1.41-0.79,2.76-1.48,3.99
				c-0.51,1.32-1.23,2.55-2.05,3.7c-0.82,1.15-1.75,2.2-2.7,3.23c-0.22,0.27-0.45,0.54-0.68,0.8c-0.24,0.26-0.47,0.52-0.71,0.78
				c-0.23,0.26-0.48,0.51-0.72,0.77l-0.36,0.38l-0.09,0.1l-0.03,0.03l-0.07,0.06c-0.09,0.08-0.18,0.17-0.27,0.26
				c0.1,0.07,0.21,0.15,0.32,0.22l0.08,0.05l0.12,0.07l0.44,0.27c0.3,0.17,0.59,0.35,0.9,0.51c0.59,0.35,1.18,0.71,1.8,1.01
				c0.61,0.33,1.24,0.61,1.87,0.9c1.27,0.55,2.56,1.08,3.86,1.58l0.49,0.19l0.5,0.17c0.33,0.11,0.66,0.22,0.99,0.33
				c0.67,0.19,1.34,0.4,2.02,0.54c1.35,0.33,2.73,0.52,4.1,0.61c0.69,0.02,1.37,0.09,2.06,0.12c0.34,0.02,0.68,0.04,1.02,0.06
				c0.34,0.01,0.68,0.03,1.02,0.04c0.17,0.01,0.34,0.02,0.51,0.02l0.51,0c0.34,0,0.68,0,1.02-0.01c0.17,0,0.34,0,0.51-0.01
				l0.51-0.04c0.34-0.03,0.68-0.06,1.01-0.09c0.17,0,0.34,0.01,0.51,0l0.51-0.04c0.34-0.03,0.67-0.06,1.01-0.1
				c0.34-0.03,0.67-0.1,1-0.16c0.33-0.07,0.66-0.13,0.99-0.2c0.33-0.06,0.65-0.16,0.98-0.24c0.32-0.08,0.65-0.17,0.97-0.25
				c0.32-0.07,0.64-0.18,0.96-0.27c0.32-0.09,0.64-0.18,0.96-0.26c2.53-0.79,5.04-1.67,7.27-3.03c2.27-1.28,4.36-2.77,6.38-4.31
				c0.42-0.49,0.87-0.93,1.33-1.36c0.45-0.44,0.92-0.85,1.39-1.27c0.45-0.43,0.92-0.85,1.36-1.29c0.43-0.45,0.85-0.91,1.23-1.4
				c1.7-1.82,2.93-3.97,4.12-6.05c0.28-0.53,0.54-1.07,0.82-1.6c0.15-0.26,0.27-0.53,0.4-0.8c0.13-0.27,0.26-0.53,0.39-0.8l0.19-0.4
				l0.17-0.41c0.11-0.27,0.22-0.55,0.33-0.82c0.23-0.54,0.39-1.11,0.54-1.67c0.77-2.21,1.14-4.48,1.62-6.68
				c0.02-0.57,0.08-1.12,0.16-1.68c0.06-0.55,0.11-1.11,0.18-1.66l0.05-0.41l0.03-0.41c0.02-0.28,0.03-0.55,0.05-0.82
				c0.01-0.27,0.02-0.55,0.02-0.82c-0.01-0.27-0.03-0.54-0.05-0.82c-0.01-0.27-0.01-0.54-0.02-0.81l-0.01-0.4l-0.03-0.4
				c-0.04-0.54-0.08-1.07-0.12-1.6c-0.06-0.53-0.13-1.05-0.19-1.58l-0.05-0.39l-0.06-0.39c-0.04-0.26-0.08-0.52-0.13-0.77
				c-0.09-2.11-0.84-4.05-1.53-5.91c-0.14-0.48-0.34-0.93-0.53-1.39c-0.19-0.45-0.37-0.91-0.59-1.34c-0.21-0.44-0.41-0.87-0.6-1.32
				c-0.21-0.43-0.4-0.86-0.57-1.31c-0.87-1.68-1.72-3.34-2.88-4.72c-0.13-0.18-0.26-0.36-0.38-0.55c-0.13-0.18-0.26-0.36-0.38-0.55
				c-0.24-0.37-0.49-0.74-0.73-1.1c-0.26-0.35-0.53-0.69-0.82-1.01c-0.15-0.16-0.29-0.31-0.46-0.45c-0.16-0.14-0.34-0.27-0.52-0.39
				c-0.3-0.29-0.58-0.6-0.85-0.92c-0.28-0.3-0.56-0.61-0.84-0.91c-0.14-0.15-0.28-0.3-0.42-0.44c-0.15-0.14-0.3-0.27-0.45-0.4
				c-0.3-0.26-0.62-0.5-0.96-0.71c-0.34-0.21-0.67-0.42-0.97-0.65c-0.15-0.12-0.3-0.23-0.45-0.36c-0.15-0.12-0.29-0.25-0.44-0.36
				c-0.29-0.24-0.58-0.47-0.87-0.71c-0.14-0.12-0.29-0.23-0.43-0.34c-0.15-0.11-0.3-0.21-0.45-0.31c-0.3-0.2-0.61-0.4-0.9-0.59
				l-0.22-0.15l-0.23-0.13c-0.15-0.09-0.3-0.18-0.45-0.27c-0.3-0.18-0.6-0.35-0.89-0.53c-0.3-0.17-0.6-0.32-0.89-0.47
				c-2.65-1.4-5.17-2.35-7.41-3.01c-0.28-0.08-0.55-0.17-0.82-0.25c-0.27-0.07-0.54-0.13-0.8-0.2c-0.53-0.12-1.02-0.27-1.51-0.35
				c-0.49-0.1-0.95-0.19-1.39-0.28c-0.44-0.08-0.87-0.13-1.27-0.2c-0.2-0.03-0.39-0.06-0.58-0.09c-0.09-0.01-0.19-0.03-0.28-0.04
				c-0.09-0.01-0.18-0.02-0.27-0.03c-0.35-0.04-0.69-0.07-0.99-0.1c-0.31-0.03-0.59-0.07-0.85-0.09c-0.26-0.02-0.49-0.03-0.7-0.05
				C51.13,11.37,50.7,11.32,50.7,11.28c0-0.04,0.54-0.07,1.57-0.09c1.04-0.01,2.58,0.06,4.57,0.3c1.98,0.28,4.42,0.75,7.17,1.67
				c0.7,0.21,1.39,0.5,2.12,0.77c0.37,0.13,0.73,0.3,1.1,0.46c0.37,0.16,0.74,0.33,1.12,0.5c0.37,0.19,0.75,0.37,1.13,0.56
				c0.19,0.1,0.38,0.19,0.58,0.29c0.19,0.11,0.38,0.21,0.57,0.32c0.38,0.22,0.77,0.44,1.17,0.66c0.38,0.24,0.77,0.49,1.17,0.73
				c0.16,0.1,0.32,0.2,0.48,0.29c0.16,0.1,0.32,0.21,0.48,0.31c0.32,0.21,0.64,0.41,0.97,0.62c0.17,0.1,0.32,0.22,0.48,0.34
				c0.16,0.12,0.31,0.24,0.47,0.37c0.31,0.25,0.61,0.51,0.89,0.8c0.3,0.26,0.62,0.52,0.94,0.78c0.16,0.13,0.32,0.26,0.48,0.39
				c0.15,0.14,0.31,0.28,0.47,0.42c0.31,0.28,0.62,0.57,0.93,0.86c0.3,0.31,0.58,0.63,0.86,0.96c0.17,0.13,0.34,0.27,0.51,0.42
				c0.16,0.15,0.31,0.31,0.46,0.47c0.3,0.32,0.59,0.66,0.88,1.01c0.27,0.36,0.53,0.73,0.8,1.1c0.13,0.18,0.27,0.37,0.4,0.55
				c0.13,0.19,0.26,0.38,0.39,0.57c1.11,1.48,2.01,3.16,3.02,4.82c0.26,0.42,0.5,0.85,0.72,1.29c0.21,0.45,0.4,0.91,0.59,1.37
				c0.21,0.46,0.36,0.94,0.55,1.41c0.19,0.47,0.37,0.95,0.56,1.43c0.54,1.99,1.1,4.01,1.64,6.1c0.03,0.27,0.06,0.54,0.1,0.81
				l0.06,0.4l0.04,0.41c0.06,0.54,0.14,1.08,0.23,1.63c0.06,0.55,0.12,1.1,0.17,1.65l0.04,0.42l0.02,0.42
				c0.01,0.28,0.02,0.56,0.03,0.84c-0.02,0.28-0.04,0.56-0.05,0.85c-0.03,0.28-0.05,0.56-0.06,0.85c-0.02,0.28-0.03,0.57-0.03,0.85
				l-0.01,0.43l-0.02,0.43c-0.03,0.57-0.05,1.15-0.07,1.73c-0.05,0.58-0.09,1.16-0.14,1.74c-0.26,2.33-0.93,4.64-1.64,6.95
				c-0.81,2.28-1.69,4.6-2.93,6.78c-1.1,2.25-2.5,4.42-4.25,6.32c-1.58,2.05-3.48,3.87-5.51,5.56c-1.98,1.77-4.27,3.2-6.64,4.52
				c-0.6,0.32-1.21,0.63-1.82,0.91c-0.63,0.26-1.26,0.53-1.9,0.78c-0.65,0.23-1.28,0.48-1.93,0.73c-0.32,0.12-0.65,0.24-0.97,0.36
				l-0.48,0.2c-0.16,0.07-0.32,0.14-0.48,0.2c-2.64,0.84-5.42,1.31-8.22,1.61c-0.35,0.02-0.71,0.04-1.06,0.07l-0.53,0.03
				c-0.18,0.01-0.35,0.01-0.53,0.01c-0.35,0.01-0.71,0.01-1.06,0.02l-0.53,0.01c-0.18,0-0.35-0.01-0.53-0.01
				c-0.35-0.01-0.71-0.01-1.07-0.02c-0.36-0.01-0.71-0.04-1.07-0.05c-0.71-0.02-1.43-0.1-2.14-0.15c-1.41-0.32-2.82-0.56-4.23-0.87
				c-0.71-0.13-1.41-0.32-2.12-0.47c-0.35-0.09-0.7-0.18-1.06-0.28l-0.53-0.14l-0.52-0.16c-1.4-0.42-2.75-0.98-4.07-1.58
				c-0.65-0.32-1.3-0.63-1.93-0.99c-0.64-0.33-1.25-0.72-1.87-1.08c-0.31-0.18-0.61-0.38-0.92-0.56l-0.46-0.29l-0.06-0.04
				l-0.09-0.06l-0.19-0.13l-0.37-0.25c-0.49-0.34-0.98-0.67-1.47-1.01c0.39-0.43,0.82-0.87,1.23-1.31l0.55-0.59l0.35-0.38
				c0.23-0.25,0.47-0.5,0.7-0.76l0.69-0.76c0.23-0.26,0.45-0.52,0.67-0.77c0.84-1.07,1.72-2.1,2.5-3.18
				c0.79-1.08,1.51-2.2,2.04-3.39c0.53-1.19,1-2.37,1.28-3.59c0.05-0.15,0.07-0.31,0.09-0.46l0.08-0.46
				c0.01-0.08,0.03-0.15,0.04-0.23l0.01-0.23l0.03-0.46l0.01-0.23c0-0.08-0.01-0.15-0.01-0.22l-0.03-0.44
				c-0.06-0.29-0.08-0.58-0.19-0.86c-0.04-0.14-0.07-0.28-0.13-0.42l-0.16-0.4c-0.05-0.14-0.13-0.26-0.19-0.39l-0.1-0.19
				c-0.04-0.06-0.08-0.12-0.11-0.18c-0.29-0.5-0.67-0.93-1.08-1.33l-0.32-0.29l-0.34-0.26c-0.11-0.09-0.23-0.16-0.35-0.24
				l-0.18-0.11l-0.09-0.06l-0.09-0.05l-0.38-0.2c-0.13-0.06-0.26-0.11-0.39-0.17l-0.2-0.08c-0.07-0.02-0.14-0.04-0.2-0.06
				l-0.41-0.13c-1.1-0.2-2.35-0.21-3.41,0.11c-0.54,0.16-1.03,0.42-1.47,0.78c-0.43,0.35-0.81,0.8-1.11,1.29l-0.2,0.29l-0.19,0.3
				c-0.06,0.1-0.13,0.2-0.18,0.31l-0.28,0.52c-0.12,0.21-0.23,0.44-0.34,0.67l-0.34,0.69c-0.23,0.47-0.46,0.94-0.69,1.41
				c-0.35-0.65-0.7-1.3-1.05-1.95l-0.27-0.5l-0.28-0.48l-0.19-0.31c-0.04-0.08-0.09-0.15-0.13-0.22c-0.36-0.58-0.72-1.13-1.11-1.65
				c-0.82-0.71-1.74-1.17-2.81-1.37c-0.27-0.04-0.54-0.09-0.82-0.09c-0.14,0-0.28-0.02-0.41-0.02l-0.4,0.01
				c-0.54,0.04-1.06,0.16-1.55,0.37c-0.16,0.04-0.32,0.08-0.48,0.13c-0.08,0.03-0.16,0.06-0.23,0.09l-0.12,0.05
				c-0.01,0-0.06,0.03-0.09,0.04l-0.11,0.06c-0.28,0.16-0.55,0.34-0.82,0.51c-0.26,0.17-0.51,0.35-0.77,0.53
				c-0.03-0.04-0.05-0.14-0.07-0.22l-0.06-0.24l-0.12-0.49c-0.09-0.32-0.17-0.65-0.26-0.97c-0.11-0.44-0.22-0.88-0.34-1.33
				c-0.19-0.79-0.37-1.59-0.48-2.39c-0.29-2.33-0.33-4.62-0.4-6.87c-0.01-0.28-0.02-0.56-0.02-0.84l0-0.42l0.03-0.42
				c0.04-0.56,0.09-1.11,0.15-1.66c0.08-0.55,0.17-1.09,0.25-1.63l0.06-0.4l0.07-0.4c0.05-0.27,0.09-0.53,0.14-0.8
				c0.03-0.27,0.06-0.54,0.1-0.8c0.05-0.26,0.11-0.52,0.18-0.78c0.06-0.26,0.13-0.52,0.2-0.77c0.07-0.26,0.14-0.51,0.23-0.76
				c0.17-0.5,0.33-1,0.48-1.5c0.16-0.5,0.33-0.99,0.45-1.49c0.16-0.49,0.36-0.96,0.55-1.43c0.19-0.47,0.36-0.95,0.57-1.4
				c0.21-0.46,0.41-0.91,0.62-1.36c0.23-0.44,0.46-0.88,0.69-1.3c0.13-0.48,0.34-0.92,0.56-1.35c0.11-0.21,0.23-0.42,0.36-0.63
				c0.06-0.1,0.12-0.21,0.19-0.31l0.21-0.29c0.28-0.39,0.57-0.76,0.85-1.14c0.29-0.37,0.59-0.73,0.86-1.1
				c0.14-0.18,0.27-0.37,0.4-0.56c0.14-0.18,0.27-0.37,0.41-0.55c0.27-0.37,0.53-0.74,0.79-1.1c0.28-0.35,0.56-0.69,0.86-1.02
				c0.15-0.16,0.3-0.32,0.46-0.47c0.17-0.14,0.33-0.28,0.51-0.42c0.25-0.36,0.51-0.7,0.8-1.02c0.3-0.31,0.61-0.59,0.92-0.87
				c0.16-0.14,0.32-0.27,0.48-0.41c0.16-0.13,0.33-0.25,0.5-0.38c0.33-0.25,0.66-0.49,0.98-0.74c0.32-0.24,0.64-0.48,0.95-0.73
				c0.15-0.13,0.31-0.25,0.46-0.37c0.15-0.13,0.3-0.25,0.46-0.36c0.31-0.23,0.62-0.46,0.93-0.68c0.16-0.11,0.31-0.21,0.47-0.31
				c0.16-0.09,0.33-0.18,0.5-0.27c0.29-0.24,0.59-0.46,0.89-0.65l0.23-0.15l0.24-0.13c0.16-0.08,0.32-0.16,0.48-0.25
				c0.32-0.16,0.64-0.31,0.95-0.47c0.31-0.15,0.62-0.3,0.92-0.47c0.32-0.13,0.62-0.26,0.92-0.41c0.3-0.13,0.6-0.27,0.89-0.41
				c0.29-0.14,0.58-0.28,0.87-0.41c0.29-0.13,0.58-0.24,0.87-0.34c0.28-0.12,0.56-0.24,0.84-0.36c0.28-0.12,0.56-0.2,0.83-0.29
				c0.28-0.09,0.55-0.17,0.82-0.25c0.14-0.04,0.27-0.08,0.4-0.12c0.13-0.03,0.27-0.06,0.4-0.09c0.53-0.14,1.04-0.28,1.53-0.41
				c0.5-0.11,0.98-0.21,1.44-0.31c2.79-0.56,4.99-0.69,6.47-0.74C49.93,11.19,50.7,11.23,50.7,11.28z"/>
		</g>
		<g id="XMLID_22470_">
			<path d="M50.7,37.97c0,0.13-0.95,0.15-2.59,0.56c-0.14,0.03-0.28,0.08-0.42,0.12c-0.14,0.04-0.29,0.08-0.45,0.13
				c-0.15,0.06-0.31,0.12-0.47,0.17c-0.16,0.06-0.32,0.12-0.5,0.18c-0.2-0.01-0.34,0.13-0.5,0.25c-0.16,0.12-0.31,0.24-0.54,0.23
				c-0.2,0.05-0.38,0.14-0.56,0.25c-0.18,0.1-0.35,0.23-0.53,0.36c-0.18,0.12-0.38,0.23-0.57,0.34c-0.2,0.11-0.39,0.24-0.54,0.43
				c-0.11,0.24-0.33,0.33-0.57,0.43c-0.23,0.1-0.46,0.22-0.53,0.51c-0.31,0.4-0.69,0.74-1.05,1.14c-0.51,0.27-0.68,0.84-0.96,1.32
				c-0.52,0.33-0.73,0.91-0.83,1.51c-0.56,0.38-0.77,1-0.64,1.68c-0.17,0.58-0.47,1.17-0.42,1.83c-0.08,0.64-0.09,1.29-0.15,1.95
				c0.23,0.67,0.24,1.31,0.15,2.02c0.34,0.64,0.39,1.31,0.48,2.03c0.02,0.18,0.08,0.35,0.14,0.51c0.07,0.16,0.16,0.32,0.25,0.48
				c0.08,0.16,0.19,0.31,0.26,0.47c0.07,0.16,0.14,0.33,0.18,0.51c0.32,0.65,0.77,1.24,1.18,1.86c0.36,0.65,0.81,1.31,1.52,1.66
				c0.6,0.47,1.25,0.87,1.83,1.4c0.79,0.19,1.41,0.64,2.09,1.06c0.74,0.25,1.47,0.66,2.29,0.67c0.79,0.19,1.61,0.12,2.42,0.23
				c0.82,0.08,1.65,0.07,2.42-0.23c0.38-0.16,0.77-0.23,1.16-0.32c0.2-0.04,0.39-0.09,0.58-0.14c0.19-0.05,0.38-0.12,0.56-0.21
				c0.21-0.01,0.4-0.07,0.58-0.15c0.09-0.04,0.18-0.08,0.27-0.13c0.08-0.05,0.17-0.1,0.25-0.16l0.25-0.16L57,62.59
				c0.16-0.11,0.33-0.21,0.5-0.3c0.64-0.43,1.36-0.78,1.83-1.4c0.53-0.55,0.99-1.13,1.52-1.66c0.07-0.41,0.3-0.69,0.54-0.97
				c0.13-0.13,0.25-0.27,0.36-0.42c0.06-0.07,0.11-0.15,0.16-0.22c0.05-0.08,0.08-0.16,0.12-0.25c0.48-0.58,0.59-1.32,0.84-1.98
				c0.07-0.35,0.21-0.67,0.31-1.01l0.08-0.25c0.02-0.08,0.04-0.17,0.06-0.25c0.03-0.17,0.06-0.34,0.03-0.52
				c0.14-0.68,0.01-1.36,0.15-2.02c-0.05-0.16-0.07-0.33-0.07-0.49c-0.01-0.16,0-0.33,0.01-0.49c0.01-0.16,0.01-0.33,0-0.49
				c-0.01-0.16-0.03-0.32-0.09-0.47c-0.1-0.63-0.27-1.23-0.42-1.83c0.02-0.17,0.01-0.33-0.02-0.48c-0.04-0.15-0.1-0.29-0.17-0.43
				c-0.06-0.14-0.15-0.27-0.23-0.39c-0.08-0.13-0.16-0.25-0.23-0.38c-0.12-0.27-0.29-0.51-0.45-0.75c-0.16-0.24-0.31-0.47-0.38-0.77
				c-0.29-0.47-0.52-1-0.96-1.32c-0.19-0.19-0.29-0.45-0.42-0.68c-0.13-0.24-0.31-0.42-0.63-0.45c-0.21-0.14-0.35-0.36-0.5-0.55
				c-0.16-0.19-0.33-0.37-0.6-0.39c-0.26-0.04-0.44-0.18-0.61-0.33c-0.17-0.15-0.31-0.33-0.5-0.44c-0.18-0.12-0.36-0.23-0.55-0.33
				c-0.18-0.1-0.36-0.2-0.54-0.29c-0.8-0.4-1.56-0.68-2.23-0.89c-0.67-0.2-1.26-0.33-1.74-0.42c-0.48-0.09-0.85-0.15-1.11-0.19
				C50.83,38.05,50.7,38.01,50.7,37.97c0-0.08,0.66-0.2,1.9-0.12c0.62,0.05,1.38,0.15,2.25,0.38c0.87,0.23,1.85,0.6,2.88,1.15
				c0.21,0.11,0.44,0.19,0.66,0.3c0.22,0.1,0.43,0.25,0.58,0.46c0.21,0.14,0.43,0.28,0.65,0.42c0.22,0.15,0.43,0.32,0.59,0.54
				c0.58,0.17,0.84,0.73,1.2,1.18c0.39,0.43,0.68,0.96,1.11,1.4c0.23,0.21,0.39,0.49,0.52,0.78c0.14,0.29,0.25,0.58,0.45,0.85
				c0.12,0.66,0.42,1.24,0.77,1.84c0.05,0.69,0.42,1.31,0.52,2.02c-0.14,0.74,0.12,1.42,0.22,2.16c0.1,0.74-0.06,1.49-0.12,2.26
				c-0.16,0.75-0.22,1.54-0.5,2.29c-0.12,0.79-0.4,1.58-0.9,2.24c-0.3,0.77-0.8,1.45-1.31,2.11c-0.43,0.74-1.09,1.3-1.7,1.9
				c-0.3,0.31-0.67,0.54-1.04,0.77c-0.18,0.12-0.37,0.23-0.54,0.37c-0.17,0.14-0.33,0.28-0.48,0.46c-0.73,0.5-1.56,0.84-2.37,1.22
				c-0.85,0.3-1.72,0.52-2.6,0.77c-0.94-0.1-1.81,0.16-2.75,0.27c-0.93,0.08-1.86-0.05-2.74-0.27c-0.9-0.15-1.78-0.42-2.6-0.77
				c-0.87-0.26-1.57-0.85-2.37-1.22c-0.2-0.09-0.39-0.21-0.57-0.34c-0.18-0.13-0.35-0.27-0.51-0.42c-0.33-0.29-0.63-0.59-0.99-0.84
				c-0.69-0.52-1.31-1.14-1.7-1.9c-0.25-0.34-0.44-0.71-0.63-1.08c-0.1-0.18-0.19-0.36-0.3-0.54c-0.05-0.09-0.12-0.17-0.18-0.25
				c-0.06-0.08-0.13-0.16-0.2-0.24c-0.1-0.18-0.23-0.34-0.33-0.52c-0.11-0.17-0.23-0.34-0.32-0.53c-0.09-0.18-0.17-0.37-0.22-0.57
				c-0.04-0.2-0.06-0.41-0.03-0.62c-0.16-0.37-0.23-0.76-0.27-1.15c-0.01-0.1-0.03-0.19-0.04-0.29c-0.01-0.1-0.02-0.19-0.04-0.29
				c-0.03-0.19-0.08-0.38-0.15-0.56c0.04-0.2,0.06-0.39,0.05-0.58c0-0.19-0.02-0.38-0.05-0.56c-0.03-0.19-0.05-0.37-0.08-0.56
				c-0.02-0.19-0.05-0.37-0.04-0.56c0.06-0.74,0.23-1.44,0.22-2.16c0-0.18,0.02-0.36,0.05-0.53c0.04-0.17,0.09-0.34,0.14-0.51
				c0.05-0.17,0.12-0.33,0.18-0.49c0.06-0.16,0.1-0.33,0.15-0.49c0.02-0.17,0.06-0.34,0.13-0.49c0.07-0.15,0.15-0.3,0.24-0.45
				c0.08-0.15,0.17-0.29,0.25-0.43c0.07-0.15,0.13-0.3,0.16-0.46c0.32-0.56,0.58-1.14,0.97-1.63c0.01-0.36,0.19-0.62,0.42-0.82
				c0.23-0.21,0.49-0.38,0.69-0.58c0.41-0.4,0.6-1.02,1.2-1.18c0.11-0.29,0.3-0.48,0.53-0.61c0.23-0.13,0.48-0.24,0.71-0.35
				c0.23-0.11,0.41-0.28,0.61-0.43c0.19-0.15,0.39-0.29,0.63-0.33c0.15-0.21,0.36-0.29,0.59-0.35c0.22-0.06,0.44-0.11,0.62-0.22
				c0.44-0.06,0.76-0.32,1.14-0.42c0.17-0.08,0.35-0.15,0.52-0.2c0.18-0.04,0.35-0.07,0.52-0.08c0.16-0.04,0.33-0.07,0.48-0.1
				c0.16-0.03,0.31-0.06,0.45-0.08C49.74,37.7,50.7,37.88,50.7,37.97z"/>
		</g>
		<g id="XMLID_22469_">
			<path d="M50.7,20.18c0,0.11-0.54,0.22-1.52,0.34c-0.16,0.02-0.34,0.05-0.53,0.08c-0.19,0.04-0.38,0.09-0.59,0.09
				c-0.22-0.12-0.41,0.28-0.66,0.1c-0.24-0.03-0.48,0.06-0.72,0.13c-0.25,0.08-0.53-0.03-0.79,0.15c-0.23,0.32-0.6-0.2-0.84,0.19
				c-0.28,0.12-0.58,0.15-0.89,0.21c-0.35-0.13-0.62,0.14-0.94,0.25c-0.39-0.17-0.69,0.04-0.98,0.3c-0.43-0.23-0.77-0.09-1.02,0.34
				c-0.34,0.13-0.74,0.12-1.05,0.39c-0.35,0.16-0.68,0.36-1.08,0.45c-0.07,0.09-0.15,0.17-0.23,0.23c-0.08,0.06-0.17,0.12-0.26,0.16
				c-0.18,0.08-0.39,0.12-0.61,0.12c-0.13,0.2-0.31,0.31-0.5,0.39c-0.19,0.09-0.4,0.13-0.61,0.17c-0.44,0.07-0.66,0.57-1.12,0.62
				c-0.19,0.1-0.37,0.22-0.56,0.34c-0.09,0.06-0.19,0.12-0.28,0.18c-0.09,0.06-0.19,0.12-0.29,0.17c-0.42,0.16-0.88,0.3-1.13,0.75
				c-0.34,0.32-0.66,0.64-1.12,0.81c-0.21,0.5-0.64,0.69-1.1,0.88c-0.33,0.34-0.82,0.52-1.08,0.95c-0.38,0.3-0.62,0.75-1.05,1.01
				c-0.39,0.3-0.79,0.6-1.01,1.06c-0.19,0.48-0.68,0.68-0.94,1.08c-0.49,0.22-0.52,0.79-0.88,1.1c-0.26,0.39-0.66,0.67-0.81,1.12
				c-0.22,0.4-0.41,0.81-0.75,1.13c0.04,0.29-0.09,0.46-0.25,0.62c-0.16,0.16-0.36,0.3-0.43,0.51c-0.36,0.29-0.39,0.77-0.62,1.12
				c-0.06,0.2-0.2,0.37-0.32,0.54c-0.12,0.18-0.22,0.36-0.24,0.57c-0.19,0.36-0.23,0.78-0.5,1.1c0.03,0.44-0.44,0.67-0.45,1.07
				c-0.12,0.36-0.23,0.72-0.39,1.05c-0.41,0.25-0.26,0.68-0.34,1.02c-0.12,0.33-0.04,0.7-0.3,0.98c-0.1,0.32-0.3,0.61-0.25,0.94
				c-0.03,0.31-0.55,0.52-0.21,0.89c0.02,0.3-0.4,0.52-0.19,0.84c0.19,0.31-0.1,0.53-0.15,0.79c-0.05,0.25-0.09,0.49-0.13,0.72
				c-0.16,1.04-0.29,1.87-0.36,2.44c-0.09,0.57-0.17,0.87-0.25,0.87c-0.09,0-0.16-0.38-0.23-1.09c-0.01-0.18-0.03-0.38-0.04-0.59
				c0-0.22,0-0.46,0-0.71c0-0.26,0.01-0.53,0.01-0.83c0.02-0.29,0.04-0.61,0.06-0.93c0.02-0.26-0.16-0.57,0.07-0.82
				c0.05-0.28-0.05-0.6,0.12-0.88c-0.22-0.35,0.06-0.63,0.15-0.94c0.06-0.32,0.22-0.63,0.19-0.99c-0.08-0.38,0.26-0.66,0.25-1.04
				c0.26-0.3,0.31-0.67,0.3-1.08c0.28-0.31,0.21-0.74,0.35-1.12c0.38-0.28,0.36-0.72,0.42-1.15c0.06-0.43,0.37-0.75,0.48-1.17
				c0.11-0.19,0.19-0.39,0.26-0.6c0.08-0.2,0.17-0.41,0.29-0.59c0.1-0.45,0.26-0.88,0.62-1.2c0.08-0.22,0.19-0.42,0.31-0.62
				c0.12-0.2,0.25-0.39,0.38-0.59c0.17-0.45,0.51-0.79,0.76-1.2c0.24-0.42,0.77-0.63,0.84-1.19c0.28-0.41,0.64-0.75,0.91-1.17
				c0.36-0.36,0.71-0.71,0.99-1.15c0.56-0.18,0.78-0.67,1.06-1.12c0.32-0.41,0.72-0.74,1.11-1.06c0.37-0.36,0.76-0.68,1.15-0.99
				c0.34-0.38,0.85-0.52,1.17-0.92c0.33-0.39,0.87-0.47,1.19-0.84c0.35-0.34,0.74-0.63,1.2-0.77c0.1-0.06,0.2-0.11,0.31-0.16
				c0.11-0.04,0.22-0.08,0.33-0.12c0.22-0.09,0.42-0.2,0.56-0.41c0.36-0.28,0.63-0.76,1.2-0.62c0.18-0.14,0.39-0.2,0.61-0.27
				c0.21-0.06,0.42-0.12,0.58-0.28c0.26,0.04,0.45-0.04,0.63-0.16c0.09-0.06,0.18-0.12,0.27-0.18c0.09-0.06,0.18-0.11,0.28-0.14
				c0.41-0.1,0.82-0.16,1.15-0.42c0.33-0.25,0.77-0.18,1.12-0.35c0.31-0.28,0.78-0.02,1.08-0.3c0.36-0.06,0.68-0.23,1.04-0.25
				c0.25-0.45,0.67-0.15,0.99-0.19c0.33-0.03,0.58-0.38,0.94-0.15c0.25-0.34,0.59-0.14,0.88-0.12c0.29,0.03,0.54-0.2,0.82-0.07
				c0.24-0.23,0.53,0.05,0.76-0.05c0.25,0.1,0.47-0.03,0.69-0.02c0.21-0.06,0.42-0.06,0.62,0c0.19,0,0.37,0,0.54,0.01
				C50.15,19.99,50.7,20.08,50.7,20.18z"/>
		</g>
		<g id="XMLID_22468_">
			<path d="M50.7,82.91c0-0.11,0.54-0.22,1.53-0.34c0.16-0.02,0.34-0.06,0.53-0.08c0.19-0.04,0.38-0.09,0.6-0.09
				c0.22,0.12,0.41-0.28,0.66-0.1c0.24,0.03,0.48-0.06,0.72-0.13c0.25-0.08,0.53,0.03,0.78-0.15c0.23-0.32,0.61,0.2,0.84-0.19
				c0.28-0.12,0.58-0.15,0.89-0.21c0.35,0.13,0.62-0.14,0.94-0.25c0.39,0.17,0.69-0.04,0.98-0.3c0.43,0.23,0.77,0.09,1.02-0.34
				c0.34-0.13,0.74-0.12,1.05-0.39c0.35-0.16,0.68-0.36,1.07-0.45c0.07-0.09,0.15-0.17,0.23-0.23c0.08-0.07,0.17-0.12,0.26-0.16
				c0.18-0.08,0.39-0.12,0.61-0.12c0.13-0.2,0.31-0.31,0.5-0.39c0.19-0.09,0.4-0.13,0.62-0.17c0.44-0.07,0.66-0.57,1.12-0.62
				c0.19-0.1,0.38-0.22,0.56-0.34c0.09-0.06,0.19-0.12,0.28-0.17c0.09-0.06,0.19-0.12,0.29-0.17c0.43-0.16,0.88-0.3,1.13-0.75
				c0.34-0.32,0.66-0.64,1.12-0.81c0.21-0.5,0.64-0.69,1.1-0.88c0.33-0.34,0.82-0.52,1.08-0.94c0.38-0.3,0.62-0.75,1.05-1.01
				c0.39-0.3,0.79-0.6,1.01-1.05c0.19-0.48,0.68-0.68,0.94-1.08c0.49-0.22,0.52-0.79,0.88-1.1c0.26-0.39,0.65-0.67,0.81-1.12
				c0.22-0.4,0.41-0.81,0.75-1.13c-0.04-0.29,0.09-0.46,0.25-0.62c0.16-0.16,0.36-0.3,0.43-0.51c0.37-0.29,0.39-0.77,0.62-1.12
				c0.06-0.2,0.2-0.37,0.32-0.54c0.12-0.17,0.22-0.35,0.24-0.57c0.19-0.36,0.23-0.78,0.5-1.1c-0.03-0.44,0.43-0.67,0.45-1.08
				c0.12-0.36,0.23-0.72,0.39-1.05c0.41-0.25,0.26-0.68,0.34-1.02c0.12-0.33,0.04-0.7,0.3-0.98c0.1-0.32,0.3-0.61,0.25-0.94
				c0.03-0.31,0.55-0.53,0.21-0.89c-0.02-0.3,0.4-0.52,0.19-0.84c-0.19-0.31,0.1-0.53,0.15-0.78c0.05-0.25,0.09-0.49,0.13-0.72
				c0.16-1.04,0.29-1.87,0.36-2.44c0.09-0.57,0.17-0.87,0.25-0.87c0.09,0,0.16,0.38,0.23,1.09c0.01,0.18,0.03,0.38,0.04,0.59
				c0,0.22,0,0.46,0,0.71c0,0.26,0,0.53-0.01,0.83c-0.02,0.29-0.04,0.6-0.06,0.93c-0.02,0.26,0.16,0.57-0.07,0.82
				c-0.05,0.28,0.05,0.6-0.12,0.88c0.22,0.35-0.06,0.63-0.15,0.94c-0.06,0.32-0.22,0.63-0.19,0.99c0.08,0.38-0.26,0.66-0.25,1.04
				c-0.26,0.3-0.31,0.67-0.29,1.08c-0.28,0.31-0.21,0.74-0.35,1.12c-0.38,0.28-0.36,0.72-0.42,1.15c-0.06,0.42-0.37,0.75-0.48,1.17
				c-0.11,0.19-0.18,0.39-0.26,0.6c-0.08,0.2-0.17,0.41-0.29,0.59c-0.1,0.45-0.26,0.88-0.62,1.2c-0.08,0.22-0.19,0.42-0.31,0.62
				c-0.12,0.2-0.25,0.39-0.38,0.59c-0.17,0.45-0.51,0.79-0.77,1.2c-0.24,0.42-0.77,0.63-0.84,1.19c-0.28,0.41-0.64,0.75-0.91,1.17
				c-0.35,0.36-0.71,0.71-0.99,1.15c-0.55,0.18-0.78,0.67-1.06,1.12c-0.32,0.42-0.72,0.74-1.12,1.06c-0.37,0.36-0.76,0.68-1.15,0.99
				c-0.34,0.38-0.86,0.52-1.17,0.92c-0.33,0.39-0.87,0.47-1.19,0.84c-0.35,0.34-0.74,0.62-1.2,0.77c-0.1,0.06-0.21,0.11-0.31,0.16
				c-0.11,0.04-0.23,0.08-0.33,0.12c-0.22,0.09-0.42,0.2-0.56,0.41c-0.36,0.28-0.63,0.76-1.2,0.62c-0.18,0.14-0.39,0.2-0.6,0.27
				c-0.21,0.06-0.43,0.12-0.59,0.28c-0.25-0.04-0.45,0.05-0.63,0.16c-0.09,0.06-0.18,0.12-0.26,0.18c-0.09,0.06-0.18,0.11-0.28,0.14
				c-0.41,0.1-0.82,0.16-1.15,0.42c-0.33,0.25-0.77,0.19-1.12,0.35c-0.31,0.28-0.78,0.02-1.08,0.3c-0.36,0.06-0.68,0.23-1.04,0.25
				c-0.25,0.45-0.67,0.15-0.99,0.19c-0.33,0.03-0.58,0.38-0.94,0.15c-0.25,0.34-0.59,0.14-0.88,0.12c-0.29-0.03-0.54,0.19-0.82,0.07
				c-0.24,0.23-0.53-0.05-0.76,0.05c-0.25-0.1-0.47,0.03-0.69,0.02c-0.21,0.06-0.42,0.06-0.62,0c-0.19,0-0.37,0-0.54-0.01
				C51.24,83.11,50.7,83.02,50.7,82.91z"/>
		</g>
		<g id="XMLID_22467_">
			<path d="M23.16,65.92c-0.05,0.02-0.21-0.18-0.48-0.59c-0.28-0.4-0.66-1.01-1.24-1.71c-0.19-0.24-0.41-0.47-0.65-0.72
				c-0.13-0.11-0.26-0.23-0.4-0.34c-0.07-0.05-0.14-0.11-0.21-0.17c-0.07-0.06-0.14-0.12-0.22-0.18c-0.11-0.17-0.31-0.24-0.5-0.28
				c-0.1-0.03-0.19-0.06-0.28-0.1c-0.09-0.04-0.17-0.09-0.24-0.19c-0.04-0.03-0.09-0.06-0.13-0.08c-0.05-0.02-0.1-0.04-0.15-0.06
				c-0.1-0.04-0.2-0.07-0.3-0.11c-0.11-0.02-0.22-0.04-0.33-0.06c-0.06-0.01-0.11-0.02-0.17-0.03c-0.06,0-0.11-0.01-0.17-0.01
				c-0.11-0.01-0.23-0.03-0.34-0.05c-0.11-0.02-0.23-0.04-0.35-0.06c-0.23-0.04-0.49-0.05-0.73,0.01c-0.13,0.06-0.24,0.09-0.37,0.08
				c-0.12,0-0.25-0.03-0.38-0.06c-0.13-0.02-0.26-0.03-0.39-0.01c-0.13,0.02-0.26,0.05-0.36,0.18c-0.24,0.11-0.5,0.16-0.74,0.27
				c-0.13,0.04-0.25,0.09-0.38,0.14c-0.12,0.05-0.25,0.11-0.37,0.17c-0.07,0.01-0.15,0.02-0.21,0.04c-0.07,0.02-0.13,0.05-0.19,0.09
				c-0.13,0.07-0.25,0.14-0.36,0.24c-0.21,0.2-0.42,0.41-0.61,0.62c-0.15,0.05-0.29,0.11-0.41,0.21c-0.12,0.1-0.22,0.21-0.32,0.32
				c-0.09,0.12-0.16,0.26-0.23,0.4c-0.03,0.07-0.06,0.14-0.09,0.21c-0.03,0.07-0.05,0.15-0.07,0.23c-0.63,0.33-0.86,1.02-0.71,1.71
				c-0.03,0.15-0.09,0.3-0.12,0.46c-0.03,0.16-0.06,0.32-0.1,0.47c-0.03,0.16-0.03,0.33-0.03,0.49c0,0.08,0,0.17,0.01,0.25
				c0.01,0.09,0.03,0.17,0.05,0.26c0.04,0.68,0.19,1.36,0.29,2.08c0.38,0.65,0.59,1.32,0.68,2.09c0.5,0.6,0.74,1.32,1.01,2.07
				c0.26,0.76,0.98,1.26,1.27,2.04c0.45,0.68,0.99,1.32,1.47,2c0.44,0.73,0.9,1.47,1.63,1.98c0.61,0.62,1.26,1.22,1.76,1.96
				c0.79,0.48,1.33,1.21,1.86,1.96c0.66,0.62,1.17,1.41,1.93,1.97c0.31,0.34,0.66,0.65,1.01,0.97l0.33,0.31
				c0.02,0.02,0.03,0.05,0.05,0.11l0,0c0.02,0,0.06,0,0.1-0.02l0.03-0.02c0.01-0.01,0.01,0,0.07-0.05l0.26-0.24
				c0.34-0.32,0.65-0.67,0.92-1.05c0.53-0.78,1.35-1.27,1.93-1.97c0.81-0.48,1.19-1.37,1.86-1.96c0.58-0.67,1.29-1.22,1.76-1.96
				c0.53-0.69,1.03-1.38,1.63-1.98c0.21-0.89,1.08-1.28,1.47-2c0.59-0.59,0.86-1.37,1.27-2.04c0.31-0.72,0.88-1.31,1.01-2.07
				c0.31-0.69,0.38-1.43,0.68-2.09c-0.01-0.19,0.01-0.36,0.05-0.53c0.03-0.17,0.08-0.34,0.13-0.51c0.08-0.34,0.17-0.68,0.11-1.03
				l0.01-0.25c0-0.08-0.01-0.16-0.01-0.25c-0.01-0.16-0.01-0.33-0.03-0.48c-0.02-0.16-0.05-0.32-0.07-0.48
				c-0.02-0.16-0.06-0.31-0.09-0.47c0.02-0.09,0.02-0.17,0.03-0.25c-0.01-0.08-0.02-0.16-0.04-0.24c-0.04-0.16-0.09-0.31-0.17-0.45
				c-0.08-0.14-0.17-0.27-0.25-0.4c-0.09-0.13-0.19-0.25-0.27-0.38c-0.04-0.07-0.08-0.13-0.12-0.19c-0.05-0.06-0.1-0.12-0.15-0.17
				c-0.1-0.11-0.19-0.23-0.3-0.33c-0.11-0.1-0.21-0.21-0.3-0.32c-0.09-0.12-0.19-0.22-0.26-0.36c-0.2-0.21-0.42-0.4-0.63-0.59
				c-0.11-0.09-0.23-0.16-0.36-0.23c-0.06-0.04-0.12-0.07-0.19-0.1c-0.06-0.03-0.13-0.04-0.2-0.06c-0.13-0.05-0.24-0.13-0.35-0.22
				c-0.11-0.08-0.23-0.16-0.35-0.24c-0.23-0.17-0.5-0.24-0.8-0.11c-0.13-0.02-0.26-0.04-0.38-0.08c-0.12-0.04-0.25-0.09-0.37-0.13
				c-0.25-0.06-0.51-0.11-0.75,0.03c-0.25,0.13-0.49,0.12-0.72,0.11c-0.12-0.01-0.24-0.03-0.36-0.03c-0.12,0-0.23,0-0.34,0.02
				c-0.06,0.01-0.11,0.02-0.17,0.03l-0.16,0.04c-0.11,0.03-0.21,0.05-0.32,0.08c-0.1,0.03-0.2,0.07-0.3,0.1l-0.15,0.05
				c-0.05,0.02-0.1,0.04-0.14,0.06c-0.11,0.05-0.21,0.09-0.31,0.14c-0.1,0.06-0.2,0.11-0.29,0.16c-0.1,0.05-0.19,0.11-0.28,0.17
				c-0.09,0.06-0.18,0.12-0.26,0.18c-0.33,0.26-0.63,0.52-0.89,0.79c-0.51,0.55-0.9,1.07-1.2,1.51c-0.16,0.21-0.28,0.41-0.4,0.58
				c-0.12,0.17-0.21,0.31-0.29,0.43c-0.16,0.23-0.26,0.34-0.3,0.32c-0.07-0.04,0.14-0.72,0.77-1.91c0.33-0.58,0.77-1.3,1.48-2.01
				c0.35-0.36,0.79-0.7,1.29-0.99c0.51-0.29,1.1-0.51,1.73-0.66c0.13-0.03,0.25-0.07,0.38-0.11c0.13-0.04,0.26-0.07,0.39-0.1
				c0.27-0.07,0.55-0.07,0.82,0.01c0.28-0.01,0.57-0.02,0.87-0.03c0.15,0,0.3,0.02,0.45,0.04c0.15,0.03,0.3,0.05,0.44,0.12
				c0.33-0.05,0.65,0,0.94,0.14c0.15,0.07,0.29,0.14,0.43,0.22c0.14,0.09,0.28,0.17,0.42,0.25c0.08,0.04,0.15,0.07,0.22,0.11
				L34,61.12c0.14,0.09,0.28,0.18,0.42,0.27c0.26,0.21,0.55,0.39,0.83,0.59c0.15,0.09,0.3,0.19,0.42,0.32
				c0.12,0.13,0.23,0.27,0.34,0.41c0.11,0.14,0.2,0.3,0.31,0.45c0.05,0.07,0.11,0.15,0.16,0.22c0.05,0.07,0.11,0.15,0.17,0.22
				c0.25,0.71,0.57,1.35,0.93,2.05c0,0.2,0.05,0.39,0.07,0.58c0.02,0.19,0.06,0.38,0.11,0.57c0.04,0.19,0.06,0.39,0.09,0.59
				c0.01,0.1,0.03,0.2,0.03,0.3c0,0.1,0,0.2,0,0.29c-0.13,0.39-0.19,0.77-0.21,1.16c-0.02,0.2-0.02,0.39-0.02,0.6
				c-0.01,0.2-0.03,0.4-0.04,0.6c-0.09,0.81-0.46,1.55-0.71,2.34c-0.35,0.75-0.61,1.54-1.05,2.26c-0.3,0.79-0.71,1.55-1.31,2.18
				c-0.41,0.76-0.97,1.42-1.51,2.11c-0.46,0.75-1.11,1.37-1.66,2.06c-0.54,0.71-1.38,1.17-1.78,2.02c-0.59,0.69-1.27,1.3-1.87,2
				c-0.66,0.64-1.34,1.27-1.94,1.99c-0.43,0.23-0.77,0.55-1.09,0.89c-0.5,0.57-1.01,1.15-1.52,1.72l0,0
				c-0.31-0.29-0.64-0.59-0.96-0.91l-0.44-0.43l-0.25-0.25c-0.33-0.33-0.64-0.68-0.96-1.03c-0.68-0.64-1.31-1.32-1.94-1.99
				c-0.7-0.61-1.18-1.41-1.87-2c-0.7-0.59-1.12-1.42-1.78-2.02c-0.64-0.62-1.23-1.28-1.66-2.06c-0.54-0.69-0.84-1.54-1.51-2.11
				c-0.52-0.67-1.24-1.25-1.31-2.18c-0.49-0.7-0.6-1.56-1.05-2.26c-0.02-0.21-0.04-0.42-0.1-0.62c-0.06-0.19-0.13-0.39-0.2-0.57
				c-0.08-0.19-0.16-0.37-0.23-0.57c-0.07-0.19-0.14-0.38-0.18-0.58c-0.13-0.8-0.13-1.59-0.27-2.36c-0.02-0.1-0.04-0.2-0.04-0.29
				c-0.01-0.1,0-0.2,0-0.3c0.01-0.2,0.02-0.4,0.07-0.59c0.04-0.19,0.09-0.39,0.13-0.58c0.04-0.19,0.11-0.38,0.14-0.57
				c0.01-0.1,0.02-0.2,0.04-0.29c0.03-0.09,0.06-0.18,0.1-0.27c0.08-0.18,0.16-0.35,0.26-0.51c0.1-0.16,0.21-0.32,0.29-0.48
				c0.09-0.16,0.18-0.32,0.24-0.5l0.15-0.23l0.17-0.22c0.11-0.14,0.21-0.3,0.33-0.43c0.12-0.13,0.24-0.27,0.36-0.39
				c0.12-0.13,0.26-0.23,0.4-0.34c0.12-0.39,0.42-0.59,0.73-0.75c0.16-0.07,0.33-0.13,0.49-0.18c0.08-0.03,0.16-0.06,0.24-0.09
				c0.08-0.03,0.16-0.05,0.23-0.09c0.15-0.06,0.29-0.14,0.43-0.22c0.14-0.07,0.29-0.15,0.43-0.22c0.28-0.15,0.6-0.22,0.93-0.16
				c0.13-0.11,0.28-0.16,0.43-0.2c0.15-0.04,0.3-0.06,0.45-0.05c0.3,0.02,0.6,0.08,0.88,0.12c0.28,0.05,0.55,0.02,0.82,0.04
				c0.13,0,0.27,0.01,0.4,0.03c0.13,0.03,0.26,0.07,0.38,0.13c0.07-0.01,0.14-0.02,0.2-0.01c0.07,0.01,0.13,0.02,0.19,0.04
				c0.13,0.03,0.24,0.08,0.36,0.14c0.11,0.06,0.22,0.13,0.33,0.19c0.06,0.03,0.11,0.06,0.16,0.08c0.06,0.02,0.11,0.05,0.17,0.07
				c0.09,0.08,0.19,0.15,0.29,0.21c0.1,0.06,0.2,0.12,0.3,0.17c0.2,0.1,0.39,0.22,0.56,0.36c0.1,0.05,0.18,0.11,0.26,0.18
				c0.08,0.07,0.16,0.13,0.23,0.2c0.15,0.14,0.26,0.3,0.37,0.46c0.24,0.29,0.45,0.56,0.63,0.83c0.53,0.8,0.83,1.47,1.03,1.93
				C23.14,65.64,23.21,65.89,23.16,65.92z"/>
		</g>
		<g id="XMLID_22466_">
			<path d="M75.38,7.43c0.07-0.08,0.24-0.07,0.51,0.03c0.04,0.01,0.09,0.03,0.14,0.05c0.06,0.01,0.12,0.02,0.16,0.07
				c-0.04,0.15,0.26-0.13,0.17,0.08c0.01,0.09,0.1,0.09,0.18,0.09c0.08,0.01,0.06,0.16,0.19,0.11c0.23-0.16-0.07,0.33,0.21,0.12
				c0.11-0.01,0.16,0.06,0.22,0.13c-0.06,0.22,0.13,0.11,0.23,0.14c-0.09,0.25,0.06,0.23,0.24,0.15c-0.14,0.33-0.03,0.35,0.25,0.16
				c0.08,0.05,0.08,0.22,0.26,0.17c0.1,0.05,0.22,0.07,0.27,0.18c0.23-0.11,0.31-0.03,0.27,0.19c0.24-0.12,0.27,0.03,0.28,0.2
				c0,0.18,0.32-0.02,0.29,0.21c0.08,0.09,0.22,0.11,0.29,0.22c0.03,0.16,0.06,0.32,0.3,0.23c0.14,0.03,0.29,0.05,0.3,0.23
				c0.27-0.12,0.29,0.05,0.31,0.24c0.13,0.05,0.12,0.28,0.31,0.25c0.08,0.12,0.28,0.08,0.31,0.25c0.06,0.15,0.11,0.29,0.31,0.25
				c0.21-0.05,0.16,0.22,0.31,0.25c-0.05,0.27,0.25,0.1,0.3,0.25c0.11,0.06,0.11,0.27,0.29,0.25c0.13,0.04,0.25,0.09,0.28,0.25
				c0.33-0.22,0.13,0.23,0.27,0.24c-0.01,0.2,0.2,0.13,0.26,0.24c0.14,0.02,0.07,0.28,0.25,0.23c0.07,0.1,0.25,0.05,0.24,0.23
				c0.2-0.08,0.07,0.26,0.23,0.22c0.08,0.07,0.17,0.12,0.22,0.22c-0.11,0.29,0.12,0.16,0.21,0.21c0.05,0.09,0.25-0.01,0.2,0.2
				c0.06,0.08,0.04,0.23,0.18,0.2c0.09,0.02-0.14,0.44,0.17,0.19c0.11,0-0.07,0.34,0.16,0.18c0.21-0.14,0.1,0.12,0.14,0.17
				c0.05,0.05,0.09,0.11,0.13,0.16c0.37,0.46,0.53,0.79,0.43,0.91c-0.11,0.14-0.53,0.01-1.16-0.32c-0.06-0.03-0.25,0.08-0.19-0.11
				c-0.06-0.05-0.22,0.03-0.21-0.12c-0.23,0.16-0.16-0.06-0.22-0.13c-0.08-0.04-0.09-0.17-0.23-0.14c-0.17,0.07-0.09-0.18-0.24-0.15
				c0.03-0.19-0.07-0.22-0.25-0.16c0.03-0.19-0.18-0.1-0.26-0.17c0.08-0.26-0.12-0.19-0.27-0.18c-0.14,0-0.15-0.17-0.27-0.19
				c-0.06-0.11-0.22-0.09-0.28-0.2c-0.17,0.02-0.29-0.02-0.29-0.21c-0.14-0.01-0.2-0.14-0.29-0.22c-0.16,0-0.19-0.16-0.3-0.22
				c-0.13-0.04-0.03-0.37-0.3-0.23c-0.12-0.05-0.17-0.2-0.31-0.24c-0.08-0.11-0.16-0.22-0.31-0.25c0.07-0.3-0.14-0.25-0.31-0.25
				c-0.16-0.02-0.23-0.14-0.31-0.25c-0.12-0.06-0.22-0.16-0.31-0.25c-0.15-0.02-0.13-0.26-0.3-0.25c-0.17,0.01-0.12-0.26-0.29-0.25
				c-0.15-0.02-0.27-0.06-0.28-0.25c-0.1-0.08-0.03-0.35-0.27-0.24c-0.13-0.03-0.42,0.13-0.26-0.24c-0.15,0-0.06-0.29-0.25-0.23
				c0.09-0.29-0.16-0.15-0.24-0.23c-0.05-0.11-0.08-0.25-0.23-0.22c-0.17,0.04-0.11-0.19-0.22-0.22c-0.18,0.06-0.02-0.29-0.21-0.21
				c-0.05-0.09-0.16-0.1-0.2-0.2c-0.31,0.24-0.14-0.12-0.18-0.19c-0.03-0.1-0.29,0.09-0.17-0.19C76,9.01,76.1,8.77,76.09,8.66
				c-0.01-0.11-0.19,0-0.14-0.17c-0.18,0.11-0.04-0.17-0.13-0.16c0.03-0.14-0.09-0.08-0.11-0.15c-0.07,0-0.11-0.05-0.1-0.14
				c-0.03-0.04-0.06-0.09-0.08-0.13C75.37,7.68,75.32,7.51,75.38,7.43z"/>
		</g>
		<g id="XMLID_22465_">
			<path d="M75.38,7.42c0.11,0.01,0.19,0.27,0.24,0.76c0.01,0.08,0.02,0.17,0.03,0.26c0.02,0.09,0.04,0.19,0.02,0.29
				c-0.15,0.09,0.24,0.23,0.02,0.33c-0.07,0.11-0.02,0.23,0.02,0.36c0.04,0.13-0.11,0.25,0.01,0.39c0.26,0.15-0.32,0.25,0.01,0.42
				c0.06,0.15,0.03,0.3,0,0.45c-0.22,0.14-0.02,0.31,0,0.47c-0.26,0.14-0.17,0.32,0,0.5c-0.36,0.14-0.32,0.32-0.01,0.52
				c0,0.18-0.15,0.35-0.01,0.55c0.01,0.19,0.06,0.38-0.02,0.57c0.21,0.21,0.19,0.41-0.02,0.59c0.23,0.22,0.12,0.41-0.02,0.61
				c-0.15,0.2,0.19,0.43-0.03,0.63c-0.03,0.21,0.02,0.43-0.03,0.65c-0.12,0.21-0.25,0.42-0.04,0.66c0.04,0.23,0.11,0.46-0.04,0.68
				c0.24,0.25,0.11,0.47-0.05,0.69c0.03,0.24-0.18,0.46-0.05,0.7c-0.06,0.23,0.08,0.48-0.05,0.71c-0.1,0.23-0.19,0.47-0.06,0.71
				c0.15,0.25-0.11,0.46-0.06,0.7c-0.26,0.21,0.05,0.47-0.06,0.69c0.01,0.23-0.18,0.44-0.06,0.67c0.03,0.23,0.06,0.45-0.06,0.66
				c0.36,0.25-0.13,0.43-0.06,0.64c-0.18,0.2-0.01,0.42-0.07,0.63c0.06,0.21-0.21,0.4-0.07,0.61c-0.05,0.2,0.09,0.41-0.07,0.59
				c0.17,0.21-0.19,0.37-0.07,0.56c-0.02,0.19-0.02,0.37-0.07,0.54c-0.31,0.16-0.08,0.35-0.07,0.52c-0.04,0.17,0.14,0.35-0.07,0.5
				c-0.04,0.16-0.18,0.31-0.07,0.47c0.03,0.16-0.45,0.27-0.07,0.44c0.06,0.15-0.32,0.26-0.07,0.41c0.23,0.15-0.05,0.26-0.07,0.38
				c-0.02,0.12-0.05,0.24-0.07,0.35c-0.21,1.01-0.4,1.58-0.56,1.57c-0.18-0.01-0.29-0.75-0.33-1.99c0-0.12-0.2-0.27-0.01-0.39
				c0.01-0.13-0.14-0.28-0.01-0.42c-0.26-0.16-0.03-0.3,0-0.45c0-0.15,0.1-0.3,0-0.47c-0.15-0.17,0.1-0.32,0-0.5
				c0.18-0.16,0.15-0.33,0.01-0.52c0.18-0.17-0.01-0.36,0.01-0.55c0.27-0.17,0.1-0.37,0.02-0.57c-0.08-0.2,0.07-0.39,0.02-0.59
				c0.06-0.2-0.03-0.41,0.02-0.61c-0.1-0.22-0.13-0.43,0.03-0.63c-0.06-0.22,0.02-0.43,0.03-0.65c-0.08-0.22,0.05-0.44,0.04-0.66
				c-0.04-0.23,0.3-0.43,0.04-0.68c-0.02-0.23,0.08-0.45,0.04-0.69c0.05-0.23,0.11-0.46,0.05-0.7c0.29-0.22,0.14-0.47,0.05-0.71
				c-0.06-0.25,0-0.48,0.06-0.71c-0.01-0.24,0.02-0.47,0.06-0.7c-0.06-0.24,0.15-0.45,0.06-0.69c-0.1-0.24,0.16-0.44,0.06-0.68
				c-0.06-0.23-0.09-0.45,0.06-0.66c0.02-0.22,0.28-0.41,0.07-0.64c-0.04-0.22-0.33-0.45,0.07-0.63c-0.08-0.21,0.21-0.39,0.07-0.61
				c0.3-0.18,0.04-0.39,0.07-0.59c0.07-0.19,0.18-0.37,0.07-0.57c-0.12-0.2,0.1-0.36,0.07-0.54c-0.15-0.19,0.24-0.34,0.07-0.52
				c0.05-0.17,0-0.34,0.07-0.49c-0.37-0.19,0.03-0.32,0.07-0.47c0.07-0.15-0.23-0.32,0.07-0.44c-0.28-0.16-0.02-0.28,0.07-0.41
				c0.09-0.13-0.1-0.27,0.07-0.38c-0.19-0.14,0.13-0.23,0.07-0.35c0.14-0.1,0.02-0.22,0.07-0.32c-0.04-0.1-0.01-0.2,0.07-0.29
				c0.02-0.09,0.04-0.17,0.06-0.25C75.15,7.66,75.27,7.41,75.38,7.42z"/>
		</g>
		<g id="XMLID_22464_">
			<path d="M69.95,27.1c0,0.05-0.07,0.11-0.2,0.17c-0.13,0.05-0.3,0.13-0.52,0.23c-0.07,0.04-0.15,0.08-0.22,0.12
				c-0.08,0.05-0.15,0.12-0.24,0.15c-0.07-0.04-0.09,0.04-0.11,0.11c-0.02,0.08-0.04,0.14-0.14,0.07c-0.13,0-0.19,0.12-0.26,0.22
				c-0.07,0.1-0.24,0.09-0.25,0.27c0.05,0.14-0.04,0.13-0.14,0.13c-0.09,0-0.19,0.02-0.1,0.18c-0.02,0.16-0.13,0.25-0.22,0.36
				c-0.25,0.01-0.16,0.25-0.19,0.4c-0.3,0.02-0.26,0.23-0.16,0.44c-0.2,0.01-0.29,0.08-0.3,0.16c-0.01,0.09,0.04,0.2,0.19,0.32
				c-0.02,0.16-0.2,0.31-0.06,0.51C67,31.13,67.07,31.31,67,31.49c0.11,0.09,0.18,0.18,0.18,0.27c0,0.09-0.05,0.18-0.13,0.28
				c0.14,0.08,0.18,0.16,0.19,0.25c0.01,0.09-0.03,0.19-0.07,0.3c-0.05,0.11,0.04,0.19,0.11,0.26c0.04,0.04,0.07,0.08,0.09,0.12
				c0.02,0.04,0.03,0.09,0,0.15c0.05,0.19,0.21,0.33,0.26,0.52c0.01,0.11,0.02,0.22,0.06,0.31c0.05,0.09,0.14,0.15,0.28,0.16
				c0.09,0.05,0.18,0.1,0.25,0.16c0.07,0.06,0.14,0.13,0.17,0.24c0.16-0.04,0.25-0.02,0.32,0.05c0.07,0.06,0.11,0.16,0.16,0.27
				c0.09,0.03,0.17,0.09,0.24,0.15c0.08,0.05,0.17,0.09,0.28,0.05c0.09,0.04,0.19,0.02,0.28,0.03c0.1-0.01,0.19-0.02,0.28,0.04
				c0.09,0.03,0.19,0.07,0.29,0.07c0.1-0.01,0.19-0.04,0.27-0.14c0.07-0.11,0.16-0.11,0.25-0.12c0.09-0.01,0.21,0,0.27-0.08
				c0.14,0.06,0.22,0,0.28-0.09c0.06-0.09,0.1-0.19,0.2-0.22c0.06-0.08,0.16-0.11,0.25-0.16c0.08-0.06,0.16-0.12,0.17-0.24
				c0.04-0.09,0.08-0.18,0.14-0.26c0.05-0.08,0.11-0.16,0.21-0.21c-0.11-0.18-0.06-0.25,0.04-0.3c0.1-0.05,0.22-0.11,0.22-0.21
				c0.06-0.03,0.09-0.07,0.11-0.11c0.02-0.04,0.03-0.09,0.03-0.14c0.01-0.1,0.01-0.2,0.05-0.29c-0.01-0.1,0.05-0.18,0.1-0.27
				c0.05-0.09,0.08-0.18,0.02-0.28c0.03-0.09,0-0.19-0.01-0.28c-0.02-0.09,0-0.18,0.06-0.27c-0.1-0.09-0.06-0.18-0.02-0.27
				c0.05-0.09,0.08-0.19,0.01-0.27c-0.01-0.18-0.07-0.34-0.06-0.51c0.13-0.12,0.11-0.21,0.06-0.28c-0.05-0.07-0.13-0.13-0.18-0.2
				c-0.02-0.08-0.08-0.14-0.13-0.2c-0.05-0.07-0.08-0.13-0.03-0.24c-0.04-0.15-0.01-0.34-0.19-0.4c-0.05-0.05-0.01-0.17,0-0.26
				c0.01-0.1-0.02-0.17-0.22-0.1c-0.07-0.03-0.06-0.12-0.07-0.21c-0.01-0.08-0.03-0.16-0.17-0.1c-0.13,0.05-0.17,0-0.19-0.07
				c-0.02-0.07-0.02-0.16-0.06-0.2c-0.09-0.08-0.17-0.16-0.26-0.22c-0.39-0.3-0.75-0.48-1.01-0.58
				C70.1,27.26,69.95,27.19,69.95,27.1c0-0.04,0.05-0.08,0.15-0.12c0.1-0.04,0.25-0.08,0.45-0.07c0.4-0.01,1.01,0.1,1.67,0.51
				c0.13,0.07,0.38,0.04,0.39,0.28c0.12,0.11,0.35,0.14,0.38,0.35c0.32-0.03,0.27,0.26,0.35,0.42c0.11,0.15,0.14,0.36,0.32,0.49
				c0.11,0.05,0.15,0.15,0.16,0.26c0.02,0.11,0.02,0.21,0.11,0.29c-0.04,0.13-0.04,0.24,0,0.33c0.04,0.1,0.12,0.18,0.22,0.27
				c-0.12,0.25,0.13,0.43,0.15,0.66c-0.21,0.26-0.03,0.46,0.08,0.7c0.05,0.12,0.03,0.24,0.01,0.36c-0.02,0.12-0.04,0.24-0.03,0.37
				c-0.04,0.12-0.04,0.25-0.04,0.38c-0.01,0.13-0.02,0.26-0.07,0.38c0.04,0.14,0.02,0.28,0,0.41c-0.02,0.06-0.04,0.13-0.07,0.19
				c-0.04,0.06-0.09,0.11-0.15,0.16c-0.02,0.29-0.21,0.51-0.34,0.75c-0.03,0.15-0.11,0.27-0.2,0.38c-0.1,0.11-0.2,0.21-0.28,0.33
				c-0.07,0.13-0.23,0.19-0.35,0.27c-0.13,0.08-0.25,0.16-0.27,0.37c-0.1,0.11-0.24,0.19-0.37,0.28c-0.13,0.08-0.28,0.15-0.4,0.25
				c-0.15,0.06-0.31,0.1-0.45,0.16c-0.15,0.06-0.3,0.11-0.45,0.19c-0.19-0.1-0.35-0.1-0.5-0.05c-0.16,0.04-0.31,0.11-0.48,0.17
				c-0.17,0.03-0.34,0.03-0.5,0.01c-0.16-0.04-0.33-0.08-0.48-0.14c-0.16-0.04-0.32-0.08-0.47-0.14c-0.15-0.07-0.3-0.13-0.43-0.22
				c-0.16-0.04-0.28-0.14-0.4-0.25c-0.11-0.11-0.22-0.21-0.37-0.27c-0.15-0.06-0.25-0.18-0.33-0.31c-0.08-0.13-0.15-0.26-0.29-0.33
				c-0.12-0.09-0.23-0.19-0.32-0.3c-0.08-0.12-0.14-0.26-0.15-0.41c-0.14-0.25-0.03-0.59-0.34-0.75c-0.04-0.06-0.09-0.11-0.15-0.16
				c-0.05-0.05-0.1-0.11-0.14-0.17c-0.07-0.12-0.1-0.26,0.06-0.43c-0.07-0.12-0.06-0.25-0.04-0.38c0.02-0.13,0.03-0.26-0.06-0.37
				c0.12-0.14,0.12-0.26,0.09-0.38c-0.03-0.12-0.11-0.24-0.1-0.36c0.06-0.24,0.16-0.46,0.08-0.7c-0.11-0.25,0.15-0.44,0.15-0.66
				c-0.06-0.13,0.04-0.22,0.11-0.31c0.08-0.09,0.15-0.17,0.11-0.3c0.11-0.18,0.13-0.4,0.28-0.55c-0.12-0.17-0.08-0.27,0.02-0.33
				c0.1-0.06,0.24-0.09,0.3-0.16c0.07-0.07,0.08-0.17,0.11-0.27s0.08-0.17,0.25-0.15c-0.09-0.32,0.21-0.3,0.38-0.35
				c0.18-0.04,0.16-0.32,0.39-0.28c0.01-0.25,0.3-0.09,0.38-0.21c0.19,0.05,0.23-0.13,0.37-0.15c0.1-0.09,0.21-0.13,0.34-0.09
				c0.11-0.02,0.21-0.03,0.31-0.05c0.29-0.02,0.51,0,0.65,0.05C69.88,27,69.95,27.05,69.95,27.1z"/>
		</g>
	</g>
</g>
</svg>
