<?xml version="1.0" encoding="utf-8"?>
<!-- Generator: Adobe Illustrator 26.3.1, SVG Export Plug-In . SVG Version: 6.00 Build 0)  -->
<svg version="1.1" id="Capa_1" xmlns="http://www.w3.org/2000/svg" xmlns:xlink="http://www.w3.org/1999/xlink" x="0px" y="0px"
	 viewBox="0 0 100 100" style="enable-background:new 0 0 100 100;" xml:space="preserve">
<g>
	<g id="XMLID_22387_">
		<g id="XMLID_22391_">
			<path d="M63.29,46.01c0,0.05-0.63,0.07-1.83,0.22c-1.19,0.16-2.97,0.47-5.11,1.35c0.01-0.01,0.03-0.01,0.04-0.02l-0.02,0.01
				l-0.01,0.01l-0.01,0l0,0v0h0c0.07,0.01-0.61-0.08-0.32-0.04v0l-0.04-0.04l-0.08-0.08c-0.05-0.05-0.1-0.1-0.15-0.16
				c-0.1-0.1-0.21-0.21-0.32-0.32c-0.22-0.21-0.44-0.43-0.68-0.65c-0.71-0.65-1.51-1.31-2.41-1.96c-0.19-0.13-0.38-0.27-0.58-0.4
				c-0.1-0.06-0.2-0.13-0.3-0.2c-0.11-0.07-0.22-0.14-0.34-0.22c-0.57-0.37-1.21-0.73-1.85-1.11l0-0.02c0-0.01-0.01-0.01,0.01-0.02
				l0.09-0.05c0.06-0.03,0.11-0.07,0.17-0.1c0.12-0.07,0.24-0.13,0.35-0.2c0.42-0.2,0.78-0.39,1.16-0.61
				c0.1-0.05,0.19-0.11,0.29-0.16l0.22-0.13c0.15-0.08,0.29-0.17,0.44-0.25c0.59-0.33,1.22-0.64,1.92-0.79
				c1.35-0.43,2.76-0.9,4.27-1.23c1.52-0.34,3.14-0.37,4.81-0.52c0.84-0.15,1.7-0.04,2.56,0.1c0.86,0.14,1.72,0.31,2.64,0.31
				c1.79,0.25,3.6,0.79,5.37,1.54c0.85,0.46,1.73,0.88,2.61,1.32c0.88,0.45,1.77,0.92,2.62,1.49c1.53,1.37,3.15,2.64,4.72,4.12
				c1.18,1.83,2.46,3.54,3.81,5.37c1.08,1.99,1.78,4.18,2.48,6.43c0.57,2.28,0.9,4.69,0.78,7.13c0.17,2.45-0.24,4.99-1.17,7.36
				c-0.51,2.5-1.72,4.87-3.26,6.98c-0.78,1.06-1.53,2.13-2.38,3.16c-0.85,1.03-1.79,2-2.88,2.79c-2.07,1.72-4.38,3.24-6.95,4.29
				c-2.6,0.99-5.33,1.57-8.12,2.05c-2.81,0.32-5.75,0.23-8.55-0.53c-2.9-0.38-5.67-1.61-8.12-3.25c-1.28-0.75-2.47-1.64-3.59-2.62
				c-1.12-0.98-2.17-2.04-3.2-3.14c-0.96-1.16-1.86-2.37-2.66-3.66c-0.8-1.29-1.48-2.66-1.98-4.11c-1.04-2.88-1.58-5.87-1.85-8.86
				c-0.15-1.5-0.07-3.01,0.14-4.49c0.21-1.48,0.55-2.93,0.93-4.35c0.53-1.38,1.04-2.76,1.63-4.09c0.59-1.33,1.28-2.63,2.14-3.8
				c0.41-0.6,0.85-1.18,1.31-1.73l0.35-0.41l0.18-0.2l0.22-0.24c0.1-0.11,0.19-0.22,0.31-0.32c0.11-0.1,0.22-0.21,0.33-0.3
				l0.17-0.07c0.06-0.01,0.13,0,0.2,0c0.07,0,0.13,0,0.2,0.01l0.22,0.08c0.14,0.05,0.29,0.12,0.43,0.18l0.17,0.08l0.13,0.06
				c0.17,0.08,0.33,0.15,0.49,0.23c0.32,0.16,0.64,0.32,0.96,0.5c0.63,0.34,1.25,0.71,1.86,1.09c0.42,0.28,0.83,0.58,1.22,0.89
				l0.15,0.12l0.16,0.13c0.17,0.14,0.34,0.29,0.51,0.44c0.33,0.3,0.66,0.6,0.98,0.9c-0.3,0.29-0.6,0.58-0.9,0.87
				c-0.15,0.15-0.29,0.3-0.44,0.44l-0.23,0.24c-0.29,0.31-0.56,0.63-0.83,0.95c-0.53,0.65-1.03,1.32-1.49,2.02
				c-0.5,1.2-1.06,2.32-1.54,3.5c-0.48,1.17-0.87,2.39-1,3.64c-0.25,1.23-0.28,2.5-0.18,3.74c0.1,1.24,0.34,2.45,0.64,3.63
				c0.35,1.17,0.74,2.32,1.24,3.41c0.5,1.09,1.12,2.13,1.9,3.03c0.71,0.95,1.53,1.8,2.41,2.56c0.88,0.77,1.8,1.45,2.74,2.11
				c1.03,0.51,2.02,1.04,3.05,1.49c1.03,0.44,2.1,0.8,3.2,0.94c2.17,0.41,4.36,0.4,6.46,0.1c1.07-0.02,2.11-0.27,3.09-0.64
				c0.98-0.36,1.9-0.84,2.78-1.33c0.9-0.47,1.72-1.05,2.49-1.67c0.77-0.62,1.49-1.27,2.23-1.9c1.34-1.38,2.54-2.88,3.25-4.58
				c0.39-0.83,0.83-1.62,1.17-2.45c0.34-0.83,0.58-1.69,0.54-2.57c0.12-0.85,0.28-1.68,0.37-2.51c0.09-0.83,0.1-1.66-0.1-2.45
				c-0.19-0.79-0.29-1.56-0.41-2.32c-0.12-0.76-0.25-1.51-0.49-2.22c-0.47-1.41-1.08-2.71-1.79-3.88c-1.59-2.63-3.63-4.58-5.6-5.93
				c-1.98-1.36-3.91-2.14-5.5-2.61c-1.6-0.47-2.88-0.64-3.74-0.74C63.74,46.08,63.29,46.05,63.29,46.01c0-0.04,0.56-0.1,1.64-0.06
				c1.07,0.05,2.69,0.21,4.68,0.84c1.99,0.63,4.37,1.75,6.69,3.73c1.15,0.98,2.28,2.18,3.29,3.59c1.01,1.42,1.89,3.06,2.54,4.91
				c0.26,0.74,0.53,1.49,0.72,2.29c0.2,0.79,0.33,1.62,0.31,2.48c0.07,0.84,0.13,1.71,0.11,2.59c-0.01,0.88-0.1,1.78-0.32,2.66
				c-0.03,0.92-0.24,1.84-0.56,2.73c-0.32,0.89-0.74,1.76-1.17,2.62c-0.86,1.75-2.07,3.35-3.41,4.92c-0.65,0.8-1.45,1.49-2.3,2.12
				c-0.86,0.62-1.77,1.18-2.7,1.75c-1.99,0.88-4.05,1.65-6.28,2.17c-1.14,0.1-2.28,0.2-3.44,0.22c-1.16,0.02-2.34-0.04-3.51-0.27
				c-1.15-0.34-2.29-0.68-3.42-1.09c-1.13-0.41-2.27-0.88-3.35-1.48c-1.08-0.6-2.09-1.36-3.02-2.21c-0.93-0.85-1.78-1.8-2.58-2.8
				c-0.76-1.03-1.46-2.12-2.05-3.29c-0.59-1.16-1.08-2.39-1.4-3.68c-0.81-2.53-1.04-5.31-0.53-8c0.28-2.72,1.27-5.39,2.72-7.78
				c0.44-0.79,0.96-1.55,1.54-2.27c0.29-0.36,0.59-0.7,0.91-1.04l0.23-0.24l0.03-0.03l0.07-0.06c-0.01-0.02-0.04-0.04-0.06-0.07
				l-0.04-0.03l-0.25-0.21c-0.36-0.29-0.73-0.57-1.11-0.83c-0.55-0.37-1.1-0.72-1.67-1.06c-0.29-0.17-0.58-0.33-0.87-0.48
				c-0.15-0.08-0.3-0.15-0.44-0.22l-0.1-0.05l-0.05-0.03l-0.01-0.01l-0.05-0.03l-0.06-0.03c-0.01,0-0.02-0.01-0.03-0.01l-0.02,0.02
				l-0.04,0.04l-0.06,0.06c-0.01,0-0.08,0.09-0.13,0.15l-0.17,0.19c-0.11,0.13-0.22,0.26-0.32,0.39c-0.42,0.53-0.8,1.1-1.13,1.7
				c-1.52,2.25-2.79,4.73-3.52,7.41c-0.81,2.65-1.19,5.47-1,8.29c-0.08,1.42,0.07,2.84,0.38,4.24c0.31,1.39,0.79,2.75,1.36,4.06
				c1.11,2.63,2.55,5.1,4.35,7.28c1.84,2.13,3.99,3.97,6.35,5.41c1.21,0.68,2.43,1.32,3.69,1.86c1.26,0.54,2.57,0.96,3.91,1.21
				c1.34,0.24,2.67,0.46,4.01,0.58c1.34,0.12,2.69,0.13,4.01-0.05c2.65-0.33,5.19-1.01,7.63-1.9c1.2-0.51,2.38-1.05,3.49-1.69
				c1.12-0.65,2.17-1.4,3.06-2.31c0.95-0.84,1.79-1.79,2.59-2.74c0.8-0.96,1.56-1.92,2.39-2.84c0.64-1.06,1.27-2.1,1.82-3.19
				c0.55-1.08,1.02-2.21,1.29-3.38c0.49-1.1,0.76-2.28,0.92-3.45c0.16-1.17,0.2-2.34,0.23-3.5c0.11-2.31-0.04-4.62-0.69-6.76
				c-0.33-1.07-0.64-2.12-1-3.15c-0.36-1.03-0.78-2.03-1.3-2.96c-0.57-0.9-1.08-1.83-1.65-2.71c-0.56-0.88-1.18-1.73-1.93-2.43
				c-1.34-1.54-2.9-2.82-4.46-3.98c-0.9-0.4-1.71-0.89-2.51-1.39c-0.8-0.49-1.6-0.99-2.45-1.35c-0.84-0.38-1.72-0.61-2.58-0.83
				c-0.86-0.22-1.71-0.41-2.54-0.71c-0.88-0.01-1.71-0.11-2.54-0.22c-0.83-0.1-1.64-0.22-2.45-0.25c-0.81-0.03-1.6,0.04-2.37,0.14
				c-0.77,0.1-1.52,0.22-2.27,0.28c-0.72,0.24-1.43,0.38-2.13,0.53c-0.7,0.15-1.39,0.31-2.02,0.58c-0.67,0.18-1.29,0.43-1.88,0.72
				c-0.15,0.07-0.29,0.14-0.44,0.22l-0.21,0.11l-0.13,0.07c-0.17,0.09-0.33,0.18-0.5,0.26c-0.04,0.03-0.09,0.06-0.13,0.09
				l-0.07,0.04l-0.03,0.02c-0.01,0,0,0.01,0.01,0.01l0.02,0.01c0.28,0.15,0.52,0.3,0.75,0.46c0.09,0.07,0.18,0.13,0.27,0.19
				c0.1,0.07,0.2,0.15,0.3,0.22c0.19,0.15,0.38,0.3,0.57,0.46c0.9,0.69,1.7,1.39,2.41,2.08c0.24,0.23,0.46,0.46,0.68,0.68
				c0.11,0.11,0.21,0.23,0.31,0.34c0.05,0.06,0.1,0.11,0.15,0.17l0.07,0.08l0.04,0.04l0,0c0.32,0.04-0.44-0.06-0.36-0.05l0,0v0l0,0
				l0.01,0l0.01-0.01l0.02-0.01l0.03-0.02l0.02-0.01c2.23-0.82,4.06-1.04,5.28-1.12C62.66,45.89,63.29,45.97,63.29,46.01z"/>
		</g>
		<g id="XMLID_22390_">
			<path d="M36.7,84.9c0-0.05,0.64-0.07,1.84-0.23c0.6-0.08,1.34-0.2,2.21-0.41c0.43-0.1,0.89-0.23,1.38-0.38
				c0.24-0.08,0.49-0.16,0.75-0.25c0.06-0.02,0.13-0.05,0.19-0.07c0.08-0.03,0.16-0.06,0.24-0.1c0.16-0.08,0.32-0.17,0.49-0.27
				c0.01,0,0.02,0,0.03,0l0.02,0.02l0.05,0.05l0.09,0.1c0.06,0.07,0.13,0.13,0.19,0.2c0.06,0.07,0.13,0.13,0.19,0.2
				c0.06,0.06,0.12,0.12,0.18,0.18c0.22,0.21,0.44,0.43,0.68,0.64c0.71,0.65,1.51,1.32,2.41,1.96c0.19,0.14,0.39,0.27,0.6,0.41
				c0.1,0.07,0.21,0.13,0.31,0.2c0.12,0.08,0.24,0.15,0.36,0.23c0.57,0.37,1.25,0.75,1.89,1.13c0,0,0,0.01,0,0.01l-0.02,0.01
				l-0.04,0.02c-0.03,0.02-0.06,0.03-0.09,0.05c-0.06,0.03-0.13,0.06-0.19,0.1l0,0c-0.08,0.04-0.18,0.09-0.27,0.14
				c-0.45,0.2-0.81,0.39-1.19,0.6c-0.09,0.05-0.19,0.11-0.29,0.16c-0.08,0.04-0.16,0.09-0.24,0.14c-0.14,0.08-0.29,0.17-0.44,0.25
				c-0.59,0.33-1.21,0.65-1.92,0.79c-1.35,0.44-2.76,0.9-4.27,1.24c-1.52,0.34-3.14,0.38-4.81,0.52c-0.84,0.15-1.7,0.04-2.56-0.1
				c-0.86-0.14-1.73-0.31-2.64-0.3c-1.79-0.25-3.6-0.79-5.38-1.53c-0.85-0.46-1.73-0.88-2.61-1.32c-0.88-0.44-1.77-0.92-2.62-1.49
				c-1.53-1.37-3.15-2.64-4.73-4.12c-1.18-1.83-2.46-3.54-3.81-5.37c-1.08-1.99-1.79-4.19-2.49-6.43c-0.58-2.28-0.9-4.69-0.78-7.14
				c-0.17-2.45,0.24-5,1.17-7.36c0.51-2.5,1.72-4.87,3.27-6.99c0.78-1.06,1.53-2.13,2.38-3.16c0.85-1.03,1.79-2,2.89-2.79
				c2.07-1.72,4.39-3.24,6.96-4.29c2.6-0.99,5.33-1.56,8.13-2.05c2.82-0.32,5.75-0.23,8.56,0.54c1.45,0.19,2.87,0.59,4.23,1.16
				c1.36,0.56,2.66,1.28,3.89,2.11c1.28,0.75,2.47,1.65,3.59,2.63c1.12,0.98,2.17,2.05,3.2,3.15c0.96,1.16,1.86,2.37,2.65,3.67
				c0.8,1.29,1.48,2.67,1.98,4.11c1.04,2.88,1.57,5.87,1.84,8.87c0.14,1.5,0.06,3.01-0.15,4.49c-0.21,1.48-0.56,2.93-0.94,4.35
				c-0.53,1.38-1.04,2.76-1.64,4.09c-0.6,1.33-1.28,2.63-2.15,3.8c-0.36,0.53-0.74,1.04-1.15,1.53c-0.2,0.25-0.41,0.49-0.62,0.72
				l-0.42,0.46l-0.14,0.15c-0.05,0.03-0.11,0.04-0.17,0.05l-0.17,0.05c-0.06,0.02-0.12,0.03-0.16,0.05
				c-0.07,0.04-0.17,0.05-0.26,0.08l-0.3,0.07c-0.15-0.06-0.29-0.12-0.44-0.19l-0.21-0.09l-0.13-0.06c-0.17-0.08-0.33-0.16-0.5-0.24
				c-0.33-0.16-0.66-0.33-0.98-0.51c-0.65-0.35-1.28-0.73-1.9-1.12c-0.84-0.57-1.64-1.2-2.38-1.89l-0.86-0.8l1.04-0.59l0.2-0.11
				l0.04-0.02l0.01,0c0,0,0.01-0.01,0.01-0.01l0.17-0.18l0.2-0.21c0.13-0.14,0.26-0.28,0.39-0.42c0.25-0.28,0.5-0.57,0.74-0.87
				c0.48-0.59,0.92-1.2,1.34-1.83c0.51-1.2,1.07-2.32,1.55-3.5c0.48-1.17,0.88-2.39,1.01-3.64c0.25-1.23,0.29-2.5,0.19-3.74
				c-0.1-1.24-0.33-2.45-0.63-3.64c-0.35-1.17-0.74-2.32-1.24-3.42c-0.5-1.1-1.12-2.14-1.9-3.04c-0.7-0.95-1.53-1.81-2.4-2.57
				c-0.88-0.77-1.8-1.45-2.74-2.11c-1.02-0.52-2.02-1.05-3.05-1.49c-1.03-0.45-2.1-0.8-3.2-0.94c-2.17-0.41-4.37-0.41-6.46-0.11
				c-1.07,0.02-2.11,0.27-3.09,0.63c-0.98,0.36-1.9,0.84-2.79,1.33c-0.9,0.47-1.72,1.05-2.49,1.67c-0.77,0.62-1.49,1.27-2.23,1.89
				c-1.35,1.38-2.55,2.88-3.26,4.58c-0.39,0.83-0.83,1.62-1.17,2.45c-0.34,0.83-0.58,1.69-0.54,2.57c-0.12,0.85-0.29,1.68-0.38,2.51
				c-0.09,0.83-0.1,1.67,0.1,2.46c0.19,0.79,0.29,1.56,0.41,2.32c0.12,0.76,0.25,1.51,0.49,2.22c0.47,1.42,1.08,2.71,1.79,3.88
				c1.59,2.63,3.63,4.58,5.6,5.93c1.98,1.36,3.91,2.14,5.5,2.62c1.6,0.47,2.88,0.64,3.74,0.74C36.26,84.83,36.7,84.86,36.7,84.9
				c0,0.04-0.56,0.1-1.64,0.06c-1.08-0.05-2.69-0.21-4.69-0.85c-1.99-0.63-4.37-1.75-6.69-3.73c-1.16-0.98-2.28-2.18-3.29-3.6
				c-1.01-1.42-1.89-3.06-2.54-4.91c-0.26-0.74-0.53-1.49-0.72-2.29c-0.2-0.79-0.33-1.63-0.31-2.48c-0.07-0.84-0.13-1.71-0.11-2.59
				c0.01-0.88,0.1-1.78,0.33-2.67c0.03-0.92,0.24-1.84,0.56-2.73c0.32-0.89,0.74-1.76,1.18-2.62c0.86-1.75,2.08-3.35,3.41-4.91
				c0.65-0.8,1.45-1.49,2.31-2.12c0.86-0.62,1.77-1.18,2.7-1.74c1.99-0.88,4.06-1.64,6.28-2.16c1.14-0.1,2.28-0.19,3.44-0.21
				c1.16-0.01,2.34,0.05,3.51,0.27c1.15,0.34,2.29,0.69,3.42,1.1c1.13,0.4,2.26,0.88,3.35,1.48c1.08,0.61,2.09,1.37,3.01,2.22
				c0.93,0.86,1.78,1.8,2.58,2.81c0.76,1.04,1.45,2.13,2.04,3.29c0.59,1.16,1.08,2.4,1.4,3.68c0.8,2.53,1.03,5.31,0.51,8
				C56.47,70.95,55.47,73.61,54,76c-0.4,0.72-0.87,1.4-1.38,2.05c-0.26,0.33-0.52,0.64-0.8,0.95c-0.14,0.15-0.28,0.31-0.43,0.46
				l-0.22,0.22l-0.25,0.25c-0.06,0.05-0.12,0.1-0.18,0.14l-0.1,0.06l-0.07,0.04l-0.23,0.13c0.06-0.46,0.12-0.92,0.18-1.38
				c0.66,0.64,1.38,1.24,2.15,1.77c0.56,0.38,1.13,0.74,1.71,1.08c0.29,0.17,0.59,0.34,0.89,0.5c0.15,0.08,0.3,0.16,0.46,0.23
				l0.12,0.06c0.03,0.01,0.02,0.01,0.04,0.02l0.05,0.03l0.04,0.02c0.01,0,0.03,0.03,0.04,0.01l0.08-0.07l0.02-0.02
				c0.01-0.01,0.01-0.01,0.04-0.04l0.15-0.17c0.19-0.23,0.38-0.46,0.57-0.7c0.36-0.48,0.7-0.98,0.99-1.5
				c1.52-2.25,2.8-4.72,3.54-7.41c0.81-2.65,1.2-5.47,1.01-8.29c0.08-1.42-0.06-2.84-0.37-4.24c-0.31-1.39-0.78-2.75-1.35-4.07
				c-1.11-2.63-2.54-5.11-4.34-7.29c-1.84-2.14-3.99-3.98-6.35-5.42c-1.21-0.68-2.43-1.32-3.69-1.86c-1.26-0.54-2.57-0.97-3.91-1.21
				c-1.34-0.24-2.67-0.46-4.02-0.58c-1.34-0.12-2.69-0.13-4.02,0.05c-2.65,0.32-5.19,1.01-7.64,1.9c-1.2,0.51-2.38,1.05-3.5,1.69
				c-1.12,0.65-2.17,1.4-3.06,2.31c-0.96,0.84-1.79,1.79-2.59,2.74c-0.8,0.96-1.56,1.92-2.4,2.84c-0.64,1.06-1.27,2.1-1.83,3.19
				c-0.55,1.08-1.02,2.21-1.29,3.38c-0.49,1.1-0.76,2.27-0.92,3.45c-0.16,1.17-0.2,2.34-0.23,3.5c-0.11,2.31,0.05,4.62,0.69,6.76
				c0.33,1.07,0.64,2.12,1,3.15c0.36,1.03,0.78,2.03,1.3,2.97c0.58,0.9,1.09,1.83,1.65,2.71c0.56,0.88,1.18,1.73,1.93,2.43
				c1.34,1.54,2.9,2.82,4.46,3.98c0.91,0.4,1.71,0.89,2.52,1.39c0.8,0.49,1.6,0.99,2.45,1.35c0.84,0.38,1.72,0.61,2.59,0.83
				c0.87,0.22,1.71,0.41,2.54,0.71c0.88,0.01,1.71,0.11,2.54,0.22c0.83,0.1,1.65,0.21,2.46,0.24c0.81,0.03,1.6-0.04,2.37-0.14
				c0.77-0.1,1.52-0.22,2.27-0.28c0.71-0.24,1.43-0.38,2.13-0.53c0.7-0.15,1.39-0.31,2.02-0.58c1.29-0.33,2.68-1.14,3.13-1.37
				c0.03-0.02,0.07-0.04,0.1-0.06l0,0l0.07-0.04l0.03-0.02l0.02-0.01l0.01,0c0,0-0.01,0-0.01-0.01c-0.3-0.16-0.53-0.3-0.78-0.48
				c-0.09-0.06-0.18-0.13-0.27-0.19c-0.1-0.08-0.21-0.15-0.31-0.23c-0.2-0.15-0.39-0.31-0.58-0.47c-0.9-0.69-1.7-1.39-2.41-2.09
				c-0.23-0.23-0.46-0.46-0.67-0.68c-0.05-0.05-0.09-0.1-0.14-0.15c-0.04-0.04-0.08-0.08-0.11-0.12c-0.04-0.04-0.07-0.08-0.11-0.12
				l-0.05-0.06l-0.03-0.03l-0.01-0.01c-0.01,0-0.01,0.01-0.02,0.01c-0.09,0.05-0.18,0.09-0.28,0.13c-0.12,0.04-0.24,0.08-0.36,0.12
				c-0.27,0.08-0.53,0.16-0.78,0.23c-0.51,0.14-0.98,0.24-1.43,0.33c-0.89,0.17-1.65,0.25-2.27,0.28
				C37.34,85.02,36.7,84.94,36.7,84.9z"/>
		</g>
		<g id="XMLID_22389_">
			<path d="M63.3,13.52c-0.05,0.02-0.22-0.21-0.52-0.66c-0.31-0.45-0.73-1.13-1.37-1.92c-0.21-0.27-0.46-0.53-0.72-0.81
				c-0.15-0.12-0.29-0.26-0.44-0.39c-0.08-0.06-0.16-0.13-0.24-0.19l-0.12-0.1c-0.04-0.03-0.08-0.06-0.12-0.1
				c-0.13-0.18-0.34-0.26-0.56-0.32C59.11,9.01,59,8.97,58.9,8.92c-0.1-0.04-0.2-0.11-0.28-0.2c-0.05-0.03-0.1-0.06-0.15-0.09
				c-0.05-0.02-0.11-0.05-0.16-0.07c-0.11-0.04-0.22-0.08-0.34-0.12c-0.12-0.03-0.24-0.05-0.36-0.07c-0.06-0.01-0.12-0.02-0.18-0.03
				c-0.06-0.01-0.13-0.01-0.19-0.02c-0.13-0.01-0.25-0.03-0.38-0.06c-0.13-0.02-0.26-0.04-0.39-0.06c-0.26-0.05-0.54-0.05-0.82,0
				c-0.14,0.06-0.28,0.09-0.41,0.08c-0.14,0-0.28-0.03-0.43-0.06c-0.14-0.02-0.29-0.02-0.43,0c-0.07,0.01-0.14,0.03-0.21,0.06
				c-0.07,0.03-0.14,0.07-0.2,0.13c-0.27,0.12-0.56,0.18-0.84,0.3c-0.14,0.05-0.28,0.1-0.43,0.15c-0.14,0.06-0.28,0.13-0.42,0.19
				c-0.08,0.01-0.16,0.03-0.24,0.05c-0.07,0.03-0.15,0.06-0.22,0.1c-0.14,0.08-0.28,0.16-0.4,0.26c-0.24,0.22-0.47,0.45-0.69,0.69
				c-0.08,0.03-0.16,0.07-0.24,0.11c-0.08,0.04-0.15,0.09-0.21,0.14c-0.13,0.11-0.25,0.23-0.35,0.36c-0.11,0.13-0.18,0.29-0.26,0.45
				c-0.04,0.08-0.08,0.16-0.11,0.23c-0.03,0.08-0.06,0.17-0.08,0.25c-0.16,0.1-0.31,0.22-0.43,0.36c-0.11,0.14-0.2,0.3-0.28,0.46
				c-0.08,0.16-0.1,0.35-0.12,0.53c-0.01,0.09-0.02,0.19-0.02,0.28c0.01,0.1,0.02,0.19,0.04,0.29c-0.02,0.09-0.04,0.17-0.07,0.26
				c-0.03,0.09-0.06,0.17-0.07,0.26c-0.04,0.18-0.07,0.36-0.11,0.53c-0.03,0.18-0.03,0.37-0.04,0.55c0,0.09,0,0.19,0.01,0.28
				c0.01,0.1,0.03,0.19,0.05,0.29c0.04,0.76,0.2,1.53,0.32,2.32c0.4,0.73,0.63,1.49,0.76,2.34c0.53,0.69,0.82,1.48,1.12,2.31
				c0.3,0.84,1.07,1.42,1.41,2.27c0.5,0.76,1.1,1.47,1.64,2.23c0.5,0.8,1.01,1.62,1.82,2.2c0.68,0.69,1.39,1.37,1.96,2.18
				c0.86,0.55,1.46,1.35,2.07,2.18c0.73,0.7,1.32,1.56,2.15,2.19c0.63,0.7,1.81,1.65,1.6,1.61l0,0c0.03,0,0.08-0.02,0.13-0.05
				l0.04-0.02l0.01-0.01l0.04-0.03l0.07-0.07l0.28-0.27c0.38-0.36,0.73-0.74,1.03-1.16c0.61-0.85,1.49-1.41,2.15-2.19
				c0.88-0.56,1.33-1.51,2.07-2.18c0.65-0.75,1.43-1.37,1.96-2.18c0.59-0.76,1.16-1.53,1.82-2.2c0.27-0.97,1.19-1.43,1.64-2.23
				c0.65-0.67,0.96-1.53,1.41-2.27c0.35-0.8,0.96-1.47,1.12-2.31c0.34-0.77,0.44-1.6,0.76-2.34c-0.01-0.21,0.02-0.4,0.06-0.6
				c0.03-0.19,0.08-0.38,0.14-0.57c0.09-0.38,0.18-0.77,0.12-1.15l0.01-0.29c0-0.09-0.01-0.18-0.01-0.28
				c-0.01-0.18-0.01-0.37-0.04-0.54c-0.03-0.18-0.05-0.36-0.07-0.54c-0.02-0.18-0.07-0.35-0.1-0.53c0.01-0.1,0.02-0.19,0.02-0.28
				c-0.01-0.09-0.03-0.18-0.05-0.27c-0.05-0.17-0.1-0.35-0.19-0.5c-0.09-0.15-0.19-0.3-0.28-0.45c-0.1-0.15-0.21-0.28-0.3-0.42
				c-0.04-0.07-0.08-0.15-0.13-0.22c-0.05-0.07-0.11-0.13-0.16-0.2c-0.11-0.12-0.22-0.26-0.33-0.37c-0.12-0.12-0.23-0.23-0.34-0.36
				c-0.05-0.07-0.1-0.13-0.15-0.19c-0.05-0.06-0.1-0.13-0.14-0.21c-0.22-0.24-0.47-0.45-0.71-0.66c-0.13-0.1-0.26-0.18-0.4-0.26
				c-0.07-0.04-0.14-0.08-0.21-0.11c-0.07-0.03-0.15-0.05-0.23-0.07c-0.14-0.06-0.27-0.14-0.4-0.24c-0.13-0.09-0.26-0.18-0.39-0.26
				c-0.26-0.18-0.57-0.26-0.89-0.14c-0.07-0.01-0.14-0.02-0.22-0.04c-0.07-0.01-0.14-0.03-0.21-0.05c-0.14-0.04-0.28-0.1-0.42-0.14
				c-0.14-0.03-0.28-0.06-0.42-0.06c-0.14,0-0.28,0.01-0.42,0.09c-0.28,0.13-0.54,0.12-0.81,0.12c-0.13,0-0.27-0.02-0.4-0.03
				c-0.13,0-0.26,0.01-0.38,0.03c-0.06,0.01-0.13,0.02-0.19,0.03c-0.06,0.02-0.12,0.03-0.18,0.04c-0.12,0.03-0.24,0.06-0.36,0.09
				c-0.11,0.04-0.23,0.08-0.34,0.11c-0.06,0.02-0.11,0.04-0.17,0.06c-0.06,0.02-0.11,0.05-0.16,0.07c-0.12,0.05-0.24,0.1-0.35,0.16
				C67.5,8.94,67.39,9,67.28,9.06c-0.05,0.03-0.11,0.06-0.16,0.09c-0.05,0.04-0.1,0.07-0.15,0.1c-0.1,0.07-0.2,0.14-0.29,0.2
				c-0.37,0.29-0.7,0.58-0.99,0.89c-0.57,0.61-1,1.2-1.34,1.69c-0.17,0.24-0.31,0.46-0.44,0.65c-0.13,0.19-0.23,0.35-0.32,0.48
				c-0.17,0.26-0.28,0.38-0.32,0.36c-0.04-0.02,0.01-0.21,0.15-0.57c0.14-0.36,0.38-0.88,0.73-1.53c0.1-0.16,0.2-0.33,0.31-0.51
				c0.1-0.18,0.24-0.36,0.37-0.55c0.13-0.19,0.29-0.38,0.44-0.58c0.08-0.1,0.17-0.19,0.26-0.29c0.09-0.1,0.18-0.2,0.28-0.3
				c0.39-0.39,0.87-0.76,1.43-1.09c0.56-0.32,1.22-0.56,1.92-0.72c0.14-0.03,0.28-0.07,0.42-0.12c0.14-0.04,0.29-0.07,0.44-0.1
				c0.3-0.07,0.6-0.08,0.91,0c0.15-0.01,0.31,0,0.47-0.01c0.16-0.01,0.32-0.01,0.48-0.02c0.16,0.01,0.33,0.03,0.49,0.05
				c0.08,0.01,0.16,0.03,0.24,0.05c0.08,0.02,0.16,0.04,0.24,0.08c0.36-0.04,0.71,0.01,1.03,0.17c0.16,0.07,0.32,0.15,0.48,0.23
				c0.15,0.09,0.31,0.19,0.47,0.27c0.08,0.04,0.16,0.08,0.24,0.12c0.08,0.05,0.15,0.1,0.23,0.15c0.15,0.1,0.31,0.2,0.46,0.3
				c0.29,0.23,0.61,0.43,0.92,0.66c0.08,0.05,0.16,0.1,0.24,0.16c0.08,0.06,0.15,0.12,0.22,0.19c0.13,0.14,0.26,0.3,0.38,0.45
				c0.12,0.16,0.22,0.33,0.34,0.49c0.06,0.08,0.12,0.16,0.18,0.24c0.06,0.08,0.12,0.16,0.18,0.24c0.3,0.77,0.64,1.48,1.02,2.26
				c0.01,0.22,0.06,0.42,0.09,0.64c0.03,0.21,0.07,0.42,0.12,0.63c0.04,0.21,0.06,0.43,0.09,0.65c0.01,0.11,0.03,0.22,0.03,0.33
				c0,0.11,0,0.21,0,0.32c-0.13,0.43-0.19,0.85-0.22,1.29c-0.02,0.22-0.03,0.44-0.03,0.66c-0.02,0.22-0.04,0.44-0.05,0.67
				c-0.11,0.89-0.51,1.72-0.78,2.58c-0.38,0.83-0.68,1.7-1.17,2.5c-0.34,0.87-0.8,1.71-1.46,2.42c-0.46,0.83-1.08,1.58-1.68,2.34
				c-0.52,0.83-1.23,1.52-1.85,2.28c-0.61,0.79-1.51,1.31-1.98,2.24c-0.66,0.76-1.41,1.45-2.08,2.22c-0.74,0.71-1.48,1.42-2.16,2.21
				c-0.46,0.27-0.85,0.62-1.2,1.01c-0.54,0.61-1.08,1.22-1.63,1.83l0,0c-1.7-1.58-2.06-2-2.83-2.84c-0.75-0.72-1.46-1.46-2.16-2.21
				c-0.77-0.68-1.32-1.56-2.08-2.22c-0.77-0.66-1.25-1.57-1.98-2.24c-0.7-0.7-1.36-1.43-1.85-2.28c-0.6-0.77-0.95-1.69-1.68-2.34
				c-0.58-0.75-1.34-1.41-1.46-2.42c-0.53-0.78-0.68-1.72-1.17-2.5c-0.03-0.23-0.06-0.46-0.13-0.68c-0.07-0.21-0.14-0.43-0.22-0.64
				c-0.08-0.21-0.17-0.41-0.24-0.63c-0.07-0.21-0.15-0.42-0.19-0.64c-0.15-0.88-0.16-1.75-0.31-2.61c-0.02-0.11-0.03-0.21-0.04-0.32
				c-0.01-0.11,0-0.22,0-0.33c0.02-0.22,0.03-0.44,0.07-0.66c0.05-0.21,0.09-0.42,0.14-0.64c0.02-0.11,0.05-0.21,0.08-0.31
				c0.03-0.1,0.05-0.21,0.07-0.31c0.01-0.11,0.02-0.21,0.04-0.32c0.03-0.1,0.07-0.2,0.11-0.3c0.09-0.19,0.17-0.39,0.28-0.56
				c0.11-0.18,0.22-0.35,0.32-0.53c0.1-0.18,0.2-0.35,0.26-0.55c0.06-0.08,0.11-0.17,0.17-0.25l0.18-0.24
				c0.12-0.16,0.23-0.32,0.36-0.47c0.13-0.15,0.26-0.29,0.4-0.44c0.06-0.07,0.14-0.14,0.21-0.2c0.08-0.06,0.15-0.12,0.23-0.18
				c0.15-0.41,0.48-0.63,0.81-0.82c0.17-0.08,0.36-0.14,0.53-0.21c0.09-0.03,0.17-0.07,0.26-0.1c0.09-0.03,0.17-0.06,0.26-0.1
				c0.17-0.07,0.33-0.15,0.48-0.24c0.16-0.08,0.32-0.16,0.48-0.24c0.31-0.17,0.66-0.24,1.02-0.19c0.07-0.06,0.15-0.1,0.23-0.13
				c0.08-0.03,0.16-0.06,0.24-0.08c0.16-0.04,0.33-0.06,0.5-0.06c0.17,0.01,0.33,0.03,0.49,0.05c0.16,0.02,0.32,0.04,0.47,0.07
				c0.31,0.05,0.61,0.02,0.91,0.04c0.15,0.01,0.3,0.01,0.44,0.04c0.14,0.03,0.29,0.08,0.42,0.14c0.08-0.01,0.15-0.02,0.22-0.01
				c0.07,0.01,0.14,0.02,0.21,0.04c0.14,0.04,0.27,0.09,0.4,0.15c0.12,0.07,0.24,0.14,0.37,0.2c0.06,0.03,0.12,0.06,0.18,0.08
				c0.06,0.03,0.12,0.06,0.19,0.08c0.11,0.09,0.21,0.16,0.33,0.22c0.11,0.06,0.22,0.13,0.33,0.19c0.22,0.11,0.43,0.24,0.61,0.4
				c0.05,0.03,0.1,0.06,0.15,0.09c0.05,0.04,0.09,0.07,0.14,0.11c0.09,0.07,0.18,0.15,0.26,0.22c0.16,0.16,0.29,0.33,0.41,0.5
				c0.27,0.32,0.5,0.62,0.7,0.92c0.59,0.89,0.93,1.63,1.16,2.13C63.27,13.22,63.35,13.5,63.3,13.52z"/>
		</g>
		<g id="XMLID_22388_">
			<path d="M75.66,16.51c-0.11,0-0.21-0.09-0.31-0.23c-0.02-0.02-0.03-0.05-0.05-0.08c-0.03-0.03-0.06-0.05-0.05-0.09
				c0.14-0.05-0.26-0.04-0.05-0.09c0.06-0.04-0.01-0.07-0.06-0.1c-0.05-0.03,0.08-0.09-0.06-0.11c-0.27,0.01,0.29-0.13-0.06-0.12
				c-0.08-0.03-0.06-0.08-0.06-0.12c0.19-0.09-0.02-0.09-0.07-0.13c0.23-0.11,0.11-0.13-0.07-0.13c0.32-0.14,0.26-0.19-0.07-0.14
				c-0.03-0.04,0.08-0.14-0.08-0.14c-0.04-0.04-0.12-0.07-0.08-0.14c-0.23,0.04-0.25-0.01-0.09-0.14c-0.25,0.05-0.18-0.04-0.09-0.15
				c0.1-0.12-0.24,0-0.1-0.15c-0.02-0.06-0.11-0.07-0.11-0.15c0.05-0.1,0.12-0.23-0.11-0.15c-0.09-0.02-0.19-0.01-0.12-0.14
				c-0.25,0.11-0.19-0.01-0.12-0.15c-0.08-0.02,0.02-0.19-0.13-0.14c-0.02-0.08-0.17-0.02-0.13-0.15c0.01-0.1,0.01-0.2-0.15-0.13
				c-0.16,0.08-0.05-0.14-0.14-0.14c0.1-0.23-0.15-0.01-0.15-0.12C73.08,13.17,73.13,13,73,13.07c-0.08,0-0.15,0.01-0.15-0.11
				c-0.25,0.29-0.05-0.15-0.15-0.11c0.03-0.17-0.12-0.04-0.15-0.1c-0.08,0.04-0.03-0.21-0.15-0.09c-0.04-0.05-0.15,0.06-0.14-0.09
				c-0.12,0.16-0.05-0.19-0.14-0.08c-0.05-0.02-0.1-0.03-0.14-0.08c0.04-0.3-0.08-0.08-0.14-0.07c-0.04-0.04-0.14,0.14-0.13-0.07
				c-0.04-0.03-0.06-0.17-0.13-0.07c-0.05,0.03,0-0.44-0.12-0.06c-0.05,0.06-0.03-0.31-0.12-0.06c-0.08,0.23-0.07-0.04-0.11-0.06
				c-0.04-0.02-0.07-0.04-0.1-0.06c-0.3-0.15-0.49-0.3-0.49-0.46c0-0.09,0.06-0.17,0.18-0.25c0.06-0.04,0.14-0.07,0.22-0.11
				c0.04-0.02,0.09-0.03,0.15-0.05c0.05-0.01,0.11-0.02,0.16-0.03c0.05-0.01,0.12-0.21,0.15-0.02c0.05,0.01,0.13-0.14,0.16-0.01
				c0.1-0.26,0.12-0.03,0.17,0c0.06,0,0.09,0.1,0.18,0.01c0.1-0.14,0.1,0.11,0.19,0.02c0.02,0.18,0.09,0.15,0.2,0.03
				c0.01,0.18,0.14,0.01,0.21,0.04c-0.02,0.26,0.11,0.12,0.21,0.05c0.11-0.06,0.12,0.1,0.22,0.07c0.05,0.08,0.17,0.01,0.22,0.08
				c0.13-0.07,0.23-0.07,0.22,0.1c0.11-0.03,0.15,0.07,0.22,0.12c0.13-0.04,0.14,0.1,0.22,0.13c0.1,0.01-0.02,0.32,0.22,0.15
				c0.09,0.03,0.12,0.14,0.22,0.16c0.05,0.09,0.09,0.18,0.21,0.18c-0.12,0.26,0.06,0.2,0.21,0.19c0.12,0.01,0.16,0.11,0.19,0.21
				c0.08,0.05,0.13,0.13,0.18,0.21C75.29,12.8,75.19,13,75.33,13c0.15,0,0,0.21,0.15,0.22c0.12,0.03,0.2,0.08,0.13,0.23
				c0.05,0.08-0.13,0.27,0.12,0.22c0.09,0.04,0.4-0.02,0.1,0.22c0.12,0.03-0.1,0.22,0.08,0.22c-0.23,0.19,0.06,0.14,0.07,0.22
				c-0.02,0.09-0.09,0.19,0.05,0.21c0.15,0.02-0.02,0.16,0.04,0.21c0.18,0.02-0.16,0.19,0.03,0.2c-0.02,0.07,0.06,0.12,0.02,0.19
				c0.38-0.03,0.03,0.12,0.01,0.18c-0.04,0.07,0.27,0.06,0,0.17c0.29,0,0.05,0.1-0.02,0.16c-0.07,0.06,0.13,0.08-0.02,0.15
				c0.21,0.02-0.1,0.1-0.02,0.13c-0.13,0.05,0,0.08-0.03,0.12c0.05,0.03,0.03,0.07-0.04,0.11c-0.01,0.03-0.03,0.06-0.04,0.09
				C75.86,16.42,75.76,16.51,75.66,16.51z"/>
		</g>
	</g>
</g>
</svg>
