<?xml version="1.0" encoding="utf-8"?>
<!-- Generator: Adobe Illustrator 26.3.1, SVG Export Plug-In . SVG Version: 6.00 Build 0)  -->
<svg version="1.1" id="Capa_1" xmlns="http://www.w3.org/2000/svg" xmlns:xlink="http://www.w3.org/1999/xlink" x="0px" y="0px"
	 viewBox="0 0 100 100" style="enable-background:new 0 0 100 100; fill: #ffffff;" xml:space="preserve">
<style type="text/css">
	.st0{fill:none;}
</style>
<g>
	<g id="XMLID_21196_">
		<g id="XMLID_21206_">
			<path d="M50.08,20.37c-0.04,0.06-0.55-0.32-1.63-0.79c-0.54-0.23-1.23-0.48-2.07-0.64c-0.84-0.16-1.83-0.24-2.94-0.14
				c-0.74,0.06-1.53,0.21-2.34,0.44c-0.82,0.24-1.66,0.58-2.52,0.99c-0.46,0.15-0.87,0.44-1.26,0.75c-0.11,0.09-0.16,0.13-0.21,0.18
				c-0.05,0.05-0.1,0.09-0.15,0.13c-0.1,0.08-0.22,0.16-0.42,0.27c-0.08,0.06-0.15,0.13-0.2,0.22c-0.03,0.04-0.03,0.1,0.01,0.12
				c0.04,0.02,0.09,0.01,0.14,0.01c0.19-0.02,0.39-0.01,0.58,0.06c0.03,0.01,0.08,0.03,0.12,0.05l0.07,0.03l0.03,0.02
				c0.01,0.01,0.03,0.02,0.04,0.03c0.13,0.09,0.26,0.18,0.36,0.3c0.05,0.06,0.11,0.11,0.16,0.17l0.13,0.19l0.07,0.1
				c0.02,0.03,0.04,0.07,0.05,0.1l0.1,0.2c0.29,0.64,0.32,1.31,0.32,1.95c0,0.16-0.01,0.32-0.01,0.49
				c-0.01,0.16-0.02,0.32-0.03,0.49l-0.01,0.25l-0.02,0.24c-0.01,0.16-0.02,0.33-0.03,0.49c0,0.06,0.01,0.11,0.01,0.17l-0.2,0.01
				c0.02,0.01,0.04,0.01,0.06,0.01c0.01,0,0.02,0,0.03,0c0.02,0,0.04,0,0.06,0c0.02,0,0.04,0,0.05,0l0.01,0l0,0v0
				c0,0,0.01,0.01,0.01,0.01l0.02,0.04c0.01,0.02,0.02,0.04,0.03,0.06c0.04,0.09,0.11,0.2,0.18,0.32c0.14,0.24,0.31,0.51,0.48,0.77
				c0.35,0.53,0.73,1.06,1.27,1.49c0.92,1.05,1.76,2.28,2.4,3.67c0.23,0.73,0.51,1.45,0.74,2.21c0.24,0.75,0.42,1.55,0.47,2.37
				c-0.1,0.83-0.2,1.64-0.35,2.46c-0.14,0.82-0.33,1.65-0.6,2.47c-1,1.43-1.88,2.84-2.77,4.4c-0.14,0.17-0.29,0.34-0.43,0.5
				c-0.15,0.16-0.3,0.33-0.46,0.48l-0.23,0.24c-0.03,0.03-0.02,0.02-0.03,0.03l-0.02,0.02c-0.01,0.01-0.02,0.03-0.03,0.05
				c-0.09,0.19-0.19,0.38-0.28,0.57c-0.19,0.39-0.36,0.79-0.53,1.19c-0.16,0.41-0.31,0.82-0.45,1.24c-0.65,1.65-1.24,3.35-1.91,5.07
				c-0.1,0.45-0.21,0.9-0.34,1.35c-0.12,0.45-0.25,0.9-0.39,1.34c-0.14,0.45-0.3,0.89-0.47,1.33c-0.17,0.44-0.33,0.89-0.52,1.33
				c-0.32,1.89-0.9,3.74-1.51,5.61c-0.29,0.94-0.46,1.92-0.65,2.9c-0.17,0.99-0.31,1.98-0.61,2.95c-0.22,0.99-0.36,2-0.52,3.01
				c-0.15,1.01-0.33,2.03-0.46,3.06c-0.18,1.02-0.36,2.06-0.51,3.1c-0.1,1.05-0.16,2.1-0.14,3.17c-0.08,1.06-0.07,2.13-0.1,3.2
				c-0.01,0.27-0.02,0.54-0.03,0.81l-0.02,0.4l-0.01,0.1l0,0.01l0,0.02l-0.01,0.05l-0.01,0.03l0,0.02c0,0,0.01,0,0.01,0.01
				c0.02,0.01,0.05,0.02,0.09,0.04l0.02-0.01c0,0,0.02,0,0.03-0.01l0.05-0.01l0.21-0.02l0.41-0.04c0.27-0.02,0.55-0.04,0.83-0.05
				c0.55-0.02,1.1-0.03,1.65-0.02c1.1,0.01,2.22,0.08,3.33,0.15c2.23-0.04,4.48,0.14,6.75,0c2.27,0.04,4.56-0.12,6.86,0
				c2.3,0.08,4.59,0.16,6.86,0c2.27-0.17,4.52,0.07,6.75,0c2.23,0.25,4.44-0.08,6.63,0.01l0.22,0l0.06,0c0.02,0,0.05,0,0.07,0
				l0-0.07l0-0.07l0-0.04l0-0.19c0-0.27-0.01-0.54-0.01-0.81c-0.01-0.54-0.03-1.07-0.05-1.61c-0.01-0.27-0.03-0.53-0.05-0.8
				c-0.03-0.26-0.06-0.53-0.1-0.79c-0.11-1.06-0.23-2.11-0.32-3.15c-0.02-0.26-0.05-0.52-0.08-0.78c-0.03-0.26-0.06-0.52-0.09-0.78
				c-0.06-0.52-0.1-1.04-0.14-1.56c-0.16-0.5-0.26-1.01-0.35-1.52c-0.09-0.51-0.16-1.02-0.21-1.53c-0.05-0.51-0.1-1.02-0.15-1.53
				c-0.03-0.25-0.06-0.51-0.1-0.76c-0.05-0.25-0.1-0.5-0.16-0.74c-0.12-1.01-0.32-1.99-0.54-2.97c-0.25-0.97-0.51-1.93-0.71-2.89
				c-0.06-0.24-0.12-0.48-0.18-0.71c-0.06-0.24-0.12-0.47-0.18-0.71c-0.11-0.48-0.22-0.95-0.33-1.42c-0.11-0.47-0.21-0.95-0.35-1.41
				c-0.14-0.46-0.29-0.92-0.46-1.36c-0.13-0.46-0.26-0.91-0.41-1.37c-0.15-0.45-0.31-0.89-0.46-1.34c-0.15-0.44-0.3-0.89-0.44-1.33
				c-0.14-0.44-0.28-0.88-0.4-1.33c-0.2-0.42-0.36-0.85-0.51-1.28c-0.16-0.43-0.29-0.86-0.43-1.29c-0.27-0.87-0.56-1.71-0.95-2.51
				c-0.34-0.82-0.68-1.62-1.03-2.41c-0.09-0.2-0.18-0.39-0.27-0.59l-0.13-0.27c-0.01-0.01-0.01-0.03-0.02-0.04l-0.05-0.05
				c-0.15-0.16-0.3-0.32-0.45-0.49c-0.14-0.17-0.29-0.33-0.43-0.5c-0.46-0.76-0.98-1.45-1.48-2.15c-0.5-0.7-0.99-1.41-1.36-2.19
				c-0.34-0.78-0.66-1.58-0.88-2.4c-0.21-0.82-0.31-1.67-0.21-2.5c0.02-0.83,0.16-1.63,0.36-2.4c0.2-0.77,0.46-1.5,0.72-2.22
				c0.29-0.71,0.75-1.32,1.2-1.9c0.44-0.58,0.87-1.14,1.14-1.82c0.4-0.58,0.9-1.06,1.35-1.53c0.23-0.24,0.45-0.48,0.62-0.73
				c0.09-0.13,0.17-0.26,0.22-0.38c0.05-0.12,0.08-0.26,0.04-0.28c-0.04,0,0.07,0,0.09,0c0.02,0,0.05,0,0.08-0.01l-0.2-0.01
				c-0.19-0.61-0.25-1.24-0.22-1.88c0.03-0.63,0.14-1.25,0.33-1.87c0.11-0.32,0.24-0.64,0.46-0.93c0.11-0.14,0.23-0.28,0.38-0.39
				c0.14-0.12,0.31-0.22,0.45-0.28l0.05-0.03c0.02-0.01,0.02-0.01,0.03-0.01l0.06-0.02c0.04-0.01,0.08-0.02,0.12-0.03
				c0.08-0.01,0.16-0.03,0.23-0.06c0.07-0.03,0.15-0.07,0.19-0.14c0.04-0.07,0.03-0.15,0-0.22c-0.08-0.16-0.21-0.27-0.34-0.38
				l-0.1-0.08l-0.05-0.04l-0.03-0.02l-0.04-0.03c-0.11-0.07-0.23-0.14-0.35-0.21c-0.48-0.27-0.98-0.49-1.48-0.68
				c-0.99-0.38-1.96-0.64-2.88-0.8c-1.83-0.34-3.44-0.32-4.71-0.11c-1.27,0.2-2.2,0.57-2.81,0.86c-0.6,0.29-0.9,0.48-0.93,0.45
				c-0.02-0.03,0.29-0.35,1.02-0.78c0.37-0.21,0.84-0.44,1.44-0.65c0.59-0.2,1.3-0.38,2.12-0.49c1.63-0.21,3.68-0.14,5.97,0.48
				c0.57,0.16,1.16,0.35,1.75,0.59c0.3,0.12,0.6,0.26,0.89,0.42c0.15,0.08,0.3,0.16,0.46,0.26c0.19,0.13,0.39,0.26,0.57,0.41
				c0.17,0.15,0.33,0.31,0.45,0.49c0.11,0.18,0.2,0.37,0.2,0.59c0,0.11-0.03,0.22-0.08,0.31c-0.05,0.09-0.12,0.17-0.2,0.24
				c-0.15,0.13-0.35,0.23-0.57,0.31c-0.12,0.04-0.24,0.07-0.37,0.11l-0.1,0.03l-0.05,0.01l-0.03,0.01l-0.1,0.05
				c-0.06,0.03-0.11,0.07-0.16,0.11c-0.04,0.05-0.1,0.08-0.14,0.13c-0.18,0.2-0.31,0.47-0.4,0.77c-0.13,0.48-0.12,1.02-0.08,1.57
				c0.04,0.56,0.12,1.13,0.13,1.73c0-0.02-0.01-0.05-0.01-0.07c0.01,0.06,0.02,0.12,0.02,0.19c0,0.06-0.01,0.11-0.01,0.16
				c-0.03,0.31-0.14,0.49-0.22,0.67c-0.09,0.17-0.19,0.33-0.29,0.47c-0.19,0.29-0.39,0.57-0.6,0.83c-0.41,0.54-0.83,1.06-1.29,1.56
				c-0.3,0.62-0.69,1.17-1.07,1.74c-0.39,0.56-0.78,1.14-1.07,1.78c-0.28,0.64-0.53,1.3-0.7,2c-0.17,0.69-0.26,1.42-0.21,2.14
				c0.08,0.73,0.14,1.45,0.28,2.18c0.15,0.73,0.37,1.47,0.74,2.15c0.5,1.49,1.49,2.84,2.69,3.99c0.12,0.17,0.25,0.33,0.38,0.5
				c0.13,0.16,0.28,0.32,0.42,0.47l0.17,0.18c0.04,0.03,0.05,0.07,0.07,0.11l0.06,0.12l0.15,0.31c0.1,0.2,0.19,0.4,0.29,0.6
				c0.39,0.79,0.78,1.6,1.12,2.43c0.21,0.88,0.54,1.73,0.88,2.58c0.17,0.42,0.36,0.85,0.54,1.27c0.18,0.43,0.36,0.86,0.54,1.29
				c0.18,0.43,0.34,0.87,0.5,1.32c0.15,0.45,0.29,0.9,0.43,1.35c0.14,0.45,0.28,0.91,0.42,1.37c0.13,0.46,0.27,0.92,0.42,1.38
				c0.13,0.47,0.26,0.93,0.4,1.4c0.14,0.46,0.27,0.94,0.4,1.41c0.13,0.47,0.27,0.95,0.4,1.42c0.06,0.24,0.13,0.48,0.19,0.72
				c0.06,0.24,0.11,0.48,0.16,0.73c0.29,0.96,0.56,1.93,0.79,2.91c0.21,0.99,0.38,2,0.51,3.02c0.06,0.25,0.12,0.5,0.17,0.75
				c0.05,0.25,0.09,0.51,0.14,0.76c0.09,0.51,0.17,1.02,0.25,1.54c0.08,0.51,0.16,1.03,0.24,1.55c0.08,0.52,0.13,1.04,0.2,1.57
				c0.09,0.52,0.17,1.04,0.24,1.57c0.03,0.26,0.07,0.53,0.1,0.79c0.03,0.26,0.07,0.53,0.08,0.8c0.08,1.07,0.15,2.14,0.25,3.21
				c0.03,0.27,0.05,0.54,0.07,0.81c0.01,0.27,0.01,0.54,0.02,0.81c0,0.54,0,1.09,0,1.64c0,0.27,0,0.55,0.01,0.82l0.02,0.57
				l0.03,0.71l0.04,0.73l0,0.01l-0.01,0h-0.02l-0.04,0l-0.09,0l-0.18,0.01l-0.36,0.01c-0.24,0.01-0.48,0.02-0.73,0.03l-0.37,0.02
				c-0.04,0-0.05,0-0.07,0.01l-0.05,0.01l-0.1,0.01c-2.19,0.04-4.4-0.04-6.63,0.01c-2.23-0.04-4.48-0.07-6.75,0.01
				c-2.27-0.28-4.56-0.11-6.86,0c-2.3,0.08-4.59,0.04-6.86,0c-2.27,0.03-4.52,0.01-6.75-0.01c-1.12,0.04-2.23,0.01-3.33-0.01
				c-0.55-0.01-1.1-0.02-1.65-0.03c-0.28,0-0.55,0-0.83,0.01l-0.93,0.03c-0.51,0.02-1.04,0.02-1.56,0.03l-0.1,0h-0.05
				c-0.01,0-0.04,0.01-0.03-0.01l0.01-0.19l0.02-0.38l0.03-0.77l0.03-0.69l0.03-0.41c0.02-0.27,0.04-0.55,0.06-0.82
				c0.08-1.09,0.14-2.18,0.19-3.26c0.05-1.08,0.11-2.15,0.2-3.22c0.13-1.06,0.29-2.11,0.48-3.15c0.12-1.05,0.37-2.07,0.57-3.09
				c0.2-1.02,0.36-2.04,0.46-3.07c0.18-1.01,0.28-2.03,0.46-3.03c0.19-1,0.44-1.97,0.86-2.9c0.4-1.96,1.17-3.78,1.58-5.68
				c0.21-0.44,0.37-0.9,0.53-1.35c0.16-0.45,0.3-0.91,0.43-1.36c0.13-0.46,0.25-0.91,0.39-1.37c0.14-0.45,0.28-0.9,0.43-1.34
				c0.66-1.75,1.41-3.42,1.98-5.13c0.14-0.43,0.31-0.85,0.48-1.26c0.18-0.41,0.37-0.81,0.57-1.21c0.1-0.2,0.21-0.4,0.31-0.6
				c0.04-0.08,0.08-0.17,0.13-0.25l0.19-0.19l0.22-0.22c0.15-0.15,0.29-0.3,0.43-0.46c0.14-0.15,0.28-0.31,0.4-0.48
				c0.47-0.68,1-1.3,1.48-1.95c0.48-0.65,0.91-1.33,1.13-2.08c0.33-0.7,0.55-1.43,0.7-2.17c0.15-0.73,0.2-1.47,0.21-2.19
				c-0.22-0.71-0.32-1.4-0.45-2.09c-0.13-0.69-0.28-1.39-0.57-2.03c-0.28-0.65-0.68-1.22-1.09-1.77c-0.41-0.56-0.81-1.1-1.12-1.72
				c-0.51-0.43-0.93-0.91-1.32-1.43c-0.19-0.27-0.38-0.54-0.55-0.85c-0.09-0.15-0.17-0.32-0.25-0.52c-0.02-0.05-0.04-0.1-0.05-0.16
				l-0.02-0.08l-0.02-0.1c-0.02-0.13-0.03-0.31,0.03-0.49c0,0.02-0.01,0.04-0.01,0.07c0.01-0.05,0.02-0.1,0.03-0.15
				c0.03-0.15,0.06-0.3,0.08-0.46c0.01-0.08,0.02-0.15,0.03-0.23l0.01-0.23c0.01-0.15,0.01-0.3,0.02-0.45
				c0-0.15-0.01-0.29-0.01-0.44c-0.03-0.58-0.1-1.12-0.21-1.6c-0.03-0.04-0.06-0.09-0.09-0.13l-0.04-0.06l-0.05-0.05
				c-0.03-0.04-0.06-0.07-0.09-0.11c-0.03-0.04-0.06-0.06-0.09-0.1c-0.05-0.07-0.12-0.12-0.19-0.17c-0.01-0.01-0.01-0.01-0.03-0.02
				l-0.06-0.02l-0.11-0.05l-0.11-0.05c-0.01-0.01-0.05-0.01-0.08-0.01l-0.09-0.01c-0.15-0.02-0.33-0.03-0.42-0.09l-0.16-0.07
				l-0.04-0.02l-0.02-0.02l-0.05-0.03l-0.1-0.06l-0.08-0.04c-0.06-0.03-0.1-0.05-0.14-0.06c-0.04-0.02-0.09-0.02-0.14-0.07
				c-0.02-0.03-0.05-0.07-0.05-0.12c-0.01-0.05,0-0.09,0-0.13c0.03-0.16,0.1-0.3,0.18-0.45c0.2-0.26,0.48-0.5,0.76-0.72
				c0.14-0.11,0.29-0.22,0.44-0.32c0.14-0.1,0.3-0.21,0.4-0.27c0.44-0.29,0.89-0.56,1.35-0.77c0.89-0.48,1.8-0.8,2.69-0.95
				c0.87-0.21,1.7-0.33,2.48-0.37c1.17-0.06,2.21,0.08,3.08,0.29c0.87,0.22,1.57,0.52,2.1,0.81C49.65,19.88,50.1,20.34,50.08,20.37z
				"/>
		</g>
		<g id="XMLID_21203_">
			<path class="st0" d="M46.95,41.66h-3.98c0.47-1.53,0.56-2.94,0.41-4.26h3.57V41.66z M56.76,37.4c-0.16,1.31-0.06,2.73,0.41,4.26
				h-3.98V37.4H56.76z"/>
			<g>
				<path d="M56.76,37.39c0,0.11-0.18,0.21-0.5,0.3c-0.05,0.02-0.11,0.03-0.17,0.05c-0.06,0.03-0.13,0.06-0.2,0.04
					c-0.07-0.14-0.14,0.26-0.22,0.04c-0.08-0.06-0.16,0-0.25,0.04c-0.09,0.05-0.17-0.09-0.27,0.04c-0.09,0.27-0.19-0.3-0.29,0.04
					c-0.1,0.07-0.2,0.05-0.31,0.04c-0.11-0.21-0.21,0-0.32,0.03c-0.07-0.13-0.08-0.16-0.11-0.14c-0.03,0.02-0.05,0.09-0.04,0.18
					c-0.14-0.34-0.28-0.29-0.1,0.03c-0.01,0.01-0.05-0.02-0.08-0.04c-0.03-0.01-0.06-0.02-0.03,0.04c0.01,0.01,0.02,0.02,0.03,0.04
					c0.02,0.06,0.09,0.13,0.03,0.13c0.23,0.17,0.22,0.11,0.02,0.11c0.06,0.02,0.1,0.03,0.13,0.03c0.02,0.01,0.03,0,0.03,0.05
					c-0.01,0.07-0.07,0.14-0.13,0.21c-0.14,0.14,0.22,0.29,0.02,0.43c-0.01,0.15,0.06,0.29,0.02,0.44c-0.1,0.15-0.22,0.3,0.01,0.45
					c0.06,0.15,0.14,0.31,0.01,0.46c0.13,0.07,0.17,0.17,0.15,0.23c-0.01,0-0.08,0.01-0.15,0.04c0.02,0.01-0.01,0.03-0.04,0.05
					c-0.02,0.03-0.03,0.06,0.04,0.02c-0.02,0.03,0.01,0.02,0.03,0.01c0.03-0.02,0.03-0.02,0,0.03c-0.05,0.08,0,0.16,0.07,0
					c0.03-0.08,0.03-0.07,0.04-0.04l0,0.01c0.01,0,0.02,0.01,0.03,0.01c0.02,0.01,0.04,0.02,0.06,0.02c0.04,0.01,0.08,0.01,0.12,0
					c0.16,0.25,0.32-0.08,0.47,0.01c0.16-0.02,0.31,0.14,0.46,0.01c0.15-0.05,0.31-0.09,0.46,0.01c0.04-0.09,0.08-0.14,0.11-0.15
					c0-0.01,0,0.01,0.01,0.04c0.01,0.06,0.05,0.16,0.06,0.12c0.04,0.08,0.07,0.07,0.07,0.05c0.01-0.02,0-0.06,0.03-0.04
					c-0.01-0.04,0.04,0.01,0.09,0.04c0.05,0.03,0.1,0.06,0.03-0.02c0.02,0.01,0.03,0.01,0.01-0.01c-0.04-0.05-0.11-0.1,0.02-0.05
					c-0.12-0.08-0.07-0.06-0.02-0.05c0.05,0.01,0.1,0,0.02-0.04c-0.01-0.04-0.03-0.07,0.01-0.11c0.14-0.04,0.15-0.04,0.11-0.12
					c-0.04-0.06-0.11-0.11-0.13-0.17c0.01-0.13-0.21-0.22-0.02-0.36c0.01-0.12,0.13-0.25,0-0.34c-0.06-0.11,0.41-0.25,0.01-0.32
					c-0.08-0.1,0.29-0.22,0.02-0.3c-0.25-0.09,0.02-0.19,0.03-0.28c0.01-0.09,0.03-0.17,0.04-0.25c0.14-0.73,0.36-1.11,0.5-1.09
					c0.18,0.02,0.27,0.53,0.41,1.33c0.02,0.08,0.22,0.16,0.05,0.25c0,0.09,0.17,0.17,0.06,0.27c0.28,0.07,0.06,0.18,0.06,0.28
					c0.02,0.1-0.05,0.21,0.07,0.3c0.17,0.08-0.04,0.22,0.08,0.31c-0.07,0.07-0.1,0.13-0.08,0.18c0,0.01,0.01,0.03,0.02,0.04
					c0,0.01,0.01,0.01,0.02,0.02c0.01,0.01,0.02,0.03,0.02,0.04c0.03,0.05,0.08,0.09,0.13,0.15c-0.06,0.11-0.03,0.2,0.03,0.31
					c0.05,0.11,0.14,0.23,0.16,0.34c-0.12,0.07-0.12,0.15-0.05,0.27c0.06,0.11,0.17,0.26,0.27,0.42c0.13,0.22,0.12,0.36,0.15,0.52
					c-0.05,0.01-0.12,0-0.17,0.02c-0.15-0.03-0.25-0.01-0.36,0.01c-0.11,0.02-0.22,0.04-0.37,0.01c-0.16,0.12-0.46,0.16-0.78,0.02
					c-0.12,0.04-0.26,0.04-0.4,0.04c-0.07,0-0.14-0.01-0.21-0.01c-0.04-0.01-0.07-0.01-0.11-0.01c-0.15,0.1-0.3-0.01-0.46,0.01
					c-0.15,0.05-0.31-0.27-0.46,0.01c-0.16,0.04-0.32-0.04-0.47,0.01l-0.12-0.02l-0.06-0.01l-0.03,0l-0.06,0
					c-0.15,0-0.29,0.01-0.46,0.04c-0.11-0.14-0.23-0.16-0.38-0.14c-0.15,0.02-0.34,0.09-0.54,0.14c-0.17,0.04-0.33,0.05-0.47,0.05
					c0-0.17,0.02-0.36,0.05-0.54c-0.03-0.29-0.01-0.61,0.01-0.91c-0.04-0.14-0.01-0.3,0.01-0.45c0.03-0.1,0.05-0.16-0.01-0.24
					c-0.12-0.16,0.12-0.31,0.01-0.46c-0.08-0.15-0.12-0.31,0.01-0.45c0-0.15,0.25-0.3,0.02-0.44c-0.05-0.15-0.37-0.29,0.02-0.43
					c-0.05-0.07,0-0.14,0.04-0.21c0.02-0.02,0.04-0.1,0.04-0.15c0-0.06-0.01-0.12-0.05-0.19c0.14-0.1,0.15-0.2,0.11-0.32
					c-0.03-0.12-0.09-0.27-0.09-0.39c0.05-0.21,0.15-0.33,0.03-0.66c-0.01-0.03-0.02-0.05-0.02-0.07c0.06-0.04,0.19-0.02,0.32,0.01
					c0.13,0.03,0.24,0.06,0.33,0.04c0.05-0.08,0.2-0.03,0.32,0.02c0.13,0.05,0.23,0.1,0.3,0.01c0.1,0.02,0.2,0.01,0.29,0.01
					c0.09,0,0.21,0,0.25,0.02c0.11-0.38,0.22,0,0.32,0.03c0.11,0.06,0.21-0.25,0.31,0.04c0.1-0.29,0.19-0.04,0.29,0.04
					c0.09,0.08,0.18-0.12,0.27,0.04c0.08-0.2,0.17,0.11,0.25,0.04c0.08,0.13,0.15,0.01,0.22,0.04c0.07-0.05,0.14-0.03,0.2,0.04
					c0.06,0.02,0.12,0.03,0.17,0.05C56.58,37.18,56.76,37.28,56.76,37.39z"/>
			</g>
			<g>
				<path d="M46.96,41.66c-0.11,0-0.21-0.18-0.3-0.5c-0.02-0.06-0.03-0.11-0.05-0.18c-0.03-0.06-0.06-0.13-0.04-0.2
					c0.14-0.07-0.26-0.14-0.04-0.22c0.06-0.08,0-0.16-0.04-0.24c-0.05-0.08,0.09-0.17-0.04-0.27c-0.27-0.09,0.3-0.19-0.04-0.29
					c-0.07-0.1-0.05-0.2-0.04-0.31c0.21-0.1,0-0.21-0.04-0.32c0.25-0.11,0.14-0.23-0.03-0.34c0.34-0.12,0.29-0.24-0.03-0.36
					c0-0.01,0-0.04,0-0.04c0,0,0-0.01,0.01-0.02c0.01-0.01,0.02-0.02,0.03-0.03c0.01-0.02,0.01-0.05-0.07-0.05
					c-0.02-0.03-0.09-0.02-0.03-0.09c-0.15,0.09-0.2,0.14-0.16,0.09c0.02-0.02,0.05-0.07,0.1-0.13c-0.12,0.12-0.15,0.16-0.15,0.15
					c0-0.01,0.03-0.07,0.04-0.13c0.01-0.07-0.03-0.02-0.05,0.03c-0.03,0.05-0.03,0.09-0.04-0.01c-0.14-0.02-0.29,0.06-0.44,0.02
					c-0.15-0.1-0.3-0.21-0.45,0.01c-0.15,0.06-0.31,0.14-0.46,0.01c-0.23,0.26-0.12,0.15-0.21,0.01c0,0.02-0.03-0.01-0.06-0.04
					c-0.03-0.02-0.06-0.03-0.01,0.04c-0.03-0.02-0.01,0.02,0,0.04c0.02,0.02,0.02,0.03-0.03,0c-0.08-0.05-0.15,0,0,0.07
					c0.09,0.03,0.07,0.03,0.04,0.04l-0.01,0l-0.01,0l-0.01,0.02c-0.01,0.02-0.02,0.04-0.02,0.06c-0.01,0.04-0.01,0.09,0,0.13
					c-0.25,0.17,0.08,0.34-0.02,0.51c0.01,0.17-0.16,0.33-0.05,0.5c0.03,0.17,0.05,0.34-0.07,0.49c0.35,0.22-0.15,0.3-0.1,0.47
					c-0.04,0.03-0.07,0.09-0.08,0.06c-0.01,0.01,0,0.02,0,0.03c0.02,0.02,0.05,0.03,0.03,0.05c0.03,0.01-0.02,0.03-0.06,0.06
					c-0.04,0.03-0.08,0.07,0.01,0.04c-0.02,0.03,0.01,0.02,0.02,0.02c0.02,0,0.02,0-0.07,0.08l-0.01,0.01
					c0.13-0.09,0.09-0.05,0.05,0c-0.04,0.05-0.06,0.1,0.02,0.03c0.04,0,0.08-0.01,0.09,0.03c-0.06,0.15-0.02,0.16,0.01,0.13
					c0.04-0.03,0.08-0.09,0.1-0.1c0.01,0.01,0.02,0,0.03-0.01c0.01-0.01,0.01-0.01,0.02-0.02c0-0.01,0.01-0.01,0.02-0.02
					c0.06-0.02,0.11-0.02,0.17,0.08c0.11,0.02,0.22,0.15,0.32,0.04c0.1-0.04,0.21,0.43,0.31,0.04c0.1-0.07,0.19,0.3,0.29,0.04
					c0.09-0.24,0.18,0.03,0.27,0.04c0.08,0.02,0.17,0.03,0.24,0.04c0.7,0.13,1.1,0.28,1.1,0.44c0,0.18-0.5,0.34-1.34,0.48
					c-0.08,0.01-0.17,0.22-0.27,0.04c-0.09,0-0.19,0.16-0.29,0.04c-0.1,0.27-0.2,0.05-0.31,0.04c-0.11,0.01-0.21-0.07-0.32,0.04
					c-0.06,0.08-0.11,0.06-0.17,0.03c-0.01-0.01-0.04-0.01-0.06-0.02c-0.02-0.01-0.05-0.01-0.07-0.01c-0.05,0-0.09,0-0.15,0.03
					c-0.17-0.17-0.33-0.12-0.62,0.03c-0.06-0.08-0.16-0.07-0.29-0.04c-0.12,0.03-0.27,0.08-0.38,0.07c0-0.13-0.07-0.15-0.21-0.12
					c-0.13,0.02-0.33,0.1-0.5,0.14l-0.02,0c-0.02-0.07,0.03-0.2,0.08-0.33c0.05-0.13,0.1-0.25,0.1-0.35
					c0.06-0.13,0.08-0.24,0.09-0.36c0.01-0.12,0.03-0.24,0.08-0.37c-0.03-0.12-0.04-0.25-0.01-0.39c0.01-0.07,0.04-0.14,0.07-0.2
					c0.04-0.11,0.06-0.11,0.1-0.14c-0.06-0.15,0.03-0.27,0.05-0.41c-0.08-0.15,0.04-0.27,0.03-0.42c-0.03-0.14,0.29-0.27,0.02-0.43
					c-0.02-0.14,0.05-0.29,0-0.44l0.03-0.11l0.01-0.06l0-0.01v-0.03l0-0.06c-0.01-0.15-0.03-0.3-0.08-0.46
					c0.13-0.11,0.15-0.23,0.12-0.39c-0.04-0.15-0.13-0.35-0.2-0.55c-0.05-0.16-0.08-0.31-0.09-0.45c0.18,0,0.38,0.02,0.57,0.05
					c0.29-0.03,0.61-0.01,0.91,0c0.14-0.04,0.3-0.01,0.45,0.02c0.18,0.03,0.22,0.05,0.3-0.01c0.16-0.12,0.31,0.13,0.46,0.01
					c0.15-0.08,0.3-0.12,0.45,0.01c0.15,0,0.3,0.25,0.45,0.02c0.13-0.03,0.28-0.12,0.43-0.16c0.15-0.04,0.3-0.02,0.35,0.17
					c0.15-0.05,0.26,0,0.36,0.04c0.1,0.04,0.19,0.07,0.38-0.02c0,0.1,0.04,0.13,0.12,0.13c0,0.15,0.11,0.2,0.11,0.36
					c-0.06,0.28-0.15,0.53-0.03,0.7c0.13,0.18-0.07,0.48-0.03,0.62c0.16,0.12-0.21,0.24-0.03,0.36c-0.04,0.12,0.02,0.23-0.03,0.34
					c0.38,0.11,0,0.22-0.04,0.32c-0.05,0.1,0.25,0.21-0.04,0.31c0.29,0.1,0.04,0.19-0.04,0.29c-0.08,0.09,0.12,0.18-0.04,0.27
					c0.2,0.08-0.11,0.17-0.04,0.24c-0.13,0.08-0.01,0.15-0.04,0.22c0.05,0.07,0.03,0.14-0.04,0.2c-0.01,0.06-0.03,0.12-0.05,0.18
					C47.17,41.48,47.07,41.66,46.96,41.66z"/>
			</g>
		</g>
		<g id="XMLID_21202_">
			<path d="M39.86,61.22c0.11,0.01,0.18,0.35,0.22,0.96c0.01,0.1,0.01,0.21,0.02,0.33c0.02,0.12,0.04,0.24,0.01,0.37
				c-0.15,0.12,0.24,0.29,0.01,0.42c-0.07,0.14-0.03,0.3,0,0.46c0.04,0.16-0.12,0.31,0,0.5c0.26,0.19-0.33,0.32-0.01,0.53
				c0.06,0.19,0.02,0.38-0.01,0.57c-0.22,0.18-0.04,0.4-0.02,0.61c-0.27,0.19-0.18,0.41-0.02,0.64c-0.36,0.19-0.33,0.42-0.03,0.67
				c-0.01,0.23-0.16,0.45-0.03,0.7c0,0.24,0.05,0.49-0.04,0.73c0.21,0.27,0.18,0.52-0.04,0.75c0.22,0.28,0.11,0.53-0.04,0.78
				c-0.16,0.25,0.17,0.55-0.05,0.81c-0.04,0.27,0.01,0.55-0.05,0.83c-0.12,0.27-0.26,0.54-0.06,0.85c0.04,0.29,0.09,0.59-0.06,0.87
				c0.24,0.31,0.1,0.6-0.07,0.88c0.02,0.3-0.19,0.58-0.07,0.9c-0.07,0.3,0.06,0.62-0.08,0.91c-0.11,0.3-0.21,0.6-0.08,0.91
				c0.14,0.32-0.12,0.6-0.08,0.9c-0.27,0.28,0.03,0.6-0.08,0.88c0,0.29-0.19,0.57-0.08,0.86c0.02,0.29,0.04,0.58-0.09,0.85
				c0.35,0.31-0.14,0.55-0.09,0.82c-0.18,0.26-0.02,0.54-0.09,0.8c0.05,0.27-0.22,0.51-0.09,0.78c-0.05,0.25,0.08,0.52-0.09,0.75
				c0.17,0.26-0.2,0.48-0.09,0.72c-0.02,0.24-0.03,0.47-0.09,0.7c-0.31,0.2-0.09,0.45-0.09,0.67c-0.05,0.21,0.13,0.44-0.09,0.63
				c-0.04,0.21-0.19,0.4-0.09,0.6c0.03,0.2-0.46,0.35-0.08,0.56c0.05,0.19-0.33,0.33-0.08,0.53c0.23,0.19-0.06,0.33-0.08,0.49
				c-0.03,0.16-0.06,0.31-0.08,0.45c-0.24,1.29-0.45,2.02-0.61,2.01c-0.18-0.01-0.26-0.95-0.27-2.54c0-0.16-0.19-0.34,0-0.5
				c0.02-0.17-0.13-0.36,0.01-0.53c-0.26-0.21-0.02-0.38,0.01-0.57c0-0.2,0.11-0.39,0.02-0.61c-0.14-0.22,0.11-0.41,0.02-0.64
				c0.19-0.2,0.16-0.43,0.03-0.67c0.18-0.21,0-0.46,0.03-0.7c0.27-0.22,0.11-0.47,0.04-0.73c-0.07-0.25,0.08-0.49,0.04-0.76
				c0.07-0.25-0.02-0.52,0.04-0.78c-0.1-0.27-0.12-0.55,0.05-0.8c-0.06-0.28,0.03-0.55,0.05-0.83c-0.08-0.29,0.06-0.56,0.06-0.85
				c-0.03-0.29,0.32-0.55,0.06-0.87c-0.01-0.29,0.09-0.58,0.07-0.88c0.06-0.29,0.12-0.59,0.07-0.9c0.3-0.28,0.16-0.6,0.07-0.91
				c-0.05-0.31,0.01-0.61,0.08-0.91c0-0.3,0.04-0.6,0.08-0.9c-0.06-0.3,0.17-0.58,0.08-0.88c-0.09-0.3,0.17-0.57,0.08-0.86
				c-0.06-0.29-0.08-0.58,0.08-0.85c0.02-0.28,0.3-0.53,0.09-0.82c-0.03-0.28-0.32-0.57,0.09-0.8c-0.07-0.27,0.23-0.51,0.09-0.78
				c0.3-0.23,0.06-0.51,0.09-0.75c0.08-0.24,0.19-0.48,0.09-0.73c-0.12-0.25,0.11-0.46,0.09-0.69c-0.14-0.24,0.25-0.43,0.09-0.67
				c0.05-0.21,0.01-0.43,0.09-0.63c-0.36-0.24,0.04-0.41,0.09-0.6c0.07-0.19-0.22-0.41,0.08-0.56c-0.27-0.21-0.01-0.36,0.08-0.53
				c0.1-0.16-0.09-0.35,0.08-0.49c-0.19-0.18,0.14-0.3,0.08-0.45c0.15-0.13,0.03-0.28,0.08-0.41c-0.04-0.13-0.01-0.26,0.08-0.37
				c0.03-0.11,0.05-0.22,0.07-0.32C39.63,61.53,39.76,61.21,39.86,61.22z"/>
		</g>
		<g id="XMLID_21201_">
			<path d="M49.59,61.22c0.11,0,0.21,0.33,0.3,0.94c0.01,0.1,0.03,0.21,0.05,0.33c0.03,0.12,0.06,0.24,0.04,0.37
				c-0.14,0.13,0.26,0.27,0.04,0.41c-0.06,0.14,0,0.3,0.04,0.45c0.05,0.16-0.09,0.32,0.04,0.49c0.27,0.17-0.3,0.35,0.04,0.53
				c0.07,0.18,0.05,0.37,0.04,0.57c-0.21,0.19,0,0.4,0.04,0.6c-0.25,0.21-0.14,0.42,0.03,0.64c-0.34,0.22-0.29,0.44,0.03,0.67
				c0.01,0.23-0.12,0.46,0.03,0.7c0.02,0.24,0.09,0.48,0.03,0.73c0.23,0.25,0.22,0.5,0.03,0.75c0.25,0.25,0.15,0.51,0.02,0.78
				c-0.14,0.26,0.22,0.53,0.02,0.8c-0.01,0.27,0.06,0.55,0.02,0.82c-0.1,0.28-0.21,0.56,0.01,0.85c0.06,0.29,0.14,0.57,0.01,0.86
				c0.26,0.29,0.15,0.59,0.01,0.88c0.04,0.3-0.14,0.6,0.01,0.9c-0.04,0.3,0.12,0.61,0,0.91c-0.08,0.31-0.15,0.61,0,0.91
				c0.17,0.3-0.07,0.6,0,0.9c-0.25,0.3,0.08,0.59-0.01,0.88c0.02,0.29-0.14,0.58-0.01,0.86c0.05,0.29,0.09,0.57-0.01,0.85
				c0.38,0.28-0.1,0.55-0.01,0.82c-0.16,0.27,0.03,0.54-0.02,0.8c0.07,0.26-0.17,0.52-0.02,0.78c-0.03,0.26,0.12,0.51-0.02,0.75
				c0.19,0.25-0.16,0.49-0.03,0.73c0,0.24,0.01,0.47-0.03,0.7c-0.29,0.23-0.05,0.45-0.03,0.67c-0.03,0.22,0.17,0.43-0.03,0.64
				c-0.02,0.21-0.15,0.41-0.03,0.6c0.04,0.2-0.43,0.39-0.04,0.57c0.07,0.18-0.3,0.36-0.04,0.53c0.24,0.17-0.03,0.34-0.04,0.49
				c-0.01,0.16-0.03,0.31-0.04,0.46c-0.13,1.3-0.27,2.05-0.43,2.05c-0.18,0-0.34-0.92-0.48-2.5c-0.01-0.16-0.22-0.32-0.04-0.49
				c0-0.17-0.16-0.35-0.04-0.53c-0.27-0.18-0.05-0.37-0.04-0.57c-0.01-0.2,0.08-0.4-0.04-0.6c-0.16-0.21,0.08-0.42-0.03-0.64
				c0.17-0.22,0.12-0.44-0.03-0.67c0.17-0.23-0.04-0.46-0.03-0.7c0.25-0.24,0.08-0.48-0.03-0.73c-0.09-0.25,0.04-0.5-0.03-0.75
				c0.05-0.26-0.06-0.52-0.02-0.78c-0.12-0.26-0.16-0.53-0.02-0.8c-0.08-0.27-0.02-0.55-0.02-0.83c-0.1-0.28,0.01-0.56-0.01-0.85
				c-0.05-0.29,0.27-0.57-0.01-0.86c-0.04-0.29,0.04-0.59-0.01-0.88c0.04-0.3,0.07-0.6-0.01-0.9c0.28-0.3,0.11-0.61,0-0.91
				c-0.08-0.31-0.04-0.61,0-0.91c-0.03-0.3-0.01-0.6,0-0.9c-0.08-0.3,0.12-0.59,0.01-0.88c-0.12-0.29,0.13-0.58,0.01-0.86
				c-0.08-0.29-0.12-0.57,0.01-0.85c0-0.28,0.25-0.55,0.01-0.83c-0.05-0.27-0.37-0.54,0.02-0.8c-0.1-0.26,0.18-0.52,0.02-0.78
				c0.28-0.26,0.01-0.51,0.02-0.75c0.05-0.25,0.15-0.49,0.02-0.73c-0.13-0.24,0.07-0.47,0.03-0.7c-0.16-0.23,0.21-0.45,0.03-0.67
				c0.04-0.22-0.03-0.43,0.03-0.64c-0.38-0.2,0-0.41,0.03-0.6c0.05-0.19-0.25-0.38,0.04-0.57c-0.29-0.18-0.04-0.36,0.04-0.53
				c0.08-0.17-0.12-0.33,0.04-0.49c-0.2-0.16,0.11-0.31,0.04-0.45c0.13-0.15,0.01-0.28,0.04-0.41c-0.05-0.13-0.03-0.25,0.04-0.37
				c0.02-0.12,0.03-0.22,0.05-0.33C49.38,61.55,49.48,61.22,49.59,61.22z"/>
		</g>
		<g id="XMLID_21200_">
			<path d="M60.7,61.22c0.11-0.01,0.22,0.32,0.34,0.92c0.02,0.1,0.04,0.21,0.06,0.32c0.03,0.11,0.07,0.24,0.06,0.37
				c-0.13,0.14,0.27,0.26,0.06,0.41c-0.06,0.15,0.01,0.3,0.06,0.45c0.05,0.16-0.08,0.33,0.06,0.49c0.28,0.16-0.29,0.36,0.06,0.53
				c0.08,0.18,0.07,0.37,0.06,0.57c-0.2,0.2,0.01,0.4,0.06,0.6c-0.24,0.22-0.12,0.42,0.06,0.64c-0.33,0.23-0.27,0.45,0.06,0.67
				c0.02,0.23-0.1,0.47,0.06,0.7c0.03,0.24,0.11,0.48,0.06,0.73c0.24,0.24,0.24,0.49,0.06,0.75c0.26,0.24,0.17,0.51,0.06,0.78
				c-0.12,0.27,0.24,0.52,0.06,0.8c0,0.27,0.08,0.54,0.05,0.83c-0.09,0.28-0.19,0.57,0.05,0.85c0.07,0.28,0.17,0.57,0.05,0.86
				c0.28,0.28,0.17,0.58,0.05,0.88c0.06,0.3-0.12,0.6,0.05,0.9c-0.03,0.3,0.14,0.6,0.04,0.91c-0.07,0.31-0.13,0.62,0.04,0.91
				c0.18,0.29-0.04,0.6,0.04,0.9c-0.23,0.31,0.11,0.59,0.03,0.88c0.04,0.29-0.12,0.59,0.03,0.86c0.06,0.28,0.12,0.56,0.02,0.85
				c0.39,0.26-0.07,0.56,0.02,0.83c-0.15,0.28,0.05,0.54,0.02,0.8c0.08,0.26-0.15,0.53,0.01,0.78c-0.02,0.26,0.15,0.5,0.01,0.75
				c0.2,0.24-0.14,0.5,0.01,0.73c0.01,0.24,0.03,0.47,0,0.7c-0.28,0.24-0.03,0.45,0,0.67c-0.02,0.22,0.19,0.42,0,0.64
				c-0.01,0.21-0.14,0.42-0.01,0.6c0.05,0.19-0.41,0.4-0.01,0.57c0.08,0.18-0.29,0.37-0.01,0.53c0.25,0.16-0.02,0.34-0.02,0.5
				c-0.01,0.16-0.01,0.31-0.02,0.46c-0.07,1.31-0.18,2.06-0.34,2.07c-0.18,0.01-0.38-0.91-0.59-2.48c-0.02-0.16-0.24-0.31-0.06-0.49
				c-0.01-0.17-0.17-0.34-0.06-0.53c-0.28-0.17-0.07-0.37-0.06-0.57c-0.02-0.19,0.06-0.4-0.06-0.6c-0.17-0.2,0.06-0.42-0.06-0.63
				c0.16-0.23,0.1-0.45-0.06-0.67c0.15-0.24-0.05-0.46-0.06-0.7c0.24-0.25,0.05-0.48-0.06-0.73c-0.1-0.24,0.02-0.5-0.06-0.75
				c0.04-0.26-0.09-0.51-0.06-0.78c-0.13-0.26-0.19-0.52-0.05-0.8c-0.09-0.27-0.04-0.54-0.05-0.82c-0.11-0.27-0.01-0.56-0.05-0.85
				c-0.07-0.28,0.24-0.58-0.05-0.86c-0.05-0.29,0.02-0.59-0.05-0.88c0.02-0.3,0.04-0.6-0.05-0.9c0.26-0.31,0.08-0.61-0.04-0.91
				c-0.09-0.3-0.07-0.61-0.04-0.91c-0.04-0.3-0.04-0.6-0.04-0.9c-0.09-0.29,0.09-0.6-0.03-0.88c-0.13-0.29,0.1-0.59-0.03-0.87
				c-0.09-0.28-0.15-0.56-0.02-0.85c-0.01-0.28,0.23-0.57-0.02-0.83c-0.07-0.27-0.39-0.52-0.02-0.8c-0.11-0.26,0.16-0.53-0.01-0.78
				c0.27-0.27-0.01-0.51-0.01-0.75c0.04-0.25,0.13-0.5-0.01-0.73c-0.15-0.23,0.05-0.47,0-0.7c-0.17-0.22,0.19-0.46,0-0.67
				c0.03-0.22-0.04-0.43,0-0.64c-0.39-0.19-0.02-0.41,0.01-0.6c0.04-0.2-0.27-0.37,0.01-0.57c-0.29-0.17-0.05-0.36,0.01-0.53
				c0.07-0.17-0.14-0.33,0.02-0.49c-0.21-0.15,0.1-0.31,0.02-0.46c0.13-0.15,0-0.28,0.02-0.42c-0.05-0.13-0.04-0.25,0.03-0.37
				c0.01-0.12,0.02-0.23,0.03-0.33C60.51,61.56,60.59,61.23,60.7,61.22z"/>
		</g>
		<g id="XMLID_21199_">
			<path d="M50.07,34.11c0,0.11-0.32,0.18-0.8,0.42c-0.08,0.04-0.16,0.09-0.25,0.14c-0.08,0.06-0.16,0.13-0.26,0.18
				c-0.08-0.03-0.1,0.05-0.12,0.13c-0.02,0.08-0.04,0.15-0.15,0.09c-0.14,0.02-0.2,0.15-0.26,0.27c-0.05,0.12-0.25,0.13-0.24,0.32
				c0.07,0.14-0.03,0.14-0.12,0.17c-0.09,0.02-0.19,0.06-0.07,0.21c0,0.16-0.08,0.28-0.14,0.42c-0.25,0.09-0.09,0.31-0.07,0.46
				c-0.13,0.06-0.18,0.15-0.16,0.24c0.01,0.08,0.09,0.19,0.17,0.29c-0.34,0.21-0.29,0.42,0.03,0.64c0.01,0.22-0.12,0.44,0.03,0.67
				c0.02,0.23,0.09,0.46,0.03,0.7c0.23,0.24,0.22,0.48,0.02,0.72c0.25,0.24,0.15,0.49,0.02,0.75c-0.14,0.25,0.22,0.51,0.02,0.77
				c0,0.03,0,0.07,0,0.1c0,0.03,0,0.05,0,0.08c0,0.05,0.01,0.1,0.02,0.14c0.02,0.1,0.04,0.19,0.04,0.29
				c-0.06,0.21-0.08,0.48,0.22,0.55c0.15,0.15,0.32,0.25,0.36,0.49c0.33-0.03,0.37,0.16,0.48,0.39c0.1,0.04,0.17,0.12,0.26,0.18
				c0.09,0.06,0.19,0.11,0.31,0.07c0.09,0.05,0.21,0.04,0.31,0.04c0.11-0.01,0.21-0.01,0.31,0.05c0.21,0.08,0.46,0.12,0.63-0.09
				c0.08-0.11,0.17-0.13,0.28-0.14c0.11-0.01,0.22-0.03,0.29-0.11c0.15,0.05,0.24-0.04,0.29-0.13c0.06-0.1,0.09-0.21,0.19-0.26
				c0.06-0.08,0.15-0.14,0.23-0.21c0.08-0.07,0.14-0.16,0.13-0.28c0.05-0.2,0.07-0.39,0.22-0.55c-0.33-0.26,0.15-0.34,0.07-0.61
				c0.16-0.26-0.02-0.52,0.02-0.77c-0.07-0.25,0.17-0.5,0.02-0.75c0.03-0.24-0.12-0.49,0.02-0.72c-0.19-0.24,0.16-0.47,0.03-0.7
				c0-0.23-0.01-0.45,0.03-0.67c0.29-0.22,0.05-0.43,0.03-0.64c0.02-0.1-0.03-0.22-0.05-0.29c-0.02-0.08-0.03-0.15,0.06-0.24
				c0-0.16,0.09-0.35-0.07-0.46c-0.04-0.06,0.03-0.17,0.06-0.27c0.03-0.1,0.01-0.18-0.2-0.15c-0.07-0.05-0.04-0.15-0.03-0.23
				c0-0.09-0.02-0.17-0.17-0.14c-0.14,0.02-0.17-0.03-0.19-0.11c-0.01-0.07-0.01-0.17-0.05-0.22c-0.08-0.1-0.17-0.19-0.26-0.27
				c-0.4-0.37-0.81-0.56-1.11-0.69C50.25,34.26,50.07,34.2,50.07,34.11c0-0.08,0.23-0.19,0.68-0.19c0.45,0.01,1.14,0.16,1.83,0.73
				c0.13,0.11,0.42,0.12,0.4,0.38c0.11,0.15,0.36,0.24,0.35,0.48c0.17,0.03,0.23,0.12,0.25,0.24c0.02,0.11,0,0.24,0.03,0.34
				c0.08,0.21,0.05,0.45,0.19,0.67c0.09,0.11,0.09,0.24,0.06,0.36c-0.02,0.13-0.06,0.22,0,0.33c-0.17,0.21-0.12,0.42,0.03,0.64
				c-0.17,0.22,0.04,0.44,0.03,0.67c-0.25,0.23-0.08,0.46,0.03,0.7c0.09,0.24-0.04,0.48,0.02,0.72c-0.05,0.25,0.07,0.49,0.02,0.75
				c0.12,0.25,0.16,0.51,0.02,0.77c0.01,0.03,0.02,0.07,0.02,0.1c0,0.03,0.01,0.08,0.01,0.12c0,0.08,0,0.17-0.01,0.25
				c-0.02,0.17-0.06,0.33-0.1,0.5c0.02,0.36-0.21,0.66-0.34,0.97c-0.06,0.17-0.21,0.28-0.34,0.4c-0.13,0.12-0.24,0.24-0.26,0.47
				c-0.22,0.29-0.55,0.46-0.82,0.69c-0.33,0.16-0.67,0.28-1,0.46c-0.22-0.08-0.39-0.07-0.57-0.02c-0.17,0.05-0.35,0.13-0.54,0.18
				c-0.38,0.08-0.77-0.02-1.11-0.16c-0.37-0.08-0.7-0.25-1-0.46c-0.18-0.06-0.31-0.19-0.43-0.33c-0.12-0.14-0.23-0.27-0.39-0.36
				c-0.16-0.09-0.25-0.25-0.33-0.42c-0.08-0.16-0.13-0.32-0.27-0.45c-0.23-0.27-0.4-0.61-0.34-0.97c-0.04-0.17,0-0.34,0.02-0.51
				c0.01-0.08,0.01-0.16,0-0.24c-0.01-0.04-0.02-0.09-0.03-0.12c-0.02-0.03-0.04-0.06-0.07-0.1c-0.05-0.26-0.37-0.52,0.02-0.77
				c-0.1-0.25,0.19-0.5,0.02-0.75c0.28-0.25,0.02-0.49,0.02-0.72c0.05-0.24,0.15-0.47,0.03-0.7c-0.13-0.23,0.07-0.45,0.03-0.67
				c-0.16-0.22,0.21-0.43,0.03-0.64c0.04-0.19-0.03-0.46,0.06-0.69c-0.17-0.14-0.15-0.27-0.07-0.38c0.08-0.11,0.21-0.19,0.26-0.29
				c0.06-0.1,0.04-0.22,0.05-0.34c0.01-0.11,0.06-0.22,0.23-0.24c-0.08-0.16-0.03-0.26,0.06-0.33c0.09-0.07,0.21-0.1,0.3-0.15
				c0.18-0.1,0.15-0.37,0.4-0.38c-0.01-0.13,0.08-0.18,0.17-0.19c0.09-0.02,0.19-0.02,0.24-0.1c0.2,0.02,0.26-0.17,0.4-0.21
				c0.1-0.11,0.24-0.15,0.38-0.13c0.12-0.03,0.23-0.06,0.34-0.07c0.32-0.05,0.57-0.02,0.73,0.01
				C49.99,34.01,50.07,34.06,50.07,34.11z"/>
		</g>
		<g id="XMLID_21198_">
			<path d="M60.74,19.07c-0.11,0-0.21-0.13-0.3-0.37c-0.02-0.04-0.03-0.08-0.05-0.13c-0.03-0.04-0.06-0.09-0.04-0.15
				c0.14-0.05-0.26-0.11-0.04-0.16c0.06-0.06,0-0.12-0.04-0.18c-0.05-0.06,0.09-0.13-0.04-0.19c-0.27-0.07,0.3-0.14-0.04-0.21
				c-0.07-0.07-0.05-0.15-0.04-0.22c0.21-0.08,0-0.16-0.04-0.24c0.25-0.08,0.14-0.17-0.03-0.25c0.34-0.09,0.29-0.17-0.03-0.26
				c-0.01-0.09,0.12-0.18-0.03-0.27C60,16.33,59.94,16.24,60,16.14c-0.23-0.1-0.22-0.2-0.02-0.3c-0.25-0.1-0.15-0.2-0.02-0.31
				c0.14-0.1-0.22-0.21-0.02-0.32c0.02-0.11-0.06-0.22-0.02-0.33c0.1-0.11,0.22-0.22-0.01-0.33c-0.06-0.11-0.14-0.23-0.01-0.34
				c-0.26-0.11-0.15-0.23-0.01-0.35c-0.05-0.12,0.14-0.24,0-0.35c0.04-0.12-0.12-0.24,0-0.36c0.08-0.12,0.16-0.24,0-0.36
				c-0.17-0.12,0.07-0.24,0-0.35c0.25-0.12-0.08-0.23,0.01-0.35c-0.02-0.12,0.14-0.23,0.01-0.34c-0.04-0.11-0.09-0.22,0.01-0.33
				c-0.38-0.11,0.1-0.22,0.02-0.33c0.16-0.11-0.02-0.21,0.02-0.32c-0.07-0.1,0.17-0.21,0.02-0.31c0.03-0.1-0.12-0.2,0.02-0.3
				c-0.19-0.1,0.16-0.19,0.03-0.29c0-0.09-0.01-0.18,0.03-0.27c0.3-0.09,0.05-0.18,0.03-0.26c0.03-0.09-0.17-0.17,0.03-0.25
				c0.02-0.08,0.15-0.16,0.04-0.24c-0.04-0.08,0.43-0.15,0.04-0.22c-0.07-0.07,0.3-0.14,0.04-0.21c-0.24-0.07,0.03-0.13,0.04-0.2
				c0.01-0.06,0.03-0.12,0.04-0.18c0.13-0.51,0.28-0.81,0.44-0.81c0.18,0,0.34,0.36,0.48,0.98c0.01,0.06,0.22,0.13,0.04,0.2
				c0,0.07,0.16,0.14,0.04,0.21c0.28,0.07,0.05,0.15,0.04,0.22c0.01,0.08-0.07,0.16,0.03,0.24c0.16,0.08-0.08,0.17,0.03,0.25
				c-0.17,0.09-0.12,0.17,0.03,0.26c-0.16,0.09,0.04,0.18,0.03,0.27c-0.25,0.09-0.08,0.19,0.03,0.29c0.09,0.1-0.04,0.2,0.02,0.3
				c-0.05,0.1,0.06,0.2,0.02,0.31c0.12,0.1,0.16,0.21,0.02,0.32c0.08,0.11,0.02,0.21,0.02,0.33c0.1,0.11-0.01,0.22,0.01,0.33
				c0.05,0.11-0.27,0.23,0.01,0.34c0.04,0.11-0.04,0.23,0.01,0.35c-0.04,0.12-0.07,0.24,0,0.35c-0.28,0.12-0.11,0.24,0,0.36
				c0.08,0.12,0.04,0.24,0,0.36c0.03,0.12,0.01,0.24,0,0.35c0.08,0.12-0.12,0.23-0.01,0.35c0.12,0.12-0.13,0.23-0.01,0.34
				c0.08,0.11,0.12,0.22-0.01,0.33c0,0.11-0.25,0.22-0.02,0.33c0.05,0.11,0.37,0.21-0.02,0.32c0.09,0.1-0.19,0.21-0.02,0.31
				c-0.28,0.1-0.02,0.2-0.02,0.3c-0.05,0.1-0.15,0.19-0.03,0.29c0.13,0.09-0.07,0.19-0.03,0.27c0.16,0.09-0.21,0.18-0.03,0.26
				c-0.04,0.09,0.03,0.17-0.03,0.25c0.38,0.08,0,0.16-0.03,0.24c-0.05,0.08,0.25,0.15-0.04,0.22c0.29,0.07,0.04,0.14-0.04,0.21
				c-0.08,0.07,0.12,0.13-0.04,0.19c0.2,0.06-0.11,0.12-0.04,0.18c-0.13,0.06-0.01,0.11-0.04,0.16c0.04,0.05,0.03,0.1-0.05,0.15
				c-0.01,0.05-0.03,0.09-0.05,0.13C60.95,18.93,60.85,19.07,60.74,19.07z"/>
		</g>
		<g id="XMLID_21197_">
			<path d="M39.4,7.64c0.11,0,0.21,0.13,0.3,0.37c0.02,0.04,0.03,0.08,0.05,0.13c0.03,0.05,0.06,0.09,0.04,0.15
				c-0.14,0.05,0.26,0.11,0.04,0.16c-0.06,0.06,0,0.12,0.04,0.18c0.05,0.06-0.09,0.13,0.04,0.2c0.27,0.07-0.3,0.14,0.04,0.21
				c0.07,0.07,0.05,0.15,0.04,0.23c-0.21,0.08,0,0.16,0.04,0.24c-0.25,0.08-0.14,0.17,0.03,0.25c-0.34,0.09-0.29,0.17,0.03,0.26
				c0.01,0.09-0.12,0.18,0.03,0.28c0.02,0.09,0.09,0.19,0.03,0.29c0.23,0.1,0.22,0.2,0.02,0.3c0.25,0.1,0.15,0.2,0.02,0.31
				c-0.14,0.11,0.22,0.21,0.02,0.32c-0.02,0.11,0.05,0.22,0.02,0.33c-0.1,0.11-0.21,0.22,0.01,0.33c0.06,0.11,0.14,0.23,0.01,0.34
				c0.26,0.12,0.15,0.23,0.01,0.35c0.04,0.12-0.14,0.24,0,0.35c-0.04,0.12,0.12,0.24,0,0.36c-0.08,0.12-0.15,0.24,0,0.36
				c0.17,0.12-0.07,0.24,0,0.35c-0.25,0.12,0.08,0.23-0.01,0.35c0.02,0.11-0.14,0.23-0.01,0.34c0.05,0.11,0.09,0.22-0.01,0.33
				c0.38,0.11-0.1,0.22-0.02,0.33c-0.16,0.11,0.02,0.21-0.02,0.32c0.07,0.1-0.17,0.21-0.02,0.31c-0.03,0.1,0.12,0.2-0.02,0.3
				c0.19,0.1-0.16,0.19-0.03,0.29c0,0.09,0.01,0.19-0.03,0.28c-0.29,0.09-0.05,0.18-0.03,0.26c-0.03,0.09,0.17,0.17-0.03,0.25
				c-0.02,0.08-0.15,0.16-0.04,0.24c0.04,0.08-0.43,0.15-0.04,0.22c0.07,0.07-0.3,0.14-0.04,0.21c0.24,0.07-0.03,0.13-0.04,0.2
				c-0.01,0.06-0.03,0.12-0.04,0.18c-0.13,0.51-0.28,0.81-0.44,0.81c-0.18,0-0.34-0.36-0.48-0.99c-0.01-0.06-0.22-0.13-0.04-0.2
				c0-0.07-0.16-0.14-0.04-0.21c-0.27-0.07-0.05-0.15-0.04-0.22c-0.01-0.08,0.08-0.16-0.03-0.24c-0.16-0.08,0.08-0.17-0.03-0.25
				c0.17-0.08,0.12-0.17-0.03-0.26c0.17-0.09-0.04-0.18-0.03-0.28c0.25-0.09,0.08-0.19-0.03-0.29c-0.09-0.1,0.04-0.2-0.02-0.3
				c0.05-0.1-0.07-0.2-0.02-0.31c-0.12-0.1-0.16-0.21-0.02-0.32c-0.08-0.11-0.02-0.22-0.02-0.33c-0.1-0.11,0.01-0.22-0.01-0.33
				c-0.05-0.11,0.27-0.23-0.01-0.34c-0.04-0.11,0.04-0.23-0.01-0.35c0.04-0.12,0.07-0.24-0.01-0.35c0.28-0.12,0.11-0.24,0-0.36
				c-0.08-0.12-0.04-0.24,0-0.36c-0.03-0.12-0.01-0.24,0.01-0.35c-0.08-0.12,0.12-0.23,0.01-0.35c-0.12-0.11,0.13-0.23,0.01-0.34
				c-0.08-0.11-0.12-0.22,0.01-0.33c0-0.11,0.25-0.22,0.02-0.33c-0.05-0.11-0.37-0.21,0.02-0.32c-0.1-0.1,0.19-0.21,0.02-0.31
				c0.28-0.1,0.01-0.2,0.02-0.3c0.06-0.1,0.15-0.19,0.03-0.29c-0.13-0.09,0.07-0.19,0.03-0.28c-0.16-0.09,0.21-0.18,0.03-0.26
				c0.04-0.09-0.02-0.17,0.03-0.25c-0.38-0.08,0-0.16,0.03-0.24c0.06-0.08-0.25-0.15,0.04-0.23c-0.29-0.07-0.04-0.14,0.04-0.21
				c0.08-0.07-0.12-0.13,0.04-0.2c-0.2-0.06,0.11-0.12,0.04-0.18c0.13-0.06,0.01-0.11,0.04-0.16c-0.05-0.05-0.03-0.1,0.04-0.15
				c0.02-0.05,0.03-0.09,0.05-0.13C39.19,7.77,39.29,7.64,39.4,7.64z"/>
		</g>
	</g>
</g>
</svg>
